<svg width="27" height="28" viewBox="0 0 27 28" fill="none" xmlns="http://www.w3.org/2000/svg">
<g clip-path="url(#clip0_2_105)">
<path d="M22.8572 5.55359C21.1359 4.77734 19.2909 4.20359 17.3615 3.87734C17.3444 3.87404 17.3266 3.87617 17.3106 3.88343C17.2947 3.89068 17.2815 3.90271 17.2727 3.91784C17.0364 4.33297 16.7732 4.87409 16.5887 5.30159C14.5424 4.99586 12.4621 4.99586 10.4158 5.30159C10.2103 4.82781 9.97856 4.36584 9.72167 3.91784C9.71296 3.90252 9.69979 3.89022 9.68391 3.88259C9.66803 3.87495 9.6502 3.87233 9.63279 3.87509C7.70454 4.20134 5.85954 4.77509 4.13717 5.55247C4.12235 5.55868 4.10979 5.56928 4.10117 5.58284C0.600166 10.7297 -0.359459 15.7495 0.111916 20.7062C0.113227 20.7184 0.116996 20.7301 0.122991 20.7407C0.128987 20.7514 0.137084 20.7607 0.146791 20.7681C2.19023 22.2558 4.46942 23.3891 6.88892 24.1206C6.90578 24.1258 6.92382 24.1258 6.94068 24.1206C6.95754 24.1153 6.97243 24.1052 6.98342 24.0913C7.50317 23.3938 7.96667 22.657 8.36267 21.883C8.38629 21.838 8.36379 21.784 8.31654 21.766C7.5898 21.4923 6.88564 21.162 6.21054 20.7782C6.19841 20.7713 6.18819 20.7615 6.18079 20.7496C6.1734 20.7378 6.16906 20.7243 6.16817 20.7103C6.16727 20.6964 6.16986 20.6824 6.17568 20.6698C6.18151 20.6571 6.19039 20.646 6.20154 20.6376C6.34329 20.533 6.48504 20.4238 6.62004 20.3147C6.63219 20.3049 6.64683 20.2987 6.66232 20.2967C6.67782 20.2947 6.69356 20.297 6.70779 20.3035C11.1257 22.288 15.9103 22.288 20.2764 20.3035C20.2907 20.2967 20.3066 20.294 20.3223 20.2958C20.338 20.2976 20.3529 20.3037 20.3653 20.3136C20.5003 20.4238 20.6409 20.533 20.7838 20.6376C20.795 20.6458 20.8041 20.6567 20.8101 20.6693C20.8161 20.6819 20.8189 20.6958 20.8182 20.7097C20.8176 20.7236 20.8134 20.7372 20.8063 20.7492C20.7991 20.7611 20.789 20.7711 20.777 20.7782C20.1043 21.1652 19.4045 21.4926 18.6699 21.7648C18.6586 21.7689 18.6484 21.7754 18.6398 21.7838C18.6312 21.7922 18.6245 21.8023 18.6201 21.8135C18.6157 21.8246 18.6138 21.8366 18.6145 21.8486C18.6151 21.8606 18.6183 21.8723 18.6238 21.883C19.0288 22.6558 19.4923 23.3916 20.0019 24.0902C20.0125 24.1046 20.0273 24.1153 20.0442 24.1209C20.0611 24.1265 20.0793 24.1268 20.0964 24.1217C22.5201 23.3923 24.803 22.2585 26.8487 20.7681C26.8586 20.7611 26.867 20.7521 26.8732 20.7416C26.8794 20.7311 26.8833 20.7194 26.8847 20.7073C27.4472 14.9766 25.9419 9.99734 22.892 5.58509C22.8846 5.57075 22.8722 5.55958 22.8572 5.55359ZM9.02304 17.6878C7.69329 17.6878 6.59642 16.4852 6.59642 15.0103C6.59642 13.5343 7.67192 12.3328 9.02304 12.3328C10.3843 12.3328 11.471 13.5445 11.4497 15.0103C11.4497 16.4863 10.3742 17.6878 9.02304 17.6878ZM17.9949 17.6878C16.664 17.6878 15.5683 16.4852 15.5683 15.0103C15.5683 13.5343 16.6427 12.3328 17.9949 12.3328C19.3562 12.3328 20.4429 13.5445 20.4215 15.0103C20.4215 16.4863 19.3573 17.6878 17.9949 17.6878Z" fill="#757575"/>
</g>
<defs>
<clipPath id="clip0_2_105">
<rect width="27" height="27" fill="white" transform="translate(0 0.5)"/>
</clipPath>
</defs>
</svg>
