<svg width="27" height="28" viewBox="0 0 27 28" fill="none" xmlns="http://www.w3.org/2000/svg">
<path d="M26.5989 6.05403C25.6596 6.47028 24.6504 6.75153 23.5896 6.87865C24.6842 6.22367 25.5031 5.1928 25.8936 3.9784C24.8651 4.58927 23.7396 5.01925 22.5658 5.24965C21.7765 4.40688 20.731 3.84827 19.5917 3.66056C18.4523 3.47285 17.2829 3.66654 16.265 4.21156C15.247 4.75658 14.4374 5.62244 13.962 6.6747C13.4865 7.72695 13.3718 8.90675 13.6356 10.0309C11.5517 9.92627 9.51314 9.38465 7.65216 8.44117C5.79119 7.4977 4.14938 6.17346 2.83331 4.5544C2.38331 5.33065 2.12456 6.23065 2.12456 7.18915C2.12406 8.05202 2.33655 8.90168 2.74318 9.66273C3.1498 10.4238 3.73799 11.0727 4.45556 11.5519C3.62337 11.5254 2.80954 11.3006 2.08181 10.896V10.9635C2.08173 12.1737 2.50035 13.3467 3.26664 14.2834C4.03294 15.2201 5.09971 15.8628 6.28594 16.1025C5.51394 16.3115 4.70457 16.3422 3.91894 16.1925C4.25362 17.2338 4.90556 18.1444 5.78347 18.7968C6.66139 19.4492 7.72134 19.8107 8.81494 19.8308C6.9585 21.2881 4.66581 22.0786 2.30569 22.0752C1.88762 22.0753 1.4699 22.0509 1.05469 22.002C3.45035 23.5424 6.23907 24.3598 9.08719 24.3567C18.7284 24.3567 23.9991 16.3714 23.9991 9.4459C23.9991 9.2209 23.9934 8.99365 23.9833 8.76865C25.0085 8.02725 25.8935 7.10916 26.5967 6.0574L26.5989 6.05403Z" fill="#757575"/>
</svg>
