<svg width="27" height="28" viewBox="0 0 27 28" fill="none" xmlns="http://www.w3.org/2000/svg">
<path d="M13.5 10.485C11.5647 10.485 9.98526 12.0644 9.98526 13.9997C9.98526 15.9351 11.5647 17.5145 13.5 17.5145C15.4354 17.5145 17.0148 15.9351 17.0148 13.9997C17.0148 12.0644 15.4354 10.485 13.5 10.485ZM24.0416 13.9997C24.0416 12.5442 24.0548 11.102 23.9731 9.64912C23.8913 7.96162 23.5064 6.46397 22.2724 5.22998C21.0358 3.99336 19.5407 3.61104 17.8532 3.5293C16.3978 3.44756 14.9555 3.46075 13.5026 3.46075C12.0472 3.46075 10.6049 3.44756 9.15206 3.5293C7.46456 3.61104 5.9669 3.996 4.73291 5.22998C3.49629 6.4666 3.11397 7.96162 3.03223 9.64912C2.95049 11.1046 2.96367 12.5469 2.96367 13.9997C2.96367 15.4525 2.95049 16.8975 3.03223 18.3503C3.11397 20.0378 3.49893 21.5354 4.73291 22.7694C5.96954 24.0061 7.46456 24.3884 9.15206 24.4701C10.6075 24.5519 12.0498 24.5387 13.5026 24.5387C14.9581 24.5387 16.4004 24.5519 17.8532 24.4701C19.5407 24.3884 21.0384 24.0034 22.2724 22.7694C23.509 21.5328 23.8913 20.0378 23.9731 18.3503C24.0574 16.8975 24.0416 15.4552 24.0416 13.9997ZM13.5 19.4076C10.5073 19.4076 8.09209 16.9924 8.09209 13.9997C8.09209 11.007 10.5073 8.5918 13.5 8.5918C16.4927 8.5918 18.9079 11.007 18.9079 13.9997C18.9079 16.9924 16.4927 19.4076 13.5 19.4076ZM19.1294 9.6333C18.4307 9.6333 17.8664 9.06904 17.8664 8.37031C17.8664 7.67158 18.4307 7.10733 19.1294 7.10733C19.8281 7.10733 20.3924 7.67158 20.3924 8.37031C20.3926 8.53623 20.3601 8.70056 20.2967 8.85388C20.2333 9.00721 20.1403 9.14652 20.0229 9.26385C19.9056 9.38117 19.7663 9.47419 19.613 9.53759C19.4597 9.60098 19.2953 9.63351 19.1294 9.6333Z" fill="#757575"/>
</svg>
