<svg width="40" height="40" viewBox="0 0 40 40" fill="none" xmlns="http://www.w3.org/2000/svg">
<path d="M34.5822 20.0001L36.4222 16.8201C36.6434 16.4375 36.7035 15.9828 36.5894 15.5559C36.4753 15.1289 36.1964 14.7648 35.8139 14.5435L32.6305 12.7035V9.0368C32.6305 8.59478 32.455 8.17085 32.1424 7.85829C31.8298 7.54573 31.4059 7.37014 30.9639 7.37014H27.2989L25.4605 4.18847C25.2385 3.80666 24.8751 3.52765 24.4489 3.4118C24.2375 3.3545 24.0168 3.33972 23.7997 3.36833C23.5825 3.39694 23.3732 3.46837 23.1839 3.57847L20.0005 5.41847L16.8172 3.5768C16.4344 3.3558 15.9795 3.29591 15.5525 3.4103C15.1256 3.5247 14.7616 3.80402 14.5405 4.1868L12.7005 7.37014H9.03555C8.59352 7.37014 8.1696 7.54573 7.85704 7.85829C7.54448 8.17085 7.36888 8.59478 7.36888 9.0368V12.7018L4.18555 14.5418C3.9956 14.6511 3.82911 14.7968 3.69565 14.9706C3.56219 15.1444 3.46439 15.3428 3.40786 15.5545C3.35133 15.7662 3.33719 15.987 3.36626 16.2042C3.39532 16.4214 3.46701 16.6307 3.57721 16.8201L5.41721 20.0001L3.57721 23.1801C3.35719 23.5631 3.2975 24.0175 3.41114 24.4443C3.52479 24.8711 3.80255 25.2356 4.18388 25.4585L7.36721 27.2985V30.9635C7.36721 31.4055 7.54281 31.8294 7.85537 32.142C8.16793 32.4545 8.59185 32.6301 9.03388 32.6301H12.7005L14.5405 35.8135C14.6881 36.0657 14.8988 36.2752 15.1518 36.4213C15.4049 36.5674 15.6917 36.6451 15.9839 36.6468C16.2739 36.6468 16.5622 36.5701 16.8189 36.4218L19.9989 34.5818L23.1822 36.4218C23.5649 36.6425 24.0195 36.7024 24.4463 36.5883C24.8731 36.4743 25.2373 36.1956 25.4589 35.8135L27.2972 32.6301H30.9622C31.4042 32.6301 31.8282 32.4545 32.1407 32.142C32.4533 31.8294 32.6289 31.4055 32.6289 30.9635V27.2985L35.8122 25.4585C36.0018 25.3489 36.168 25.203 36.3012 25.0292C36.4344 24.8554 36.5321 24.657 36.5886 24.4454C36.6451 24.2338 36.6593 24.0131 36.6305 23.796C36.6016 23.5789 36.5303 23.3697 36.4205 23.1801L34.5822 20.0001ZM15.8322 11.6501C16.4955 11.6504 17.1315 11.9141 17.6003 12.3832C18.0692 12.8524 18.3324 13.4885 18.3322 14.1518C18.332 14.8151 18.0683 15.4511 17.5991 15.9199C17.13 16.3888 16.4938 16.652 15.8305 16.6518C15.1673 16.6516 14.5313 16.3879 14.0624 15.9187C13.5936 15.4496 13.3303 14.8134 13.3305 14.1501C13.3308 13.4869 13.5945 12.8509 14.0636 12.382C14.5328 11.9132 15.169 11.6499 15.8322 11.6501ZM16.3322 27.6501L13.6655 25.6518L23.6655 12.3185L26.3322 14.3168L16.3322 27.6501ZM24.1655 28.3168C23.8371 28.3167 23.512 28.2519 23.2086 28.1261C22.9052 28.0003 22.6296 27.816 22.3974 27.5837C22.1653 27.3514 21.9812 27.0757 21.8556 26.7722C21.73 26.4688 21.6654 26.1436 21.6655 25.8151C21.6657 25.4867 21.7304 25.1615 21.8562 24.8582C21.982 24.5548 22.1663 24.2792 22.3986 24.047C22.6309 23.8149 22.9067 23.6308 23.2101 23.5052C23.5136 23.3796 23.8388 23.315 24.1672 23.3151C24.8305 23.3154 25.4665 23.5791 25.9353 24.0482C26.4042 24.5174 26.6674 25.1535 26.6672 25.8168C26.667 26.4801 26.4033 27.1161 25.9341 27.5849C25.465 28.0538 24.8288 28.317 24.1655 28.3168Z" fill="black"/>
</svg>
