<svg width="50" height="52" viewBox="0 0 50 52" fill="none" xmlns="http://www.w3.org/2000/svg">
<g clip-path="url(#clip0_2_335)">
<path d="M45.4167 36.625V33.4375C45.2539 31.9757 44.5693 30.6262 43.4934 29.6464C42.4175 28.6666 41.0257 28.125 39.5833 28.125C38.141 28.125 36.7491 28.6666 35.6733 29.6464C34.5974 30.6262 33.9128 31.9757 33.75 33.4375V36.625C33.1014 36.6697 32.4907 36.9528 32.031 37.4216C31.5714 37.8905 31.2939 38.5134 31.25 39.175V46.6125C31.2528 47.3084 31.511 47.9779 31.9737 48.4892C32.4365 49.0006 33.0702 49.3166 33.75 49.375H45.2083C45.8905 49.3721 46.547 49.1088 47.0483 48.6368C47.5496 48.1648 47.8594 47.5184 47.9167 46.825V39.3875C47.9139 38.6916 47.6557 38.0221 47.1929 37.5108C46.7302 36.9994 46.0965 36.6834 45.4167 36.625ZM36.4583 33.4375C36.4778 33.044 36.575 32.6585 36.7443 32.3043C36.9135 31.9501 37.1513 31.6345 37.4432 31.3764C37.7351 31.1183 38.0752 30.9232 38.443 30.8026C38.8108 30.6821 39.1987 30.6387 39.5833 30.675C39.968 30.6387 40.3559 30.6821 40.7237 30.8026C41.0915 30.9232 41.4315 31.1183 41.7235 31.3764C42.0154 31.6345 42.2531 31.9501 42.4224 32.3043C42.5916 32.6585 42.6889 33.044 42.7083 33.4375V36.625H36.4583V33.4375Z" fill="black"/>
<path d="M50 23.875V4.75C50 3.62283 49.561 2.54183 48.7796 1.7448C47.9982 0.947767 46.9384 0.5 45.8333 0.5L4.16667 0.5C3.0616 0.5 2.00179 0.947767 1.22039 1.7448C0.438987 2.54183 0 3.62283 0 4.75L0 43C0 44.1272 0.438987 45.2082 1.22039 46.0052C2.00179 46.8022 3.0616 47.25 4.16667 47.25H27.0833V43H4.16667V4.75H45.8333V23.875" fill="black"/>
<path d="M12.5007 9H8.33398V13.25H12.5007V9Z" fill="black"/>
<path d="M41.666 9H16.666V13.25H41.666V9Z" fill="black"/>
<path d="M27.0827 34.5H16.666V38.75H27.0827V34.5Z" fill="black"/>
<path d="M12.5007 34.5H8.33398V38.75H12.5007V34.5Z" fill="black"/>
<path d="M20.8327 17.5H16.666V21.75H20.8327V17.5Z" fill="black"/>
<path d="M41.6667 17.5H25V21.75H41.6667V17.5Z" fill="black"/>
<path d="M30.85 26H25V30.25H29.5833V29.1875C29.6053 28.0019 30.0565 26.8666 30.85 26Z" fill="black"/>
<path d="M20.8327 26H16.666V30.25H20.8327V26Z" fill="black"/>
</g>
<defs>
<clipPath id="clip0_2_335">
<rect width="50" height="51" fill="white" transform="translate(0 0.5)"/>
</clipPath>
</defs>
</svg>
