<svg width="50" height="52" viewBox="0 0 50 52" fill="none" xmlns="http://www.w3.org/2000/svg">
<path d="M25 26C27.4864 26 29.871 24.9925 31.6291 23.1992C33.3873 21.4059 34.375 18.9736 34.375 16.4375C34.375 13.9014 33.3873 11.4691 31.6291 9.67579C29.871 7.88247 27.4864 6.875 25 6.875C22.5136 6.875 20.129 7.88247 18.3709 9.67579C16.6127 11.4691 15.625 13.9014 15.625 16.4375C15.625 18.9736 16.6127 21.4059 18.3709 23.1992C20.129 24.9925 22.5136 26 25 26ZM25 29.1875C21.6848 29.1875 18.5054 27.8442 16.1612 25.4531C13.817 23.062 12.5 19.819 12.5 16.4375C12.5 13.056 13.817 9.81298 16.1612 7.42189C18.5054 5.0308 21.6848 3.6875 25 3.6875C28.3152 3.6875 31.4946 5.0308 33.8388 7.42189C36.183 9.81298 37.5 13.056 37.5 16.4375C37.5 19.819 36.183 23.062 33.8388 25.4531C31.4946 27.8442 28.3152 29.1875 25 29.1875Z" fill="black"/>
<path d="M25 26C25.4144 26 25.8118 26.1679 26.1049 26.4668C26.3979 26.7657 26.5625 27.1711 26.5625 27.5938V40.3438C26.5625 40.7664 26.3979 41.1718 26.1049 41.4707C25.8118 41.7696 25.4144 41.9375 25 41.9375C24.5856 41.9375 24.1882 41.7696 23.8951 41.4707C23.6021 41.1718 23.4375 40.7664 23.4375 40.3438V27.5938C23.4375 27.1711 23.6021 26.7657 23.8951 26.4668C24.1882 26.1679 24.5856 26 25 26Z" fill="black"/>
<path d="M18.75 32.8271V36.0625C13.1719 36.9741 9.375 38.944 9.375 40.3433C9.375 42.2207 16.2063 45.1245 25 45.1245C33.7937 45.1245 40.625 42.2207 40.625 40.3433C40.625 38.9408 36.8281 36.9741 31.25 36.0625V32.8271C38.5312 33.9205 43.75 36.8753 43.75 40.3433C43.75 44.742 35.3562 48.312 25 48.312C14.6438 48.312 6.25 44.742 6.25 40.3433C6.25 36.8721 11.4688 33.9205 18.75 32.8271Z" fill="black"/>
</svg>
