<svg width="53" height="53" viewBox="0 0 53 53" fill="none" xmlns="http://www.w3.org/2000/svg">
<path d="M14.1387 5.21582C13.564 5.21582 13.0129 5.44409 12.6066 5.85042C12.2003 6.25675 11.972 6.80785 11.972 7.38249V7.62515C9.81813 8.11687 7.89498 9.3252 6.51734 11.0524C5.13971 12.7795 4.3892 14.9232 4.38867 17.1325V17.9645C4.38848 19.9691 4.95779 21.9325 6.03031 23.626C7.10282 25.3196 8.6344 26.6736 10.4467 27.5303L11.972 28.2497V41.553C11.0061 41.1314 10.1842 40.4373 9.60693 39.5556C9.02966 38.6739 8.72213 37.643 8.72201 36.5892V34.7583C8.72201 34.1837 8.49373 33.6326 8.0874 33.2263C7.68108 32.8199 7.12997 32.5917 6.55534 32.5917C5.9807 32.5917 5.4296 32.8199 5.02327 33.2263C4.61695 33.6326 4.38867 34.1837 4.38867 34.7583V36.5892C4.38871 38.7988 5.13899 40.943 6.51667 42.6706C7.89434 44.3982 9.81777 45.6069 11.972 46.0987V46.3673C11.972 46.942 12.2003 47.4931 12.6066 47.8994C13.0129 48.3057 13.564 48.534 14.1387 48.534C14.7133 48.534 15.2644 48.3057 15.6707 47.8994C16.0771 47.4931 16.3053 46.942 16.3053 46.3673V46.0987C18.4596 45.6069 20.383 44.3982 21.7607 42.6706C23.1384 40.943 23.8886 38.7988 23.8887 36.5892V35.7832C23.889 33.7819 23.3208 31.8216 22.2502 30.1308C21.1797 28.4399 19.6507 27.088 17.8415 26.2325L16.3053 25.5067V12.1665C17.2716 12.5882 18.0937 13.2827 18.671 14.1648C19.2483 15.0469 19.5556 16.0783 19.5553 17.1325V19.0067C19.5553 19.5813 19.7836 20.1324 20.1899 20.5387C20.5963 20.945 21.1474 21.1733 21.722 21.1733C22.2966 21.1733 22.8477 20.945 23.2541 20.5387C23.6604 20.1324 23.8887 19.5813 23.8887 19.0067V17.1325C23.8881 14.9232 23.1376 12.7795 21.76 11.0524C20.3824 9.3252 18.4592 8.11687 16.3053 7.62515V7.38249C16.3053 6.80785 16.0771 6.25675 15.6707 5.85042C15.2644 5.44409 14.7133 5.21582 14.1387 5.21582ZM8.72201 17.1325C8.72171 16.0783 9.02905 15.0469 9.60634 14.1648C10.1836 13.2827 11.0058 12.5882 11.972 12.1665V23.4462C10.9883 22.9081 10.1675 22.1152 9.59569 21.1508C9.02387 20.1863 8.72209 19.0857 8.72201 17.9645V17.1325ZM16.3053 41.553V30.3102C18.2987 31.3957 19.5553 33.4908 19.5553 35.781V36.587C19.5556 37.6412 19.2483 38.6726 18.671 39.5547C18.0937 40.4368 17.2716 41.1313 16.3053 41.553ZM32.5553 26.8825C32.5553 26.1632 32.5878 25.459 32.6485 24.77H34.722C35.2966 24.77 35.8477 24.5417 36.2541 24.1354C36.6604 23.7291 36.8887 23.178 36.8887 22.6033C36.8887 22.0287 36.6604 21.4776 36.2541 21.0713C35.8477 20.6649 35.2966 20.4367 34.722 20.4367H33.4718C33.9464 18.8051 34.6613 17.2534 35.593 15.8325C37.4347 13.0852 39.7443 11.7158 42.0107 11.7158C42.8297 11.7158 43.7115 11.9693 44.3225 12.3875C44.5571 12.5524 44.8221 12.6691 45.1021 12.7308C45.3822 12.7926 45.6717 12.7981 45.9539 12.7471C46.2361 12.6961 46.5053 12.5896 46.7461 12.4338C46.9868 12.2779 47.1942 12.0758 47.3562 11.8392C47.5182 11.6026 47.6317 11.3362 47.69 11.0555C47.7483 10.7747 47.7503 10.4851 47.6958 10.2036C47.6414 9.92203 47.5316 9.6541 47.3728 9.4153C47.214 9.17651 47.0094 8.97161 46.7708 8.81249C45.3473 7.83749 43.5837 7.38249 42.0107 7.38249C37.8572 7.38249 34.3558 9.89365 31.9942 13.4188C30.653 15.4187 29.6238 17.8063 28.9825 20.4367H26.0553C25.4807 20.4367 24.9296 20.6649 24.5233 21.0713C24.1169 21.4776 23.8887 22.0287 23.8887 22.6033C23.8887 23.178 24.1169 23.7291 24.5233 24.1354C24.9296 24.5417 25.4807 24.77 26.0553 24.77H28.3C28.248 25.4633 28.222 26.1697 28.222 26.8825V26.941H26.0553C25.4807 26.941 24.9296 27.1693 24.5233 27.5756C24.1169 27.9819 23.8887 28.533 23.8887 29.1077C23.8887 29.6823 24.1169 30.2334 24.5233 30.6397C24.9296 31.046 25.4807 31.2743 26.0553 31.2743H28.5687C29.1212 34.715 30.3107 37.8393 31.992 40.3462C34.358 43.8692 37.8593 46.3825 42.0107 46.3825C43.5208 46.3825 45.3365 46.0055 46.825 44.9308C47.2908 44.5941 47.6037 44.0861 47.6949 43.5187C47.7861 42.9512 47.6482 42.3708 47.3114 41.9051C46.9747 41.4393 46.4667 41.1264 45.8993 41.0352C45.3319 40.944 44.7514 41.0819 44.2857 41.4187C43.7353 41.8152 42.8903 42.0492 42.0107 42.0492C39.7443 42.0492 37.4347 40.6798 35.593 37.9325C34.3948 36.1472 33.4697 33.8678 32.967 31.27H34.722C35.2966 31.27 35.8477 31.0417 36.2541 30.6354C36.6604 30.2291 36.8887 29.678 36.8887 29.1033C36.8887 28.5287 36.6604 27.9776 36.2541 27.5713C35.8477 27.1649 35.2966 26.9367 34.722 26.9367H32.5553V26.8825Z" fill="black"/>
</svg>
