<svg width="995" height="159" viewBox="0 0 995 159" fill="none" xmlns="http://www.w3.org/2000/svg">
<path d="M0.128906 112.666L11.6338 107.61L33.0702 132.391L31.0687 99.0699L38.9337 95.6138L63.7669 121.771L60.8386 85.988L67.3386 83.1317L71.7585 136.251L64.3485 139.507L38.5906 112.128L41.3387 149.618L35.4887 152.189L0.128906 112.666Z" fill="black"/>
<path d="M80.4355 78.3672L123.561 62.5466L125.077 66.6792L93.283 78.3429L98.9559 93.8069L127.084 83.488L128.6 87.6207L100.472 97.9395L107.367 116.736L139.162 105.073L140.678 109.205L97.5521 125.026L80.4355 78.3672Z" fill="black"/>
<path d="M138.014 57.709L161.981 50.3824C166.01 49.1509 169.709 48.54 173.077 48.5496C176.491 48.5454 179.321 49.1405 181.567 50.3347C183.813 51.529 185.274 53.2351 185.952 55.4531C186.727 57.9879 186.408 60.5851 184.993 63.2447C183.565 65.859 181.261 68.1968 178.08 70.2581C187.924 68.7832 193.835 71.2822 195.814 77.7551C197.087 81.9194 196.191 85.7075 193.126 89.1192C190.06 92.5309 185.065 95.2952 178.14 97.4123L152.542 105.237L138.014 57.709ZM165.82 71.9268C169.532 70.7922 172.148 69.151 173.67 67.0032C175.236 64.8415 175.57 62.2896 174.67 59.3474C173.923 56.9031 172.36 55.3516 169.981 54.693C167.588 53.9892 164.581 54.1907 160.96 55.2977L150.843 58.3902L155.907 74.9571L165.82 71.9268ZM177.532 92.9951C180.565 92.068 182.66 90.5859 183.82 88.5488C184.979 86.5117 185.095 83.9767 184.168 80.944C183.254 77.9565 181.295 76.0807 178.29 75.3166C175.316 74.4933 171.453 74.8081 166.7 76.261L157.194 79.1668L162.798 97.499L177.532 92.9951Z" fill="black"/>
<path d="M233.923 82.7744C229.374 83.8961 225.211 84.3131 221.435 84.0253C217.694 83.6802 214.597 82.6886 212.146 81.0505C209.683 79.3664 208.101 77.0998 207.398 74.2505L216.635 71.973C217.589 75.2479 219.459 77.4926 222.244 78.707C225.076 79.9101 228.606 79.9905 232.834 78.9481C236.648 78.0076 239.265 76.4606 240.684 74.307C242.091 72.1075 242.353 69.2154 241.47 65.6308C240.586 62.0462 239.067 59.7395 236.912 58.7108C234.745 57.6362 231.502 57.6314 227.182 58.6964C223 59.7275 219.443 61.0189 216.511 62.5706L215.168 57.1248C217.419 56.9599 220.382 56.4243 224.059 55.5178C227.873 54.5774 230.599 53.0767 232.236 51.0156C233.907 48.8973 234.375 46.3445 233.638 43.3574C232.256 37.7507 228.302 35.7518 221.776 37.3607C217.916 38.3125 215 40.0307 213.029 42.5155C211.092 44.9429 210.446 47.7591 211.09 50.9641L201.853 53.2415C201.184 50.5301 201.549 47.8565 202.946 45.2206C204.344 42.5848 206.619 40.2446 209.771 38.1999C212.912 36.1093 216.596 34.5428 220.824 33.5004C224.914 32.492 228.727 32.137 232.262 32.4355C235.831 32.6767 238.79 33.5072 241.139 34.9268C243.488 36.3465 244.945 38.2052 245.512 40.503C246.067 42.7549 245.681 45.0439 244.353 47.37C243.025 49.696 240.86 51.7898 237.858 53.6513C242.221 53.5507 245.708 54.2508 248.321 55.7517C250.933 57.2525 252.619 59.5425 253.378 62.6216C254.092 65.5168 253.779 68.2997 252.438 70.9701C251.087 73.5946 248.812 75.9349 245.614 77.9908C242.462 80.0355 238.565 81.63 233.923 82.7744Z" fill="black"/>
<path d="M287.436 19.5645L331.551 12.1817L332.278 16.5232L300.066 21.9138L302.785 38.1596L330.375 33.5424L331.101 37.884L303.512 42.5011L307.543 66.5897L295.639 68.5819L287.436 19.5645Z" fill="black"/>
<path d="M378.439 57.2771C372.557 57.9171 367.365 57.4583 362.863 55.9009C358.361 54.3434 354.75 51.7844 352.029 48.2238C349.351 44.6111 347.72 40.1226 347.136 34.7584C346.563 29.4882 347.201 24.8481 349.05 20.838C350.946 16.8227 353.927 13.594 357.994 11.1518C362.056 8.66255 367.028 7.09794 372.91 6.45797C378.744 5.82312 383.913 6.28442 388.415 7.84188C392.912 9.35228 396.495 11.8668 399.163 15.3854C401.878 18.8989 403.523 23.2908 404.096 28.5609C404.68 33.9251 404.028 38.6619 402.143 42.7713C400.299 46.8285 397.346 50.1017 393.284 52.5909C389.269 55.0751 384.321 56.6371 378.439 57.2771ZM377.963 52.901C383.28 52.3225 387.13 50.0706 389.512 46.1453C391.894 42.22 392.708 36.7988 391.956 29.8818C391.219 23.1059 389.27 18.1044 386.11 14.8774C382.944 11.6033 378.703 10.2555 373.386 10.8341C368.069 11.4126 364.193 13.6435 361.759 17.5269C359.367 21.3581 358.539 26.6616 359.276 33.4375C360.029 40.3545 361.99 45.4736 365.161 48.7948C368.331 52.1159 372.599 53.4846 377.963 52.901Z" fill="black"/>
<path d="M462.534 39.4567C464.017 42.6059 465.227 45.034 466.165 46.741C467.15 48.4458 468.019 49.2558 468.773 49.1711L468.822 50.1638L457.051 50.7463C456.106 49.8453 455.219 48.6807 454.39 47.2526C453.608 45.8222 452.761 44.0159 451.847 41.8338C450.511 38.7722 449.279 36.3925 448.153 34.6948C447.026 32.9971 445.619 31.8583 443.932 31.2783L442.868 31.3309L432.373 31.8503L433.366 51.9184L421.382 52.5114L418.926 2.87305L441.405 1.76068C448.827 1.3934 454.602 2.22128 458.73 4.24434C462.906 6.26507 465.126 9.94644 465.39 15.2885C465.748 22.5215 462.074 27.2765 454.367 29.5535C456.024 30.4667 457.484 31.7214 458.747 33.3175C460.056 34.864 461.318 36.9104 462.534 39.4567ZM432.156 27.4537L442.721 26.9309C446.314 26.7531 449.044 25.8835 450.909 24.3221C452.822 22.7583 453.678 19.9436 453.477 15.878C453.281 11.9069 452.155 9.2614 450.099 7.94141C448.088 6.57182 445.286 5.97592 441.693 6.15371L431.127 6.67656L432.156 27.4537Z" fill="black"/>
<path d="M508.752 0.222656L554.67 1.50726L554.547 5.90745L520.694 4.96039L520.233 21.4256L550.183 22.2635L550.06 26.6637L520.11 25.8258L519.55 45.8396L553.403 46.7867L553.28 51.1869L507.362 49.9023L508.752 0.222656Z" fill="black"/>
<path d="M564.957 1.94531L577.763 3.0159L592.652 42.2349L614.766 6.10938L622.691 6.77184L593.445 54.9118L585.662 54.2612L564.957 1.94531Z" fill="black"/>
<path d="M636.363 8.49805L681.857 14.8555L681.248 19.2151L647.708 14.528L645.428 30.8412L675.101 34.9878L674.492 39.3474L644.819 35.2008L642.048 55.0297L675.588 59.7168L674.979 64.0763L629.485 57.7188L636.363 8.49805Z" fill="black"/>
<path d="M730.398 63.3771C731.084 66.7896 731.677 69.4368 732.179 71.3187C732.727 73.2095 733.377 74.2041 734.13 74.3024L733.94 75.278L722.371 73.0258C721.669 71.9247 721.087 70.5817 720.624 68.9967C720.207 67.4208 719.817 65.4641 719.452 63.1267C718.888 59.8342 718.262 57.2289 717.574 55.3109C716.887 53.3929 715.793 51.9504 714.294 50.9833L713.248 50.7798L702.934 48.7718L699.095 68.4941L687.317 66.2011L696.814 17.418L718.906 21.719C726.2 23.1391 731.61 25.3254 735.134 28.2779C738.704 31.2394 739.978 35.3452 738.956 40.5951C737.572 47.7036 732.866 51.4407 724.839 51.8067C726.228 53.0899 727.346 54.6576 728.19 56.5098C729.091 58.3246 729.827 60.6137 730.398 63.3771ZM703.775 44.451L714.159 46.4726C717.69 47.16 720.548 46.969 722.734 45.8996C724.965 44.8393 726.47 42.3113 727.248 38.3157C728.008 34.4131 727.548 31.5749 725.868 29.8012C724.243 27.9901 721.666 26.7408 718.135 26.0534L707.751 24.0317L703.775 44.451Z" fill="black"/>
<path d="M766.562 60.5385L753.014 28.5723L765.613 31.7454L776.126 55.9919L797.972 39.8951L806.165 41.9586L778.509 62.5224L772.89 84.8294L761.186 81.8816L766.562 60.5385Z" fill="black"/>
<path d="M830.337 102.026C824.696 100.242 820.128 97.7315 816.635 94.4926C813.141 91.2538 810.866 87.457 809.811 83.1023C808.814 78.7168 809.129 73.9516 810.755 68.8066C812.353 63.7518 814.806 59.7616 818.113 56.8358C821.466 53.9244 825.495 52.1699 830.201 51.5726C834.922 50.9301 840.103 51.5005 845.744 53.2837C851.34 55.0527 855.885 57.5566 859.379 60.7954C862.887 63.9891 865.153 67.7336 866.178 72.0289C867.248 76.3384 866.985 81.0206 865.387 86.0753C863.761 91.2203 861.257 95.2936 857.876 98.2954C854.554 101.266 850.533 103.073 845.812 103.715C841.137 104.372 835.979 103.809 830.337 102.026ZM831.664 97.8285C836.764 99.4405 841.194 98.9298 844.955 96.2964C848.717 93.6629 851.646 89.029 853.743 82.3947C855.797 75.8958 856.028 70.5331 854.435 66.3065C852.857 62.0348 849.517 59.093 844.417 57.481C839.318 55.8689 834.872 56.3499 831.08 58.924C827.347 61.4672 824.453 65.9882 822.399 72.4871C820.302 79.1215 820.036 84.597 821.6 88.9138C823.164 93.2306 826.519 96.2022 831.664 97.8285Z" fill="black"/>
<path d="M889.428 68.5195L900.492 72.7804L912.144 113.254L924.212 81.9146L934.813 85.9969L916.953 132.376L909.4 129.467L896.201 82.5402L882.169 118.981L871.568 114.899L889.428 68.5195Z" fill="black"/>
<path d="M952.545 93.4707L994.422 112.349L992.613 116.362L961.739 102.444L954.97 117.46L982.284 129.774L980.475 133.787L953.161 121.473L944.932 139.726L975.806 153.644L973.997 157.657L932.12 138.779L952.545 93.4707Z" fill="black"/>
</svg>
