<svg width="248" height="71" viewBox="0 0 248 71" fill="none" xmlns="http://www.w3.org/2000/svg">
<path d="M10.4727 49.1654L6.97202 53.045L18.2137 63.1888L16.8135 64.7407L5.57174 54.5968L2.07107 58.4764L0.681641 57.2227L9.08327 47.9117L10.4727 49.1654Z" fill="black"/>
<path d="M24.232 57.0001L12.8105 44.3906L20.8086 37.1462L22.0649 38.5332L15.6341 44.3581L19.2237 48.3211L25.2222 42.8878L26.4623 44.2568L20.4637 49.6902L24.5428 54.1936L31.2799 48.0912L32.5363 49.4783L24.232 57.0001Z" fill="black"/>
<path d="M33.9861 48.3815L28.5255 31.0761L30.4265 29.6816L45.3132 40.0721L43.4515 41.4378L39.6736 38.7533L34.3236 42.678L35.7499 47.0876L33.9861 48.3815ZM33.6413 41.0082L38.3054 37.5867L30.6542 32.0466L33.6413 41.0082Z" fill="black"/>
<path d="M47.4545 38.8292L39.0684 24.0264L40.9293 22.9721L50.003 27.9437L50.3819 17.617L52.1794 16.5987L60.5655 31.4015L58.8949 32.3479L52.0902 20.3365L51.6655 29.9908L50.7774 30.494L42.3323 25.8925L49.1251 37.8827L47.4545 38.8292Z" fill="black"/>
<path d="M68.8373 19.0407C68.1275 17.006 67.8215 15.2679 67.9194 13.8266C68.0325 12.38 68.5258 11.1869 69.3993 10.2472C70.2674 9.29228 71.4817 8.54264 73.0422 7.99828C73.4859 7.84352 73.9043 7.71472 74.2975 7.6119C74.7006 7.48844 75.0784 7.39096 75.431 7.31944C75.7989 7.2426 76.1645 7.18371 76.5277 7.1428C76.891 7.10189 77.2672 7.0736 77.6565 7.05795L77.8187 8.77748C77.3377 8.82515 76.8773 8.88279 76.4375 8.95039C75.9978 9.01799 75.5584 9.1112 75.1193 9.23003C74.6956 9.34353 74.2542 9.48033 73.7953 9.64043C72.9232 9.94463 72.1933 10.3365 71.6056 10.8161C71.0277 11.2751 70.6104 11.8497 70.3535 12.5399C70.0913 13.2149 70.0002 14.036 70.0803 15.0034C70.155 15.9555 70.4138 17.0665 70.8568 18.3363C71.2624 19.499 71.7137 20.4484 72.2107 21.1845C72.7024 21.9054 73.2555 22.4332 73.8699 22.768C74.4844 23.1028 75.1529 23.2729 75.8755 23.2782C76.5981 23.2835 77.3801 23.1395 78.2216 22.8459C78.9406 22.5951 79.6793 22.2774 80.4375 21.8928C81.1956 21.5082 81.8613 21.1043 82.4345 20.6813L83.362 22.1596C83.0475 22.3895 82.715 22.617 82.3646 22.8422C82.0088 23.0521 81.6274 23.2624 81.2204 23.473C80.8133 23.6836 80.3857 23.8843 79.9374 24.075C79.4891 24.2657 79.0125 24.4491 78.5076 24.6252C77.4061 25.0095 76.379 25.2133 75.4261 25.2368C74.468 25.245 73.5839 25.0472 72.7737 24.6434C71.9736 24.2189 71.2444 23.5552 70.5862 22.6522C69.9379 21.7285 69.355 20.5247 68.8373 19.0407Z" fill="black"/>
<path d="M92.7157 18.9808C93.2529 18.8589 93.7601 18.6775 94.2371 18.4364C94.7141 18.1954 95.1319 17.8764 95.4905 17.4794C95.849 17.0824 96.1272 16.5874 96.325 15.9942C96.5229 15.4011 96.6191 14.6898 96.6138 13.8603C96.6243 13.0272 96.5041 12.0576 96.2533 10.9514C96.0025 9.84531 95.6928 8.91868 95.324 8.17158C94.9675 7.40508 94.572 6.79693 94.1378 6.34712C93.7035 5.89731 93.239 5.57065 92.7443 5.36715C92.2496 5.16364 91.735 5.05601 91.2007 5.04424C90.6664 5.03247 90.1306 5.08749 89.5933 5.20931C89.056 5.33112 88.5489 5.51256 88.0719 5.75362C87.6107 5.9911 87.2008 6.30833 86.8422 6.7053C86.4836 7.10227 86.2072 7.60522 86.013 8.21414C85.8152 8.80727 85.7111 9.52037 85.7006 10.3535C85.7059 11.183 85.8357 12.1587 86.0901 13.2806C86.3373 14.371 86.6356 15.2836 86.985 16.0185C87.3502 16.7498 87.7517 17.3483 88.1895 17.8139C88.6238 18.2637 89.0901 18.5982 89.5884 18.8175C90.0831 19.021 90.5898 19.1305 91.1083 19.1458C91.6426 19.1576 92.1784 19.1026 92.7157 18.9808ZM93.0919 20.64C92.286 20.8227 91.5078 20.9077 90.7573 20.8952C90.0068 20.8826 89.2883 20.7547 88.6018 20.5116C87.9118 20.2527 87.28 19.8477 86.7064 19.2965C86.1293 18.7296 85.6129 17.991 85.1574 17.0808C84.7018 16.1706 84.3235 15.0519 84.0226 13.7245C83.7216 12.3971 83.5725 11.2264 83.5752 10.2123C83.5937 9.19465 83.7428 8.31351 84.0225 7.5689C84.2987 6.80848 84.6844 6.16446 85.1795 5.63685C85.6904 5.10566 86.2835 4.68044 86.9587 4.36119C87.6462 4.02257 88.4008 3.7601 89.2225 3.5738C90.0442 3.3875 90.8382 3.29885 91.6045 3.30787C92.3672 3.30108 93.0857 3.42893 93.76 3.69142C94.4464 3.93453 95.0764 4.33165 95.65 4.8828C96.2235 5.43395 96.7381 6.16461 97.1937 7.0748C97.6492 7.98498 98.0275 9.10375 98.3284 10.4311C98.633 11.7743 98.7778 12.9626 98.7629 13.9961C98.7638 15.026 98.6183 15.9229 98.3263 16.6869C98.0465 17.4315 97.6512 18.0694 97.1403 18.6006C96.6416 19.1124 96.0485 19.5376 95.361 19.8763C94.6858 20.1955 93.9294 20.4501 93.0919 20.64Z" fill="black"/>
<path d="M103.434 18.4453L101.635 1.4541L103.592 1.24682L113.986 14.0041L112.543 0.372487L114.404 0.175442L116.198 17.1183L114.24 17.3256L103.883 4.68657L105.319 18.2457L103.434 18.4453Z" fill="black"/>
<path d="M131.048 1.98355L125.823 1.97102L125.787 17.1127L123.696 17.1077L123.733 1.96601L118.507 1.95348L118.512 0.0820312L131.053 0.112097L131.048 1.98355Z" fill="black"/>
<path d="M147.481 19.1128C147.078 19.0682 146.677 18.9422 146.276 18.7348C145.889 18.5453 145.497 18.2574 145.1 17.871C144.703 17.4847 144.3 16.9999 143.892 16.4167C143.499 15.8354 143.088 15.1377 142.656 14.3237C142.225 13.5097 141.782 12.5723 141.329 11.5114C141.15 11.5079 140.94 11.4927 140.698 11.466C140.457 11.4392 140.256 11.4169 140.095 11.3991C139.644 11.3492 139.168 11.2966 138.669 11.2413C138.17 11.186 137.68 11.1236 137.198 11.054L136.468 17.6488L134.366 17.4161L136.244 0.457905C136.958 0.488054 137.614 0.528066 138.212 0.577943C138.811 0.611714 139.377 0.649971 139.911 0.692713C140.444 0.735456 140.984 0.787143 141.532 0.847774C142.772 0.985084 143.817 1.19046 144.667 1.46391C145.519 1.72125 146.197 2.0735 146.702 2.52064C147.207 2.96778 147.552 3.52771 147.739 4.20043C147.927 4.85704 147.97 5.64433 147.868 6.5623C147.758 7.56078 147.511 8.38934 147.128 9.04795C146.764 9.69225 146.268 10.1917 145.642 10.5462C145.018 10.8846 144.283 11.113 143.439 11.2314C143.895 12.2601 144.336 13.1403 144.76 13.872C145.185 14.6037 145.583 15.202 145.955 15.6671C146.329 16.1161 146.674 16.464 146.989 16.7108C147.322 16.9433 147.633 17.0756 147.923 17.1077C147.955 17.1113 148.012 17.1175 148.092 17.1264C148.175 17.1192 148.241 17.1103 148.291 17.0995L148.117 19.1099C148.035 19.1171 147.945 19.1234 147.846 19.1288C147.748 19.1342 147.626 19.1289 147.481 19.1128ZM140.649 9.69992C141.455 9.78909 142.154 9.80135 142.748 9.73671C143.342 9.67207 143.84 9.52337 144.24 9.2906C144.659 9.04352 144.982 8.70432 145.209 8.273C145.438 7.82558 145.59 7.26368 145.665 6.58728C145.761 5.71763 145.693 5.00908 145.46 4.46163C145.243 3.91597 144.809 3.49296 144.158 3.19259C143.506 2.89223 142.585 2.67607 141.393 2.54411C141.071 2.50845 140.781 2.47635 140.523 2.44782C140.282 2.42107 140.047 2.40326 139.82 2.3944C139.593 2.38554 139.341 2.374 139.066 2.35979C138.808 2.33126 138.508 2.31437 138.167 2.30914L137.396 9.26634C137.701 9.31633 137.989 9.36453 138.261 9.41095C138.534 9.44127 138.799 9.47874 139.055 9.52338C139.329 9.5537 139.595 9.58312 139.852 9.61165C140.11 9.64018 140.376 9.66961 140.649 9.69992Z" fill="black"/>
<path d="M150.903 19.7139L154.227 3.02832L156.276 3.43658L152.953 20.1221L150.903 19.7139Z" fill="black"/>
<path d="M158.838 21.4012L163.534 5.09959C164.382 5.25948 165.13 5.4158 165.777 5.56857C166.44 5.72582 167.038 5.87292 167.572 6.00985C168.126 6.13571 168.644 6.26816 169.127 6.40721C170.497 6.80194 171.547 7.25605 172.276 7.76955C173.024 8.27197 173.501 8.87284 173.704 9.57214C173.923 10.2759 173.895 11.1027 173.622 12.0525C173.352 12.9867 172.893 13.7313 172.245 14.2862C171.616 14.8302 170.872 15.1301 170.012 15.1861L170.006 15.2094C170.982 15.7435 171.652 16.4594 172.017 17.3572C172.403 18.2438 172.438 19.2321 172.124 20.322C171.882 21.1628 171.557 21.8531 171.148 22.3931C170.74 22.933 170.233 23.318 169.627 23.5482C169.021 23.7783 168.286 23.8702 167.423 23.8238C166.575 23.7819 165.567 23.5927 164.399 23.2563C164.026 23.1486 163.67 23.0377 163.332 22.9234C163.005 22.8292 162.688 22.7295 162.381 22.6242C162.085 22.539 161.763 22.4292 161.414 22.2949C161.075 22.1807 160.701 22.0474 160.289 21.8952C159.873 21.7585 159.39 21.5938 158.838 21.4012ZM163.494 12.8782L167.885 14.1431C168.461 14.3091 168.995 14.3281 169.487 14.2001C169.979 14.0721 170.405 13.8237 170.764 13.455C171.128 13.0708 171.392 12.5906 171.558 12.0146C171.751 11.3451 171.776 10.762 171.632 10.2653C171.509 9.75762 171.186 9.32736 170.664 8.97455C170.162 8.61067 169.436 8.29192 168.486 8.0183C168.237 7.94653 168.019 7.88373 167.832 7.82991C167.645 7.77608 167.456 7.73004 167.265 7.69178C167.093 7.64244 166.912 7.59864 166.721 7.56039C166.534 7.50656 166.306 7.44931 166.037 7.38862C165.783 7.33242 165.481 7.27055 165.129 7.20301L163.494 12.8782ZM161.328 20.3984C161.77 20.5597 162.15 20.7029 162.468 20.8283C162.806 20.9425 163.106 21.0456 163.366 21.1374C163.63 21.2136 163.87 21.291 164.083 21.3693C164.301 21.4321 164.527 21.4972 164.76 21.5644C165.85 21.8784 166.743 22.0262 167.44 22.0077C168.141 21.9736 168.699 21.7634 169.114 21.377C169.529 20.9907 169.846 20.416 170.066 19.6531C170.335 18.7189 170.256 17.9119 169.828 17.2322C169.4 16.5524 168.633 16.0533 167.527 15.7348L163.043 14.443L161.328 20.3984Z" fill="black"/>
<path d="M175.644 21.2555L180.197 10.2773L182.106 11.0688L177.543 22.0694C177.319 22.6082 177.202 23.1032 177.19 23.5544C177.178 24.0056 177.254 24.4143 177.418 24.7805C177.588 25.1317 177.822 25.4566 178.119 25.7553C178.416 26.0539 178.747 26.3139 179.111 26.5352C179.497 26.7477 179.891 26.9377 180.296 27.1053C180.715 27.2792 181.131 27.4168 181.545 27.5184C181.974 27.6261 182.389 27.684 182.789 27.6921C183.195 27.6852 183.586 27.6104 183.961 27.4677C184.335 27.325 184.675 27.0976 184.98 26.7855C185.291 26.4585 185.559 26.0256 185.782 25.4867L190.345 14.4862L192.253 15.2777L187.7 26.2558C187.377 27.0341 186.993 27.6641 186.547 28.1459C186.123 28.619 185.643 28.9725 185.108 29.2065C184.578 29.4254 184.012 29.5416 183.411 29.5551C182.823 29.5747 182.212 29.5053 181.576 29.3468C180.934 29.2032 180.276 28.9918 179.603 28.7124C178.959 28.4455 178.352 28.1324 177.782 27.7731C177.221 27.435 176.732 27.0482 176.316 26.6126C175.915 26.1832 175.606 25.7039 175.387 25.1745C175.174 24.6302 175.078 24.0377 175.098 23.397C175.139 22.7476 175.321 22.0337 175.644 21.2555Z" fill="black"/>
<path d="M206.075 24.8531L201.492 22.343L194.219 35.6235L192.385 34.6195L199.659 21.339L195.076 18.8289L195.975 17.1875L206.974 23.2117L206.075 24.8531Z" fill="black"/>
<path d="M207.894 42.6024C208.345 42.9186 208.82 43.1724 209.319 43.3639C209.818 43.5553 210.335 43.6506 210.87 43.6496C211.405 43.6486 211.959 43.5221 212.531 43.2703C213.103 43.0184 213.695 42.6119 214.306 42.0508C214.93 41.499 215.567 40.7587 216.218 39.8299C216.869 38.9011 217.348 38.0492 217.654 37.2742C217.982 36.4952 218.167 35.7938 218.208 35.1699C218.25 34.5461 218.18 33.9825 217.998 33.4793C217.817 32.9761 217.551 32.5227 217.201 32.1189C216.851 31.7152 216.45 31.3552 215.999 31.039C215.548 30.7228 215.073 30.469 214.574 30.2775C214.088 30.0954 213.578 30.0048 213.043 30.0058C212.508 30.0068 211.949 30.1399 211.368 30.405C210.796 30.6569 210.197 31.0587 209.573 31.6105C208.962 32.1716 208.327 32.9232 207.666 33.8653C207.025 34.7808 206.549 35.6148 206.239 36.3672C205.943 37.129 205.769 37.8284 205.718 38.4656C205.677 39.0894 205.742 39.6596 205.914 40.176C206.096 40.6792 206.355 41.1281 206.692 41.5225C207.042 41.9262 207.443 42.2862 207.894 42.6024ZM206.917 43.9956C206.241 43.5213 205.655 43.0019 205.16 42.4375C204.665 41.873 204.278 41.2549 203.997 40.583C203.725 39.8979 203.601 39.1578 203.624 38.3627C203.656 37.5544 203.856 36.6757 204.225 35.7269C204.593 34.778 205.168 33.7463 205.949 32.6317C206.73 31.5172 207.497 30.6203 208.25 29.9412C209.016 29.2713 209.769 28.7899 210.509 28.497C211.258 28.1908 211.994 28.0439 212.717 28.0563C213.454 28.078 214.167 28.2317 214.857 28.5176C215.57 28.7994 216.271 29.1821 216.961 29.6657C217.651 30.1493 218.25 30.678 218.758 31.2517C219.276 31.8122 219.664 32.4304 219.922 33.1062C220.203 33.778 220.332 34.5115 220.309 35.3066C220.286 36.1017 220.09 36.9737 219.722 37.9226C219.354 38.8714 218.779 39.9031 217.998 41.0177C217.207 42.1455 216.424 43.051 215.649 43.7341C214.886 44.4266 214.124 44.9212 213.362 45.2181C212.622 45.511 211.884 45.6466 211.148 45.6249C210.433 45.5993 209.72 45.4455 209.007 45.1637C208.317 44.8779 207.621 44.4885 206.917 43.9956Z" fill="black"/>
<path d="M225.187 59.1689C224.885 58.8991 224.631 58.5635 224.424 58.1621C224.219 57.7836 224.067 57.3217 223.967 56.7765C223.868 56.2313 223.82 55.6028 223.826 54.891C223.844 54.19 223.913 53.3828 224.033 52.4694C224.154 51.556 224.337 50.5358 224.583 49.4087C224.439 49.3021 224.276 49.1678 224.095 49.006C223.914 48.8441 223.763 48.7092 223.642 48.6013C223.303 48.2992 222.947 47.9808 222.572 47.6463C222.197 47.3118 221.834 46.9766 221.482 46.6408L217.064 51.5904L215.486 50.1822L226.849 37.4546C227.413 37.8932 227.924 38.306 228.382 38.6932C228.851 39.0683 229.29 39.4278 229.7 39.7718C230.11 40.1159 230.52 40.4713 230.931 40.8382C231.862 41.6691 232.594 42.4424 233.128 43.1581C233.673 43.8616 234.021 44.5419 234.173 45.1989C234.325 45.8559 234.282 46.5124 234.044 47.1686C233.816 47.8126 233.395 48.4791 232.78 49.1681C232.111 49.9175 231.43 50.4495 230.736 50.7642C230.065 51.0777 229.372 51.1973 228.656 51.123C227.951 51.0367 227.22 50.797 226.464 50.4038C226.239 51.5067 226.088 52.4792 226.009 53.3214C225.931 54.1636 225.908 54.8821 225.942 55.4769C225.987 56.0596 226.066 56.5429 226.179 56.9266C226.316 57.3091 226.493 57.5974 226.71 57.7916C226.734 57.8132 226.777 57.851 226.837 57.9049C226.908 57.9468 226.967 57.9779 227.014 57.9982L225.707 59.5354C225.636 59.4935 225.559 59.4462 225.475 59.3936C225.392 59.3409 225.296 59.266 225.187 59.1689ZM225.079 47.5387C225.684 48.0783 226.247 48.4939 226.768 48.7857C227.289 49.0775 227.781 49.2447 228.242 49.2874C228.727 49.3288 229.186 49.2397 229.621 49.02C230.067 48.7881 230.517 48.4184 230.97 47.9107C231.553 47.258 231.908 46.6412 232.036 46.0602C232.176 45.4899 232.067 44.8936 231.711 44.2712C231.354 43.6487 230.729 42.9382 229.834 42.1397C229.592 41.9239 229.375 41.7297 229.181 41.557C229 41.3951 228.82 41.2447 228.64 41.1057C228.459 40.9667 228.261 40.8116 228.045 40.6402C227.852 40.4676 227.617 40.28 227.342 40.0776L222.68 45.2992C222.899 45.5163 223.106 45.7226 223.301 45.9181C223.506 46.1016 223.7 46.2857 223.883 46.4704C224.088 46.6539 224.288 46.8319 224.481 47.0046C224.674 47.1772 224.874 47.3553 225.079 47.5387Z" fill="black"/>
<path d="M246.888 58.273L245.368 59.0554C245.244 58.7737 245.088 58.4674 244.898 58.1365C244.721 57.7947 244.521 57.4517 244.297 57.1075C244.074 56.7634 243.839 56.43 243.591 56.1076C243.344 55.7851 243.101 55.4916 242.862 55.2269C242.026 54.3007 241.178 53.7237 240.318 53.4959C239.481 53.2694 238.743 53.4438 238.106 54.0191C237.817 54.2796 237.607 54.5786 237.475 54.9159C237.366 55.2545 237.328 55.6484 237.362 56.0976C237.42 56.5479 237.553 57.0825 237.762 57.7013C237.971 58.32 238.261 59.0519 238.63 59.8969C239.043 60.79 239.341 61.5911 239.522 62.3003C239.716 62.9986 239.804 63.6283 239.786 64.1896C239.792 64.752 239.674 65.2622 239.433 65.7202C239.214 66.1793 238.876 66.6152 238.419 67.0276C237.697 67.6789 236.91 68.04 236.057 68.111C235.216 68.194 234.331 67.9994 233.403 67.5273C232.487 67.0443 231.557 66.2795 230.612 65.233C230.308 64.8961 229.995 64.513 229.673 64.0834C229.351 63.6539 229.036 63.2075 228.727 62.7442C228.43 62.27 228.155 61.8085 227.903 61.3596C227.674 60.9119 227.494 60.5068 227.363 60.1445L228.899 59.3802C229.041 59.7545 229.227 60.1541 229.457 60.579C229.688 61.0038 229.941 61.4298 230.218 61.857C230.494 62.2842 230.777 62.6946 231.067 63.088C231.367 63.4935 231.658 63.8526 231.941 64.1654C232.57 64.8631 233.175 65.376 233.755 65.704C234.345 66.0441 234.899 66.1988 235.417 66.168C235.958 66.1384 236.439 65.9336 236.86 65.5537C237.161 65.2823 237.366 64.9659 237.476 64.6045C237.587 64.243 237.602 63.8251 237.524 63.3507C237.457 62.8654 237.302 62.2953 237.061 61.6405C236.83 60.9976 236.53 60.2423 236.162 59.3744C235.815 58.5306 235.556 57.7716 235.384 57.0973C235.212 56.4231 235.14 55.8114 235.168 55.2622C235.207 54.725 235.336 54.2268 235.555 53.7677C235.784 53.3205 236.121 52.8962 236.567 52.4945C237.06 52.0495 237.603 51.7447 238.197 51.5801C238.802 51.4047 239.429 51.3738 240.077 51.4874C240.725 51.6009 241.388 51.8759 242.065 52.3122C242.766 52.7497 243.452 53.3413 244.125 54.0872C244.516 54.5203 244.888 54.9925 245.24 55.5039C245.604 56.0044 245.929 56.4972 246.214 56.9822C246.522 57.4684 246.746 57.8986 246.888 58.273Z" fill="black"/>
</svg>
