<svg width="297" height="100" viewBox="0 0 297 100" fill="none" xmlns="http://www.w3.org/2000/svg">
<path d="M22.5254 90.7817L15.0324 86.1895L0.1583 86.0017L1.50379 83.451L14.1447 84.0848L7.74532 73.267L9.40741 70.9103L16.423 83.9205L23.916 88.5127L22.5254 90.7817Z" fill="black"/>
<path d="M32.7867 73.2732C33.2252 72.7258 33.5865 72.1429 33.8704 71.5245C34.1544 70.9062 34.3175 70.2571 34.3599 69.5773C34.4023 68.8975 34.2868 68.1838 34.0135 67.4362C33.7402 66.6885 33.2719 65.9037 32.6088 65.0817C31.9586 64.2435 31.07 63.373 29.943 62.4701C28.816 61.5672 27.7727 60.8899 26.8129 60.4382C25.8499 59.9575 24.9738 59.6653 24.1845 59.5616C23.3953 59.458 22.6735 59.5009 22.0194 59.6906C21.3652 59.8802 20.7674 60.181 20.2258 60.593C19.6843 61.005 19.1942 61.4847 18.7557 62.0321C18.3171 62.5795 17.9559 63.1624 17.6719 63.7808C17.4008 64.3831 17.2441 65.0241 17.2018 65.7039C17.1594 66.3836 17.2829 67.1038 17.5724 67.8643C17.8457 68.612 18.3074 69.4049 18.9577 70.243C19.6208 71.065 20.5239 71.9339 21.667 72.8497C22.7778 73.7397 23.7987 74.4122 24.7295 74.8671C25.6731 75.306 26.5476 75.5837 27.353 75.7002C28.1423 75.8039 28.872 75.7673 29.5423 75.5906C30.1965 75.401 30.7879 75.1082 31.3165 74.7123C31.8581 74.3003 32.3481 73.8206 32.7867 73.2732ZM34.4772 74.6276C33.8193 75.4486 33.1116 76.1505 32.3541 76.7331C31.5966 77.3157 30.7795 77.7581 29.903 78.0604C29.0104 78.3497 28.0599 78.4473 27.0515 78.3531C26.0271 78.2461 24.927 77.9199 23.7515 77.3746C22.5759 76.8293 21.3119 76.0149 19.9595 74.9314C18.6072 73.8479 17.5302 72.8001 16.7287 71.7879C15.9401 70.7596 15.3899 69.7636 15.078 68.8001C14.7501 67.8237 14.6235 66.8764 14.6983 65.9582C14.7859 65.024 15.0394 64.1301 15.4589 63.2766C15.8751 62.3941 16.4186 61.5343 17.0893 60.6971C17.7601 59.8599 18.4806 59.142 19.2511 58.5433C20.0054 57.9316 20.8224 57.4892 21.7022 57.216C22.5787 56.9138 23.5212 56.8097 24.5295 56.9039C25.5379 56.998 26.6298 57.3178 27.8054 57.8631C28.981 58.4084 30.245 59.2228 31.5973 60.3063C32.9658 61.4026 34.0524 62.4714 34.8571 63.5126C35.6747 64.5377 36.2411 65.5466 36.5561 66.5391C36.8679 67.5026 36.98 68.4515 36.8924 69.3858C36.8015 70.2911 36.548 71.1849 36.1317 72.0674C35.7123 72.9209 35.1608 73.7743 34.4772 74.6276Z" fill="black"/>
<path d="M36.8632 61.5271L26.3906 50.6049L28.2892 48.7845L38.7832 59.729C39.2972 60.2651 39.8142 60.6553 40.3344 60.8997C40.8545 61.1441 41.3699 61.2643 41.8807 61.2605C42.3772 61.2417 42.8755 61.1355 43.3756 60.9417C43.8758 60.7479 44.348 60.4952 44.7922 60.1836C45.2371 59.8428 45.6606 59.4796 46.0626 59.0941C46.4795 58.6943 46.853 58.2791 47.1831 57.8483C47.528 57.4032 47.8075 56.9495 48.0215 56.4871C48.2212 56.0098 48.3337 55.5161 48.359 55.006C48.3843 54.4958 48.2929 53.9832 48.0849 53.4682C47.8626 52.9383 47.4944 52.4053 46.9804 51.8692L36.4864 40.9247L38.385 39.1043L48.8576 50.0265C49.6 50.8008 50.1383 51.5708 50.4723 52.3365C50.807 53.0731 50.9739 53.8134 50.9728 54.5575C50.9575 55.2867 50.8038 56.0057 50.5117 56.7145C50.2344 57.409 49.8408 58.0865 49.3309 58.747C48.8352 59.4223 48.2523 60.0812 47.5823 60.7237C46.942 61.3376 46.2666 61.8852 45.5561 62.3663C44.8748 62.8481 44.174 63.22 43.4535 63.4821C42.748 63.7299 42.0306 63.8461 41.3014 63.8308C40.5579 63.8006 39.8178 63.61 39.0811 63.2589C38.345 62.8787 37.6057 62.3014 36.8632 61.5271Z" fill="black"/>
<path d="M58.9254 41.2909L57.6797 39.4437L63.9652 35.2048L65.211 37.052L58.9254 41.2909Z" fill="black"/>
<path d="M87.2922 33.9773L83.6476 25.9804L71.4207 17.5082L73.9624 16.1458L84.0884 23.7391L84.8313 11.1922L87.527 10.1677L86.0692 24.8768L89.7138 32.8736L87.2922 33.9773Z" fill="black"/>
<path d="M105.588 25.199C106.258 24.9904 106.883 24.7091 107.465 24.3552C108.046 24.0012 108.544 23.5543 108.959 23.0144C109.374 22.4745 109.678 21.8182 109.869 21.0456C110.06 20.2729 110.111 19.3604 110.021 18.3081C109.95 17.2497 109.7 16.0311 109.271 14.6524C108.841 13.2737 108.355 12.1288 107.812 11.2176C107.282 10.2806 106.719 9.54849 106.123 9.02125C105.527 8.49401 104.904 8.12612 104.256 7.91757C103.607 7.70903 102.944 7.62415 102.264 7.66294C101.585 7.70172 100.91 7.82543 100.241 8.03406C99.571 8.24269 98.9456 8.52396 98.3644 8.87788C97.8029 9.22567 97.3146 9.66951 96.8994 10.2094C96.4842 10.7493 96.1839 11.4154 95.9986 12.2078C95.8072 12.9805 95.7467 13.8961 95.8172 14.9545C95.9073 16.0068 96.1702 17.2321 96.6059 18.6305C97.0293 19.9895 97.4996 21.1178 98.017 22.0154C98.554 22.9069 99.1238 23.6261 99.7263 24.173C100.323 24.7003 100.948 25.078 101.603 25.3063C102.251 25.5148 102.905 25.6028 103.565 25.5701C104.244 25.5313 104.919 25.4076 105.588 25.199ZM106.233 27.267C105.228 27.58 104.249 27.7662 103.295 27.8257C102.341 27.8851 101.417 27.7951 100.521 27.5556C99.619 27.2964 98.7764 26.8458 97.993 26.204C97.2035 25.5424 96.4739 24.6569 95.8041 23.5475C95.1344 22.4381 94.5418 21.0562 94.0264 19.4017C93.511 17.7473 93.204 16.2764 93.1054 14.989C93.0265 13.6956 93.1272 12.5622 93.4074 11.589C93.6815 10.5961 94.1062 9.73994 94.6815 9.02051C95.2766 8.29494 95.9866 7.69561 96.8115 7.22253C97.65 6.72361 98.5814 6.31462 99.6056 5.99554C100.63 5.67646 101.629 5.48412 102.602 5.41851C103.569 5.33321 104.494 5.42324 105.376 5.6886C106.272 5.92813 107.112 6.36882 107.895 7.01067C108.678 7.65253 109.405 8.52816 110.075 9.63756C110.744 10.747 111.337 12.1289 111.852 13.7833C112.374 15.4575 112.677 16.9512 112.762 18.2643C112.867 19.5714 112.772 20.7244 112.479 21.7235C112.198 22.6967 111.761 23.5461 111.166 24.2716C110.584 24.9714 109.874 25.5707 109.036 26.0696C108.211 26.5427 107.276 26.9418 106.233 27.267Z" fill="black"/>
<path d="M115.537 17.7394L112.961 2.82849L115.553 2.38077L118.134 17.3222C118.26 18.054 118.471 18.6667 118.765 19.1601C119.06 19.6535 119.42 20.0414 119.846 20.3238C120.268 20.5858 120.74 20.7764 121.263 20.8954C121.786 21.0144 122.319 21.0689 122.862 21.0589C123.421 21.0251 123.975 20.9608 124.524 20.8659C125.093 20.7676 125.635 20.6322 126.15 20.4595C126.684 20.2834 127.17 20.0635 127.606 19.7998C128.038 19.5157 128.407 19.1693 128.714 18.7605C129.02 18.3517 129.231 17.8757 129.346 17.3323C129.458 16.7687 129.451 16.1209 129.325 15.3891L126.744 0.447672L129.336 -4.77211e-05L131.911 14.9109C132.094 15.968 132.11 16.9073 131.958 17.729C131.824 18.5268 131.548 19.2338 131.132 19.8502C130.711 20.4462 130.182 20.9563 129.543 21.3807C128.925 21.8015 128.22 22.1431 127.428 22.4055C126.639 22.6883 125.788 22.9087 124.873 23.0667C123.999 23.2177 123.133 23.294 122.275 23.2957C121.44 23.3142 120.651 23.2307 119.907 23.0451C119.184 22.8561 118.524 22.5513 117.928 22.1309C117.329 21.6902 116.822 21.1183 116.407 20.4153C116.009 19.6885 115.719 18.7965 115.537 17.7394Z" fill="black"/>
<path d="M145.141 13.2967V11.0687L152.722 11.0687V13.2967L145.141 13.2967Z" fill="black"/>
<path d="M172.746 23.0927L174.196 14.4249L168.796 0.564347L171.665 0.855919L175.814 12.8132L183.445 2.82615L186.253 3.48397L176.82 14.8639L175.371 23.5317L172.746 23.0927Z" fill="black"/>
<path d="M192.824 26.0454C193.496 26.2469 194.172 26.3634 194.852 26.3949C195.532 26.4264 196.194 26.3344 196.841 26.119C197.487 25.9035 198.105 25.529 198.696 24.9954C199.287 24.4618 199.839 23.7336 200.352 22.8108C200.886 21.8938 201.36 20.7438 201.775 19.3605C202.189 17.9773 202.426 16.7562 202.485 15.697C202.57 14.6241 202.513 13.7023 202.313 12.9317C202.113 12.1611 201.803 11.5081 201.382 10.9727C200.961 10.4373 200.458 9.99571 199.873 9.64802C199.288 9.30033 198.66 9.02576 197.988 8.8243C197.316 8.62284 196.641 8.50635 195.961 8.47483C195.301 8.44923 194.648 8.54416 194.002 8.75963C193.356 8.9751 192.734 9.3595 192.138 9.91285C191.547 10.4464 190.985 11.1717 190.451 12.0886C189.938 13.0114 189.471 14.1743 189.05 15.5773C188.641 16.9408 188.4 18.1392 188.327 19.1727C188.274 20.212 188.344 21.1269 188.538 21.9172C188.738 22.6878 189.045 23.3507 189.46 23.9059C189.881 24.4413 190.374 24.8799 190.939 25.2217C191.524 25.5694 192.153 25.844 192.824 26.0454ZM192.202 28.1202C191.194 27.8181 190.279 27.425 189.455 26.941C188.631 26.457 187.914 25.8653 187.305 25.1659C186.703 24.4467 186.256 23.602 185.965 22.6319C185.681 21.642 185.571 20.4999 185.636 19.2056C185.701 17.9114 185.982 16.4343 186.48 14.7744C186.978 13.1146 187.546 11.7234 188.184 10.601C188.842 9.48451 189.559 8.60116 190.335 7.95097C191.118 7.28102 191.948 6.80865 192.828 6.53388C193.727 6.26503 194.65 6.16512 195.599 6.23415C196.573 6.28934 197.574 6.471 198.601 6.77911C199.629 7.08722 200.565 7.48623 201.408 7.97616C202.258 8.44632 202.975 9.03802 203.558 9.75126C204.166 10.4507 204.616 11.2854 204.906 12.2556C205.197 13.2257 205.31 14.358 205.245 15.6522C205.18 16.9465 204.898 18.4235 204.401 20.0834C203.897 21.763 203.313 23.171 202.65 24.3072C202.006 25.4494 201.283 26.3525 200.48 27.0165C199.704 27.6667 198.866 28.1263 197.967 28.3951C197.094 28.6501 196.17 28.75 195.196 28.6948C194.247 28.6258 193.25 28.4343 192.202 28.1202Z" fill="black"/>
<path d="M205.242 25.425L211.443 11.6224L213.843 12.7004L207.628 26.5312C207.324 27.2086 207.156 27.8342 207.124 28.408C207.093 28.9818 207.174 29.5048 207.369 29.9768C207.573 30.4301 207.858 30.8523 208.225 31.2434C208.592 31.6345 209.003 31.9776 209.459 32.2727C209.941 32.5574 210.437 32.8139 210.945 33.0422C211.472 33.2789 211.997 33.4696 212.52 33.6141C213.062 33.7671 213.587 33.8562 214.096 33.8813C214.613 33.8876 215.113 33.8069 215.596 33.6392C216.078 33.4715 216.519 33.1947 216.919 32.8088C217.327 32.4041 217.683 31.863 217.987 31.1856L224.202 17.3549L226.601 18.4329L220.399 32.2354C219.959 33.2139 219.447 34.0015 218.862 34.5982C218.305 35.1845 217.681 35.6166 216.991 35.8945C216.309 36.1535 215.585 36.2805 214.818 36.2753C214.07 36.2785 213.295 36.1675 212.491 35.9422C211.68 35.7357 210.85 35.4423 210.003 35.0618C209.194 34.6982 208.434 34.2773 207.721 33.7989C207.019 33.3478 206.412 32.8374 205.899 32.2676C205.405 31.7064 205.028 31.0848 204.769 30.403C204.518 29.7024 204.418 28.9448 204.467 28.1302C204.544 27.3052 204.802 26.4035 205.242 25.425Z" fill="black"/>
<path d="M232.272 38.2929L233.518 36.4457L239.803 40.6846L238.557 42.5318L232.272 38.2929Z" fill="black"/>
<path d="M249.682 61.8508L255.73 55.475L259.003 40.9642L261.219 42.8101L257.973 55.0438L269.884 51.0306L271.844 53.1459L257.661 57.3065L251.613 63.6823L249.682 61.8508Z" fill="black"/>
<path d="M264.677 75.5242C265.121 76.0669 265.616 76.5413 266.162 76.9475C266.708 77.3537 267.309 77.6481 267.966 77.8307C268.622 78.0133 269.344 78.0486 270.132 77.9365C270.92 77.8244 271.785 77.5294 272.727 77.0515C273.682 76.5895 274.718 75.9011 275.835 74.9862C276.952 74.0713 277.832 73.1913 278.473 72.3463C279.143 71.5042 279.611 70.7078 279.876 69.9573C280.141 69.2068 280.249 68.4919 280.2 67.8126C280.15 67.1333 279.98 66.486 279.689 65.8707C279.399 65.2554 279.031 64.6764 278.587 64.1337C278.143 63.5911 277.647 63.1166 277.102 62.7104C276.569 62.3202 275.974 62.0338 275.318 61.8512C274.662 61.6685 273.932 61.6398 273.128 61.765C272.34 61.877 271.468 62.1641 270.513 62.626C269.571 63.104 268.534 63.8069 267.401 64.7349C266.299 65.6367 265.429 66.4956 264.791 67.3116C264.166 68.1436 263.713 68.9413 263.431 69.7049C263.166 70.4555 263.05 71.1769 263.084 71.8693C263.134 72.5485 263.297 73.1879 263.575 73.7872C263.865 74.4025 264.233 74.9815 264.677 75.5242ZM263.001 76.8965C262.334 76.0825 261.795 75.2445 261.382 74.3825C260.97 73.5205 260.707 72.6294 260.593 71.7092C260.495 70.7759 260.597 69.8259 260.899 68.859C261.216 67.8792 261.764 66.8709 262.541 65.8342C263.319 64.7975 264.378 63.7302 265.719 62.6324C267.06 61.5345 268.308 60.6986 269.465 60.1248C270.635 59.567 271.723 59.2356 272.73 59.1307C273.754 59.0127 274.707 59.0856 275.589 59.3494C276.485 59.6292 277.307 60.0628 278.054 60.6504C278.831 61.2408 279.559 61.951 280.239 62.781C280.919 63.611 281.471 64.4649 281.897 65.3429C282.339 66.2078 282.602 67.0989 282.686 68.0162C282.8 68.9364 282.706 69.8799 282.404 70.8468C282.103 71.8136 281.563 72.8153 280.786 73.852C280.008 74.8887 278.949 75.956 277.608 77.0538C276.251 78.1648 274.98 79.0057 273.795 79.5766C272.622 80.1635 271.518 80.508 270.481 80.61C269.474 80.7149 268.523 80.6275 267.627 80.3477C266.76 80.0708 265.939 79.6372 265.162 79.0468C264.414 78.4592 263.694 77.7425 263.001 76.8965Z" fill="black"/>
<path d="M275.321 81.9528L288.18 73.9769L289.566 76.2121L276.681 84.2043C276.05 84.5958 275.56 85.0205 275.213 85.4785C274.866 85.9366 274.642 86.4158 274.539 86.9162C274.455 87.4058 274.455 87.9153 274.541 88.4447C274.626 88.9742 274.775 89.4886 274.988 89.9879C275.229 90.4939 275.496 90.9835 275.79 91.4569C276.094 91.9478 276.423 92.3993 276.776 92.8117C277.14 93.2415 277.525 93.6091 277.933 93.9145C278.359 94.2089 278.818 94.4215 279.312 94.5522C279.806 94.6829 280.326 94.7 280.873 94.6035C281.438 94.4961 282.036 94.2467 282.667 93.8552L295.552 85.863L296.938 88.0982L284.079 96.0741C283.168 96.6396 282.303 97.0062 281.484 97.1739C280.694 97.3483 279.935 97.3578 279.208 97.2022C278.498 97.0358 277.826 96.7361 277.194 96.3031C276.572 95.8877 275.991 95.362 275.451 94.726C274.893 94.1009 274.37 93.3938 273.88 92.6049C273.413 91.8511 273.017 91.0767 272.694 90.2819C272.364 89.5154 272.146 88.7525 272.04 87.9934C271.944 87.2517 271.979 86.5259 272.145 85.8157C272.329 85.0948 272.67 84.4104 273.166 83.7626C273.691 83.1215 274.409 82.5182 275.321 81.9528Z" fill="black"/>
</svg>
