<svg width="2974" height="1983" viewBox="0 0 2974 1983" fill="none" xmlns="http://www.w3.org/2000/svg">
<path d="M484.417 1165.17L455.81 1147.43L366.867 1143.82L484.417 1165.17Z" fill="url(#paint0_linear_2_401)"/>
<path d="M2748.23 1088.21L2661.62 1112.46L2756.25 845.996L2886.49 792.42L2748.23 1088.21Z" fill="url(#paint1_linear_2_401)"/>
<path d="M786.882 758.373L720.043 838.088L850.235 1019.47L875.132 984.746L786.882 758.373Z" fill="url(#paint2_linear_2_401)"/>
<path d="M2434.76 905.808L2380.23 866.415L2430.66 741.934L2446.04 757.639L2508.42 775.265L2434.76 905.808Z" fill="#FED136"/>
<path d="M2536.64 721.893L2473.6 710.424L2449.25 693.367L2505.74 558.262L2631.01 548.045L2536.64 721.893Z" fill="#FED136"/>
<path d="M2446.04 757.64L2473.6 710.424L2216.73 541.917L2446.04 757.64Z" fill="white"/>
<path d="M1783.79 564.459L1852.48 669.542L2230.2 468.9L2244.89 434.162L1783.79 564.459Z" fill="url(#paint3_linear_2_401)"/>
<path d="M349.849 915.046L428.452 844.131L185.235 1237.21L113.601 1279.2L349.849 915.046Z" fill="white"/>
<path d="M876.883 986.687L851.366 1020.15L1216.46 1076.59L1184.7 983.674L876.883 986.687Z" fill="white"/>
<path d="M2404.59 100.7L2427.44 287.28L2424.04 287.536L2401.94 106.816L2308.73 166.221L2326.31 366.281L2324.91 366.647L2073.5 429.689L2072.61 426.165L2322.61 363.421L2305.06 164.216L2305.94 163.649L2404.59 100.7Z" fill="#C7C7C7"/>
<path d="M2066.61 366.854L2068.09 366.532L2320.27 302.024L2321.25 305.592L2070.46 369.734L2111.14 669.909L2434.08 904.963L2504.72 775.711L2507.78 777.632L2435.31 910.169L2107.98 671.965L2107.86 671.065L2066.61 366.854Z" fill="#C7C7C7"/>
<path d="M2083.98 479.6L2244.84 433.076L2245.15 433.118L2632.87 546.399L2536.56 723.811L2534.73 722.612L2629.71 547.669L2244.96 435.316L2084.63 481.717L2083.98 479.6Z" fill="#C7C7C7"/>
<path d="M787.919 755.702L878.312 983.315L1184.4 981.898L1596.23 889.35L1782.61 562.858L1783.27 562.687L2034.13 491.587L2035.17 495.131L1784.95 565.991L1598.47 892.6L1597.81 892.771L1184.97 985.542L1184.81 985.521L876.118 986.975L875.651 985.733L786.958 762.441L457.676 1147.36L815.838 1351.13L987.125 1299.18L1094.05 1073.69L1097.18 1075.42L989.598 1302.27L988.87 1302.46L815.578 1355.08L814.923 1354.7L452.181 1148.24L453.643 1146.51L787.919 755.702Z" fill="#C7C7C7"/>
<path d="M2069.19 365.568L2110.62 671.21L2110.44 671.513L2076.72 726.559L2357.75 937.387L2434.28 906.462L2435.13 908.507L2357.58 939.816L2357.07 939.454L2074.34 727.379L2074.24 726.941L2023.3 427.56L2023.6 427.209L2069.19 365.568ZM2108.49 670.593L2067.86 370.949L2025.51 428.221L2075.86 723.891L2108.49 670.593Z" fill="#C7C7C7"/>
<path d="M721.908 837.23L851.807 1018.8L1216.1 1074.68L1611.04 910.309L1851.48 668.03L2045.4 562.379L2047.08 565.683L1853.58 671.097L1613.04 913.493L1612.72 913.613L1216.73 1078.46L1216.27 1078.4L850.009 1022.15L849.558 1021.53L719.181 839.28L721.908 837.23Z" fill="#C7C7C7"/>
<path d="M2230.04 467.701L2507.3 556.806L2449.45 696.207L2447.56 695.263L2504.38 558.142L2230.33 470.031L2092.61 544.375L2091.58 542.402L2230.04 467.701Z" fill="#C7C7C7"/>
<path d="M2381 868.544L2431.01 741.451L2429.09 740.521L2379.08 867.614L2381 868.544Z" fill="#C7C7C7"/>
<path d="M2631.48 548.163L2631.22 545.979L2505.77 556.427L2506.04 558.611L2631.48 548.163Z" fill="#C7C7C7"/>
<path d="M2231.06 469.379L2245.81 434.652L2243.91 433.67L2229.17 468.397L2231.06 469.379Z" fill="#C7C7C7"/>
<path d="M851.757 1021.19L878.066 985.794L876.417 984.385L850.109 1019.78L851.757 1021.19Z" fill="#C7C7C7"/>
<path d="M454.919 1148.85L454.897 1146.66L366.57 1142.88L366.592 1145.06L454.919 1148.85Z" fill="#C7C7C7"/>
<path d="M517.567 967.612L518.344 965.627L401.637 909.174L400.859 911.159L517.567 967.612Z" fill="#C7C7C7"/>
<path d="M429.546 843.167L564.692 913.4L563.897 915.353L430.303 845.953L186.28 1236.5L184.546 1235.18L429.546 843.167Z" fill="#C7C7C7"/>
<path d="M349.579 919.152L430.646 845.428L429.254 843.735L348.187 917.459L349.579 919.152Z" fill="#C7C7C7"/>
<path d="M2216.23 538.874L2473.45 709.456L2893.16 791.174L2757.42 844.851L2756.85 844.674L2446.68 759.134L2446.35 758.861L2280.2 605.658L2274.63 787.581L2271.15 787.237L2276.95 597.985L2448.22 755.876L2756.99 840.998L2880.26 792.328L2472.26 712.893L2471.97 712.689L2219.61 545.32L2217.58 746.537L2214.15 746.331L2216.23 538.874Z" fill="#C7C7C7"/>
<path d="M2885.83 791.253L2887.67 792.29L2747.61 1089.46L2747.23 1089.61L2660.01 1114.01L2756.23 842.463L2758.18 843.382L2663.38 1110.77L2746.17 1087.57L2885.83 791.253Z" fill="#C7C7C7"/>
<path d="M2448.27 758.147L2473.69 711.814L2471.89 710.642L2446.47 756.975L2448.27 758.147Z" fill="#C7C7C7"/>
<path d="M2477.5 961.292L2544.36 949.201L2690.26 1040.66L2688.58 1043.73L2543.83 953.022L2485.63 963.511L2662.72 1110.94L2660.65 1113.77L2477.5 961.292Z" fill="#C7C7C7"/>
<path d="M2401.34 100.581L2405.19 106.929L2310.51 167.279L2327.29 358.036L2423.65 284.373L2427.83 290.438L2321.57 371.684L2303.28 163.153L2401.34 100.581Z" fill="#C7C7C7"/>
<path d="M2221.73 540.109L2483.73 739.674L2892.03 788.759L2749.97 1090.31L2743.84 1086.79L2881.41 794.803L2481.44 746.756L2480.68 746.097L2217.88 545.965L2221.73 540.109Z" fill="#C7C7C7"/>
<path d="M2660.83 531.805L2661.71 524.618L2224.87 441.808L2224 448.994L2660.83 531.805Z" fill="#C7C7C7"/>
<path d="M706.802 860.788L818.36 1018.79L1219.94 1093L1511.36 948.843L1514.57 955.431L1221.21 1100.63L1220.17 1100.39L814.609 1025.47L701.375 864.956L706.802 860.788Z" fill="#C7C7C7"/>
<path d="M2342.55 95.7811L2343.24 95.6788L2390.17 319.334L2389.89 319.361L2047.95 403.242L2102.74 693.857L2392.88 919.6L2471.32 762.851L2471.88 763.189L2393.14 920.683L2392.85 920.479L2102.09 694.259L2102.1 694.097L2047.09 402.7L2047.41 402.58L2389.38 318.768L2342.55 95.7811Z" fill="#C7C7C7"/>
<path d="M2288.53 403.958L2288.71 404.048L2564.19 560.434L2564.11 560.782L2515.44 716.092L2514.75 715.801L2563.39 560.815L2288.54 404.744L2090.86 512.205L2090.53 511.539L2288.53 403.958Z" fill="#C7C7C7"/>
<path d="M2254.99 569.243L2255.45 569.699L2454.98 743.643L2812.16 821.258L2811.97 821.723L2705.22 1103.06L2500.19 936.376L2517.24 898.624L2517.87 898.938L2501.07 936.202L2704.87 1101.93L2811.19 821.781L2454.72 744.294L2454.63 744.249L2255.53 570.691L2244.22 769.498L2243.55 769.438L2254.99 569.243Z" fill="#C7C7C7"/>
<path d="M982.249 1286.61C982.759 1286.42 983.206 1286.25 983.743 1286.13C990.973 1284.43 998.495 1289.32 1000.53 1297.05C1002.51 1304.81 998.275 1312.55 991.07 1314.31C983.84 1316.01 976.318 1311.12 974.281 1303.39C972.451 1296.2 975.93 1288.99 982.249 1286.61ZM991.604 1311.28C996.71 1309.36 999.557 1303.56 998.093 1297.73C996.447 1291.42 990.376 1287.49 984.564 1288.89C978.687 1290.31 975.28 1296.56 976.9 1302.8C978.546 1309.11 984.617 1313.04 990.429 1311.64C990.774 1311.59 991.221 1311.42 991.604 1311.28Z" fill="#C7C7C7"/>
<path d="M879.787 955.254C880.132 962.151 885.679 967.732 892.177 967.719C898.675 967.706 903.663 962.104 903.319 955.207C902.974 948.31 897.427 942.729 890.929 942.742C884.431 942.756 879.443 948.357 879.787 955.254Z" fill="#C7C7C7"/>
<path d="M2553.32 911.542L2566.02 896.945L2562.86 893.837L2550.17 908.434L2553.32 911.542Z" fill="#C7C7C7"/>
<path d="M2301.71 481.426L2315.21 451.48L2305.71 446.286L2292.22 476.233L2301.71 481.426Z" fill="#C7C7C7"/>
<path d="M2497.91 1093.15C2494.66 1098.71 2496.41 1106.24 2501.83 1109.98C2507.24 1113.71 2514.27 1112.24 2517.52 1106.68C2520.77 1101.12 2519.02 1093.59 2513.6 1089.85C2508.19 1086.12 2501.16 1087.6 2497.91 1093.15Z" fill="#C7C7C7"/>
<path d="M2360.86 121.567L2376.31 171.731L2387.77 171.198L2381.87 109.643L2360.86 121.567Z" fill="#E3E5E9"/>
<path d="M2358.75 122.362L2374.61 173.791L2390.12 172.992L2384.04 109.221L2379.72 110.138L2385.42 169.408L2378.04 169.744L2362.94 120.707L2358.75 122.362Z" fill="#C7C7C7"/>
<path d="M2397.33 686.292L2429.89 649.082L2423.2 638.846L2376.17 672.449L2397.33 686.292Z" fill="white"/>
<path d="M2399.14 687.815L2432.48 649.762L2423.38 635.862L2374.62 670.668L2377.77 674.206L2423.01 641.83L2427.33 648.471L2395.52 684.77L2399.14 687.815Z" fill="#C7C7C7"/>
<path d="M962.374 1030.88L947.581 1079.67L957.454 1086.35L986.608 1034.68L962.374 1030.88Z" fill="white"/>
<path d="M960.16 1030.22L945.003 1080.17L958.483 1089.27L988.65 1035.64L984.508 1033.74L956.52 1083.48L950.165 1079.18L964.593 1031.55L960.16 1030.22Z" fill="#C7C7C7"/>
<path d="M2316.26 241.109L2312.15 226.965L2288.41 233.539L2292.52 247.682L2316.26 241.109Z" fill="#C7C7C7"/>
<path d="M2867.26 910.266L2872.61 897.116L2845.7 883.64L2840.34 896.79L2867.26 910.266Z" fill="#C7C7C7"/>
<path d="M662.498 805.611L670.24 793.963L645.559 774.883L637.817 786.532L662.498 805.611Z" fill="#C7C7C7"/>
<defs>
<linearGradient id="paint0_linear_2_401" x1="436.451" y1="1183.22" x2="414.832" y2="1125.77" gradientUnits="userSpaceOnUse">
<stop stop-color="#BC53DF"/>
<stop offset="1" stop-color="#252BB5"/>
</linearGradient>
<linearGradient id="paint1_linear_2_401" x1="2815.6" y1="1062.85" x2="2735.25" y2="849.334" gradientUnits="userSpaceOnUse">
<stop stop-color="#BC53DF"/>
<stop offset="1" stop-color="#252BB5"/>
</linearGradient>
<linearGradient id="paint2_linear_2_401" x1="839.736" y1="1023.42" x2="745.81" y2="773.83" gradientUnits="userSpaceOnUse">
<stop stop-color="#BC53DF"/>
<stop offset="1" stop-color="#252BB5"/>
</linearGradient>
<linearGradient id="paint3_linear_2_401" x1="2235.63" y1="446.422" x2="1801.76" y2="597.276" gradientUnits="userSpaceOnUse">
<stop stop-color="#BC53DF"/>
<stop offset="1" stop-color="#252BB5"/>
</linearGradient>
</defs>
</svg>
