<svg width="192" height="48" viewBox="0 0 192 48" fill="none" xmlns="http://www.w3.org/2000/svg">
<path d="M60.4769 33.5891C59.8754 33.2132 59.3867 32.5365 59.3867 31.6344C59.3867 30.3563 60.3641 29.3789 61.6422 29.3789C62.0557 29.3789 62.4692 29.4917 62.7699 29.6796C64.6871 30.8825 66.6042 31.484 68.2207 31.484C69.8747 31.484 70.6265 30.8825 70.6265 29.9803V29.9052C70.6265 28.6647 68.6717 28.2511 66.4539 27.5745C63.6345 26.7475 60.4393 25.4318 60.4393 21.5223V21.4471C60.4393 17.3497 63.7473 15.0566 67.8071 15.0566C69.9123 15.0566 72.0926 15.6205 74.0473 16.5979C74.8743 17.0114 75.4006 17.7632 75.4006 18.7406C75.4006 20.0187 74.3856 20.996 73.1075 20.996C72.694 20.996 72.4309 20.9209 72.0549 20.7329C70.4385 19.9435 68.8973 19.4548 67.6944 19.4548C66.3035 19.4548 65.5893 20.0562 65.5893 20.8457V20.9209C65.5893 22.0486 67.5064 22.5749 69.6867 23.3267C72.506 24.2665 75.7765 25.6197 75.7765 29.3037V29.3789C75.7765 33.8522 72.4309 35.8822 68.0703 35.8822C65.5893 35.8822 62.9203 35.1679 60.4769 33.5891Z" fill="white"/>
<path d="M78.3652 10.7007C78.3652 9.12186 79.6433 7.84375 81.2221 7.84375C82.801 7.84375 84.0791 9.12186 84.0791 10.7007V23.181L91.2214 16.4145C92.0484 15.6251 92.7251 15.1365 93.74 15.1365C95.2813 15.1365 96.2586 16.377 96.2586 17.6927C96.2586 18.67 95.7324 19.4218 94.9429 20.1737L90.432 24.0456L95.8076 31.3007C96.2962 31.9773 96.5218 32.5036 96.5218 33.1427C96.5218 34.6839 95.2813 35.7364 93.8528 35.7364C92.7251 35.7364 92.0484 35.3605 91.3718 34.4207L86.3722 27.5415L84.0791 29.6091V32.8795C84.0791 34.4583 82.801 35.7364 81.2221 35.7364C79.6433 35.7364 78.3652 34.4583 78.3652 32.8795V10.7007Z" fill="white"/>
<path d="M99.8253 41.1027C98.9983 40.802 98.0209 40.1253 98.0209 38.7344C98.0209 37.3435 99.111 36.4038 100.276 36.4038C100.727 36.4038 100.991 36.479 101.216 36.5541C101.705 36.7045 102.006 36.7797 102.419 36.7797C103.434 36.7797 103.923 36.5917 104.449 35.5768L104.637 35.1257L97.7577 19.1917C97.6074 18.8158 97.457 18.2519 97.457 17.876C97.457 16.2596 98.6975 15.1318 100.276 15.1318C101.705 15.1318 102.532 15.9213 103.021 17.2745L107.381 29.003L111.591 17.3121C112.042 16.1092 112.869 15.1318 114.335 15.1318C115.802 15.1318 117.042 16.2596 117.042 17.7632C117.042 18.2143 116.892 18.8534 116.779 19.1165L109.749 35.9903C108.058 40.0877 106.366 41.629 102.945 41.629C101.667 41.629 100.765 41.441 99.8253 41.1027Z" fill="white"/>
<path d="M117.639 25.5446V25.4694C117.639 19.7179 122.037 14.9814 128.202 14.9814C131.247 14.9814 133.389 15.8084 135.081 17.2369C135.457 17.5376 135.983 18.2143 135.983 19.1917C135.983 20.6201 134.818 21.7479 133.389 21.7479C132.638 21.7479 132.074 21.4471 131.735 21.184C130.72 20.3946 129.668 19.9059 128.164 19.9059C125.307 19.9059 123.277 22.4245 123.277 25.3942V25.4694C123.277 28.5519 125.27 31.0329 128.39 31.0329C129.893 31.0329 131.059 30.5066 132.149 29.642C132.45 29.4165 133.013 29.1158 133.69 29.1158C135.043 29.1158 136.096 30.2059 136.096 31.5592C136.096 32.311 135.758 32.9125 135.269 33.3636C133.577 34.9048 131.435 35.9574 128.127 35.9574C122.074 35.9574 117.639 31.296 117.639 25.5446Z" fill="white"/>
<path d="M138.836 10.7007C138.836 9.12186 140.114 7.84375 141.693 7.84375C143.272 7.84375 144.55 9.12186 144.55 10.7007V32.8748C144.55 34.4536 143.272 35.7318 141.693 35.7318C140.114 35.7318 138.836 34.4536 138.836 32.8748V10.7007Z" fill="white"/>
<path d="M166.723 32.8749C166.723 34.4537 165.445 35.7318 163.866 35.7318C162.287 35.7318 161.009 34.4537 161.009 32.8749V32.6494C159.693 34.341 158.002 35.8822 155.107 35.8822C150.784 35.8822 148.266 33.0253 148.266 28.4015V17.9888C148.266 16.4099 149.544 15.1318 151.123 15.1318C152.701 15.1318 153.979 16.4099 153.979 17.9888V26.5972C153.979 29.3037 155.258 30.6946 157.438 30.6946C159.618 30.6946 161.009 29.3037 161.009 26.5972V17.9888C161.009 16.4099 162.287 15.1318 163.866 15.1318C165.445 15.1318 166.723 16.4099 166.723 17.9888V32.8749Z" fill="white"/>
<path d="M170.328 10.7007C170.328 9.12186 171.606 7.84375 173.185 7.84375C174.764 7.84375 176.042 9.12186 176.042 10.7007V18.2565C177.433 16.377 179.35 14.9861 182.32 14.9861C187.019 14.9861 191.492 18.67 191.492 25.3988V25.474C191.492 32.2029 187.094 35.8868 182.32 35.8868C179.275 35.8868 177.395 34.4959 176.042 32.8795V32.9171C176.042 34.4583 174.764 35.7364 173.185 35.7364C171.606 35.7364 170.328 34.4583 170.328 32.8795V10.7007ZM185.778 25.4693V25.3942C185.778 22.0486 183.523 19.8307 180.854 19.8307C178.185 19.8307 175.967 22.0486 175.967 25.3942V25.4693C175.967 28.815 178.185 31.0329 180.854 31.0329C183.523 31.0329 185.778 28.8526 185.778 25.4693Z" fill="white"/>
<path d="M15.4548 17.4702V7.54611C15.4548 4.97891 12.5978 3.40934 10.4536 4.8196C5.45504 8.11021 1.80402 13.2733 0.498218 19.314C0.0646928 21.3144 1.63428 23.1948 3.67915 23.1948H9.73022C12.8902 23.1948 15.4548 20.6328 15.4548 17.4702Z" fill="white"/>
<path d="M17.5664 31.3667V44.4142C17.5664 46.0752 18.8226 47.4462 20.4731 47.6395C21.3741 47.7466 22.2908 47.8014 23.2205 47.8014C34.3694 47.8014 43.6824 39.9536 45.9466 29.4837C46.3775 27.4832 44.8106 25.6055 42.7657 25.6055H23.3276C20.1467 25.6055 17.5664 28.1857 17.5664 31.3667Z" fill="white"/>
<path d="M17.5664 16.47V3.73587C17.5664 2.0749 18.8226 0.703809 20.4731 0.51055C21.3741 0.403475 22.2908 0.348633 23.2205 0.348633C34.3694 0.348633 43.6824 8.19648 45.9466 18.6664C46.3775 20.6669 44.8106 22.5446 42.7657 22.5446H23.6436C20.2877 22.5446 17.5664 19.8233 17.5664 16.47Z" fill="white"/>
<path d="M10.5634 25.3105H3.67924C1.63175 25.3105 0.0647818 27.1909 0.498307 29.1914C1.8041 35.232 5.45774 40.3951 10.4537 43.6857C12.5978 45.096 15.4549 43.5264 15.4549 40.9592V30.2021C15.4549 27.4991 13.2638 25.3105 10.5634 25.3105Z" fill="white"/>
</svg>
