<svg width="1729" height="854" viewBox="0 0 1729 854" fill="none" xmlns="http://www.w3.org/2000/svg">
<path d="M1684.16 283.221C1589.82 763.38 1332.03 265.415 967.259 265.415C429.529 265.415 -54.8798 903.356 183.017 848.676C420.914 793.996 566.606 280.958 183.017 383.645C-345.956 525.251 470.09 91.0454 296.878 2" stroke="url(#paint0_linear_2_636)" stroke-width="4"/>
<path d="M1678.91 232.855C1678.49 229.475 1678.01 226.23 1677.52 223.145C1677.24 221.443 1675.53 220.279 1673.72 220.545C1660.35 222.521 1649.25 226.365 1643.17 228.786C1641.88 229.299 1641.44 230.793 1642.25 231.849C1642.27 231.881 1642.3 231.91 1642.33 231.936C1643.13 232.664 1654.76 243.354 1660.87 251.603C1668.39 260.798 1677.71 275.851 1677.71 275.851C1678.98 277.431 1681.67 276.565 1681.63 274.586C1681.44 264.755 1680.83 248.106 1678.91 232.855Z" fill="#151414"/>
<path d="M1661.27 218.96C1664.55 218.18 1668.22 217.432 1672.18 216.829C1674.39 216.493 1675.87 214.521 1675.46 212.461C1674.03 205.247 1672.56 199.392 1671.48 195.409C1671.01 193.698 1668.65 193.23 1667.48 194.617C1667.48 194.617 1663.08 201.244 1658.06 207.197C1653.61 212.46 1644.99 221.301 1644.99 221.301C1644.12 222.332 1645.25 223.782 1646.56 223.317C1650.53 221.903 1655.53 220.332 1661.27 218.96Z" fill="#151414"/>
<path d="M1684.18 215.352C1689.49 215.019 1695.1 215.03 1700.84 215.581C1703.01 215.788 1704.13 213.214 1702.42 211.947C1702.42 211.947 1694.35 206.849 1689.19 203.001C1683.99 199.122 1677.47 193.497 1677.47 193.497C1676.56 192.828 1675.26 193.613 1675.55 194.659C1676.66 198.751 1678.14 204.698 1679.58 211.989C1679.98 214.041 1681.96 215.492 1684.18 215.352Z" fill="#151414"/>
<path d="M1684.57 219.208C1682.7 219.331 1681.34 220.922 1681.62 222.66C1682.11 225.705 1682.58 228.907 1683 232.235C1684.93 247.59 1685.54 264.341 1685.73 274.239C1685.75 275.327 1687.34 275.621 1687.81 274.626C1687.81 274.626 1695.23 254.526 1700.72 243.851C1700.72 243.846 1700.72 243.846 1700.72 243.841C1703.28 237.743 1711.64 223.606 1711.64 223.606C1712.19 222.432 1711.46 221.068 1710.13 220.792C1701.42 218.994 1692.73 218.671 1684.57 219.208Z" fill="#151414"/>
<path d="M1681.15 279.041L1675.37 286.926C1674.14 288.595 1675.52 290.845 1677.68 290.699L1691.68 289.739C1693.78 289.597 1694.77 287.244 1693.34 285.8L1686.29 278.686C1684.86 277.235 1682.35 277.406 1681.15 279.041Z" fill="#151414"/>
<defs>
<linearGradient id="paint0_linear_2_636" x1="238.517" y1="-62.3082" x2="955.8" y2="442.156" gradientUnits="userSpaceOnUse">
<stop stop-color="#7182EA"/>
<stop offset="1" stop-color="#B656E0"/>
</linearGradient>
</defs>
</svg>
