<svg width="178" height="169" viewBox="0 0 178 169" fill="none" xmlns="http://www.w3.org/2000/svg">
<path d="M88.5741 168.027C88.7345 168.027 88.8949 167.931 88.959 167.803L133.965 86.5476C134.03 86.4193 134.03 86.2268 133.965 86.0985C133.869 85.9702 133.741 85.8739 133.58 85.8739L43.5677 85.8739C43.4073 85.8739 43.2469 85.9702 43.1828 86.0985C43.0865 86.2268 43.0865 86.4193 43.1828 86.5476L88.1891 167.803C88.2533 167.931 88.4137 168.027 88.5741 168.027ZM132.811 86.7721L88.5741 166.648L44.3376 86.7721L132.811 86.7721Z" fill="#0F0F0F"/>
<path d="M0.420536 165.108L176.693 165.108C176.853 165.108 177.013 165.012 177.078 164.884C177.174 164.755 177.174 164.563 177.078 164.434L88.9576 1.28248C88.8934 1.12208 88.733 1.05795 88.5726 1.05795C88.4122 1.05795 88.2518 1.15417 88.1877 1.28248L0.0997491 164.37C0.0355918 164.435 0.00349752 164.531 0.00349753 164.659C-0.0285811 164.884 0.163906 165.108 0.420536 165.108ZM175.955 164.21L1.19039 164.21L88.5726 2.46937L175.955 164.21Z" fill="#0F0F0F"/>
<path d="M43.5668 138.964L133.579 138.964C133.74 138.964 133.9 138.868 133.964 138.74C134.061 138.612 134.061 138.419 133.964 138.291L88.9581 57.0356C88.8939 56.9073 88.7335 56.8111 88.5731 56.8111C88.4127 56.8111 88.2523 56.9073 88.1882 57.0356L43.2139 138.227C43.1497 138.291 43.1177 138.387 43.1177 138.515C43.1177 138.772 43.3102 138.964 43.5668 138.964ZM132.81 138.066L44.3366 138.066L88.5731 58.2225L132.81 138.066Z" fill="#0F0F0F"/>
<path d="M88.5403 164.948C88.7969 164.948 89.0536 164.948 89.3102 164.948C89.4706 164.948 89.5989 164.82 89.5989 164.627C89.5989 164.467 89.4385 164.339 89.2781 164.339C89.0215 164.339 88.7649 164.339 88.5403 164.339C88.2837 164.339 88.0591 164.339 87.8025 164.339C87.6421 164.339 87.5138 164.467 87.5138 164.627C87.5138 164.788 87.6421 164.916 87.8025 164.948C88.027 164.948 88.2837 164.948 88.5403 164.948ZM90.7858 164.916C90.7858 164.916 90.8179 164.916 90.7858 164.916C91.2991 164.884 91.8123 164.852 92.2935 164.82C92.4539 164.82 92.5822 164.66 92.5822 164.499C92.5822 164.339 92.4218 164.21 92.2614 164.21C91.7803 164.243 91.267 164.275 90.7537 164.307C90.5934 164.307 90.465 164.467 90.465 164.627C90.4971 164.788 90.6254 164.916 90.7858 164.916ZM86.2948 164.884C86.4552 164.884 86.5835 164.756 86.5835 164.595C86.5835 164.435 86.4552 164.275 86.2948 164.275C85.7816 164.242 85.3004 164.21 84.7871 164.178C84.6267 164.178 84.4663 164.307 84.4663 164.467C84.4663 164.627 84.5946 164.788 84.755 164.788C85.2683 164.852 85.7816 164.884 86.2948 164.884C86.2948 164.884 86.2627 164.884 86.2948 164.884ZM93.8012 164.692C93.8012 164.692 93.8333 164.692 93.8012 164.692C94.3466 164.627 94.8277 164.595 95.341 164.531C95.5014 164.499 95.6297 164.371 95.5976 164.21C95.5655 164.05 95.4372 163.922 95.2768 163.954C94.7957 164.018 94.2824 164.082 93.8012 164.114C93.6408 164.146 93.5125 164.275 93.5446 164.435C93.5125 164.563 93.6408 164.692 93.8012 164.692ZM83.2794 164.692C83.4398 164.692 83.5681 164.563 83.5681 164.435C83.6002 164.275 83.4719 164.114 83.3115 164.114C82.8303 164.05 82.317 164.018 81.8359 163.954C81.6755 163.922 81.5151 164.05 81.483 164.21C81.4509 164.371 81.5793 164.531 81.7397 164.563C82.2529 164.563 82.7662 164.627 83.2794 164.692ZM96.7845 164.307L96.8166 164.307C97.2978 164.243 97.8111 164.146 98.2922 164.05C98.4526 164.018 98.5488 163.858 98.5168 163.697C98.4847 163.537 98.3243 163.441 98.1639 163.473C97.6827 163.569 97.1695 163.665 96.6883 163.729C96.5279 163.761 96.3996 163.922 96.4317 164.082C96.4958 164.21 96.6241 164.307 96.7845 164.307ZM80.2961 164.307C80.4565 164.307 80.5848 164.21 80.5848 164.05C80.6169 163.89 80.4886 163.729 80.3282 163.697C79.847 163.633 79.3338 163.537 78.8526 163.441C78.6922 163.408 78.5318 163.505 78.4997 163.665C78.4676 163.825 78.5639 163.986 78.7243 164.018C79.2054 164.114 79.7187 164.21 80.1999 164.275C80.264 164.307 80.2961 164.307 80.2961 164.307ZM99.7358 163.761C99.7678 163.761 99.7678 163.761 99.7999 163.761C100.281 163.665 100.794 163.537 101.276 163.408C101.436 163.376 101.532 163.216 101.5 163.056C101.468 162.895 101.308 162.799 101.147 162.831C100.666 162.959 100.185 163.056 99.7037 163.184C99.5433 163.216 99.447 163.376 99.4791 163.537C99.4791 163.665 99.6075 163.761 99.7358 163.761ZM77.3449 163.729C77.4732 163.729 77.6015 163.633 77.6336 163.505C77.6657 163.344 77.5694 163.184 77.409 163.152C76.9279 163.056 76.4467 162.927 75.9655 162.799C75.8051 162.767 75.6447 162.863 75.6126 163.024C75.5805 163.184 75.6768 163.344 75.8372 163.376C76.3184 163.505 76.8316 163.601 77.3128 163.729C77.3128 163.729 77.3128 163.729 77.3449 163.729ZM102.655 163.024C102.687 163.024 102.719 163.024 102.751 163.024C103.232 162.895 103.714 162.735 104.195 162.606C104.355 162.542 104.451 162.382 104.387 162.222C104.323 162.061 104.163 161.965 104.002 162.029C103.521 162.189 103.04 162.318 102.559 162.446C102.398 162.478 102.302 162.671 102.334 162.831C102.398 162.927 102.527 163.024 102.655 163.024ZM74.4257 163.024C74.554 163.024 74.6823 162.927 74.7144 162.799C74.7465 162.639 74.6503 162.478 74.522 162.414C74.0408 162.286 73.5596 162.125 73.0784 161.997C72.918 161.933 72.7576 162.029 72.6935 162.189C72.6293 162.35 72.7255 162.51 72.8859 162.574C73.3671 162.735 73.8483 162.863 74.3295 162.991C74.3615 162.991 74.3936 163.024 74.4257 163.024ZM105.542 162.125C105.574 162.125 105.606 162.125 105.638 162.093C106.119 161.933 106.601 161.772 107.082 161.58C107.242 161.516 107.306 161.355 107.242 161.195C107.178 161.035 107.018 160.97 106.857 161.035C106.376 161.195 105.927 161.387 105.446 161.548C105.285 161.612 105.189 161.772 105.253 161.933C105.285 162.061 105.414 162.125 105.542 162.125ZM71.5386 162.125C71.6669 162.125 71.7953 162.061 71.8273 161.933C71.8915 161.772 71.7953 161.612 71.6349 161.548C71.1537 161.387 70.7046 161.227 70.2234 161.035C70.063 160.97 69.9026 161.067 69.8384 161.195C69.7743 161.355 69.8705 161.516 69.9988 161.58C70.48 161.772 70.9612 161.933 71.4103 162.093C71.4745 162.093 71.5066 162.125 71.5386 162.125ZM108.365 161.067C108.397 161.067 108.429 161.067 108.493 161.035C108.942 160.842 109.423 160.65 109.905 160.425C110.065 160.361 110.129 160.169 110.065 160.04C110.001 159.88 109.808 159.816 109.68 159.88C109.231 160.072 108.75 160.265 108.301 160.457C108.14 160.521 108.076 160.682 108.14 160.842C108.14 161.003 108.237 161.067 108.365 161.067ZM68.7478 161.067C68.8761 161.067 68.9723 161.003 69.0365 160.874C69.1006 160.714 69.0365 160.553 68.8761 160.489C68.427 160.297 67.9458 160.104 67.4967 159.912C67.3363 159.848 67.1759 159.912 67.1118 160.072C67.0476 160.233 67.1118 160.393 67.2722 160.457C67.7213 160.65 68.2025 160.874 68.6516 161.035C68.6516 161.035 68.6836 161.067 68.7478 161.067ZM111.124 159.848C111.156 159.848 111.22 159.848 111.252 159.816C111.701 159.591 112.15 159.367 112.599 159.142C112.76 159.078 112.792 158.885 112.728 158.725C112.663 158.565 112.471 158.533 112.311 158.597C111.861 158.821 111.412 159.046 110.963 159.27C110.803 159.334 110.739 159.527 110.835 159.687C110.899 159.784 110.995 159.848 111.124 159.848ZM65.989 159.816C66.0852 159.816 66.2136 159.751 66.2457 159.655C66.3098 159.495 66.2456 159.334 66.1173 159.238C65.6682 159.014 65.2191 158.789 64.77 158.565C64.6097 158.5 64.4492 158.533 64.353 158.693C64.2889 158.853 64.3209 159.014 64.4813 159.11C64.9304 159.334 65.3795 159.559 65.8286 159.784C65.8928 159.816 65.9569 159.816 65.989 159.816ZM113.786 158.468C113.85 158.468 113.882 158.468 113.947 158.436C114.396 158.18 114.813 157.955 115.262 157.698C115.39 157.602 115.454 157.442 115.358 157.281C115.262 157.153 115.101 157.089 114.941 157.185C114.524 157.442 114.075 157.698 113.626 157.923C113.465 158.019 113.433 158.18 113.498 158.34C113.594 158.404 113.69 158.468 113.786 158.468ZM63.3265 158.468C63.4227 158.468 63.551 158.404 63.5831 158.308C63.6793 158.148 63.6152 157.987 63.4548 157.891C63.0378 157.666 62.5887 157.41 62.1717 157.153C62.0434 157.057 61.8509 157.121 61.7546 157.249C61.6584 157.378 61.7226 157.57 61.8509 157.666C62.3 157.923 62.717 158.18 63.1661 158.404C63.2303 158.436 63.2623 158.468 63.3265 158.468ZM60.7281 156.929C60.8244 156.929 60.9206 156.864 60.9848 156.8C61.081 156.672 61.0169 156.479 60.8885 156.383C60.4715 156.127 60.0545 155.838 59.6375 155.581C59.5091 155.485 59.3167 155.517 59.2204 155.678C59.1242 155.806 59.1563 155.998 59.3167 156.095C59.7337 156.383 60.1507 156.64 60.5678 156.929C60.6319 156.896 60.6961 156.929 60.7281 156.929ZM116.385 156.929C116.449 156.929 116.481 156.929 116.545 156.896C116.962 156.64 117.411 156.351 117.828 156.062C117.956 155.966 117.989 155.774 117.924 155.645C117.828 155.517 117.636 155.485 117.507 155.549C117.09 155.838 116.673 156.095 116.256 156.351C116.128 156.447 116.064 156.64 116.16 156.768C116.192 156.864 116.288 156.929 116.385 156.929ZM58.2581 155.26C58.3543 155.26 58.4506 155.228 58.5147 155.132C58.6109 155.004 58.5788 154.811 58.4505 154.715C58.0335 154.426 57.6486 154.138 57.2316 153.817C57.1032 153.721 56.9108 153.753 56.8145 153.881C56.7183 154.009 56.7504 154.202 56.8787 154.298C57.2636 154.587 57.6806 154.908 58.0977 155.196C58.1298 155.228 58.1939 155.26 58.2581 155.26ZM118.887 155.228C118.951 155.228 119.015 155.196 119.047 155.164C119.464 154.876 119.849 154.587 120.266 154.266C120.394 154.17 120.426 153.977 120.33 153.849C120.234 153.721 120.042 153.689 119.913 153.785C119.528 154.074 119.111 154.394 118.694 154.683C118.566 154.779 118.534 154.972 118.63 155.1C118.726 155.196 118.79 155.228 118.887 155.228ZM55.8522 153.432C55.9484 153.432 56.0126 153.4 56.0767 153.336C56.173 153.207 56.1729 153.015 56.0446 152.919C55.6597 152.598 55.2748 152.277 54.8898 151.956C54.7615 151.86 54.569 151.86 54.4728 151.988C54.3766 152.117 54.3766 152.309 54.5049 152.405C54.8898 152.726 55.2748 153.047 55.6597 153.368C55.7239 153.4 55.788 153.432 55.8522 153.432ZM121.293 153.432C121.357 153.432 121.421 153.4 121.485 153.368C121.87 153.047 122.255 152.726 122.64 152.405C122.768 152.309 122.768 152.117 122.672 151.988C122.576 151.86 122.383 151.86 122.255 151.956C121.87 152.277 121.485 152.598 121.1 152.919C120.972 153.015 120.94 153.207 121.068 153.336C121.132 153.368 121.196 153.432 121.293 153.432ZM53.5746 151.475C53.6708 151.475 53.735 151.443 53.7991 151.379C53.8954 151.251 53.8954 151.058 53.7671 150.962C53.4142 150.641 53.0292 150.288 52.6764 149.935C52.5481 149.807 52.3556 149.839 52.2594 149.935C52.1311 150.064 52.1631 150.256 52.2594 150.352C52.6122 150.705 52.9972 151.058 53.3821 151.379C53.4142 151.443 53.4784 151.475 53.5746 151.475ZM123.57 151.475C123.634 151.475 123.699 151.443 123.763 151.411C124.148 151.09 124.5 150.737 124.885 150.385C125.014 150.256 125.014 150.064 124.885 149.968C124.757 149.839 124.565 149.839 124.468 149.968C124.116 150.32 123.731 150.641 123.378 150.994C123.249 151.09 123.249 151.283 123.346 151.411C123.41 151.443 123.506 151.475 123.57 151.475ZM51.3932 149.39C51.4574 149.39 51.5536 149.358 51.6178 149.294C51.7461 149.166 51.7461 148.973 51.6178 148.877C51.2649 148.524 50.912 148.171 50.5913 147.786C50.4629 147.658 50.3026 147.658 50.1743 147.786C50.0459 147.914 50.0459 148.075 50.1743 148.203C50.5271 148.556 50.88 148.941 51.2328 149.294C51.2328 149.358 51.297 149.39 51.3932 149.39ZM125.752 149.39C125.816 149.39 125.912 149.358 125.976 149.294C126.329 148.941 126.682 148.556 127.035 148.203C127.163 148.075 127.131 147.882 127.035 147.786C126.906 147.658 126.714 147.69 126.618 147.786C126.265 148.139 125.944 148.524 125.591 148.877C125.463 149.005 125.463 149.198 125.591 149.294C125.591 149.358 125.687 149.39 125.752 149.39ZM49.3402 147.209C49.4044 147.209 49.4685 147.177 49.5327 147.145C49.661 147.048 49.661 146.856 49.5648 146.728C49.244 146.343 48.9232 145.958 48.6024 145.605C48.5062 145.477 48.3137 145.444 48.1854 145.573C48.057 145.669 48.025 145.861 48.1533 145.99C48.4741 146.375 48.7949 146.76 49.1477 147.145C49.1798 147.177 49.244 147.209 49.3402 147.209ZM127.805 147.177C127.901 147.177 127.965 147.145 128.029 147.08C128.35 146.695 128.703 146.311 129.024 145.926C129.12 145.797 129.12 145.605 128.991 145.509C128.863 145.412 128.671 145.412 128.574 145.541C128.254 145.926 127.933 146.311 127.612 146.663C127.516 146.792 127.516 146.984 127.644 147.08C127.676 147.145 127.74 147.177 127.805 147.177ZM47.4155 144.867C47.4797 144.867 47.5438 144.835 47.608 144.803C47.7363 144.707 47.7683 144.514 47.6721 144.386C47.3513 144.001 47.0626 143.584 46.7739 143.199C46.6777 143.071 46.4852 143.039 46.3569 143.135C46.2286 143.231 46.1965 143.423 46.2928 143.552C46.5815 143.969 46.9022 144.354 47.223 144.771C47.223 144.835 47.3193 144.867 47.4155 144.867ZM129.729 144.867C129.826 144.867 129.922 144.835 129.954 144.739C130.275 144.354 130.563 143.937 130.884 143.52C130.98 143.391 130.948 143.199 130.82 143.103C130.692 143.006 130.499 143.039 130.403 143.167C130.114 143.584 129.793 143.969 129.505 144.354C129.408 144.482 129.441 144.675 129.569 144.771C129.601 144.835 129.665 144.867 129.729 144.867ZM45.6191 142.461C45.6832 142.461 45.7474 142.429 45.7795 142.397C45.9078 142.301 45.9399 142.108 45.8436 141.98C45.5549 141.563 45.2662 141.146 45.0096 140.729C44.9134 140.601 44.7209 140.536 44.5926 140.633C44.4643 140.729 44.4001 140.921 44.4963 141.05C44.785 141.467 45.0417 141.884 45.3304 142.301C45.4266 142.397 45.5228 142.461 45.6191 142.461ZM131.526 142.461C131.622 142.461 131.718 142.429 131.782 142.333C132.071 141.916 132.36 141.499 132.616 141.082C132.713 140.953 132.681 140.761 132.52 140.665C132.392 140.568 132.199 140.601 132.103 140.761C131.846 141.178 131.558 141.595 131.269 142.012C131.173 142.14 131.205 142.333 131.333 142.429C131.397 142.429 131.462 142.461 131.526 142.461ZM43.9831 139.927C44.0472 139.927 44.0793 139.927 44.1435 139.895C44.2718 139.799 44.3359 139.638 44.2397 139.478C43.9831 139.061 43.7264 138.612 43.4698 138.195C43.3736 138.066 43.2132 138.002 43.0528 138.098C42.9245 138.195 42.8603 138.355 42.9566 138.515C43.2132 138.965 43.4698 139.382 43.7265 139.831C43.7906 139.895 43.8868 139.927 43.9831 139.927ZM133.162 139.927C133.258 139.927 133.354 139.863 133.418 139.799C133.675 139.382 133.932 138.932 134.188 138.483C134.284 138.355 134.22 138.163 134.092 138.066C133.932 137.97 133.771 138.034 133.675 138.163C133.418 138.58 133.162 139.029 132.905 139.446C132.809 139.574 132.873 139.766 133.001 139.863C133.033 139.927 133.098 139.927 133.162 139.927ZM134.637 137.329C134.734 137.329 134.862 137.264 134.894 137.168C135.119 136.719 135.375 136.27 135.6 135.821C135.664 135.66 135.6 135.5 135.471 135.404C135.311 135.34 135.151 135.404 135.054 135.532C134.83 135.981 134.605 136.43 134.381 136.847C134.317 137.008 134.349 137.168 134.509 137.264C134.541 137.296 134.605 137.329 134.637 137.329ZM42.4754 137.329C42.5075 137.329 42.5716 137.329 42.6037 137.296C42.7641 137.232 42.7961 137.04 42.732 136.879C42.5074 136.43 42.2508 135.981 42.0583 135.532C41.9942 135.372 41.8017 135.308 41.6413 135.404C41.481 135.468 41.4168 135.66 41.513 135.821C41.7376 136.27 41.9621 136.719 42.2187 137.168C42.2829 137.264 42.3791 137.329 42.4754 137.329ZM135.985 134.634C136.113 134.634 136.209 134.57 136.273 134.474C136.498 134.024 136.69 133.543 136.883 133.094C136.947 132.934 136.883 132.773 136.722 132.709C136.562 132.645 136.402 132.709 136.337 132.87C136.145 133.319 135.953 133.768 135.728 134.217C135.664 134.377 135.728 134.538 135.888 134.602C135.888 134.634 135.953 134.634 135.985 134.634ZM41.1281 134.602C41.1601 134.602 41.2243 134.602 41.2564 134.57C41.4168 134.506 41.4809 134.313 41.4168 134.185C41.2243 133.736 40.9997 133.287 40.8073 132.805C40.7431 132.645 40.5507 132.581 40.4223 132.645C40.262 132.709 40.1978 132.902 40.262 133.03C40.4544 133.479 40.679 133.96 40.8715 134.409C40.9035 134.538 41.0318 134.602 41.1281 134.602ZM137.172 131.875C137.3 131.875 137.396 131.811 137.46 131.683C137.653 131.201 137.813 130.752 138.006 130.271C138.07 130.111 137.973 129.95 137.813 129.886C137.653 129.822 137.492 129.918 137.428 130.079C137.268 130.56 137.075 131.009 136.915 131.49C136.851 131.651 136.915 131.811 137.075 131.875C137.075 131.875 137.139 131.875 137.172 131.875ZM39.9412 131.843C39.9732 131.843 40.0053 131.843 40.0374 131.811C40.1978 131.747 40.262 131.586 40.1978 131.426C40.0053 130.977 39.8449 130.496 39.6524 130.015C39.5883 129.854 39.4279 129.79 39.2675 129.822C39.1071 129.886 39.043 130.047 39.0751 130.207C39.2354 130.688 39.4279 131.169 39.6204 131.619C39.7166 131.779 39.8449 131.843 39.9412 131.843ZM138.198 129.052C138.326 129.052 138.455 128.956 138.487 128.86C138.647 128.379 138.808 127.897 138.936 127.416C138.968 127.256 138.904 127.095 138.743 127.031C138.583 126.999 138.423 127.063 138.358 127.224C138.23 127.705 138.07 128.186 137.909 128.667C137.845 128.828 137.941 128.988 138.102 129.052C138.134 129.052 138.166 129.052 138.198 129.052ZM38.9147 128.988C38.9467 128.988 38.9788 128.988 39.0109 128.988C39.1713 128.924 39.2675 128.764 39.2033 128.603C39.0429 128.122 38.9147 127.641 38.7543 127.16C38.7222 126.999 38.5297 126.903 38.3693 126.967C38.2089 126.999 38.1127 127.192 38.1768 127.352C38.3052 127.833 38.4656 128.314 38.6259 128.796C38.6901 128.924 38.7863 128.988 38.9147 128.988ZM139.032 126.165C139.16 126.165 139.289 126.069 139.321 125.941C139.449 125.459 139.577 124.978 139.674 124.465C139.706 124.305 139.609 124.144 139.449 124.112C139.289 124.08 139.128 124.176 139.096 124.337C138.968 124.818 138.872 125.299 138.743 125.78C138.711 125.941 138.808 126.101 138.968 126.133C139 126.165 139.032 126.165 139.032 126.165ZM38.0806 126.133C38.1127 126.133 38.1448 126.133 38.1448 126.133C38.3052 126.101 38.4014 125.941 38.3693 125.78C38.241 125.299 38.1127 124.818 38.0164 124.337C37.9844 124.176 37.824 124.08 37.6636 124.112C37.5032 124.144 37.4069 124.305 37.439 124.465C37.5673 124.946 37.6636 125.459 37.7919 125.941C37.824 126.037 37.9523 126.133 38.0806 126.133ZM139.738 123.246C139.866 123.246 139.994 123.15 140.027 122.989C140.123 122.508 140.219 121.995 140.315 121.514C140.347 121.353 140.219 121.193 140.059 121.161C139.898 121.129 139.738 121.257 139.706 121.418C139.61 121.899 139.513 122.412 139.417 122.893C139.385 123.054 139.481 123.214 139.642 123.246C139.706 123.246 139.706 123.246 139.738 123.246ZM37.3749 123.182C37.407 123.182 37.4069 123.182 37.439 123.182C37.5994 123.15 37.6957 122.989 37.6636 122.829C37.5674 122.348 37.4711 121.835 37.3749 121.353C37.3428 121.193 37.1824 121.065 37.022 121.097C36.8616 121.129 36.7333 121.289 36.7654 121.45C36.8616 121.931 36.9578 122.444 37.0541 122.925C37.1182 123.086 37.2466 123.182 37.3749 123.182ZM140.251 120.263C140.411 120.263 140.54 120.166 140.54 120.006C140.604 119.525 140.668 119.012 140.732 118.498C140.764 118.338 140.636 118.178 140.476 118.178C140.315 118.145 140.155 118.274 140.155 118.434C140.091 118.915 140.027 119.429 139.962 119.91C139.93 120.07 140.059 120.231 140.219 120.263C140.219 120.263 140.219 120.263 140.251 120.263ZM36.8616 120.231L36.8937 120.231C37.0541 120.199 37.1824 120.07 37.1503 119.878C37.0862 119.397 37.022 118.883 36.9578 118.402C36.9258 118.242 36.7974 118.113 36.637 118.145C36.4767 118.178 36.3484 118.306 36.3804 118.466C36.4446 118.98 36.5087 119.461 36.5729 119.974C36.605 120.102 36.7333 120.231 36.8616 120.231ZM140.604 117.279C140.764 117.279 140.893 117.151 140.893 116.991C140.925 116.477 140.957 115.996 140.989 115.483C140.989 115.323 140.861 115.162 140.7 115.162C140.54 115.162 140.379 115.29 140.379 115.451C140.347 115.932 140.315 116.445 140.283 116.959C140.283 117.119 140.411 117.247 140.604 117.279C140.572 117.279 140.572 117.279 140.604 117.279ZM36.5408 117.247C36.7333 117.247 36.8616 117.087 36.8295 116.927C36.7975 116.445 36.7654 115.932 36.7333 115.419C36.7333 115.258 36.5729 115.13 36.4125 115.13C36.2521 115.13 36.1238 115.291 36.1238 115.451C36.1559 115.964 36.188 116.477 36.22 116.959C36.2521 117.119 36.3804 117.247 36.5408 117.247ZM140.764 114.264C140.925 114.264 141.053 114.136 141.053 113.975C141.053 113.462 141.085 112.981 141.085 112.468C141.085 112.307 140.957 112.179 140.796 112.179C140.636 112.179 140.508 112.307 140.508 112.468C140.508 112.981 140.508 113.462 140.476 113.975C140.476 114.136 140.604 114.264 140.764 114.264ZM36.3484 114.232C36.3484 114.232 36.3804 114.232 36.3484 114.232C36.5088 114.232 36.6691 114.104 36.637 113.911C36.637 113.43 36.605 112.917 36.605 112.403L36.605 112.307C36.605 112.147 36.4767 112.018 36.3163 112.018C36.1559 112.018 36.0276 112.147 36.0276 112.307L36.0276 112.403C36.0276 112.917 36.0276 113.43 36.0597 113.911C36.0597 114.104 36.188 114.232 36.3484 114.232ZM140.764 111.249C140.925 111.249 141.085 111.12 141.053 110.928C141.053 110.415 141.021 109.901 140.989 109.42C140.989 109.26 140.829 109.131 140.668 109.131C140.508 109.131 140.379 109.292 140.379 109.452C140.411 109.933 140.444 110.447 140.444 110.96C140.476 111.12 140.604 111.249 140.764 111.249ZM36.3484 111.12C36.5088 111.12 36.637 110.992 36.637 110.832C36.637 110.318 36.6691 109.837 36.7012 109.324C36.7012 109.163 36.5729 109.003 36.4125 109.003C36.2521 109.003 36.0917 109.131 36.0917 109.292C36.0596 109.805 36.0276 110.286 36.0276 110.799C36.0597 110.992 36.188 111.12 36.3484 111.12ZM140.604 108.265C140.796 108.265 140.925 108.105 140.893 107.944C140.861 107.431 140.796 106.95 140.732 106.437C140.7 106.276 140.572 106.148 140.411 106.18C140.251 106.212 140.123 106.341 140.155 106.501C140.219 106.982 140.251 107.495 140.315 107.977C140.315 108.137 140.444 108.265 140.604 108.265ZM36.5408 108.137C36.7012 108.137 36.8295 108.009 36.8295 107.848C36.8616 107.367 36.9258 106.854 36.9899 106.373C37.022 106.212 36.8937 106.052 36.7333 106.052C36.5729 106.02 36.4125 106.148 36.4125 106.308C36.3484 106.822 36.3163 107.303 36.2521 107.816C36.22 107.977 36.3484 108.105 36.5408 108.137C36.5408 108.137 36.5088 108.137 36.5408 108.137ZM140.251 105.282L140.283 105.282C140.444 105.25 140.572 105.122 140.54 104.929C140.476 104.448 140.379 103.935 140.315 103.421C140.283 103.261 140.123 103.133 139.962 103.165C139.802 103.197 139.674 103.357 139.706 103.518C139.802 103.999 139.866 104.512 139.93 104.993C139.994 105.154 140.123 105.282 140.251 105.282ZM36.8937 105.122C37.0541 105.122 37.1824 105.025 37.1824 104.865C37.2466 104.384 37.3428 103.87 37.4069 103.389C37.439 103.229 37.3107 103.069 37.1503 103.036C36.9899 103.004 36.8295 103.133 36.7974 103.293C36.7012 103.774 36.6371 104.288 36.5729 104.801C36.5408 104.961 36.6692 105.122 36.8295 105.154C36.8616 105.122 36.8616 105.122 36.8937 105.122ZM139.738 102.299C139.77 102.299 139.77 102.299 139.802 102.299C139.962 102.267 140.059 102.106 140.027 101.946C139.93 101.465 139.834 100.951 139.706 100.47C139.674 100.31 139.513 100.214 139.353 100.246C139.192 100.278 139.096 100.438 139.128 100.598C139.257 101.08 139.353 101.561 139.449 102.074C139.481 102.202 139.609 102.299 139.738 102.299ZM37.4069 102.17C37.5353 102.17 37.6636 102.074 37.6957 101.946C37.7919 101.465 37.8881 100.983 38.0164 100.47C38.0485 100.31 37.9523 100.149 37.7919 100.117C37.6315 100.085 37.4711 100.181 37.439 100.342C37.3107 100.823 37.2145 101.336 37.1182 101.817C37.0861 101.978 37.1824 102.138 37.3428 102.17C37.3749 102.17 37.3749 102.17 37.4069 102.17ZM139.064 99.3795C139.096 99.3795 139.128 99.3795 139.128 99.3795C139.289 99.3474 139.385 99.187 139.353 99.0266C139.225 98.5454 139.096 98.0643 138.936 97.5831C138.904 97.4227 138.711 97.3264 138.551 97.3906C138.391 97.4227 138.294 97.6151 138.358 97.7755C138.487 98.2567 138.647 98.7379 138.775 99.2191C138.808 99.2832 138.936 99.3795 139.064 99.3795ZM38.1127 99.2512C38.241 99.2512 38.3693 99.1549 38.4014 99.0266C38.5297 98.5454 38.658 98.0643 38.8184 97.5831C38.8505 97.4227 38.7863 97.2623 38.6259 97.1981C38.4656 97.1661 38.3051 97.2302 38.241 97.3906C38.1127 97.8718 37.9523 98.353 37.824 98.8341C37.7919 98.9945 37.8881 99.1549 38.0485 99.187C38.0485 99.2512 38.0806 99.2512 38.1127 99.2512ZM138.23 96.4924C138.262 96.4924 138.294 96.4924 138.326 96.4924C138.487 96.4282 138.583 96.2678 138.519 96.1074C138.358 95.6263 138.198 95.1451 138.038 94.6639C137.974 94.5035 137.813 94.4394 137.653 94.4714C137.492 94.5356 137.428 94.696 137.46 94.8564C137.621 95.3376 137.781 95.7867 137.941 96.2678C137.973 96.3962 138.102 96.4924 138.23 96.4924ZM38.9467 96.3641C39.075 96.3641 39.2034 96.2999 39.2354 96.1716C39.3958 95.6904 39.5562 95.2093 39.7166 94.7602C39.7808 94.5998 39.6845 94.4394 39.5241 94.3752C39.3637 94.3111 39.2034 94.4073 39.1392 94.5677C38.9788 95.0489 38.7863 95.53 38.658 96.0112C38.5939 96.1716 38.6901 96.332 38.8505 96.3962C38.8826 96.3641 38.9147 96.3641 38.9467 96.3641ZM137.204 93.6374C137.236 93.6374 137.268 93.6374 137.3 93.6053C137.46 93.5412 137.524 93.3808 137.46 93.2204C137.268 92.7392 137.075 92.2901 136.883 91.8089C136.819 91.6485 136.626 91.5843 136.498 91.6485C136.337 91.7127 136.273 91.9052 136.337 92.0335C136.53 92.4826 136.722 92.9637 136.915 93.4128C136.947 93.5732 137.075 93.6374 137.204 93.6374ZM39.9732 93.5412C40.1015 93.5412 40.1978 93.477 40.2619 93.3487C40.4544 92.8996 40.6469 92.4184 40.8394 91.9693C40.9035 91.8089 40.8394 91.6485 40.679 91.5844C40.5186 91.5202 40.3582 91.5844 40.294 91.7448C40.1015 92.1939 39.9091 92.6751 39.7166 93.1242C39.6525 93.2846 39.7166 93.4449 39.877 93.5091C39.9091 93.5091 39.9412 93.5412 39.9732 93.5412ZM136.017 90.8786C136.049 90.8786 136.113 90.8786 136.145 90.8465C136.305 90.7824 136.37 90.5899 136.305 90.4616C136.081 90.0125 135.888 89.5313 135.664 89.0822C135.6 88.9218 135.407 88.8577 135.247 88.9539C135.086 89.0181 135.022 89.2105 135.118 89.3709C135.343 89.82 135.568 90.2692 135.76 90.7183C135.792 90.8145 135.888 90.8786 136.017 90.8786ZM41.1602 90.7824C41.2885 90.7824 41.3847 90.7182 41.4488 90.622C41.6734 90.1729 41.8659 89.7238 42.0904 89.2747C42.1546 89.1143 42.0904 88.9539 41.9621 88.8577C41.8017 88.7935 41.6413 88.8577 41.5451 88.986C41.3205 89.4351 41.096 89.8842 40.9035 90.3333C40.8394 90.4937 40.9035 90.6541 41.0639 90.7183C41.0639 90.7503 41.1281 90.7824 41.1602 90.7824ZM134.669 88.184C134.701 88.184 134.766 88.184 134.798 88.152C134.958 88.0878 134.99 87.8953 134.926 87.7349C134.701 87.2858 134.445 86.8367 134.188 86.4197C134.092 86.2593 133.932 86.2272 133.771 86.3235C133.643 86.4197 133.579 86.5801 133.675 86.7405C133.932 87.1896 134.156 87.6066 134.413 88.0557C134.445 88.1199 134.573 88.184 134.669 88.184ZM42.5075 88.0878C42.6037 88.0878 42.732 88.0236 42.7641 87.9274C42.9886 87.4783 43.2453 87.0613 43.5019 86.6122C43.5981 86.4839 43.534 86.2914 43.4057 86.1951C43.2774 86.0989 43.0849 86.1631 42.9886 86.2914C42.732 86.7405 42.5074 87.1575 42.2508 87.6066C42.1866 87.767 42.2187 87.9274 42.3791 88.0237C42.4112 88.0878 42.4433 88.0878 42.5075 88.0878ZM133.162 85.5536C133.226 85.5536 133.258 85.5536 133.322 85.5215C133.45 85.4253 133.515 85.2649 133.418 85.1045C133.162 84.6875 132.873 84.2384 132.616 83.8213C132.52 83.693 132.328 83.6289 132.199 83.7251C132.071 83.8213 132.007 84.0138 132.103 84.1421C132.36 84.5592 132.648 84.9762 132.905 85.4253C132.969 85.4894 133.065 85.5536 133.162 85.5536ZM44.0151 85.4894C44.1114 85.4894 44.2076 85.4253 44.2718 85.3611C44.5284 84.9441 44.785 84.5271 45.0737 84.11C45.17 83.9817 45.1379 83.7893 44.9775 83.693C44.8492 83.5968 44.6567 83.6289 44.5605 83.7892C44.2718 84.2063 44.0152 84.6233 43.7585 85.0724C43.6623 85.2007 43.7264 85.3932 43.8547 85.4894C43.8868 85.4574 43.951 85.4894 44.0151 85.4894ZM131.526 83.0194C131.59 83.0194 131.654 82.9873 131.686 82.9552C131.814 82.859 131.846 82.6665 131.75 82.5382C131.462 82.1212 131.173 81.7041 130.884 81.3192C130.788 81.1909 130.595 81.1588 130.467 81.2551C130.339 81.3513 130.307 81.5437 130.403 81.672C130.692 82.0891 130.98 82.474 131.269 82.8911C131.333 82.9873 131.429 83.0194 131.526 83.0194ZM45.6512 82.9552C45.7474 82.9552 45.8436 82.9231 45.9078 82.8269C46.1965 82.4099 46.4852 81.9929 46.7739 81.6079C46.8702 81.4796 46.8381 81.2871 46.7097 81.1909C46.5814 81.0946 46.389 81.1267 46.2927 81.2551C46.004 81.6721 45.7153 82.057 45.4266 82.474C45.3304 82.6023 45.3625 82.7948 45.4908 82.8911C45.5229 82.9552 45.587 82.9552 45.6512 82.9552ZM129.729 80.6135C129.793 80.6135 129.858 80.5814 129.922 80.5493C130.05 80.4531 130.082 80.2606 129.986 80.1323C129.665 79.7474 129.344 79.3303 129.024 78.9454C128.927 78.8171 128.735 78.785 128.607 78.9133C128.478 79.0095 128.446 79.202 128.574 79.3303C128.895 79.7153 129.216 80.1002 129.505 80.4852C129.569 80.5493 129.665 80.6135 129.729 80.6135ZM47.4155 80.5493C47.5117 80.5493 47.608 80.5172 47.64 80.421C47.9608 80.036 48.2495 79.6511 48.5703 79.2662C48.6666 79.1378 48.6666 78.9454 48.5383 78.8492C48.4099 78.7529 48.2174 78.7529 48.1212 78.8812C47.8004 79.2662 47.4796 79.6511 47.1589 80.0681C47.0626 80.1964 47.0947 80.3889 47.223 80.4852C47.2872 80.5172 47.3513 80.5493 47.4155 80.5493ZM127.837 78.2717C127.901 78.2717 127.965 78.2397 128.029 78.2076C128.157 78.1114 128.157 77.9189 128.061 77.7905C127.74 77.4056 127.388 77.0527 127.035 76.6678C126.906 76.5395 126.746 76.5395 126.618 76.6678C126.489 76.7961 126.489 76.9565 126.618 77.0848C126.971 77.4377 127.291 77.8226 127.612 78.2076C127.644 78.2397 127.74 78.2717 127.837 78.2717ZM49.3402 78.2397C49.4365 78.2397 49.5006 78.2076 49.5648 78.1434C49.8855 77.7585 50.2384 77.4056 50.5592 77.0207C50.6875 76.8923 50.6554 76.6999 50.5592 76.6037C50.4309 76.4753 50.2384 76.5074 50.1422 76.6037C49.7893 76.9565 49.4685 77.3415 49.1156 77.7264C49.0194 77.8547 49.0194 78.0472 49.1477 78.1434C49.2119 78.2076 49.2761 78.2397 49.3402 78.2397ZM125.784 76.0904C125.848 76.0904 125.944 76.0583 126.008 75.9941C126.136 75.8658 126.136 75.6733 126.008 75.5771C125.655 75.2242 125.302 74.8714 124.917 74.5185C124.789 74.3902 124.597 74.4223 124.5 74.5185C124.372 74.6469 124.404 74.8393 124.5 74.9355C124.853 75.2884 125.206 75.6413 125.559 75.9941C125.623 76.0583 125.687 76.0904 125.784 76.0904ZM51.3932 76.0262C51.4574 76.0262 51.5536 75.9941 51.6178 75.93C51.9707 75.5771 52.3235 75.2243 52.6764 74.8714C52.8047 74.7431 52.8047 74.5506 52.6764 74.4544C52.5481 74.326 52.3556 74.326 52.2594 74.4544C51.9065 74.8072 51.5215 75.1601 51.1687 75.513C51.0404 75.6413 51.0404 75.8337 51.1687 75.93C51.2649 75.9941 51.3291 76.0262 51.3932 76.0262ZM123.602 74.0052C123.699 74.0052 123.763 73.9732 123.827 73.909C123.923 73.7807 123.923 73.5882 123.795 73.492C123.41 73.1712 123.057 72.8184 122.672 72.4976C122.544 72.4013 122.351 72.4013 122.255 72.5296C122.159 72.658 122.159 72.8504 122.287 72.9467C122.672 73.2675 123.057 73.5882 123.41 73.9411C123.442 73.9732 123.538 74.0052 123.602 74.0052ZM53.5746 73.9411C53.6387 73.9411 53.7029 73.909 53.767 73.877C54.152 73.5562 54.5049 73.2033 54.8898 72.8825C55.0181 72.7863 55.0181 72.5938 54.9219 72.4655C54.8256 72.3372 54.6332 72.3372 54.5049 72.4334C54.1199 72.7542 53.735 73.1071 53.3821 73.4279C53.2538 73.5241 53.2538 73.7165 53.35 73.8449C53.4142 73.909 53.5104 73.9411 53.5746 73.9411ZM121.325 72.0485C121.421 72.0485 121.485 72.0164 121.549 71.9522C121.645 71.8239 121.645 71.6314 121.517 71.5352C121.132 71.2144 120.715 70.8936 120.33 70.6049C120.202 70.5087 120.009 70.5408 119.913 70.6691C119.817 70.7974 119.849 70.9899 119.977 71.0861C120.362 71.3748 120.779 71.6956 121.164 72.0164C121.196 72.0164 121.261 72.0485 121.325 72.0485ZM55.8842 71.9843C55.9484 71.9843 56.0126 71.9522 56.0767 71.9201C56.4617 71.5994 56.8466 71.3107 57.2636 70.9899C57.3919 70.8937 57.424 70.7012 57.3278 70.5729C57.2315 70.4445 57.0391 70.4125 56.9108 70.5087C56.5258 70.7974 56.1088 71.1182 55.7238 71.439C55.5955 71.5352 55.5635 71.7277 55.6918 71.856C55.6918 71.9522 55.788 71.9843 55.8842 71.9843ZM118.919 70.22C119.015 70.22 119.111 70.1879 119.175 70.0917C119.272 69.9634 119.24 69.7709 119.111 69.6746C118.694 69.3859 118.277 69.0972 117.86 68.8085C117.732 68.7123 117.539 68.7444 117.443 68.9048C117.347 69.0331 117.379 69.2255 117.539 69.3218C117.956 69.6105 118.373 69.8992 118.758 70.1879C118.79 70.22 118.855 70.22 118.919 70.22ZM58.2581 70.1879C58.3222 70.1879 58.3864 70.1558 58.4185 70.1237C58.8355 69.835 59.2525 69.5463 59.6375 69.2576C59.7658 69.1614 59.7978 68.9689 59.7337 68.8406C59.6374 68.7123 59.445 68.6802 59.3167 68.7444C58.8996 69.0331 58.4826 69.3218 58.0656 69.6105C57.9373 69.7067 57.9052 69.8992 58.0015 70.0275C58.0977 70.1238 58.1618 70.1879 58.2581 70.1879ZM116.417 68.5519C116.513 68.5519 116.609 68.4878 116.673 68.4236C116.769 68.2953 116.705 68.1028 116.577 68.0066C116.16 67.7499 115.711 67.4612 115.294 67.2046C115.166 67.1084 114.973 67.1725 114.877 67.3008C114.781 67.4292 114.845 67.6216 114.973 67.7178C115.39 67.9745 115.839 68.2311 116.256 68.4877C116.32 68.5198 116.385 68.5519 116.417 68.5519ZM60.7602 68.4877C60.8244 68.4877 60.8564 68.4878 60.9206 68.4557C61.3376 68.199 61.7867 67.9424 62.2037 67.6858C62.3321 67.5895 62.3962 67.4291 62.3 67.2687C62.2037 67.1404 62.0434 67.0763 61.883 67.1725C61.4339 67.4292 61.0168 67.6858 60.5998 67.9745C60.4715 68.0707 60.4073 68.2632 60.5036 68.3915C60.5677 68.4556 60.664 68.4877 60.7602 68.4877ZM113.85 67.0121C113.947 67.0121 114.075 66.948 114.107 66.8517C114.203 66.6913 114.139 66.5309 113.979 66.4347C113.53 66.1781 113.08 65.9535 112.663 65.729C112.503 65.6648 112.343 65.6969 112.246 65.8573C112.182 66.0177 112.214 66.1781 112.375 66.2743C112.824 66.4989 113.273 66.7555 113.69 66.9801C113.754 67.0121 113.786 67.0121 113.85 67.0121ZM63.3586 66.9801C63.4227 66.9801 63.4548 66.98 63.519 66.9479C63.9681 66.6913 64.3851 66.4668 64.8342 66.2422C64.9946 66.1781 65.0267 65.9856 64.9625 65.8252C64.8983 65.6648 64.7059 65.6328 64.5455 65.6969C64.0964 65.9215 63.6473 66.1781 63.1982 66.4026C63.0378 66.4989 63.0057 66.6593 63.0699 66.8197C63.1661 66.9159 63.2623 66.9801 63.3586 66.9801ZM111.188 65.6327C111.284 65.6327 111.412 65.5686 111.444 65.4723C111.509 65.3119 111.444 65.1516 111.316 65.0553C110.867 64.8308 110.418 64.6383 109.937 64.4138C109.776 64.3496 109.616 64.4138 109.552 64.5742C109.488 64.7346 109.552 64.8949 109.712 64.9591C110.161 65.1516 110.61 65.3761 111.06 65.6007C111.092 65.6327 111.124 65.6327 111.188 65.6327ZM66.0532 65.6007C66.0853 65.6007 66.1494 65.6007 66.1815 65.5686C66.6306 65.344 67.0797 65.1516 67.5288 64.927C67.6892 64.8629 67.7533 64.6704 67.6892 64.5421C67.625 64.3817 67.4326 64.3175 67.3043 64.3817C66.8552 64.5741 66.374 64.7987 65.9249 65.0232C65.7645 65.0874 65.7003 65.2799 65.7965 65.4403C65.8286 65.5365 65.9249 65.6007 66.0532 65.6007ZM108.429 64.4138C108.557 64.4138 108.654 64.3496 108.718 64.2213C108.782 64.0609 108.718 63.9005 108.557 63.8363C108.108 63.6439 107.627 63.4514 107.146 63.291C106.986 63.2269 106.825 63.3231 106.761 63.4514C106.697 63.6118 106.793 63.7722 106.921 63.8363C107.37 63.9967 107.852 64.1892 108.301 64.3817C108.365 64.4137 108.397 64.4138 108.429 64.4138ZM68.8119 64.3496C68.844 64.3496 68.8761 64.3496 68.9403 64.3175C69.3894 64.125 69.8706 63.9326 70.3517 63.7722C70.5121 63.708 70.5763 63.5476 70.5121 63.3872C70.448 63.2268 70.2875 63.1627 70.1272 63.2268C69.646 63.4193 69.1648 63.5797 68.7157 63.7722C68.5553 63.8364 68.4911 63.9967 68.5553 64.1571C68.5874 64.2854 68.6836 64.3496 68.8119 64.3496ZM105.606 63.3552C105.734 63.3552 105.863 63.291 105.895 63.1627C105.959 63.0023 105.863 62.8419 105.702 62.7777C105.221 62.6173 104.74 62.4569 104.259 62.2965C104.098 62.2324 103.938 62.3287 103.874 62.489C103.81 62.6494 103.906 62.8098 104.066 62.874C104.548 63.0344 105.029 63.1948 105.478 63.3552C105.542 63.3552 105.574 63.3552 105.606 63.3552ZM71.6349 63.291C71.667 63.291 71.699 63.291 71.7311 63.2589C72.2123 63.0985 72.6935 62.9381 73.1426 62.7777C73.3029 62.7136 73.3992 62.5532 73.335 62.3928C73.2709 62.2324 73.1105 62.1362 72.9501 62.2003C72.4689 62.3607 71.9877 62.5211 71.5066 62.6815C71.3462 62.7457 71.2499 62.906 71.3141 63.0664C71.3782 63.2268 71.5066 63.291 71.6349 63.291ZM102.751 62.4569C102.879 62.4569 103.008 62.3607 103.04 62.2324C103.072 62.072 103.008 61.9116 102.847 61.8475C102.366 61.7192 101.885 61.5908 101.372 61.4625C101.211 61.4304 101.051 61.5267 101.019 61.6871C100.987 61.8475 101.083 62.0079 101.243 62.0399C101.725 62.1683 102.206 62.2965 102.687 62.4249C102.687 62.4569 102.719 62.4569 102.751 62.4569ZM74.522 62.4249C74.554 62.4249 74.5861 62.4249 74.6182 62.4249C75.0993 62.2966 75.5805 62.1683 76.0617 62.0399C76.2221 62.0079 76.3184 61.8475 76.2863 61.6871C76.2542 61.5267 76.0938 61.4304 75.9334 61.4625C75.4522 61.5908 74.939 61.7192 74.4578 61.8475C74.2974 61.8796 74.2012 62.072 74.2332 62.2324C74.2653 62.3286 74.3936 62.4249 74.522 62.4249ZM99.832 61.7191C99.9603 61.7191 100.089 61.6229 100.121 61.4946C100.153 61.3342 100.057 61.1738 99.8962 61.1417C99.415 61.0455 98.9017 60.9172 98.4205 60.853C98.2601 60.8209 98.0997 60.9172 98.0676 61.0776C98.0356 61.238 98.1318 61.3984 98.2922 61.4304C98.7734 61.5267 99.2867 61.6229 99.7678 61.7191C99.7999 61.7191 99.7999 61.7191 99.832 61.7191ZM77.4411 61.6871C77.4732 61.6871 77.4732 61.6871 77.5052 61.6871C77.9864 61.5908 78.4676 61.4946 78.9809 61.3984C79.1412 61.3663 79.2375 61.2059 79.2054 61.0455C79.1733 60.8851 79.013 60.7889 78.8526 60.8209C78.3714 60.9172 77.8581 61.0134 77.3769 61.1097C77.2165 61.1417 77.1203 61.3021 77.1524 61.4625C77.1845 61.5908 77.2807 61.6871 77.4411 61.6871ZM96.8808 61.1417C97.0411 61.1417 97.1695 61.0455 97.1695 60.8851C97.2015 60.7247 97.0732 60.5643 96.9128 60.5322C96.4316 60.4681 95.9184 60.3718 95.4051 60.3077C95.2447 60.2756 95.0844 60.4039 95.0523 60.5643C95.0202 60.7247 95.1485 60.8851 95.3089 60.9172C95.7901 60.9813 96.3033 61.0455 96.7845 61.1417C96.8487 61.1417 96.8487 61.1417 96.8808 61.1417ZM80.3923 61.1417L80.4244 61.1417C80.9056 61.0776 81.4189 60.9813 81.9 60.9172C82.0604 60.8851 82.1887 60.7568 82.1566 60.5964C82.1246 60.436 81.9963 60.3077 81.8359 60.3398C81.3226 60.4039 80.8414 60.4681 80.3282 60.5643C80.1678 60.5964 80.0395 60.7568 80.0715 60.9172C80.1036 61.0134 80.2319 61.1417 80.3923 61.1417ZM93.8974 60.7568C94.0578 60.7568 94.1861 60.6285 94.1861 60.5001C94.2182 60.3398 94.0899 60.1794 93.9295 60.1794C93.4163 60.1152 92.9351 60.0831 92.4218 60.051C92.2614 60.051 92.101 60.1794 92.101 60.3398C92.101 60.5001 92.2293 60.6605 92.3897 60.6605C92.8709 60.6605 93.3521 60.7247 93.8974 60.7568C93.8653 60.7568 93.8653 60.7568 93.8974 60.7568ZM83.3757 60.7568C83.3757 60.7568 83.4077 60.7568 83.3757 60.7568C83.8889 60.6926 84.4022 60.6605 84.8833 60.6285C85.0437 60.6285 85.172 60.4681 85.172 60.3077C85.172 60.1473 85.0117 60.019 84.8513 60.019C84.338 60.0511 83.8568 60.0831 83.3436 60.1473C83.1832 60.1794 83.0549 60.3077 83.0869 60.4681C83.0869 60.6285 83.2153 60.7568 83.3757 60.7568ZM90.8821 60.5643C91.0425 60.5643 91.1707 60.436 91.1707 60.2756C91.1707 60.1152 91.0425 59.9548 90.8821 59.9548C90.3688 59.9227 89.8876 59.9228 89.3743 59.9228C89.2139 59.9228 89.0856 60.051 89.0536 60.2114C89.0536 60.3718 89.1819 60.5001 89.3423 60.5322C89.8876 60.5001 90.3688 60.5323 90.8821 60.5643ZM86.3911 60.5322C86.9043 60.5001 87.4176 60.5001 87.8987 60.5001C88.0591 60.5001 88.1874 60.3718 88.1874 60.1794C88.1874 60.019 88.0591 59.8906 87.8667 59.8906C87.3534 59.8906 86.8401 59.9228 86.3589 59.9228C86.1985 59.9228 86.0703 60.0831 86.0703 60.2435C86.0703 60.4039 86.2307 60.5322 86.3911 60.5322Z" fill="#0F0F0F"/>
<path d="M89.3121 137.201C89.8254 137.201 90.3386 137.168 90.8518 137.104C91.0122 137.104 91.1406 136.944 91.1085 136.784C91.1085 136.623 90.9481 136.495 90.7877 136.527C90.3065 136.559 89.7933 136.591 89.3121 136.623C89.1517 136.623 89.0234 136.751 89.0234 136.944C89.0234 137.072 89.1517 137.201 89.3121 137.201ZM87.8044 137.201C87.9648 137.201 88.0931 137.072 88.0931 136.912C88.0931 136.751 87.9648 136.591 87.8044 136.591C87.3232 136.591 86.8099 136.559 86.3288 136.495C86.1684 136.495 86.008 136.591 86.008 136.751C86.008 136.912 86.1042 137.072 86.2646 137.072C86.7779 137.136 87.2911 137.168 87.8044 137.201ZM92.2954 136.912L92.3275 136.912C92.8408 136.848 93.3219 136.751 93.8352 136.623C93.9956 136.591 94.0918 136.431 94.0597 136.27C94.0276 136.11 93.8672 136.014 93.7069 136.046C93.2257 136.142 92.7445 136.238 92.2312 136.302C92.0709 136.334 91.9425 136.495 91.9746 136.655C92.0388 136.816 92.1671 136.912 92.2954 136.912ZM84.789 136.912C84.9494 136.912 85.0777 136.816 85.0777 136.655C85.1098 136.495 84.9815 136.334 84.8211 136.302C84.3399 136.238 83.8267 136.142 83.3455 136.014C83.1851 135.982 83.0247 136.078 82.9926 136.238C82.9605 136.399 83.0568 136.559 83.2172 136.591C83.6983 136.687 84.2116 136.784 84.7248 136.88C84.7569 136.912 84.789 136.912 84.789 136.912ZM95.2466 136.27C95.2787 136.27 95.3108 136.27 95.3429 136.27C95.824 136.142 96.3052 135.982 96.7864 135.821C96.9468 135.757 97.011 135.597 96.9789 135.436C96.9147 135.276 96.7543 135.212 96.5939 135.244C96.1128 135.404 95.6636 135.565 95.1825 135.693C95.0221 135.725 94.9258 135.917 94.99 136.078C94.99 136.206 95.1183 136.27 95.2466 136.27ZM81.8378 136.27C81.9661 136.27 82.0944 136.174 82.1265 136.046C82.1585 135.885 82.0944 135.725 81.934 135.661C81.4528 135.532 80.9716 135.372 80.5225 135.212C80.3621 135.148 80.2018 135.244 80.1376 135.404C80.0735 135.565 80.1697 135.725 80.3301 135.789C80.8113 135.949 81.2924 136.11 81.7736 136.238C81.8057 136.27 81.8378 136.27 81.8378 136.27ZM98.1017 135.276C98.1337 135.276 98.1658 135.276 98.2299 135.244C98.7111 135.051 99.1602 134.827 99.6093 134.602C99.7697 134.538 99.8339 134.346 99.7377 134.185C99.6735 134.025 99.481 133.961 99.3206 134.057C98.8715 134.281 98.4224 134.474 97.9733 134.666C97.8129 134.73 97.7488 134.923 97.8129 135.051C97.8771 135.212 97.9733 135.276 98.1017 135.276ZM79.0149 135.276C79.1432 135.276 79.2394 135.212 79.3035 135.083C79.3677 134.923 79.3035 134.763 79.1431 134.698C78.694 134.506 78.245 134.281 77.7959 134.089C77.6355 134.025 77.4751 134.089 77.3788 134.217C77.3147 134.378 77.3788 134.538 77.5071 134.634C77.9562 134.859 78.4374 135.083 78.8865 135.276C78.9186 135.276 78.9828 135.276 79.0149 135.276ZM100.796 133.929C100.86 133.929 100.892 133.929 100.957 133.896C101.406 133.64 101.823 133.383 102.24 133.094C102.368 132.998 102.432 132.806 102.336 132.677C102.24 132.549 102.047 132.485 101.919 132.581C101.502 132.87 101.085 133.127 100.668 133.351C100.54 133.447 100.475 133.608 100.572 133.768C100.604 133.896 100.7 133.929 100.796 133.929ZM76.3202 133.929C76.4165 133.929 76.5127 133.864 76.5768 133.768C76.6731 133.64 76.609 133.447 76.4806 133.351C76.0636 133.094 75.6145 132.838 75.2296 132.581C75.1012 132.485 74.9088 132.517 74.8125 132.677C74.7163 132.806 74.7484 132.998 74.9088 133.094C75.3258 133.383 75.7749 133.64 76.1919 133.896C76.224 133.929 76.2561 133.929 76.3202 133.929ZM103.298 132.26C103.363 132.26 103.427 132.228 103.491 132.196C103.908 131.875 104.293 131.555 104.678 131.234C104.806 131.138 104.806 130.945 104.71 130.817C104.614 130.689 104.421 130.689 104.293 130.785C103.908 131.106 103.523 131.426 103.138 131.715C103.01 131.811 102.978 132.004 103.074 132.132C103.138 132.228 103.234 132.26 103.298 132.26ZM73.8181 132.26C73.9143 132.26 74.0106 132.228 74.0427 132.132C74.1389 132.004 74.1068 131.811 73.9785 131.715C73.5935 131.426 73.2086 131.106 72.8237 130.785C72.6953 130.689 72.5029 130.689 72.4066 130.817C72.3104 130.945 72.3104 131.138 72.4387 131.234C72.8237 131.555 73.2086 131.875 73.6256 132.196C73.6898 132.228 73.7539 132.26 73.8181 132.26ZM105.608 130.304C105.672 130.304 105.768 130.272 105.833 130.207C106.185 129.855 106.538 129.502 106.891 129.117C106.987 128.988 106.987 128.796 106.859 128.7C106.731 128.603 106.538 128.603 106.442 128.732C106.121 129.085 105.768 129.47 105.416 129.79C105.287 129.919 105.287 130.111 105.416 130.207C105.448 130.272 105.512 130.304 105.608 130.304ZM71.5084 130.304C71.5726 130.304 71.6688 130.272 71.733 130.207C71.8613 130.079 71.8613 129.887 71.733 129.79C71.3801 129.438 71.0273 129.085 70.7065 128.732C70.6102 128.603 70.4178 128.603 70.2894 128.7C70.1611 128.796 70.1611 128.988 70.2574 129.117C70.6102 129.502 70.9631 129.855 71.316 130.207C71.3801 130.272 71.4443 130.304 71.5084 130.304ZM107.629 128.09C107.725 128.09 107.789 128.058 107.854 127.994C108.174 127.609 108.495 127.192 108.784 126.775C108.88 126.647 108.848 126.454 108.72 126.358C108.591 126.262 108.399 126.294 108.303 126.422C108.014 126.839 107.725 127.224 107.404 127.609C107.308 127.737 107.308 127.93 107.437 128.026C107.501 128.058 107.565 128.09 107.629 128.09ZM69.4875 128.09C69.5516 128.09 69.6158 128.058 69.6799 128.026C69.8083 127.93 69.8404 127.737 69.712 127.609C69.3913 127.224 69.1025 126.839 68.8138 126.422C68.7176 126.294 68.5251 126.262 68.3968 126.358C68.2685 126.454 68.2364 126.647 68.3327 126.775C68.6214 127.192 68.9422 127.609 69.2629 127.994C69.3271 128.026 69.3912 128.09 69.4875 128.09ZM109.361 125.62C109.457 125.62 109.554 125.556 109.618 125.492C109.874 125.075 110.131 124.626 110.388 124.177C110.452 124.016 110.42 123.856 110.259 123.76C110.099 123.695 109.939 123.728 109.842 123.888C109.618 124.337 109.361 124.754 109.105 125.171C109.008 125.299 109.073 125.492 109.201 125.588C109.265 125.62 109.329 125.62 109.361 125.62ZM67.7552 125.62C67.8194 125.62 67.8515 125.62 67.9156 125.588C68.0439 125.492 68.1081 125.299 68.0119 125.171C67.7552 124.754 67.4986 124.305 67.274 123.888C67.2099 123.728 67.0174 123.695 66.857 123.76C66.6966 123.824 66.6646 124.016 66.7287 124.177C66.9533 124.626 67.2099 125.075 67.4986 125.492C67.5628 125.556 67.659 125.62 67.7552 125.62ZM110.805 122.99C110.933 122.99 111.029 122.926 111.094 122.829C111.318 122.38 111.51 121.899 111.703 121.418C111.767 121.257 111.671 121.097 111.543 121.033C111.382 120.969 111.222 121.065 111.158 121.193C110.965 121.642 110.773 122.124 110.58 122.573C110.516 122.733 110.58 122.893 110.741 122.958C110.709 122.958 110.773 122.99 110.805 122.99ZM66.3117 122.958C66.3438 122.958 66.4079 122.958 66.44 122.926C66.6004 122.861 66.6646 122.669 66.6004 122.541C66.4079 122.092 66.1834 121.642 66.023 121.161C65.9588 121.001 65.7984 120.937 65.638 121.001C65.4776 121.065 65.4135 121.225 65.4776 121.386C65.6701 121.867 65.8626 122.348 66.0871 122.797C66.0871 122.893 66.2154 122.958 66.3117 122.958ZM111.895 120.167C112.024 120.167 112.152 120.071 112.184 119.942C112.345 119.461 112.473 118.98 112.601 118.467C112.633 118.306 112.537 118.146 112.377 118.114C112.216 118.082 112.056 118.178 112.024 118.338C111.895 118.819 111.767 119.301 111.607 119.782C111.543 119.942 111.639 120.103 111.799 120.167C111.831 120.167 111.863 120.167 111.895 120.167ZM65.221 120.135C65.2531 120.135 65.2852 120.135 65.3172 120.135C65.4776 120.071 65.5739 119.91 65.5097 119.75C65.3493 119.269 65.221 118.787 65.0927 118.306C65.0606 118.146 64.9003 118.05 64.7399 118.082C64.5795 118.114 64.4832 118.274 64.5153 118.435C64.6436 118.916 64.7719 119.429 64.9323 119.91C64.9965 120.071 65.0927 120.135 65.221 120.135ZM112.633 117.248C112.762 117.248 112.89 117.151 112.922 116.991C113.018 116.478 113.082 115.997 113.147 115.483C113.179 115.323 113.05 115.163 112.89 115.163C112.73 115.13 112.569 115.259 112.569 115.419C112.505 115.9 112.441 116.414 112.345 116.895C112.312 117.055 112.409 117.216 112.569 117.248C112.601 117.248 112.601 117.248 112.633 117.248ZM64.4832 117.216C64.5153 117.216 64.5153 117.216 64.5474 117.216C64.7077 117.183 64.804 117.023 64.804 116.863C64.7078 116.382 64.6436 115.868 64.5795 115.387C64.5474 115.227 64.4191 115.098 64.2587 115.13C64.0983 115.163 63.97 115.291 64.002 115.451C64.0662 115.965 64.1303 116.478 64.2266 116.959C64.2266 117.119 64.3549 117.216 64.4832 117.216ZM113.018 114.264C113.179 114.264 113.307 114.136 113.307 113.976C113.339 113.462 113.339 112.949 113.339 112.436C113.339 112.275 113.211 112.147 113.05 112.147C112.89 112.147 112.762 112.275 112.762 112.436C112.762 112.917 112.73 113.43 112.73 113.911C112.697 114.104 112.826 114.232 113.018 114.264C112.986 114.264 112.986 114.264 113.018 114.264ZM64.1304 114.232C64.3228 114.232 64.4511 114.072 64.4191 113.911C64.387 113.43 64.387 112.917 64.387 112.436L64.387 112.372C64.387 112.211 64.2587 112.083 64.0983 112.083C63.9379 112.083 63.8096 112.211 63.8096 112.372L63.8096 112.436C63.8096 112.949 63.8096 113.462 63.8416 113.976C63.8416 114.104 63.97 114.232 64.1304 114.232ZM113.018 111.249C113.211 111.249 113.339 111.089 113.307 110.928C113.275 110.415 113.243 109.902 113.179 109.42C113.147 109.26 113.018 109.132 112.858 109.164C112.697 109.196 112.569 109.324 112.601 109.485C112.665 109.966 112.697 110.479 112.73 110.96C112.73 111.121 112.858 111.249 113.018 111.249ZM64.1304 111.153C64.2907 111.153 64.4191 111.024 64.4191 110.864C64.4511 110.383 64.4832 109.87 64.5474 109.388C64.5794 109.228 64.4511 109.068 64.2907 109.068C64.1304 109.036 63.97 109.164 63.97 109.324C63.9058 109.837 63.8737 110.351 63.8416 110.832C63.8096 110.992 63.9379 111.153 64.1304 111.153ZM112.633 108.266C112.665 108.266 112.665 108.266 112.697 108.266C112.858 108.234 112.954 108.073 112.954 107.913C112.858 107.399 112.762 106.918 112.633 106.437C112.601 106.277 112.441 106.18 112.28 106.213C112.12 106.245 112.024 106.405 112.056 106.565C112.184 107.047 112.28 107.528 112.377 108.009C112.377 108.137 112.505 108.266 112.633 108.266ZM64.5153 108.169C64.6436 108.169 64.7719 108.073 64.804 107.913C64.9002 107.432 64.9965 106.95 65.1248 106.469C65.1569 106.309 65.0606 106.148 64.9002 106.116C64.7399 106.084 64.5794 106.181 64.5474 106.341C64.419 106.822 64.3228 107.335 64.2266 107.817C64.1945 107.977 64.2907 108.137 64.4511 108.169C64.4832 108.169 64.4832 108.169 64.5153 108.169ZM111.928 105.314C111.96 105.314 111.992 105.314 112.024 105.314C112.184 105.25 112.28 105.09 112.216 104.929C112.056 104.448 111.895 103.967 111.703 103.486C111.639 103.325 111.478 103.261 111.318 103.325C111.158 103.39 111.093 103.55 111.158 103.71C111.35 104.16 111.511 104.641 111.639 105.122C111.671 105.25 111.799 105.314 111.928 105.314ZM65.2531 105.25C65.3814 105.25 65.5097 105.154 65.5418 105.026C65.7022 104.545 65.8626 104.095 66.0551 103.614C66.1192 103.454 66.023 103.293 65.8947 103.229C65.7343 103.165 65.5739 103.261 65.5097 103.39C65.3172 103.871 65.1569 104.352 64.9965 104.833C64.9323 104.994 65.0285 105.154 65.1889 105.218C65.1889 105.25 65.221 105.25 65.2531 105.25ZM110.837 102.524C110.869 102.524 110.933 102.524 110.965 102.491C111.126 102.427 111.19 102.235 111.126 102.107C110.901 101.657 110.676 101.176 110.452 100.727C110.388 100.567 110.195 100.535 110.035 100.599C109.874 100.663 109.842 100.855 109.907 101.016C110.131 101.465 110.356 101.914 110.58 102.363C110.612 102.459 110.709 102.524 110.837 102.524ZM66.3438 102.427C66.4721 102.427 66.5683 102.363 66.6325 102.267C66.8249 101.818 67.0495 101.369 67.3061 100.952C67.3703 100.791 67.3382 100.631 67.1778 100.535C67.0174 100.471 66.857 100.503 66.7608 100.663C66.5042 101.112 66.2796 101.561 66.0871 102.01C66.023 102.171 66.0871 102.331 66.2475 102.395C66.2475 102.427 66.3117 102.427 66.3438 102.427ZM109.393 99.861C109.457 99.861 109.49 99.861 109.554 99.8289C109.682 99.7327 109.746 99.5402 109.65 99.4119C109.393 98.9949 109.105 98.5458 108.816 98.1288C108.72 98.0005 108.527 97.9684 108.399 98.0646C108.271 98.1608 108.238 98.3533 108.335 98.4816C108.623 98.8986 108.912 99.3157 109.169 99.7327C109.201 99.7969 109.297 99.861 109.393 99.861ZM67.7552 99.7968C67.8515 99.7968 67.9477 99.7327 68.0119 99.6685C68.2685 99.2515 68.5572 98.8345 68.8459 98.4175C68.9421 98.2892 68.9101 98.0967 68.7818 98.0004C68.6534 97.9042 68.461 97.9363 68.3647 98.0646C68.076 98.4816 67.7873 98.8987 67.5307 99.3478C67.4344 99.4761 67.4986 99.6685 67.6269 99.7648C67.659 99.7648 67.7231 99.7968 67.7552 99.7968ZM107.661 97.3909C107.725 97.3909 107.789 97.3589 107.854 97.3268C107.982 97.2306 108.014 97.0381 107.886 96.9098C107.565 96.5248 107.244 96.1399 106.891 95.7549C106.795 95.6266 106.602 95.6266 106.474 95.7229C106.346 95.8191 106.346 96.0116 106.442 96.1399C106.763 96.4928 107.116 96.8777 107.404 97.2626C107.469 97.3589 107.565 97.3909 107.661 97.3909ZM69.5195 97.3268C69.6158 97.3268 69.68 97.2947 69.7441 97.2306C70.0649 96.8456 70.3857 96.4607 70.7065 96.1078C70.8027 95.9795 70.8027 95.787 70.6744 95.6908C70.5461 95.5625 70.3536 95.5946 70.2574 95.7229C69.9045 96.1078 69.5837 96.4928 69.2629 96.8777C69.1667 97.006 69.1667 97.1985 69.295 97.2947C69.3912 97.3268 69.4554 97.3268 69.5195 97.3268ZM105.64 95.1775C105.704 95.1775 105.801 95.1455 105.865 95.0813C105.993 94.953 105.993 94.7605 105.865 94.6643C105.512 94.3114 105.127 93.9585 104.742 93.6378C104.614 93.5415 104.421 93.5415 104.325 93.6698C104.229 93.7981 104.229 93.9906 104.357 94.0869C104.742 94.4077 105.095 94.7605 105.448 95.0813C105.48 95.1455 105.544 95.1775 105.64 95.1775ZM71.5405 95.1134C71.6047 95.1134 71.7009 95.0813 71.765 95.0171C72.1179 94.6643 72.5029 94.3435 72.8557 94.0227C72.984 93.9265 72.984 93.734 72.8878 93.6057C72.7916 93.4774 72.5991 93.4773 72.4708 93.5736C72.0859 93.8944 71.7009 94.2473 71.348 94.6001C71.2197 94.7284 71.2197 94.9209 71.348 95.0171C71.3801 95.0813 71.4764 95.1134 71.5405 95.1134ZM103.33 93.1886C103.427 93.1886 103.523 93.1566 103.555 93.0603C103.651 92.932 103.619 92.7396 103.491 92.6433C103.074 92.3225 102.657 92.0338 102.24 91.7451C102.111 91.6489 101.919 91.681 101.823 91.8414C101.727 91.9697 101.759 92.1621 101.919 92.2584C102.336 92.5471 102.753 92.8358 103.138 93.1245C103.202 93.1887 103.266 93.1886 103.33 93.1886ZM73.8502 93.1566C73.9143 93.1566 73.9785 93.1245 74.0427 93.0924C74.4276 92.8037 74.8446 92.515 75.2616 92.2263C75.3899 92.1301 75.4541 91.9376 75.3579 91.8093C75.2616 91.6809 75.0692 91.6168 74.9408 91.713C74.5238 92.0018 74.1068 92.2904 73.6898 92.5792C73.5615 92.6754 73.5294 92.8679 73.6256 92.9962C73.6577 93.1245 73.7539 93.1566 73.8502 93.1566ZM100.828 91.5206C100.925 91.5206 101.021 91.4564 101.085 91.3602C101.181 91.2319 101.117 91.0394 100.989 90.9431C100.54 90.6865 100.09 90.4299 99.6414 90.2053C99.481 90.1412 99.3206 90.2053 99.2244 90.3336C99.1602 90.494 99.2244 90.6544 99.3527 90.7507C99.8018 90.9752 100.219 91.1998 100.668 91.4564C100.732 91.5206 100.796 91.5206 100.828 91.5206ZM76.3523 91.4885C76.4165 91.4885 76.4485 91.4885 76.5127 91.4564C76.9297 91.1998 77.3788 90.9752 77.8279 90.7507C77.9883 90.6865 78.0525 90.494 77.9562 90.3336C77.8921 90.1733 77.6996 90.1091 77.5392 90.2053C77.0901 90.4299 76.641 90.6865 76.1919 90.9111C76.0636 91.0073 75.9994 91.1677 76.0957 91.3281C76.1598 91.4564 76.2561 91.4885 76.3523 91.4885ZM98.1337 90.1732C98.262 90.1732 98.3583 90.1091 98.4224 89.9808C98.4866 89.8204 98.4224 89.66 98.262 89.5959C97.7809 89.4034 97.3318 89.2109 96.8506 89.0505C96.6902 88.9863 96.5298 89.0826 96.4656 89.243C96.4014 89.4034 96.4977 89.5638 96.6581 89.6279C97.1072 89.7883 97.5884 89.9808 98.0375 90.1732C98.0695 90.1732 98.1016 90.1732 98.1337 90.1732ZM79.0469 90.1412C79.079 90.1412 79.1111 90.1412 79.1752 90.1091C79.6243 89.9166 80.1055 89.7241 80.5546 89.5637C80.715 89.4996 80.7791 89.3392 80.7471 89.1788C80.6829 89.0184 80.5225 88.9543 80.3621 88.9864C79.881 89.1467 79.3998 89.3392 78.9507 89.5317C78.7903 89.5958 78.7261 89.7883 78.7903 89.9166C78.8224 90.077 78.9507 90.1412 79.0469 90.1412ZM95.3108 89.1788C95.4391 89.1788 95.5674 89.0826 95.5995 88.9543C95.6316 88.7939 95.5674 88.6335 95.407 88.5693C94.9259 88.441 94.4126 88.3127 93.9314 88.1844C93.771 88.1523 93.6106 88.2485 93.5785 88.4089C93.5464 88.5693 93.6427 88.7297 93.8031 88.7618C94.2843 88.858 94.7655 88.9864 95.2466 89.1147C95.2466 89.1788 95.2787 89.1788 95.3108 89.1788ZM81.9019 89.1467C81.934 89.1467 81.9661 89.1467 81.9981 89.1467C82.4793 89.0184 82.9605 88.8901 83.4417 88.7939C83.6021 88.7618 83.6983 88.6014 83.6663 88.441C83.6342 88.2806 83.4738 88.1844 83.3134 88.2165C82.8322 88.3127 82.3189 88.441 81.8378 88.5693C81.6774 88.6014 81.5811 88.7939 81.6453 88.9543C81.6453 89.0826 81.7736 89.1467 81.9019 89.1467ZM92.3596 88.5372C92.52 88.5372 92.6483 88.441 92.6483 88.2806C92.6804 88.1202 92.552 87.9598 92.3916 87.9277C91.8784 87.8636 91.3972 87.7994 90.884 87.7353C90.7236 87.7353 90.5632 87.8315 90.5632 87.9919C90.5632 88.1523 90.6594 88.3127 90.8198 88.3127C91.301 88.3448 91.8142 88.4089 92.2954 88.5052C92.3275 88.5373 92.3596 88.5372 92.3596 88.5372ZM84.8532 88.5052L84.8852 88.5052C85.3664 88.441 85.8797 88.3769 86.3608 88.3127C86.5212 88.3127 86.6495 88.1523 86.6495 87.9919C86.6495 87.8315 86.4892 87.7032 86.3288 87.7032C85.8155 87.7353 85.3023 87.7994 84.8211 87.8957C84.6607 87.9278 84.5324 88.0881 84.5644 88.2485C84.5644 88.4089 84.6928 88.5052 84.8532 88.5052ZM89.3762 88.2485C89.5366 88.2485 89.6649 88.1202 89.6649 87.9598C89.6649 87.7994 89.5366 87.639 89.3762 87.639C88.863 87.607 88.3497 87.607 87.8365 87.639C87.6761 87.639 87.5478 87.7673 87.5478 87.9598C87.5478 88.1202 87.6761 88.2485 87.8686 88.2485C88.3497 88.2485 88.863 88.2485 89.3762 88.2485C89.3442 88.2485 89.3442 88.2485 89.3762 88.2485Z" fill="#0F0F0F"/>
<path d="M88.5736 114.297C89.4076 114.297 90.0813 113.623 90.0813 112.789L90.0813 1.50809C90.0813 0.674049 89.4076 0.000411783 88.5736 0.000411855C87.7395 0.000411928 87.0659 0.674049 87.0659 1.50809L87.0659 112.789C87.0659 113.623 87.7396 114.297 88.5736 114.297Z" fill="#0F0F0F"/>
<path d="M88.5731 116.221C88.7014 116.221 88.7977 116.189 88.8939 116.092L146.026 58.9602C146.186 58.7998 146.186 58.5111 146.026 58.3186L88.8939 1.18653C88.7335 1.02614 88.4448 1.02614 88.2523 1.18653L31.1203 58.3186C31.024 58.4149 30.9919 58.5111 30.9919 58.6394C30.9919 58.7677 31.024 58.864 31.1203 58.9602L88.2523 116.092C88.3165 116.189 88.4448 116.221 88.5731 116.221ZM145.064 58.6394L88.5731 115.13L32.0826 58.6394L88.5731 2.14889L145.064 58.6394Z" fill="#0F0F0F"/>
</svg>
