<svg width="241" height="602" viewBox="0 0 241 602" fill="none" xmlns="http://www.w3.org/2000/svg">
<path fill-rule="evenodd" clip-rule="evenodd" d="M122.147 0C70.5611 0 28.7422 41.8189 28.7422 93.4051V160.833C28.7422 189.653 41.7954 215.426 62.3125 232.559V285.188H51.8553C23.2164 285.188 0 308.405 0 337.044V601.078H46.207V406.096C46.207 404.642 47.3854 403.464 48.8391 403.464H54.628C56.0817 403.464 57.2601 404.642 57.2601 406.096V601.078H181.064V406.096C181.064 404.642 182.243 403.464 183.697 403.464H189.485C190.939 403.464 192.118 404.642 192.118 406.096V601.078H240.975V337.044C240.975 308.405 217.759 285.188 189.12 285.188H178.664V235.205C201.081 218.144 215.552 191.178 215.552 160.833V93.4051C215.552 41.8189 173.734 0 122.147 0ZM121.805 186.809H122.49C146.274 186.694 167.237 174.646 179.698 156.344H166.577C155.731 168.656 139.847 176.424 122.148 176.424C104.45 176.424 88.5662 168.656 77.7197 156.344H64.5967C77.0581 174.646 98.0212 186.694 121.805 186.809Z" fill="#262626"/>
<path d="M134.566 67.3643H196.993C213.173 67.3643 226.289 80.4803 226.289 96.6598C226.289 112.839 213.173 125.955 196.993 125.955H173.21C151.868 125.955 134.566 108.654 134.566 87.3119V67.3643Z" fill="#FFD318" stroke="#ABABAB" stroke-width="20"/>
<path d="M106.41 67.3643H43.9834C27.8039 67.3643 14.6879 80.4803 14.6879 96.6598C14.6879 112.839 27.8039 125.955 43.9834 125.955H67.7667C89.1089 125.955 106.41 108.654 106.41 87.3119V67.3643Z" fill="#FFD318" stroke="#ABABAB" stroke-width="20"/>
<rect x="94.0781" y="57.3643" width="60.5299" height="16.0925" fill="#ABABAB"/>
</svg>
