<svg width="2666" height="1598" viewBox="0 0 2666 1598" fill="none" xmlns="http://www.w3.org/2000/svg">
<path d="M2367.77 652.025L2425.43 427.66L2400.88 434.25L2360.61 616.199L2345.85 640.115L2367.77 652.025Z" fill="#1C1B1B"/>
<path d="M2279.45 865.364L2265.47 882.669L2169.64 1045.16L2157.43 1032.92L2141.35 1024.83L2216 929.918L2259.34 844.994L2279.45 865.364Z" fill="#1C1B1B"/>
<path d="M2012.6 1173.38L2006.7 1159.07L2167.48 1093.04L2283.54 1017.08L2292.06 1030.02L2174.75 1106.8L2012.6 1173.38Z" fill="#4D4949"/>
<path d="M2068.46 1202.95L2067.08 1201.91L2151.02 1090.68L2151.2 1090.59L2282.54 1023.28L2283.33 1024.82L2152.16 1092.03L2068.46 1202.95Z" fill="#4D4949"/>
<path d="M2317.01 1026L2309.41 1019.15L2312.21 1011.4L2320.84 1010.79L2326.02 1017.34L2317.01 1026ZM2311.43 1018.65L2316.97 1023.65L2323.7 1017.18L2320.06 1012.57L2313.45 1013.04L2311.43 1018.65Z" fill="#4D4949"/>
<path d="M2176.57 1143.76L2165.56 1129.95L2149.66 1134.06L2146.96 1154.28L2171.71 1159.42L2176.57 1143.76Z" fill="#4D4949"/>
<path d="M2344.12 814.834L2342.98 797.245L2355.78 791.024L2367.29 800.716L2365.82 814.938L2344.12 814.834ZM2344.78 798.286L2345.74 813.124L2364.26 813.21L2365.48 801.441L2355.52 793.056L2344.78 798.286Z" fill="#4D4949"/>
<path d="M2347.02 925.833L2315.31 903.043L2312.28 907.231L2344 930.021L2347.02 925.833Z" fill="#4D4949"/>
<path d="M2431.02 799.419L2413.67 794.017L2409.05 808.796L2426.4 814.198L2431.02 799.419Z" fill="#4D4949"/>
<path d="M2212.43 1042.47L2199.42 1050.9L2212.89 1071.57L2225.9 1063.14L2212.43 1042.47Z" fill="#4D4949"/>
<path d="M2315.85 966.311L2314.27 966.991L2338.15 1022.29L2339.73 1021.61L2315.85 966.311Z" fill="#4D4949"/>
<path d="M2041.78 1225.78L2147.55 1053.22L2165.32 1042.5L2259.25 878.837L2277.12 863.566L2280.85 843.418L2281.02 843.011L2354.52 663.219L2367.41 649.67L2411.95 452.584L2422.63 411.114L2430.98 413.255L2420.33 454.6L2375.3 653.872L2361.89 667.964L2289.17 845.85L2285.04 868.119L2265.99 884.401L2171.69 1048.71L2153.81 1059.5L2049.14 1230.27L2041.78 1225.78Z" fill="#4D4949"/>
<path d="M2006.28 1224.99L2002.15 1221.89L2093.3 1101L2138.58 1023.24L2213.79 928.538L2256.62 840.222L2275.48 820.746L2337.89 665.45L2342.5 638.955L2358.19 615.174L2392.63 461.705L2399.4 407.83L2404.53 408.472L2397.7 462.713L2363.04 617.223L2347.41 640.896L2342.8 667.118L2279.91 823.604L2260.91 843.214L2218.2 931.297L2218.02 931.52L2142.86 1026.15L2097.62 1103.86L2097.53 1103.98L2006.28 1224.99Z" fill="#4D4949"/>
<path d="M2165.26 1048.43L2154.75 1036.39L2138.81 1028.55L2142.63 1020.84L2160.11 1029.44L2171.76 1042.78L2165.26 1048.43Z" fill="#4D4949"/>
<path d="M2260.89 860.702L2254.7 843.145L2262.83 840.292L2267.85 854.538L2282.99 861.985L2279.17 869.7L2260.89 860.702Z" fill="#4D4949"/>
<path d="M2353.33 652.721L2342.16 643.195L2347.76 636.657L2357.19 644.699L2372.16 647.546L2370.54 655.995L2353.33 652.721Z" fill="#4D4949"/>
<path d="M2081.98 1229.25L2130.15 1071.47L2196.02 1021.81L2250.96 852.292L2251.02 852.202L2356.65 682.5L2356.86 682.391L2400.96 659.346L2405.62 383.802L2407.34 383.831L2402.66 660.396L2357.86 683.806L2252.54 853.021L2197.49 1022.85L2197.28 1023.01L2131.64 1072.5L2083.63 1229.75L2081.98 1229.25Z" fill="#4D4949"/>
<path d="M2354.41 648.842L2348.59 611.02L2348.64 610.831L2394.39 461.788L2394.45 461.69L2426.08 411.726L2427.54 412.644L2395.97 462.513L2350.35 611.146L2356.11 648.579L2354.41 648.842Z" fill="#4D4949"/>
<path d="M2023.85 1222.83L2094.72 1102L2146.11 989.928L2146.25 989.807L2215.43 929.272L2270.5 860.805L2271.84 861.881L2216.67 930.456L2147.53 990.979L2096.25 1102.79L2025.34 1223.7L2023.85 1222.83Z" fill="#4D4949"/>
<path d="M2163.92 892.267L2105.81 948.208L1973.75 970.774L2083.62 909.513L2163.92 892.267Z" fill="#1C1B1B"/>
<path d="M2042 913.946L2014.6 900.839L1954.67 923.367L2020 921.567L2042 913.946Z" fill="#1C1B1B"/>
<path d="M2265.6 864.407L2288.25 718.822L2089.84 669.188L2090.68 665.852L2292.14 716.248L2269.01 864.935L2265.6 864.407Z" fill="#4D4949"/>
<path d="M2156.63 553.737L2289.35 600.172L2304.74 639.715L2301.53 640.959L2286.71 602.894L2184.1 566.995L2260.12 614.938L2258.28 617.846L2156.63 553.737Z" fill="#4D4949"/>
<path d="M2237.68 583.805L2243.48 567.187L2164.83 492.9L2167.02 490.251L2279.65 570.472L2277.57 595.307L2274.13 595.019L2276.05 572.134L2185.31 507.505L2247.47 566.219L2240.93 584.937L2237.68 583.805Z" fill="#4D4949"/>
<path d="M2264.09 856.52L2236.3 699.044L2196.84 649.667L2142.41 620.138L2096.05 605.919L2057.23 571.555L2059.51 568.981L2097.78 602.848L2143.9 617.029L2191.31 642.75L2146.81 587.066L2149.51 584.922L2199.1 646.973L2239.69 668.995L2273.13 725.7L2264.09 856.52ZM2204.63 653.885L2239.54 697.587L2239.62 698.017L2262.59 828.195L2269.62 726.528L2237.2 671.562L2204.63 653.885Z" fill="#4D4949"/>
<path d="M2155.58 670.102L2141.63 693.638L2101.23 705.204L2039.55 790.668L2081.79 693.011L2121.47 663.304L2155.58 670.102Z" fill="#1C1B1B"/>
<path d="M2031.69 804.508L2080.39 691.907L2080.75 691.633L2121.06 661.463L2158.3 668.888L2142.77 695.102L2102.28 706.694L2031.69 804.508ZM2083.19 694.112L2047.42 776.828L2100.18 703.716L2140.5 692.173L2152.85 671.313L2121.89 665.141L2083.19 694.112Z" fill="#4D4949"/>
<path d="M1968.28 572.269L2031.55 545.447L2119.44 543.938L2154.91 590.599L2084.18 570.476L1968.28 572.269ZM2032.64 550.588L1994.64 566.703L2084.87 565.307L2141.43 581.396L2116.91 549.145L2032.64 550.588Z" fill="#4D4949"/>
<path d="M2125.44 578.765L2122.34 580.262L2141.25 619.304L2144.35 617.808L2125.44 578.765Z" fill="#4D4949"/>
<path d="M2030.91 549.269L1990.67 511.495L2080.94 545.503L2079.72 548.721L2005.62 520.805L2033.28 546.763L2030.91 549.269Z" fill="#4D4949"/>
<path d="M1961.92 448.001L2022.8 463.096L2033.67 485.304L2006.23 479.599L1961.92 448.001ZM2020.41 466.048L1978.63 455.689L2007.65 476.384L2027.49 480.508L2020.41 466.048Z" fill="#4D4949"/>
<path d="M2078.53 682.223L2037 636.284L1939.59 569.384L2010.4 599.231L2101.05 655.312L2078.53 682.223ZM2039.29 633.678L2078.43 676.976L2095.86 656.147L2008.7 602.226L1969.37 585.667L2039.29 633.678Z" fill="#4D4949"/>
<path d="M2151.68 629.534L2092.09 626.927L2040.04 691.386L2109.06 642.861L2151.68 629.534Z" fill="#1C1B1B"/>
<path d="M2030.99 699.853L2091.29 625.169L2161.57 628.242L2109.83 644.425L2030.99 699.853ZM2092.88 628.681L2049.09 682.912L2108.29 641.3L2141.8 630.823L2092.88 628.681Z" fill="#4D4949"/>
<path d="M2300.41 654.081L2302.21 687.394L2245.51 733.274L2272.31 671.029L2300.41 654.081Z" fill="#1C1B1B"/>
<path d="M2241.17 739.003L2270.94 669.842L2301.97 651.128L2303.98 688.178L2241.17 739.003ZM2273.68 672.216L2249.86 727.546L2300.45 686.613L2298.84 657.038L2273.68 672.216Z" fill="#4D4949"/>
<path d="M2303.13 640.336L2259.2 616.391L2129.13 650.106L2268.88 658.606L2303.13 640.336Z" fill="#1C1B1B"/>
<path d="M2112.72 651.693L2259.54 613.636L2308.57 640.36L2269.45 661.225L2268.72 661.18L2112.72 651.693ZM2258.86 619.147L2145.54 648.515L2268.31 655.982L2297.69 640.309L2258.86 619.147Z" fill="#4D4949"/>
<path d="M2044.51 777.932L2090.28 695.6L2090.56 695.487L2155.25 669.306L2155.9 670.9L2091.49 696.966L2046.02 778.766L2044.51 777.932Z" fill="#4D4949"/>
<path d="M2227.01 640.775L2227.02 639.054L2301.16 639.466L2273.9 609.823L2187.5 570.019L2188.22 568.457L2274.94 608.407L2275.05 608.533L2305.1 641.208L2227.01 640.775Z" fill="#4D4949"/>
<path d="M2300.94 654.423L2299.47 653.522L2273.96 695.022L2275.43 695.922L2300.94 654.423Z" fill="#4D4949"/>
<path d="M2068.21 558.573L2068.27 556.853L2104.29 558.124L2148.62 585.262L2147.72 586.729L2103.77 559.827L2068.21 558.573Z" fill="#4D4949"/>
<path d="M2085.09 567.243L2083.96 568.542L2137.13 614.666L2138.27 613.367L2085.09 567.243Z" fill="#4D4949"/>
<path d="M1509.5 1197.03L1574.86 1177.67L1597.66 1187.44L1577.47 1198.55L1577.24 1198.54L1509.5 1197.03ZM1574.76 1179.5L1520.54 1195.56L1577.05 1196.82L1593.74 1187.64L1574.76 1179.5Z" fill="#4D4949"/>
<path d="M2416.63 551.653L2393.87 549.39L2393.02 557.949L2415.78 560.213L2416.63 551.653Z" fill="#4D4949"/>
<path d="M2238.96 948.688L2228.68 945.145L2225.86 953.274L2236.14 956.817L2238.96 948.688Z" fill="#4D4949"/>
<path d="M2062.76 1110.43L2055.48 1115.04L2067.51 1133.94L2074.79 1129.33L2062.76 1110.43Z" fill="#4D4949"/>
<path d="M2247.96 766.641L2231.22 773.824L2234.62 781.725L2251.37 774.542L2247.96 766.641Z" fill="#4D4949"/>
<path d="M2255.29 524.308L2246.99 521.968L2240.36 545.383L2248.65 547.723L2255.29 524.308Z" fill="#4D4949"/>
<path d="M2386.55 489.862L2366.84 483.381L2364.14 491.55L2383.86 498.031L2386.55 489.862Z" fill="#4D4949"/>
<path d="M2121.88 530.987L2120.19 530.679L2117.32 546.386L2119.02 546.693L2121.88 530.987Z" fill="#4D4949"/>
<path d="M2251.86 851.808L2232.14 849.288L2231.92 850.994L2251.64 853.515L2251.86 851.808Z" fill="#4D4949"/>
<path d="M2359.9 722.096L2333.39 719.669L2333.23 721.382L2359.74 723.808L2359.9 722.096Z" fill="#4D4949"/>
<path d="M2180.12 689.465L2153.78 706.416L2154.71 707.862L2181.05 690.911L2180.12 689.465Z" fill="#4D4949"/>
<path d="M2335.91 682.477L2325.16 676.026L2317.16 689.302L2327.92 695.752L2335.91 682.477Z" fill="#4D4949"/>
<path d="M2005.83 611.378L1995.85 623.421L2007.81 633.286L2017.79 621.243L2005.83 611.378Z" fill="#4D4949"/>
<path d="M350.653 448.113L476.21 253.285L488.074 275.717L381.837 428.967L374.316 456.034L350.653 448.113Z" fill="#1C1B1B"/>
<path d="M254.054 657.85L250.854 679.844L196.717 860.475L214.019 861.07L230.903 867.324L249.816 748.166L282.703 658.695L254.054 657.85Z" fill="#1C1B1B"/>
<path d="M209.395 1062.53L223.93 1057.11L163.02 894.637L139.837 758.092L124.536 760.678L147.967 898.679L209.395 1062.53Z" fill="#4D4949"/>
<path d="M149.673 1041.81L151.37 1042.12L175.948 905.061L175.895 904.871L135.958 763.046L134.298 763.513L174.183 905.146L149.673 1041.81Z" fill="#4D4949"/>
<path d="M110.516 739.698L120.712 740.59L124.498 733.269L119.073 726.546L110.743 727.212L110.516 739.698ZM119.71 738.776L112.269 738.124L112.439 728.802L118.301 728.333L122.451 733.475L119.71 738.776Z" fill="#4D4949"/>
<path d="M119.586 922.502L137.213 921.153L145.019 935.575L131.997 951.305L111.386 936.706L119.586 922.502Z" fill="#4D4949"/>
<path d="M247.166 576.189L260.858 565.05L256.721 551.463L241.767 549.64L232.325 560.396L247.166 576.189ZM258.871 564.445L247.317 573.839L234.652 560.356L242.469 551.46L255.405 553.036L258.871 564.445Z" fill="#4D4949"/>
<path d="M163.661 649.597L201.979 657.273L200.961 662.333L162.643 654.657L163.661 649.597Z" fill="#4D4949"/>
<path d="M199.353 502.165L215.127 511.173L207.418 524.609L191.644 515.601L199.353 502.165Z" fill="#4D4949"/>
<path d="M169.576 827.354L172.234 842.607L147.888 846.831L145.23 831.578L169.576 827.354Z" fill="#4D4949"/>
<path d="M155.14 699.927L155.718 701.547L98.8535 721.714L98.2764 720.094L155.14 699.927Z" fill="#4D4949"/>
<path d="M151.052 1076.85L205.827 882.108L201.608 861.822L257.903 681.784L256.962 658.332L269.219 641.89L269.404 641.491L351.445 465.414L352.631 446.776L467.079 280.103L490.269 244.074L483.016 239.427L459.897 275.348L344.175 443.867L342.946 463.255L261.773 637.465L248.227 655.637L249.229 680.642L192.714 861.389L196.958 881.804L142.75 1074.53L151.052 1076.85Z" fill="#4D4949"/>
<path d="M175.787 1102.27L180.88 1103.18L207.644 954.28L233.957 868.266L252.331 748.838L288.058 657.435L289.526 630.389L361.123 479.09L377.447 457.693L384.237 430.038L473.526 300.433L508.488 258.823L504.525 255.509L469.333 297.41L379.437 427.893L372.679 455.422L356.562 476.642L284.416 629.099L282.939 656.331L247.305 747.493L247.262 747.774L228.903 867.115L202.606 953.067L202.579 953.217L175.787 1102.27Z" fill="#4D4949"/>
<path d="M197.298 865.906L213.292 865.396L229.893 871.712L232.965 863.674L214.748 856.746L197.022 857.308L197.298 865.906Z" fill="#4D4949"/>
<path d="M270.11 668.248L287.217 660.826L283.78 652.94L269.898 658.962L254.13 652.965L251.06 661.003L270.11 668.248Z" fill="#4D4949"/>
<path d="M359.968 459.144L374.568 460.829L375.558 452.286L363.232 450.862L350.957 441.857L345.849 448.785L359.968 459.144Z" fill="#4D4949"/>
<path d="M121.154 1049.83L204.263 907.245L195.921 825.298L283.042 669.783L283.07 669.681L335.838 476.98L335.777 476.755L322.695 428.833L521.908 237.93L520.715 236.69L320.762 428.3L334.052 476.981L281.433 669.126L194.151 824.931L194.179 825.202L202.491 906.863L119.663 1048.96L121.154 1049.83Z" fill="#4D4949"/>
<path d="M362.082 455.715L393.825 434.236L393.925 434.065L472.266 299.202L472.296 299.091L487.474 241.97L485.807 241.529L470.658 298.539L392.533 433.033L361.116 454.29L362.082 455.715Z" fill="#4D4949"/>
<path d="M165.419 1087.95L205.949 953.921L253.293 840.092L253.287 839.907L250.678 748.142L263.495 661.294L261.79 661.043L248.964 748.04L251.557 839.771L204.327 953.344L163.767 1087.46L165.419 1087.95Z" fill="#4D4949"/>
<path d="M312.906 760.618L311.364 841.172L384.646 953.07L354.879 831.06L312.906 760.618Z" fill="#1C1B1B"/>
<path d="M379.948 864.508L408.221 875.622L432.452 934.764L389.315 885.772L379.948 864.508Z" fill="#1C1B1B"/>
<path d="M390.72 967.066L357.299 830.073L357.103 829.741L310.494 751.521L308.761 841.916L390.72 967.066ZM352.458 832.046L378.569 939.069L313.965 840.429L315.315 769.721L352.458 832.046Z" fill="#4D4949"/>
<path d="M437.929 943.595L409.537 874.291L376.685 861.377L388.022 886.904L437.929 943.595ZM406.902 876.954L426.969 925.933L390.785 884.838L383.21 867.64L406.902 876.954Z" fill="#4D4949"/>
<path d="M313.739 760.351L351.55 879.898L349.907 880.416L312.096 760.868L313.739 760.351Z" fill="#4D4949"/>
<path d="M264.183 667.325L355.699 551.699L527.169 662.986L529.048 660.102L354.942 547.102L261.477 665.193L264.183 667.325Z" fill="#4D4949"/>
<path d="M566.52 535.598L442.098 470.159L402.584 485.817L403.857 489.014L441.895 473.941L538.085 524.531L451.143 501.577L450.26 504.901L566.52 535.598Z" fill="#4D4949"/>
<path d="M489.284 496.804L497.543 481.254L605.621 488.203L606.076 484.8L470.514 457.042L453.689 475.463L456.239 477.779L471.742 460.805L580.96 483.17L495.538 477.678L486.236 495.192L489.284 496.804Z" fill="#4D4949"/>
<path d="M271 663.06L405.578 576.225L468.693 571.471L527.423 591.176L569.409 615.39L621.067 620.392L621.402 616.967L570.488 612.037L528.69 587.969L477.536 570.807L548.714 565.449L548.453 562.017L469.137 567.99L425.343 553.3L360.935 567.434L271 663.06ZM460.299 568.651L404.441 572.863L404.075 573.101L292.825 644.883L362.716 570.565L425.148 556.864L460.299 568.651Z" fill="#4D4949"/>
<path d="M481.765 615.547L473.966 641.756L492.964 679.166L472.159 782.41L515.149 685.082L509.962 635.852L481.765 615.547Z" fill="#1C1B1B"/>
<path d="M467.344 797.578L516.912 685.355L516.863 684.901L511.597 634.905L480.805 612.732L472.116 641.922L491.152 679.409L467.344 797.578ZM513.385 684.807L476.973 767.244L494.771 678.922L475.814 641.591L482.726 618.361L508.327 636.797L513.385 684.807Z" fill="#4D4949"/>
<path d="M681.07 685.908L657.719 621.401L599.022 556.119L540.61 561.933L603.517 599.949L681.07 685.908ZM653.197 624.098L667.218 662.844L606.845 595.928L556.546 565.531L596.919 561.512L653.197 624.098Z" fill="#4D4949"/>
<path d="M569.356 575.428L570.368 578.715L528.821 591.453L527.809 588.166L569.356 575.428Z" fill="#4D4949"/>
<path d="M655.343 624.466L710.47 628.181L624.069 585.329L622.534 588.409L693.459 623.586L655.575 621.032L655.343 624.466Z" fill="#4D4949"/>
<path d="M525.289 680.124L587.29 679.226L702.711 704.92L632.602 673.457L529.728 645.344L525.289 680.124ZM587.646 675.78L529.211 676.626L532.648 649.709L631.561 676.74L670.487 694.227L587.646 675.78Z" fill="#4D4949"/>
<path d="M514.21 590.787L556.677 632.583L544.747 714.494L533.424 631.016L514.21 590.787Z" fill="#1C1B1B"/>
<path d="M544.686 726.873L558.509 631.969L508.432 582.68L531.75 631.516L544.686 726.873ZM554.849 633.198L544.814 702.113L535.096 630.519L519.992 598.894L554.849 633.198Z" fill="#4D4949"/>
<path d="M394.981 498.761L369.284 520.108L374.168 592.781L401.652 530.833L394.981 498.761Z" fill="#1C1B1B"/>
<path d="M372.915 599.855L403.451 531.024L396.083 495.605L367.503 519.347L372.915 599.855ZM399.849 530.642L375.419 585.707L371.06 520.869L393.874 501.917L399.849 530.642Z" fill="#4D4949"/>
<path d="M403.221 487.415L450.702 503.239L514.45 621.279L413.111 524.89L403.221 487.415Z" fill="#1C1B1B"/>
<path d="M524.449 634.355L452.492 501.115L399.501 483.454L410.797 526.253L411.328 526.757L524.449 634.355ZM448.909 505.364L504.451 608.198L415.427 523.523L406.941 491.372L448.909 505.364Z" fill="#4D4949"/>
<path d="M478.139 770.118L507.468 680.634L507.358 680.35L482.57 615.241L480.959 615.853L505.639 680.677L476.501 769.584L478.139 770.118Z" fill="#4D4949"/>
<path d="M454.697 543.367L455.954 542.19L405.201 488.264L445.522 488.022L533.552 524.107L534.209 522.517L445.858 486.302L445.686 486.302L401.239 486.566L454.697 543.367Z" fill="#4D4949"/>
<path d="M394.369 498.603L396.031 499.066L382.909 545.957L381.247 545.494L394.369 498.603Z" fill="#4D4949"/>
<path d="M623.129 603.528L624.351 602.313L598.909 576.845L548.813 562.904L548.349 564.56L598.009 578.381L623.129 603.528Z" fill="#4D4949"/>
<path d="M605.273 597.086L605.089 598.797L535.029 591.307L535.213 589.596L605.273 597.086Z" fill="#4D4949"/>
<path d="M1346.58 222.078L1305.26 276.191L1306.33 300.921L1323.9 286.029L1323.98 285.809L1346.58 222.078ZM1307.01 276.741L1341.28 231.852L1322.43 285.019L1307.9 297.335L1307.01 276.741Z" fill="#4D4949"/>
<path d="M388.896 1223.62L321.002 1229.86L303.468 1247.38L326.348 1250.22L326.562 1250.12L388.896 1223.62ZM321.782 1231.52L378.102 1226.34L326.1 1248.45L307.18 1246.11L321.782 1231.52Z" fill="#4D4949"/>
<path d="M2127.95 611.995L2142.8 606.301L2145.45 601.396L2140.08 602.247L2140.04 602.28L2127.95 611.995ZM2142.5 605.993L2130.19 610.716L2140.26 602.612L2144.71 601.908L2142.5 605.993Z" fill="#4D4949"/>
<path d="M1112.12 422.195L1085.8 359.441L1063.8 347.998L1067.95 370.627L1068.1 370.803L1112.12 422.195ZM1084.45 360.68L1106.28 412.736L1069.56 369.864L1066.13 351.152L1084.45 360.68Z" fill="#4D4949"/>
<path d="M764.916 1012.6L697.349 1021.71L680.576 1039.95L703.557 1041.82L703.767 1041.72L764.916 1012.6ZM698.199 1023.34L754.247 1015.77L703.235 1040.07L684.232 1038.53L698.199 1023.34Z" fill="#4D4949"/>
<path d="M391.126 344.091L408.276 359.19L402.571 365.64L385.421 350.54L391.126 344.091Z" fill="#4D4949"/>
<path d="M220.407 744.151L230.005 749.256L225.949 756.846L216.352 751.741L220.407 744.151Z" fill="#4D4949"/>
<path d="M221.507 983.029L223.071 991.488L201.001 995.548L199.437 987.089L221.507 983.029Z" fill="#4D4949"/>
<path d="M347.992 613.695L354.109 630.823L345.989 633.71L339.872 616.581L347.992 613.695Z" fill="#4D4949"/>
<path d="M521 443.441L528.365 447.915L515.681 468.698L508.316 464.225L521 443.441Z" fill="#4D4949"/>
<path d="M456.979 324.036L475.155 334.039L470.991 341.57L452.815 331.567L456.979 324.036Z" fill="#4D4949"/>
<path d="M606.869 545.517L608.249 546.547L598.663 559.33L597.283 558.3L606.869 545.517Z" fill="#4D4949"/>
<path d="M282.786 668.797L298.057 681.501L296.953 682.822L281.682 670.118L282.786 668.797Z" fill="#4D4949"/>
<path d="M310.671 840.808L311.861 842.054L301.138 852.249L299.949 851.003L310.671 840.808Z" fill="#4D4949"/>
<path d="M304.54 501.545L324.362 519.276L323.211 520.557L303.389 502.826L304.54 501.545Z" fill="#4D4949"/>
<path d="M450.844 610.781L456.315 641.57L454.616 641.871L449.146 611.082L450.844 610.781Z" fill="#4D4949"/>
<path d="M377.912 833.984L380.304 849.281L359.462 852.526L357.069 837.23L377.912 833.984Z" fill="#4D4949"/>
<path d="M349.962 492.125L362.02 495.6L357.711 510.48L345.654 507.005L349.962 492.125Z" fill="#4D4949"/>
<path d="M626.79 685.062L624.735 700.553L609.35 698.521L611.405 683.03L626.79 685.062Z" fill="#4D4949"/>
</svg>
