<svg width="182" height="173" viewBox="0 0 182 173" fill="none" xmlns="http://www.w3.org/2000/svg">
<path d="M90.6815 172.027C90.8457 172.027 91.0099 171.929 91.0756 171.797L137.153 88.6079C137.219 88.4765 137.219 88.2795 137.153 88.1481C137.055 88.0167 136.923 87.9182 136.759 87.9182L44.6038 87.9182C44.4396 87.9182 44.2753 88.0168 44.2096 88.1481C44.1111 88.2795 44.1111 88.4766 44.2096 88.6079L90.2874 171.797C90.3531 171.929 90.5173 172.027 90.6815 172.027ZM135.971 88.8378L90.6815 170.615L45.3919 88.8378L135.971 88.8378Z" fill="#0F0F0F"/>
<path d="M0.430547 169.039L180.899 169.039C181.063 169.039 181.227 168.94 181.293 168.809C181.392 168.677 181.392 168.48 181.293 168.349L91.0753 1.3129C91.0096 1.1487 90.8454 1.08303 90.6812 1.08303C90.5169 1.08303 90.3527 1.18154 90.2871 1.3129L0.102124 168.283C0.0364391 168.349 0.00358078 168.447 0.00358079 168.579C-0.0292615 168.809 0.167808 169.039 0.430547 169.039ZM180.144 168.119L1.21873 168.119L90.6812 2.52805L180.144 168.119Z" fill="#0F0F0F"/>
<path d="M44.6031 142.272L136.759 142.272C136.923 142.272 137.087 142.174 137.153 142.042C137.251 141.911 137.251 141.714 137.153 141.583L91.075 58.393C91.0093 58.2616 90.845 58.1631 90.6808 58.1631C90.5166 58.1631 90.3524 58.2616 90.2867 58.393L44.2418 141.517C44.1761 141.583 44.1433 141.681 44.1433 141.812C44.1433 142.075 44.3404 142.272 44.6031 142.272ZM135.97 141.353L45.3913 141.353L90.6808 59.6081L135.97 141.353Z" fill="#0F0F0F"/>
<path d="M90.6464 168.875C90.9091 168.875 91.1719 168.875 91.4346 168.875C91.5988 168.875 91.7302 168.744 91.7302 168.546C91.7302 168.382 91.566 168.251 91.4018 168.251C91.139 168.251 90.8763 168.251 90.6464 168.251C90.3836 168.251 90.1537 168.251 89.891 168.251C89.7268 168.251 89.5954 168.382 89.5954 168.546C89.5954 168.711 89.7268 168.842 89.891 168.875C90.1209 168.875 90.3836 168.875 90.6464 168.875ZM92.9453 168.842C92.9453 168.842 92.9782 168.842 92.9453 168.842C93.4708 168.809 93.9963 168.776 94.4889 168.743C94.6531 168.743 94.7845 168.579 94.7845 168.415C94.7845 168.251 94.6203 168.12 94.4561 168.12C93.9634 168.152 93.438 168.185 92.9125 168.218C92.7483 168.218 92.6169 168.382 92.6169 168.546C92.6498 168.711 92.7811 168.842 92.9453 168.842ZM88.3474 168.809C88.5116 168.809 88.643 168.678 88.643 168.514C88.643 168.349 88.5116 168.185 88.3474 168.185C87.8219 168.152 87.3293 168.119 86.8038 168.087C86.6396 168.087 86.4754 168.218 86.4754 168.382C86.4754 168.546 86.6068 168.711 86.771 168.711C87.2964 168.776 87.8219 168.809 88.3474 168.809C88.3474 168.809 88.3146 168.809 88.3474 168.809ZM96.0325 168.612C96.0325 168.612 96.0654 168.612 96.0325 168.612C96.5908 168.546 97.0834 168.514 97.6089 168.448C97.7731 168.415 97.9045 168.284 97.8717 168.12C97.8388 167.955 97.7075 167.824 97.5433 167.857C97.0506 167.922 96.5252 167.988 96.0325 168.021C95.8683 168.054 95.7369 168.185 95.7698 168.349C95.7369 168.481 95.8683 168.612 96.0325 168.612ZM85.2602 168.612C85.4244 168.612 85.5558 168.481 85.5558 168.349C85.5887 168.185 85.4573 168.021 85.2931 168.021C84.8004 167.955 84.275 167.922 83.7823 167.857C83.6181 167.824 83.4539 167.955 83.4211 168.12C83.3882 168.284 83.5196 168.448 83.6838 168.481C84.2093 168.481 84.7348 168.546 85.2602 168.612ZM99.0868 168.218L99.1197 168.218C99.6123 168.152 100.138 168.054 100.63 167.955C100.795 167.922 100.893 167.758 100.86 167.594C100.827 167.43 100.663 167.331 100.499 167.364C100.006 167.463 99.481 167.561 98.9883 167.627C98.8241 167.66 98.6927 167.824 98.7256 167.988C98.7913 168.119 98.9226 168.218 99.0868 168.218ZM82.2059 168.218C82.3701 168.218 82.5015 168.12 82.5015 167.955C82.5343 167.791 82.403 167.627 82.2388 167.594C81.7461 167.528 81.2206 167.43 80.728 167.331C80.5638 167.298 80.3996 167.397 80.3667 167.561C80.3339 167.725 80.4324 167.89 80.5966 167.922C81.0893 168.021 81.6147 168.119 82.1074 168.185C82.1731 168.218 82.2059 168.218 82.2059 168.218ZM102.108 167.66C102.141 167.66 102.141 167.66 102.174 167.66C102.667 167.561 103.192 167.43 103.685 167.298C103.849 167.266 103.948 167.101 103.915 166.937C103.882 166.773 103.718 166.674 103.553 166.707C103.061 166.839 102.568 166.937 102.076 167.069C101.911 167.101 101.813 167.266 101.846 167.43C101.846 167.561 101.977 167.66 102.108 167.66ZM79.1844 167.627C79.3158 167.627 79.4471 167.528 79.48 167.397C79.5128 167.233 79.4143 167.069 79.2501 167.036C78.7575 166.937 78.2648 166.806 77.7722 166.674C77.608 166.642 77.4438 166.74 77.4109 166.904C77.3781 167.069 77.4766 167.233 77.6408 167.266C78.1335 167.397 78.6589 167.496 79.1516 167.627C79.1516 167.627 79.1516 167.627 79.1844 167.627ZM105.097 166.904C105.13 166.904 105.163 166.904 105.196 166.904C105.688 166.773 106.181 166.609 106.673 166.477C106.838 166.412 106.936 166.247 106.87 166.083C106.805 165.919 106.641 165.821 106.476 165.886C105.984 166.05 105.491 166.182 104.998 166.313C104.834 166.346 104.736 166.543 104.769 166.707C104.834 166.806 104.966 166.904 105.097 166.904ZM76.1958 166.904C76.3271 166.904 76.4585 166.806 76.4913 166.674C76.5242 166.51 76.4257 166.346 76.2943 166.28C75.8017 166.149 75.309 165.985 74.8164 165.853C74.6522 165.788 74.488 165.886 74.4223 166.05C74.3566 166.215 74.4551 166.379 74.6193 166.445C75.1119 166.609 75.6046 166.74 76.0972 166.871C76.1301 166.871 76.1629 166.904 76.1958 166.904ZM108.053 165.985C108.086 165.985 108.118 165.985 108.151 165.952C108.644 165.788 109.137 165.623 109.629 165.426C109.793 165.361 109.859 165.197 109.793 165.032C109.728 164.868 109.564 164.802 109.399 164.868C108.907 165.032 108.447 165.229 107.954 165.394C107.79 165.459 107.692 165.623 107.757 165.788C107.79 165.919 107.921 165.985 108.053 165.985ZM73.24 165.985C73.3713 165.985 73.5027 165.919 73.5355 165.788C73.6012 165.623 73.5027 165.459 73.3385 165.394C72.8459 165.229 72.3861 165.065 71.8934 164.868C71.7292 164.802 71.565 164.901 71.4993 165.032C71.4336 165.197 71.5321 165.361 71.6635 165.426C72.1561 165.623 72.6488 165.788 73.1086 165.952C73.1743 165.952 73.2071 165.985 73.24 165.985ZM110.943 164.901C110.976 164.901 111.009 164.901 111.074 164.868C111.534 164.671 112.027 164.474 112.519 164.244C112.684 164.178 112.749 163.981 112.684 163.85C112.618 163.686 112.421 163.62 112.289 163.686C111.83 163.883 111.337 164.08 110.877 164.277C110.713 164.343 110.647 164.507 110.713 164.671C110.713 164.835 110.812 164.901 110.943 164.901ZM70.3827 164.901C70.5141 164.901 70.6126 164.835 70.6782 164.704C70.7439 164.54 70.6782 164.375 70.514 164.31C70.0542 164.113 69.5616 163.916 69.1018 163.719C68.9376 163.653 68.7734 163.719 68.7077 163.883C68.642 164.047 68.7077 164.211 68.8719 164.277C69.3317 164.474 69.8244 164.704 70.2841 164.868C70.2841 164.868 70.317 164.901 70.3827 164.901ZM113.767 163.653C113.8 163.653 113.866 163.653 113.899 163.62C114.359 163.39 114.818 163.16 115.278 162.93C115.442 162.865 115.475 162.668 115.409 162.503C115.344 162.339 115.147 162.306 114.983 162.372C114.523 162.602 114.063 162.832 113.603 163.062C113.439 163.127 113.373 163.325 113.472 163.489C113.537 163.587 113.636 163.653 113.767 163.653ZM67.5582 163.62C67.6567 163.62 67.7881 163.554 67.821 163.456C67.8867 163.292 67.821 163.127 67.6896 163.029C67.2298 162.799 66.77 162.569 66.3102 162.339C66.146 162.274 65.9818 162.306 65.8833 162.471C65.8176 162.635 65.8504 162.799 66.0146 162.898C66.4744 163.127 66.9342 163.357 67.394 163.587C67.4597 163.62 67.5254 163.62 67.5582 163.62ZM116.493 162.241C116.559 162.241 116.592 162.241 116.657 162.208C117.117 161.945 117.544 161.715 118.004 161.452C118.135 161.354 118.201 161.19 118.103 161.026C118.004 160.894 117.84 160.829 117.676 160.927C117.249 161.19 116.789 161.453 116.329 161.682C116.165 161.781 116.132 161.945 116.198 162.109C116.296 162.175 116.395 162.241 116.493 162.241ZM64.8323 162.241C64.9309 162.241 65.0622 162.175 65.095 162.077C65.1936 161.912 65.1279 161.748 64.9637 161.65C64.5368 161.42 64.077 161.157 63.65 160.894C63.5186 160.796 63.3216 160.861 63.2231 160.993C63.1245 161.124 63.1902 161.321 63.3216 161.42C63.7814 161.682 64.2083 161.945 64.6681 162.175C64.7338 162.208 64.7666 162.241 64.8323 162.241ZM62.1721 160.664C62.2706 160.664 62.3691 160.599 62.4348 160.533C62.5334 160.402 62.4677 160.205 62.3363 160.106C61.9094 159.843 61.4824 159.548 61.0555 159.285C60.9241 159.186 60.727 159.219 60.6285 159.383C60.53 159.515 60.5628 159.712 60.727 159.81C61.154 160.106 61.581 160.369 62.0079 160.664C62.0736 160.631 62.1393 160.664 62.1721 160.664ZM119.154 160.664C119.219 160.664 119.252 160.664 119.318 160.631C119.745 160.369 120.204 160.073 120.631 159.778C120.763 159.679 120.796 159.482 120.73 159.351C120.631 159.219 120.434 159.186 120.303 159.252C119.876 159.548 119.449 159.81 119.022 160.073C118.891 160.172 118.825 160.369 118.924 160.5C118.956 160.599 119.055 160.664 119.154 160.664ZM59.6432 158.956C59.7418 158.956 59.8403 158.924 59.906 158.825C60.0045 158.694 59.9716 158.497 59.8403 158.398C59.4133 158.103 59.0192 157.807 58.5923 157.479C58.4609 157.38 58.2639 157.413 58.1653 157.544C58.0668 157.676 58.0997 157.873 58.231 157.971C58.6251 158.267 59.0521 158.595 59.479 158.891C59.5119 158.924 59.5775 158.956 59.6432 158.956ZM121.715 158.924C121.781 158.924 121.847 158.891 121.879 158.858C122.306 158.562 122.7 158.267 123.127 157.938C123.259 157.84 123.292 157.643 123.193 157.511C123.095 157.38 122.898 157.347 122.766 157.446C122.372 157.741 121.945 158.07 121.518 158.365C121.387 158.464 121.354 158.661 121.452 158.792C121.551 158.891 121.617 158.924 121.715 158.924ZM57.1801 157.084C57.2786 157.084 57.3443 157.052 57.41 156.986C57.5085 156.855 57.5085 156.658 57.3771 156.559C56.983 156.231 56.5889 155.902 56.1948 155.574C56.0634 155.475 55.8664 155.475 55.7679 155.607C55.6693 155.738 55.6693 155.935 55.8007 156.034C56.1948 156.362 56.5889 156.69 56.983 157.019C57.0487 157.052 57.1144 157.084 57.1801 157.084ZM124.178 157.084C124.244 157.084 124.31 157.052 124.375 157.019C124.77 156.69 125.164 156.362 125.558 156.034C125.689 155.935 125.689 155.738 125.591 155.607C125.492 155.475 125.295 155.475 125.164 155.574C124.77 155.902 124.375 156.231 123.981 156.559C123.85 156.658 123.817 156.855 123.948 156.986C124.014 157.019 124.08 157.084 124.178 157.084ZM54.8483 155.081C54.9468 155.081 55.0125 155.048 55.0781 154.983C55.1767 154.851 55.1767 154.654 55.0453 154.556C54.684 154.227 54.2899 153.866 53.9287 153.505C53.7973 153.373 53.6003 153.406 53.5017 153.505C53.3704 153.636 53.4032 153.833 53.5017 153.932C53.863 154.293 54.2571 154.654 54.6512 154.983C54.6841 155.048 54.7497 155.081 54.8483 155.081ZM126.51 155.081C126.576 155.081 126.642 155.048 126.707 155.015C127.101 154.687 127.463 154.326 127.857 153.964C127.988 153.833 127.988 153.636 127.857 153.538C127.725 153.406 127.528 153.406 127.43 153.538C127.068 153.899 126.674 154.227 126.313 154.588C126.182 154.687 126.182 154.884 126.28 155.015C126.346 155.048 126.444 155.081 126.51 155.081ZM52.615 152.946C52.6807 152.946 52.7792 152.914 52.8449 152.848C52.9763 152.716 52.9763 152.519 52.8449 152.421C52.4836 152.06 52.1223 151.698 51.7939 151.304C51.6625 151.173 51.4984 151.173 51.367 151.304C51.2356 151.436 51.2356 151.6 51.367 151.731C51.7283 152.092 52.0895 152.487 52.4508 152.848C52.4508 152.914 52.5164 152.946 52.615 152.946ZM128.743 152.946C128.809 152.946 128.908 152.914 128.973 152.848C129.335 152.487 129.696 152.092 130.057 151.731C130.188 151.6 130.156 151.403 130.057 151.304C129.926 151.173 129.729 151.206 129.63 151.304C129.269 151.666 128.94 152.06 128.579 152.421C128.448 152.552 128.448 152.749 128.579 152.848C128.579 152.914 128.678 152.946 128.743 152.946ZM50.5131 150.713C50.5788 150.713 50.6445 150.68 50.7101 150.647C50.8415 150.549 50.8415 150.352 50.743 150.22C50.4146 149.826 50.0861 149.432 49.7577 149.071C49.6592 148.94 49.4621 148.907 49.3307 149.038C49.1994 149.137 49.1665 149.334 49.2979 149.465C49.6263 149.859 49.9547 150.253 50.316 150.647C50.3489 150.68 50.4146 150.713 50.5131 150.713ZM130.845 150.68C130.944 150.68 131.01 150.647 131.075 150.582C131.404 150.188 131.765 149.793 132.093 149.399C132.192 149.268 132.192 149.071 132.06 148.972C131.929 148.874 131.732 148.874 131.634 149.005C131.305 149.399 130.977 149.793 130.648 150.155C130.55 150.286 130.55 150.483 130.681 150.582C130.714 150.647 130.78 150.68 130.845 150.68ZM48.5426 148.316C48.6082 148.316 48.6739 148.283 48.7396 148.25C48.871 148.151 48.9038 147.954 48.8053 147.823C48.4769 147.429 48.1813 147.002 47.8857 146.608C47.7872 146.476 47.5901 146.444 47.4587 146.542C47.3274 146.641 47.2946 146.838 47.3931 146.969C47.6887 147.396 48.0171 147.79 48.3455 148.217C48.3455 148.283 48.444 148.316 48.5426 148.316ZM132.816 148.316C132.914 148.316 133.013 148.283 133.046 148.184C133.374 147.79 133.67 147.363 133.998 146.936C134.097 146.805 134.064 146.608 133.933 146.509C133.801 146.411 133.604 146.444 133.506 146.575C133.21 147.002 132.882 147.396 132.586 147.79C132.487 147.921 132.52 148.119 132.652 148.217C132.685 148.283 132.75 148.316 132.816 148.316ZM46.7034 145.852C46.769 145.852 46.8347 145.82 46.8676 145.787C46.9989 145.688 47.0318 145.491 46.9333 145.36C46.6377 144.933 46.3421 144.506 46.0794 144.079C45.9809 143.948 45.7838 143.882 45.6524 143.98C45.5211 144.079 45.4554 144.276 45.5539 144.407C45.8495 144.834 46.1122 145.261 46.4078 145.688C46.5063 145.787 46.6048 145.852 46.7034 145.852ZM134.655 145.852C134.754 145.852 134.852 145.82 134.918 145.721C135.213 145.294 135.509 144.867 135.772 144.44C135.87 144.309 135.837 144.112 135.673 144.013C135.542 143.915 135.345 143.948 135.246 144.112C134.983 144.539 134.688 144.966 134.392 145.393C134.294 145.524 134.327 145.721 134.458 145.82C134.524 145.82 134.589 145.852 134.655 145.852ZM45.0284 143.258C45.0941 143.258 45.1269 143.258 45.1926 143.225C45.324 143.127 45.3897 142.962 45.2912 142.798C45.0284 142.371 44.7657 141.911 44.5029 141.484C44.4044 141.353 44.2402 141.287 44.076 141.386C43.9446 141.484 43.8789 141.649 43.9775 141.813C44.2402 142.273 44.503 142.7 44.7657 143.159C44.8314 143.225 44.9299 143.258 45.0284 143.258ZM136.33 143.258C136.429 143.258 136.527 143.192 136.593 143.126C136.855 142.7 137.118 142.24 137.381 141.78C137.48 141.649 137.414 141.452 137.282 141.353C137.118 141.254 136.954 141.32 136.855 141.452C136.593 141.878 136.33 142.338 136.067 142.765C135.969 142.897 136.034 143.094 136.166 143.192C136.199 143.258 136.264 143.258 136.33 143.258ZM137.841 140.598C137.939 140.598 138.071 140.532 138.103 140.433C138.333 139.974 138.596 139.514 138.826 139.054C138.892 138.89 138.826 138.726 138.695 138.627C138.53 138.561 138.366 138.627 138.268 138.758C138.038 139.218 137.808 139.678 137.578 140.105C137.512 140.269 137.545 140.433 137.709 140.532C137.742 140.565 137.808 140.598 137.841 140.598ZM43.4848 140.598C43.5177 140.598 43.5834 140.598 43.6162 140.565C43.7804 140.499 43.8132 140.302 43.7476 140.138C43.5177 139.678 43.2549 139.218 43.0579 138.758C42.9922 138.594 42.7952 138.529 42.6309 138.627C42.4667 138.693 42.401 138.89 42.4996 139.054C42.7295 139.514 42.9593 139.974 43.2221 140.433C43.2878 140.532 43.3863 140.598 43.4848 140.598ZM139.22 137.839C139.352 137.839 139.45 137.773 139.516 137.675C139.746 137.215 139.943 136.722 140.14 136.262C140.205 136.098 140.14 135.934 139.975 135.868C139.811 135.803 139.647 135.868 139.581 136.033C139.384 136.492 139.187 136.952 138.957 137.412C138.892 137.576 138.957 137.74 139.122 137.806C139.122 137.839 139.187 137.839 139.22 137.839ZM42.1054 137.806C42.1383 137.806 42.204 137.806 42.2368 137.773C42.401 137.708 42.4667 137.51 42.401 137.379C42.204 136.919 41.9741 136.46 41.777 135.967C41.7113 135.803 41.5143 135.737 41.3829 135.803C41.2187 135.868 41.153 136.065 41.2187 136.197C41.4158 136.657 41.6457 137.149 41.8427 137.609C41.8756 137.74 42.0069 137.806 42.1054 137.806ZM140.435 135.014C140.567 135.014 140.665 134.949 140.731 134.817C140.928 134.325 141.092 133.865 141.289 133.372C141.355 133.208 141.256 133.044 141.092 132.978C140.928 132.913 140.764 133.011 140.698 133.175C140.534 133.668 140.337 134.128 140.173 134.62C140.107 134.785 140.173 134.949 140.337 135.014C140.337 135.014 140.402 135.014 140.435 135.014ZM40.8903 134.982C40.9231 134.982 40.956 134.982 40.9888 134.949C41.153 134.883 41.2187 134.719 41.153 134.555C40.956 134.095 40.7918 133.602 40.5947 133.11C40.529 132.945 40.3648 132.88 40.2006 132.913C40.0364 132.978 39.9707 133.142 40.0036 133.307C40.1678 133.799 40.3648 134.292 40.5619 134.752C40.6604 134.916 40.7918 134.982 40.8903 134.982ZM141.486 132.124C141.618 132.124 141.749 132.026 141.782 131.927C141.946 131.435 142.11 130.942 142.242 130.449C142.274 130.285 142.209 130.121 142.045 130.055C141.88 130.022 141.716 130.088 141.65 130.252C141.519 130.745 141.355 131.238 141.191 131.73C141.125 131.894 141.224 132.059 141.388 132.124C141.421 132.124 141.453 132.124 141.486 132.124ZM39.8393 132.059C39.8722 132.059 39.905 132.059 39.9379 132.059C40.1021 131.993 40.2006 131.829 40.1349 131.665C39.9707 131.172 39.8393 130.679 39.6751 130.187C39.6423 130.022 39.4452 129.924 39.281 129.99C39.1168 130.022 39.0183 130.219 39.084 130.384C39.2153 130.876 39.3795 131.369 39.5438 131.862C39.6094 131.993 39.708 132.059 39.8393 132.059ZM142.34 129.169C142.472 129.169 142.603 129.07 142.636 128.939C142.767 128.446 142.898 127.953 142.997 127.428C143.03 127.264 142.931 127.099 142.767 127.067C142.603 127.034 142.439 127.132 142.406 127.297C142.274 127.789 142.176 128.282 142.045 128.774C142.012 128.939 142.11 129.103 142.274 129.136C142.307 129.169 142.34 129.169 142.34 129.169ZM38.9854 129.136C39.0183 129.136 39.0511 129.136 39.0511 129.136C39.2153 129.103 39.3138 128.939 39.281 128.774C39.1496 128.282 39.0183 127.789 38.9197 127.297C38.8869 127.132 38.7227 127.034 38.5585 127.067C38.3943 127.099 38.2957 127.264 38.3286 127.428C38.4599 127.921 38.5585 128.446 38.6899 128.939C38.7227 129.037 38.854 129.136 38.9854 129.136ZM143.063 126.18C143.194 126.18 143.325 126.081 143.358 125.917C143.457 125.425 143.555 124.899 143.654 124.406C143.687 124.242 143.555 124.078 143.391 124.045C143.227 124.012 143.063 124.144 143.03 124.308C142.931 124.8 142.833 125.326 142.734 125.819C142.701 125.983 142.8 126.147 142.964 126.18C143.03 126.18 143.03 126.18 143.063 126.18ZM38.2629 126.114C38.2957 126.114 38.2957 126.114 38.3286 126.114C38.4928 126.081 38.5913 125.917 38.5585 125.753C38.46 125.26 38.3614 124.735 38.2629 124.242C38.2301 124.078 38.0659 123.947 37.9016 123.979C37.7374 124.012 37.606 124.176 37.6389 124.341C37.7374 124.833 37.836 125.359 37.9345 125.851C38.0002 126.016 38.1315 126.114 38.2629 126.114ZM143.588 123.126C143.752 123.126 143.884 123.027 143.884 122.863C143.949 122.37 144.015 121.845 144.081 121.319C144.114 121.155 143.982 120.991 143.818 120.991C143.654 120.958 143.49 121.089 143.49 121.254C143.424 121.746 143.358 122.272 143.293 122.764C143.26 122.928 143.391 123.093 143.555 123.126C143.555 123.126 143.555 123.126 143.588 123.126ZM37.7374 123.093L37.7703 123.093C37.9345 123.06 38.0659 122.928 38.033 122.731C37.9673 122.239 37.9016 121.713 37.8359 121.221C37.8031 121.056 37.6717 120.925 37.5075 120.958C37.3433 120.991 37.212 121.122 37.2448 121.286C37.3105 121.812 37.3762 122.304 37.4418 122.83C37.4747 122.961 37.6061 123.093 37.7374 123.093ZM143.949 120.071C144.114 120.071 144.245 119.94 144.245 119.776C144.278 119.25 144.311 118.758 144.344 118.232C144.344 118.068 144.212 117.904 144.048 117.904C143.884 117.904 143.72 118.035 143.72 118.199C143.687 118.692 143.654 119.217 143.621 119.743C143.621 119.907 143.752 120.038 143.949 120.071C143.917 120.071 143.917 120.071 143.949 120.071ZM37.409 120.038C37.6061 120.038 37.7374 119.874 37.7046 119.71C37.6718 119.217 37.6389 118.692 37.6061 118.166C37.6061 118.002 37.4418 117.871 37.2776 117.871C37.1134 117.871 36.982 118.035 36.982 118.199C37.0149 118.725 37.0477 119.25 37.0806 119.743C37.1134 119.907 37.2448 120.038 37.409 120.038ZM144.114 116.984C144.278 116.984 144.409 116.853 144.409 116.688C144.409 116.163 144.442 115.67 144.442 115.145C144.442 114.981 144.311 114.849 144.146 114.849C143.982 114.849 143.851 114.981 143.851 115.145C143.851 115.67 143.851 116.163 143.818 116.688C143.818 116.853 143.949 116.984 144.114 116.984ZM37.212 116.951C37.212 116.951 37.2448 116.951 37.212 116.951C37.3762 116.951 37.5404 116.82 37.5075 116.623C37.5075 116.13 37.4747 115.605 37.4747 115.079L37.4747 114.981C37.4747 114.816 37.3433 114.685 37.1791 114.685C37.0149 114.685 36.8835 114.816 36.8835 114.981L36.8835 115.079C36.8835 115.605 36.8835 116.13 36.9164 116.623C36.9164 116.82 37.0478 116.951 37.212 116.951ZM144.114 113.897C144.278 113.897 144.442 113.765 144.409 113.568C144.409 113.043 144.376 112.517 144.344 112.025C144.344 111.861 144.179 111.729 144.015 111.729C143.851 111.729 143.72 111.893 143.72 112.058C143.752 112.55 143.785 113.076 143.785 113.601C143.818 113.765 143.949 113.897 144.114 113.897ZM37.212 113.765C37.3762 113.765 37.5075 113.634 37.5075 113.47C37.5075 112.944 37.5404 112.452 37.5732 111.926C37.5732 111.762 37.4418 111.598 37.2776 111.598C37.1134 111.598 36.9492 111.729 36.9492 111.893C36.9164 112.419 36.8835 112.912 36.8835 113.437C36.9164 113.634 37.0478 113.765 37.212 113.765ZM143.949 110.843C144.146 110.843 144.278 110.678 144.245 110.514C144.212 109.989 144.146 109.496 144.081 108.97C144.048 108.806 143.917 108.675 143.752 108.708C143.588 108.741 143.457 108.872 143.49 109.036C143.555 109.529 143.588 110.054 143.654 110.547C143.654 110.711 143.785 110.843 143.949 110.843ZM37.409 110.711C37.5732 110.711 37.7046 110.58 37.7046 110.416C37.7374 109.923 37.8031 109.397 37.8688 108.905C37.9017 108.741 37.7703 108.576 37.6061 108.576C37.4418 108.544 37.2776 108.675 37.2776 108.839C37.2119 109.365 37.1791 109.857 37.1134 110.383C37.0806 110.547 37.212 110.678 37.409 110.711C37.409 110.711 37.3762 110.711 37.409 110.711ZM143.588 107.788L143.621 107.788C143.785 107.755 143.917 107.624 143.884 107.427C143.818 106.934 143.72 106.409 143.654 105.883C143.621 105.719 143.457 105.588 143.293 105.621C143.128 105.653 142.997 105.818 143.03 105.982C143.128 106.474 143.194 107 143.26 107.493C143.325 107.657 143.457 107.788 143.588 107.788ZM37.7703 107.624C37.9345 107.624 38.0659 107.525 38.0659 107.361C38.1315 106.869 38.23 106.343 38.2957 105.85C38.3286 105.686 38.1972 105.522 38.033 105.489C37.8688 105.456 37.7046 105.588 37.6717 105.752C37.5732 106.245 37.5075 106.77 37.4418 107.296C37.409 107.46 37.5404 107.624 37.7046 107.657C37.7374 107.624 37.7374 107.624 37.7703 107.624ZM143.063 104.734C143.096 104.734 143.096 104.734 143.128 104.734C143.293 104.701 143.391 104.537 143.358 104.373C143.26 103.88 143.161 103.354 143.03 102.862C142.997 102.698 142.833 102.599 142.669 102.632C142.504 102.665 142.406 102.829 142.439 102.993C142.57 103.486 142.669 103.978 142.767 104.504C142.8 104.635 142.931 104.734 143.063 104.734ZM38.2957 104.602C38.4271 104.602 38.5585 104.504 38.5913 104.373C38.6898 103.88 38.7884 103.387 38.9197 102.862C38.9526 102.698 38.8541 102.533 38.6899 102.501C38.5257 102.468 38.3614 102.566 38.3286 102.73C38.1972 103.223 38.0987 103.749 38.0001 104.241C37.9673 104.405 38.0659 104.57 38.2301 104.602C38.2629 104.602 38.2629 104.602 38.2957 104.602ZM142.373 101.745C142.406 101.745 142.439 101.745 142.439 101.745C142.603 101.712 142.701 101.548 142.669 101.384C142.537 100.891 142.406 100.399 142.242 99.906C142.209 99.7418 142.012 99.6433 141.848 99.709C141.683 99.7418 141.585 99.9389 141.65 100.103C141.782 100.596 141.946 101.088 142.077 101.581C142.11 101.647 142.242 101.745 142.373 101.745ZM39.0183 101.614C39.1497 101.614 39.281 101.515 39.3138 101.384C39.4452 100.891 39.5766 100.399 39.7408 99.906C39.7736 99.7418 39.708 99.5776 39.5438 99.5119C39.3795 99.4791 39.2153 99.5448 39.1496 99.709C39.0183 100.202 38.8541 100.694 38.7227 101.187C38.6899 101.351 38.7884 101.515 38.9526 101.548C38.9526 101.614 38.9854 101.614 39.0183 101.614ZM141.519 98.7894C141.552 98.7894 141.585 98.7894 141.618 98.7894C141.782 98.7237 141.88 98.5595 141.815 98.3953C141.65 97.9026 141.486 97.41 141.322 96.9174C141.256 96.7532 141.092 96.6875 140.928 96.7203C140.764 96.786 140.698 96.9502 140.731 97.1144C140.895 97.6071 141.059 98.0669 141.224 98.5595C141.256 98.6909 141.388 98.7894 141.519 98.7894ZM39.8722 98.658C40.0035 98.658 40.1349 98.5923 40.1678 98.461C40.332 97.9683 40.4962 97.4757 40.6604 97.0159C40.7261 96.8517 40.6275 96.6875 40.4633 96.6218C40.2991 96.5561 40.1349 96.6546 40.0692 96.8189C39.905 97.3115 39.708 97.8041 39.5766 98.2968C39.5109 98.461 39.6094 98.6252 39.7736 98.6909C39.8065 98.658 39.8393 98.658 39.8722 98.658ZM140.468 95.8664C140.501 95.8664 140.534 95.8664 140.567 95.8336C140.731 95.7679 140.797 95.6037 140.731 95.4395C140.534 94.9468 140.337 94.487 140.14 93.9944C140.074 93.8302 139.877 93.7645 139.746 93.8302C139.581 93.8959 139.516 94.0929 139.581 94.2243C139.778 94.6841 139.976 95.1767 140.173 95.6365C140.205 95.8007 140.337 95.8664 140.468 95.8664ZM40.9231 95.7679C41.0545 95.7679 41.153 95.7022 41.2187 95.5709C41.4158 95.1111 41.6128 94.6184 41.8099 94.1586C41.8756 93.9944 41.8099 93.8302 41.6457 93.7645C41.4815 93.6988 41.3172 93.7645 41.2515 93.9287C41.0545 94.3885 40.8575 94.8812 40.6604 95.341C40.5947 95.5052 40.6604 95.6694 40.8246 95.7351C40.8575 95.7351 40.8903 95.7679 40.9231 95.7679ZM139.253 93.042C139.286 93.042 139.352 93.042 139.384 93.0091C139.549 92.9434 139.614 92.7464 139.549 92.615C139.319 92.1552 139.122 91.6626 138.892 91.2028C138.826 91.0386 138.629 90.9729 138.465 91.0715C138.301 91.1372 138.235 91.3342 138.333 91.4984C138.563 91.9582 138.793 92.418 138.99 92.8778C139.023 92.9763 139.122 93.042 139.253 93.042ZM42.1383 92.9435C42.2697 92.9435 42.3682 92.8778 42.4339 92.7793C42.6638 92.3195 42.8608 91.8597 43.0907 91.3999C43.1564 91.2357 43.0907 91.0715 42.9594 90.9729C42.7952 90.9072 42.6309 90.9729 42.5324 91.1043C42.3025 91.5641 42.0726 92.0239 41.8756 92.4837C41.8099 92.6479 41.8756 92.8121 42.0398 92.8778C42.0398 92.9106 42.1055 92.9435 42.1383 92.9435ZM137.874 90.2832C137.906 90.2832 137.972 90.2833 138.005 90.2504C138.169 90.1847 138.202 89.9877 138.136 89.8234C137.906 89.3637 137.644 88.9039 137.381 88.4769C137.282 88.3127 137.118 88.2798 136.954 88.3784C136.823 88.4769 136.757 88.6411 136.855 88.8053C137.118 89.2651 137.348 89.6921 137.611 90.1519C137.644 90.2176 137.775 90.2832 137.874 90.2832ZM43.5177 90.1847C43.6162 90.1847 43.7476 90.119 43.7804 90.0205C44.0103 89.5607 44.273 89.1338 44.5358 88.674C44.6343 88.5426 44.5686 88.3455 44.4373 88.247C44.3059 88.1485 44.1088 88.2142 44.0103 88.3455C43.7476 88.8053 43.5177 89.2323 43.2549 89.6921C43.1892 89.8563 43.2221 90.0205 43.3863 90.119C43.4191 90.1847 43.452 90.1847 43.5177 90.1847ZM136.33 87.5901C136.396 87.5901 136.429 87.5902 136.494 87.5573C136.626 87.4588 136.691 87.2946 136.593 87.1304C136.33 86.7034 136.034 86.2437 135.772 85.8167C135.673 85.6853 135.476 85.6196 135.345 85.7182C135.213 85.8167 135.148 86.0138 135.246 86.1451C135.509 86.5721 135.805 86.999 136.067 87.4588C136.133 87.5245 136.231 87.5901 136.33 87.5901ZM45.0612 87.5245C45.1598 87.5245 45.2583 87.4588 45.324 87.3931C45.5867 86.9662 45.8495 86.5392 46.1451 86.1123C46.2436 85.9809 46.2107 85.7839 46.0465 85.6853C45.9151 85.5868 45.7181 85.6196 45.6196 85.7838C45.324 86.2108 45.0613 86.6377 44.7985 87.0975C44.7 87.2289 44.7657 87.426 44.897 87.5245C44.9299 87.4916 44.9956 87.5245 45.0612 87.5245ZM134.655 84.9956C134.721 84.9956 134.786 84.9628 134.819 84.9299C134.951 84.8314 134.983 84.6344 134.885 84.503C134.589 84.0761 134.294 83.6491 133.998 83.255C133.9 83.1236 133.703 83.0908 133.571 83.1893C133.44 83.2878 133.407 83.4849 133.506 83.6162C133.801 84.0432 134.097 84.4373 134.392 84.8643C134.458 84.9628 134.557 84.9956 134.655 84.9956ZM46.7362 84.9299C46.8348 84.9299 46.9333 84.8971 46.9989 84.7986C47.2945 84.3716 47.5901 83.9447 47.8857 83.5506C47.9842 83.4192 47.9514 83.2221 47.82 83.1236C47.6886 83.0251 47.4916 83.058 47.3931 83.1893C47.0975 83.6163 46.8019 84.0104 46.5063 84.4373C46.4078 84.5687 46.4406 84.7657 46.572 84.8643C46.6049 84.93 46.6705 84.9299 46.7362 84.9299ZM132.816 82.5325C132.882 82.5325 132.947 82.4996 133.013 82.4668C133.144 82.3682 133.177 82.1712 133.079 82.0398C132.75 81.6457 132.422 81.2187 132.093 80.8246C131.995 80.6933 131.798 80.6604 131.666 80.7918C131.535 80.8903 131.502 81.0874 131.634 81.2188C131.962 81.6129 132.29 82.007 132.586 82.4011C132.652 82.4668 132.75 82.5325 132.816 82.5325ZM48.5426 82.4668C48.6411 82.4668 48.7396 82.4339 48.7724 82.3354C49.1009 81.9413 49.3964 81.5472 49.7249 81.1531C49.8234 81.0217 49.8234 80.8247 49.692 80.7261C49.5607 80.6276 49.3636 80.6276 49.2651 80.759C48.9366 81.1531 48.6082 81.5472 48.2798 81.9741C48.1813 82.1055 48.2141 82.3026 48.3455 82.4011C48.4112 82.4339 48.4769 82.4668 48.5426 82.4668ZM130.878 80.135C130.944 80.135 131.01 80.1021 131.075 80.0693C131.207 79.9708 131.207 79.7737 131.108 79.6423C130.78 79.2482 130.418 78.887 130.057 78.4929C129.926 78.3615 129.762 78.3615 129.63 78.4929C129.499 78.6242 129.499 78.7884 129.63 78.9198C129.991 79.2811 130.32 79.6752 130.648 80.0693C130.681 80.1021 130.78 80.135 130.878 80.135ZM50.5131 80.1021C50.6116 80.1021 50.6773 80.0693 50.743 80.0036C51.0714 79.6095 51.4327 79.2482 51.7611 78.8541C51.8924 78.7227 51.8596 78.5257 51.7611 78.4272C51.6297 78.2958 51.4327 78.3287 51.3341 78.4272C50.9729 78.7885 50.6444 79.1826 50.2832 79.5767C50.1846 79.708 50.1846 79.9051 50.316 80.0036C50.3817 80.0693 50.4474 80.1021 50.5131 80.1021ZM128.776 77.9017C128.842 77.9017 128.941 77.8689 129.006 77.8032C129.138 77.6718 129.138 77.4747 129.006 77.3762C128.645 77.0149 128.284 76.6537 127.89 76.2924C127.758 76.1611 127.561 76.1939 127.463 76.2924C127.331 76.4238 127.364 76.6208 127.463 76.7194C127.824 77.0806 128.185 77.4419 128.546 77.8032C128.612 77.8689 128.678 77.9017 128.776 77.9017ZM52.615 77.836C52.6807 77.836 52.7792 77.8032 52.8449 77.7375C53.2062 77.3762 53.5674 77.015 53.9287 76.6537C54.06 76.5223 54.06 76.3253 53.9287 76.2267C53.7973 76.0954 53.6003 76.0954 53.5017 76.2267C53.1405 76.588 52.7464 76.9493 52.3851 77.3105C52.2537 77.4419 52.2537 77.6389 52.3851 77.7375C52.4836 77.8032 52.5493 77.836 52.615 77.836ZM126.543 75.7669C126.642 75.7669 126.707 75.7341 126.773 75.6684C126.871 75.537 126.871 75.34 126.74 75.2415C126.346 74.913 125.985 74.5518 125.591 74.2234C125.459 74.1248 125.262 74.1248 125.164 74.2562C125.065 74.3876 125.065 74.5846 125.196 74.6832C125.591 75.0116 125.985 75.34 126.346 75.7013C126.379 75.7341 126.477 75.7669 126.543 75.7669ZM54.8483 75.7013C54.9139 75.7013 54.9796 75.6684 55.0453 75.6356C55.4394 75.3072 55.8007 74.9459 56.1948 74.6174C56.3262 74.5189 56.3261 74.3219 56.2276 74.1905C56.1291 74.0592 55.9321 74.0592 55.8007 74.1577C55.4066 74.4861 55.0125 74.8474 54.6512 75.1758C54.5198 75.2743 54.5199 75.4714 54.6184 75.6027C54.6841 75.6684 54.7826 75.7013 54.8483 75.7013ZM124.211 73.7635C124.31 73.7635 124.375 73.7307 124.441 73.665C124.54 73.5337 124.54 73.3366 124.408 73.2381C124.014 72.9097 123.587 72.5812 123.193 72.2856C123.062 72.1871 122.865 72.22 122.766 72.3514C122.668 72.4827 122.7 72.6798 122.832 72.7783C123.226 73.0739 123.653 73.4023 124.047 73.7307C124.08 73.7307 124.145 73.7635 124.211 73.7635ZM57.2129 73.6979C57.2786 73.6979 57.3443 73.665 57.41 73.6322C57.8041 73.3038 58.1982 73.0082 58.6251 72.6798C58.7565 72.5813 58.7893 72.3842 58.6908 72.2528C58.5923 72.1215 58.3952 72.0886 58.2639 72.1871C57.8698 72.4827 57.4428 72.8111 57.0487 73.1395C56.9173 73.2381 56.8845 73.4351 57.0158 73.5665C57.0158 73.665 57.1144 73.6979 57.2129 73.6979ZM121.748 71.8916C121.847 71.8916 121.945 71.8587 122.011 71.7602C122.109 71.6288 122.076 71.4317 121.945 71.3332C121.518 71.0376 121.091 70.7421 120.664 70.4465C120.533 70.348 120.336 70.3808 120.237 70.545C120.139 70.6764 120.172 70.8734 120.336 70.972C120.763 71.2675 121.19 71.5631 121.584 71.8587C121.617 71.8916 121.682 71.8916 121.748 71.8916ZM59.6432 71.8587C59.7089 71.8587 59.7746 71.8259 59.8074 71.793C60.2344 71.4974 60.6614 71.2019 61.0555 70.9063C61.1868 70.8078 61.2196 70.6107 61.154 70.4793C61.0554 70.348 60.8584 70.3151 60.727 70.3808C60.3001 70.6764 59.8731 70.972 59.4462 71.2675C59.3148 71.3661 59.282 71.5631 59.3805 71.6945C59.479 71.793 59.5447 71.8587 59.6432 71.8587ZM119.186 70.1837C119.285 70.1837 119.383 70.1181 119.449 70.0524C119.548 69.921 119.482 69.724 119.351 69.6254C118.924 69.3627 118.464 69.0671 118.037 68.8044C117.905 68.7058 117.708 68.7715 117.61 68.9029C117.511 69.0343 117.577 69.2313 117.708 69.3298C118.135 69.5926 118.595 69.8553 119.022 70.1181C119.088 70.1509 119.153 70.1837 119.186 70.1837ZM62.2049 70.1181C62.2706 70.1181 62.3035 70.1181 62.3692 70.0852C62.7961 69.8225 63.2559 69.5598 63.6828 69.297C63.8142 69.1985 63.8799 69.0343 63.7813 68.87C63.6828 68.7387 63.5186 68.673 63.3544 68.7715C62.8946 69.0343 62.4677 69.297 62.0407 69.5926C61.9094 69.6911 61.8437 69.8882 61.9422 70.0195C62.0079 70.0852 62.1064 70.1181 62.2049 70.1181ZM116.559 68.6073C116.657 68.6073 116.789 68.5416 116.822 68.4431C116.92 68.2789 116.855 68.1147 116.69 68.0162C116.231 67.7534 115.771 67.5235 115.344 67.2936C115.18 67.228 115.015 67.2608 114.917 67.425C114.851 67.5892 114.884 67.7534 115.048 67.8519C115.508 68.0818 115.968 68.3446 116.395 68.5745C116.46 68.6073 116.493 68.6073 116.559 68.6073ZM64.8652 68.5745C64.9308 68.5745 64.9637 68.5745 65.0294 68.5416C65.4892 68.2789 65.9161 68.049 66.3759 67.8191C66.5401 67.7534 66.573 67.5564 66.5073 67.3921C66.4416 67.2279 66.2445 67.1951 66.0803 67.2608C65.6205 67.4907 65.1607 67.7534 64.7009 67.9833C64.5367 68.0818 64.5039 68.2461 64.5696 68.4103C64.6681 68.5088 64.7666 68.5745 64.8652 68.5745ZM113.833 67.1951C113.932 67.1951 114.063 67.1294 114.096 67.0309C114.161 66.8667 114.096 66.7025 113.964 66.604C113.505 66.3741 113.045 66.177 112.552 65.9471C112.388 65.8814 112.224 65.9471 112.158 66.1113C112.092 66.2755 112.158 66.4397 112.322 66.5054C112.782 66.7025 113.242 66.9324 113.702 67.1623C113.734 67.1951 113.767 67.1951 113.833 67.1951ZM67.6239 67.1623C67.6568 67.1623 67.7225 67.1623 67.7553 67.1294C68.2151 66.8995 68.6749 66.7025 69.1347 66.4726C69.2989 66.4069 69.3646 66.2098 69.2989 66.0785C69.2332 65.9142 69.0361 65.8486 68.9048 65.9142C68.445 66.1113 67.9523 66.3412 67.4925 66.5711C67.3283 66.6368 67.2626 66.8338 67.3612 66.9981C67.394 67.0966 67.4926 67.1623 67.6239 67.1623ZM111.009 65.9471C111.14 65.9471 111.238 65.8814 111.304 65.75C111.37 65.5858 111.304 65.4216 111.14 65.3559C110.68 65.1589 110.188 64.9618 109.695 64.7976C109.531 64.7319 109.366 64.8305 109.301 64.9618C109.235 65.1261 109.334 65.2902 109.465 65.3559C109.925 65.5201 110.417 65.7172 110.877 65.9142C110.943 65.9471 110.976 65.9471 111.009 65.9471ZM70.4484 65.8814C70.4812 65.8814 70.514 65.8814 70.5797 65.8486C71.0395 65.6515 71.5322 65.4545 72.0248 65.2903C72.189 65.2246 72.2547 65.0603 72.189 64.8961C72.1233 64.7319 71.9591 64.6662 71.7949 64.7319C71.3022 64.929 70.8096 65.0932 70.3498 65.2903C70.1856 65.3559 70.1199 65.5201 70.1856 65.6844C70.2184 65.8157 70.317 65.8814 70.4484 65.8814ZM108.118 64.8633C108.25 64.8633 108.381 64.7976 108.414 64.6663C108.48 64.502 108.381 64.3378 108.217 64.2721C107.724 64.1079 107.232 63.9437 106.739 63.7795C106.575 63.7138 106.411 63.8124 106.345 63.9766C106.279 64.1408 106.378 64.305 106.542 64.3707C107.035 64.5349 107.527 64.6991 107.987 64.8633C108.053 64.8633 108.086 64.8633 108.118 64.8633ZM73.3385 64.7976C73.3713 64.7976 73.4042 64.7976 73.437 64.7648C73.9296 64.6005 74.4223 64.4363 74.8821 64.2721C75.0463 64.2064 75.1448 64.0422 75.0791 63.878C75.0134 63.7138 74.8492 63.6153 74.685 63.681C74.1924 63.8452 73.6997 64.0094 73.2071 64.1736C73.0429 64.2393 72.9444 64.4035 73.0101 64.5677C73.0758 64.7319 73.2071 64.7976 73.3385 64.7976ZM105.196 63.9437C105.327 63.9437 105.458 63.8452 105.491 63.7138C105.524 63.5496 105.458 63.3854 105.294 63.3197C104.801 63.1884 104.309 63.057 103.783 62.9256C103.619 62.8927 103.455 62.9913 103.422 63.1555C103.389 63.3197 103.488 63.4839 103.652 63.5168C104.145 63.6481 104.637 63.7795 105.13 63.9109C105.13 63.9437 105.163 63.9437 105.196 63.9437ZM76.2943 63.9109C76.3271 63.9109 76.36 63.9109 76.3928 63.9109C76.8854 63.7795 77.3781 63.6481 77.8707 63.5168C78.0349 63.4839 78.1335 63.3197 78.1006 63.1555C78.0678 62.9913 77.9035 62.8928 77.7393 62.9256C77.2467 63.057 76.7212 63.1884 76.2286 63.3197C76.0644 63.3526 75.9659 63.5496 75.9987 63.7138C76.0315 63.8123 76.1629 63.9109 76.2943 63.9109ZM102.207 63.1883C102.338 63.1883 102.47 63.0898 102.502 62.9584C102.535 62.7942 102.437 62.63 102.273 62.5972C101.78 62.4986 101.254 62.3673 100.762 62.3016C100.598 62.2687 100.433 62.3673 100.401 62.5315C100.368 62.6957 100.466 62.8599 100.63 62.8928C101.123 62.9913 101.649 63.0898 102.141 63.1883C102.174 63.1883 102.174 63.1883 102.207 63.1883ZM79.2829 63.1555C79.3158 63.1555 79.3158 63.1555 79.3486 63.1555C79.8412 63.057 80.3339 62.9585 80.8593 62.8599C81.0236 62.8271 81.1221 62.6629 81.0893 62.4987C81.0564 62.3345 80.8922 62.2359 80.728 62.2687C80.2354 62.3673 79.7099 62.4658 79.2172 62.5643C79.053 62.5972 78.9545 62.7614 78.9873 62.9256C79.0202 63.057 79.1187 63.1555 79.2829 63.1555ZM99.1854 62.5972C99.3496 62.5972 99.481 62.4987 99.481 62.3345C99.5138 62.1702 99.3824 62.006 99.2182 61.9732C98.7256 61.9075 98.2001 61.809 97.6746 61.7433C97.5104 61.7104 97.3462 61.8418 97.3134 62.006C97.2805 62.1702 97.4119 62.3344 97.5761 62.3673C98.0687 62.433 98.5942 62.4986 99.0868 62.5972C99.1525 62.5972 99.1525 62.5972 99.1854 62.5972ZM82.3044 62.5972L82.3372 62.5972C82.8299 62.5315 83.3554 62.433 83.848 62.3673C84.0122 62.3344 84.1436 62.2031 84.1107 62.0389C84.0779 61.8747 83.9465 61.7433 83.7823 61.7761C83.2568 61.8418 82.7642 61.9075 82.2387 62.006C82.0745 62.0389 81.9431 62.2031 81.976 62.3673C82.0088 62.4658 82.1402 62.5972 82.3044 62.5972ZM96.131 62.2031C96.2952 62.2031 96.4266 62.0717 96.4266 61.9403C96.4594 61.7761 96.3281 61.6119 96.1639 61.6119C95.6384 61.5462 95.1458 61.5134 94.6203 61.4805C94.4561 61.4805 94.2918 61.6119 94.2918 61.7761C94.2918 61.9403 94.4232 62.1045 94.5874 62.1045C95.0801 62.1045 95.5727 62.1702 96.131 62.2031C96.0982 62.2031 96.0982 62.2031 96.131 62.2031ZM85.3588 62.2031C85.3588 62.2031 85.3916 62.2031 85.3588 62.2031C85.8842 62.1374 86.4097 62.1045 86.9023 62.0717C87.0665 62.0717 87.1979 61.9075 87.1979 61.7433C87.1979 61.5791 87.0337 61.4477 86.8695 61.4477C86.344 61.4805 85.8514 61.5134 85.3259 61.5791C85.1617 61.6119 85.0303 61.7433 85.0632 61.9075C85.0632 62.0717 85.1946 62.2031 85.3588 62.2031ZM93.0439 62.006C93.2081 62.006 93.3394 61.8747 93.3394 61.7104C93.3394 61.5462 93.2081 61.382 93.0439 61.382C92.5184 61.3492 92.0257 61.3492 91.5003 61.3492C91.336 61.3492 91.2047 61.4805 91.1718 61.6447C91.1718 61.8089 91.3032 61.9403 91.4674 61.9732C92.0257 61.9403 92.5184 61.9732 93.0439 62.006ZM88.4459 61.9732C88.9714 61.9403 89.4969 61.9403 89.9895 61.9403C90.1537 61.9403 90.2851 61.809 90.2851 61.6119C90.2851 61.4477 90.1537 61.3163 89.9567 61.3163C89.4312 61.3163 88.9057 61.3492 88.4131 61.3492C88.2489 61.3492 88.1175 61.5134 88.1175 61.6776C88.1175 61.8418 88.2817 61.9732 88.4459 61.9732Z" fill="#0F0F0F"/>
<path d="M91.4378 140.466C91.9632 140.466 92.4887 140.433 93.0142 140.368C93.1784 140.368 93.3098 140.204 93.2769 140.039C93.2769 139.875 93.1127 139.744 92.9485 139.777C92.4559 139.809 91.9304 139.842 91.4378 139.875C91.2735 139.875 91.1422 140.007 91.1422 140.204C91.1422 140.335 91.2735 140.466 91.4378 140.466ZM89.8941 140.466C90.0584 140.466 90.1897 140.335 90.1897 140.171C90.1897 140.007 90.0584 139.842 89.8941 139.842C89.4015 139.842 88.876 139.809 88.3834 139.744C88.2192 139.744 88.055 139.842 88.055 140.007C88.055 140.171 88.1535 140.335 88.3177 140.335C88.8432 140.401 89.3687 140.433 89.8941 140.466ZM94.4921 140.171L94.5249 140.171C95.0504 140.105 95.543 140.007 96.0685 139.875C96.2327 139.842 96.3312 139.678 96.2984 139.514C96.2656 139.35 96.1013 139.251 95.9371 139.284C95.4445 139.382 94.9519 139.481 94.4264 139.547C94.2622 139.58 94.1308 139.744 94.1636 139.908C94.2293 140.072 94.3607 140.171 94.4921 140.171ZM86.807 140.171C86.9712 140.171 87.1025 140.072 87.1025 139.908C87.1354 139.744 87.004 139.58 86.8398 139.547C86.3472 139.481 85.8217 139.383 85.3291 139.251C85.1649 139.218 85.0006 139.317 84.9678 139.481C84.935 139.645 85.0335 139.809 85.1977 139.842C85.6904 139.941 86.2158 140.039 86.7413 140.138C86.7741 140.171 86.807 140.171 86.807 140.171ZM97.5136 139.514C97.5464 139.514 97.5792 139.514 97.6121 139.514C98.1047 139.383 98.5974 139.218 99.09 139.054C99.2542 138.988 99.3199 138.824 99.2871 138.66C99.2214 138.496 99.0572 138.43 98.8929 138.463C98.4003 138.627 97.9405 138.791 97.4479 138.923C97.2837 138.956 97.1851 139.153 97.2508 139.317C97.2508 139.448 97.3822 139.514 97.5136 139.514ZM83.7855 139.514C83.9169 139.514 84.0482 139.415 84.0811 139.284C84.1139 139.12 84.0482 138.956 83.884 138.89C83.3914 138.759 82.8987 138.594 82.439 138.43C82.2747 138.364 82.1105 138.463 82.0449 138.627C81.9792 138.791 82.0777 138.956 82.2419 139.021C82.7345 139.185 83.2272 139.35 83.7198 139.481C83.7527 139.514 83.7855 139.514 83.7855 139.514ZM100.437 138.496C100.469 138.496 100.502 138.496 100.568 138.463C101.061 138.266 101.52 138.036 101.98 137.806C102.144 137.74 102.21 137.543 102.112 137.379C102.046 137.215 101.849 137.149 101.685 137.248C101.225 137.478 100.765 137.675 100.305 137.872C100.141 137.937 100.075 138.134 100.141 138.266C100.207 138.43 100.305 138.496 100.437 138.496ZM80.8954 138.496C81.0268 138.496 81.1252 138.43 81.1909 138.299C81.2566 138.134 81.1909 137.97 81.0267 137.905C80.5669 137.708 80.1072 137.478 79.6474 137.281C79.4831 137.215 79.3189 137.281 79.2204 137.412C79.1547 137.576 79.2204 137.74 79.3518 137.839C79.8116 138.069 80.3042 138.299 80.764 138.496C80.7968 138.496 80.8625 138.496 80.8954 138.496ZM103.195 137.116C103.261 137.116 103.294 137.116 103.359 137.084C103.819 136.821 104.246 136.558 104.673 136.262C104.805 136.164 104.87 135.967 104.772 135.836C104.673 135.704 104.476 135.638 104.345 135.737C103.918 136.033 103.491 136.295 103.064 136.525C102.933 136.624 102.867 136.788 102.965 136.952C102.998 137.084 103.097 137.116 103.195 137.116ZM78.1366 137.116C78.2351 137.116 78.3337 137.051 78.3993 136.952C78.4979 136.821 78.4322 136.624 78.3008 136.525C77.8739 136.262 77.4141 136 77.02 135.737C76.8886 135.638 76.6915 135.671 76.593 135.836C76.4945 135.967 76.5273 136.164 76.6916 136.262C77.1185 136.558 77.5783 136.821 78.0052 137.084C78.0381 137.116 78.0709 137.116 78.1366 137.116ZM105.757 135.409C105.823 135.409 105.888 135.376 105.954 135.343C106.381 135.014 106.775 134.686 107.169 134.358C107.301 134.259 107.301 134.062 107.202 133.931C107.104 133.799 106.906 133.799 106.775 133.898C106.381 134.226 105.987 134.555 105.593 134.85C105.461 134.949 105.429 135.146 105.527 135.277C105.593 135.376 105.691 135.409 105.757 135.409ZM75.5749 135.409C75.6734 135.409 75.772 135.376 75.8048 135.277C75.9034 135.146 75.8705 134.949 75.7391 134.85C75.345 134.555 74.9509 134.226 74.5568 133.898C74.4254 133.799 74.2284 133.799 74.1298 133.931C74.0313 134.062 74.0313 134.259 74.1627 134.358C74.5568 134.686 74.9509 135.014 75.3779 135.343C75.4435 135.376 75.5092 135.409 75.5749 135.409ZM108.122 133.405C108.187 133.405 108.286 133.372 108.352 133.307C108.713 132.945 109.074 132.584 109.435 132.19C109.534 132.059 109.534 131.862 109.402 131.763C109.271 131.665 109.074 131.665 108.976 131.796C108.647 132.157 108.286 132.551 107.925 132.88C107.793 133.011 107.793 133.208 107.925 133.307C107.957 133.372 108.023 133.405 108.122 133.405ZM73.2103 133.405C73.276 133.405 73.3745 133.372 73.4402 133.307C73.5715 133.175 73.5715 132.978 73.4402 132.88C73.0789 132.518 72.7176 132.157 72.3892 131.796C72.2907 131.665 72.0936 131.665 71.9623 131.763C71.8309 131.862 71.8309 132.059 71.9294 132.19C72.2907 132.584 72.652 132.945 73.0132 133.307C73.0789 133.372 73.1446 133.405 73.2103 133.405ZM110.191 131.139C110.289 131.139 110.355 131.106 110.421 131.041C110.749 130.646 111.077 130.22 111.373 129.793C111.472 129.661 111.439 129.464 111.307 129.366C111.176 129.267 110.979 129.3 110.88 129.431C110.585 129.858 110.289 130.252 109.961 130.646C109.862 130.778 109.862 130.975 109.994 131.073C110.059 131.106 110.125 131.139 110.191 131.139ZM71.1412 131.139C71.2069 131.139 71.2726 131.106 71.3382 131.073C71.4696 130.975 71.5025 130.778 71.3711 130.646C71.0427 130.252 70.7471 129.858 70.4515 129.431C70.353 129.3 70.1559 129.267 70.0245 129.366C69.8932 129.464 69.8604 129.661 69.9589 129.793C70.2545 130.22 70.5829 130.646 70.9113 131.041C70.977 131.073 71.0427 131.139 71.1412 131.139ZM111.964 128.61C112.063 128.61 112.161 128.545 112.227 128.479C112.49 128.052 112.752 127.592 113.015 127.132C113.081 126.968 113.048 126.804 112.884 126.705C112.72 126.64 112.555 126.673 112.457 126.837C112.227 127.297 111.964 127.723 111.701 128.15C111.603 128.282 111.669 128.479 111.8 128.577C111.866 128.61 111.931 128.61 111.964 128.61ZM69.3677 128.61C69.4334 128.61 69.4662 128.61 69.5319 128.577C69.6633 128.479 69.729 128.282 69.6305 128.15C69.3677 127.723 69.105 127.264 68.8751 126.837C68.8094 126.673 68.6124 126.64 68.4481 126.705C68.2839 126.771 68.2511 126.968 68.3168 127.132C68.5467 127.592 68.8094 128.052 69.105 128.479C69.1707 128.545 69.2692 128.61 69.3677 128.61ZM113.442 125.917C113.573 125.917 113.672 125.851 113.738 125.753C113.968 125.293 114.165 124.801 114.362 124.308C114.427 124.144 114.329 123.979 114.197 123.914C114.033 123.848 113.869 123.947 113.803 124.078C113.606 124.538 113.409 125.03 113.212 125.49C113.146 125.654 113.212 125.819 113.376 125.884C113.344 125.884 113.409 125.917 113.442 125.917ZM67.8898 125.884C67.9226 125.884 67.9883 125.884 68.0212 125.851C68.1854 125.786 68.2511 125.589 68.1854 125.457C67.9883 124.998 67.7585 124.538 67.5943 124.045C67.5286 123.881 67.3643 123.815 67.2001 123.881C67.0359 123.947 66.9702 124.111 67.0359 124.275C67.233 124.768 67.43 125.26 67.6599 125.72C67.6599 125.819 67.7913 125.884 67.8898 125.884ZM114.559 123.027C114.69 123.027 114.821 122.929 114.854 122.797C115.019 122.305 115.15 121.812 115.281 121.286C115.314 121.122 115.216 120.958 115.051 120.925C114.887 120.892 114.723 120.991 114.69 121.155C114.559 121.648 114.427 122.14 114.263 122.633C114.197 122.797 114.296 122.961 114.46 123.027C114.493 123.027 114.526 123.027 114.559 123.027ZM66.7732 122.994C66.806 122.994 66.8389 122.994 66.8717 122.994C67.0359 122.929 67.1344 122.764 67.0687 122.6C66.9045 122.107 66.7732 121.615 66.6418 121.122C66.609 120.958 66.4448 120.859 66.2806 120.892C66.1163 120.925 66.0178 121.089 66.0506 121.254C66.182 121.746 66.3134 122.272 66.4776 122.764C66.5433 122.929 66.6418 122.994 66.7732 122.994ZM115.314 120.038C115.445 120.038 115.577 119.94 115.61 119.776C115.708 119.25 115.774 118.758 115.84 118.232C115.872 118.068 115.741 117.904 115.577 117.904C115.413 117.871 115.248 118.002 115.248 118.166C115.183 118.659 115.117 119.184 115.019 119.677C114.986 119.841 115.084 120.006 115.248 120.038C115.281 120.038 115.281 120.038 115.314 120.038ZM66.0178 120.006C66.0506 120.006 66.0506 120.006 66.0835 120.006C66.2477 119.973 66.3462 119.808 66.3462 119.644C66.2477 119.152 66.182 118.626 66.1163 118.134C66.0835 117.969 65.9521 117.838 65.7879 117.871C65.6237 117.904 65.4923 118.035 65.5252 118.199C65.5909 118.725 65.6565 119.25 65.755 119.743C65.755 119.907 65.8864 120.006 66.0178 120.006ZM115.708 116.984C115.872 116.984 116.004 116.853 116.004 116.688C116.037 116.163 116.037 115.638 116.037 115.112C116.037 114.948 115.905 114.816 115.741 114.816C115.577 114.816 115.445 114.948 115.445 115.112C115.445 115.605 115.413 116.13 115.413 116.623C115.38 116.82 115.511 116.951 115.708 116.984C115.675 116.984 115.675 116.984 115.708 116.984ZM65.6565 116.951C65.8536 116.951 65.985 116.787 65.9521 116.623C65.9193 116.13 65.9193 115.605 65.9193 115.112L65.9193 115.046C65.9193 114.882 65.7879 114.751 65.6237 114.751C65.4595 114.751 65.3281 114.882 65.3281 115.046L65.3281 115.112C65.3281 115.638 65.3281 116.163 65.361 116.688C65.361 116.82 65.4923 116.951 65.6565 116.951ZM115.708 113.897C115.905 113.897 116.037 113.733 116.004 113.568C115.971 113.043 115.938 112.517 115.872 112.025C115.84 111.861 115.708 111.729 115.544 111.762C115.38 111.795 115.248 111.926 115.281 112.091C115.347 112.583 115.38 113.109 115.413 113.601C115.413 113.766 115.544 113.897 115.708 113.897ZM65.6565 113.798C65.8208 113.798 65.9521 113.667 65.9521 113.503C65.985 113.01 66.0178 112.485 66.0835 111.992C66.1163 111.828 65.985 111.664 65.8208 111.664C65.6565 111.631 65.4923 111.762 65.4923 111.926C65.4266 112.452 65.3938 112.977 65.361 113.47C65.3281 113.634 65.4595 113.798 65.6565 113.798ZM115.314 110.843C115.347 110.843 115.347 110.843 115.38 110.843C115.544 110.81 115.643 110.645 115.643 110.481C115.544 109.956 115.445 109.463 115.314 108.971C115.281 108.806 115.117 108.708 114.953 108.741C114.789 108.773 114.69 108.938 114.723 109.102C114.854 109.595 114.953 110.087 115.051 110.58C115.051 110.711 115.183 110.843 115.314 110.843ZM66.0506 110.744C66.182 110.744 66.3134 110.646 66.3462 110.481C66.4448 109.989 66.5433 109.496 66.6746 109.003C66.7075 108.839 66.609 108.675 66.4448 108.642C66.2806 108.609 66.1163 108.708 66.0835 108.872C65.9521 109.365 65.8536 109.89 65.755 110.383C65.7222 110.547 65.8208 110.711 65.985 110.744C66.0178 110.744 66.0178 110.744 66.0506 110.744ZM114.592 107.821C114.624 107.821 114.657 107.821 114.69 107.821C114.854 107.755 114.953 107.591 114.887 107.427C114.723 106.934 114.559 106.442 114.362 105.949C114.296 105.785 114.132 105.719 113.968 105.785C113.803 105.851 113.738 106.015 113.803 106.179C114 106.639 114.165 107.131 114.296 107.624C114.329 107.755 114.46 107.821 114.592 107.821ZM66.806 107.755C66.9374 107.755 67.0688 107.657 67.1016 107.525C67.2658 107.033 67.43 106.573 67.6271 106.08C67.6928 105.916 67.5942 105.752 67.4629 105.686C67.2987 105.621 67.1344 105.719 67.0687 105.851C66.8717 106.343 66.7075 106.836 66.5433 107.328C66.4776 107.493 66.5761 107.657 66.7403 107.723C66.7403 107.755 66.7732 107.755 66.806 107.755ZM113.475 104.964C113.508 104.964 113.573 104.964 113.606 104.931C113.771 104.865 113.836 104.668 113.771 104.537C113.541 104.077 113.311 103.584 113.081 103.125C113.015 102.96 112.818 102.928 112.654 102.993C112.49 103.059 112.457 103.256 112.522 103.42C112.752 103.88 112.982 104.34 113.212 104.8C113.245 104.898 113.344 104.964 113.475 104.964ZM67.9227 104.865C68.054 104.865 68.1525 104.8 68.2182 104.701C68.4153 104.241 68.6452 103.781 68.9079 103.355C68.9736 103.19 68.9408 103.026 68.7766 102.928C68.6124 102.862 68.4481 102.895 68.3496 103.059C68.0869 103.519 67.857 103.979 67.6599 104.438C67.5942 104.603 67.6599 104.767 67.8241 104.832C67.8241 104.865 67.8898 104.865 67.9227 104.865ZM111.997 102.238C112.063 102.238 112.096 102.238 112.161 102.205C112.293 102.106 112.358 101.909 112.26 101.778C111.997 101.351 111.701 100.891 111.406 100.464C111.307 100.333 111.11 100.3 110.979 100.399C110.848 100.497 110.815 100.694 110.913 100.826C111.209 101.253 111.504 101.68 111.767 102.106C111.8 102.172 111.898 102.238 111.997 102.238ZM69.3677 102.172C69.4662 102.172 69.5648 102.106 69.6305 102.041C69.8932 101.614 70.1888 101.187 70.4843 100.76C70.5829 100.629 70.55 100.432 70.4187 100.333C70.2873 100.234 70.0902 100.267 69.9917 100.399C69.6961 100.826 69.4006 101.253 69.1378 101.712C69.0393 101.844 69.105 102.041 69.2364 102.139C69.2692 102.139 69.3349 102.172 69.3677 102.172ZM110.224 99.709C110.289 99.709 110.355 99.6762 110.421 99.6433C110.552 99.5448 110.585 99.3477 110.453 99.2164C110.125 98.8223 109.797 98.4282 109.435 98.034C109.337 97.9027 109.14 97.9027 109.008 98.0012C108.877 98.0997 108.877 98.2968 108.976 98.4282C109.304 98.7894 109.665 99.1835 109.961 99.5776C110.027 99.6762 110.125 99.709 110.224 99.709ZM71.174 99.6433C71.2726 99.6433 71.3383 99.6105 71.4039 99.5448C71.7324 99.1507 72.0608 98.7566 72.3892 98.3953C72.4877 98.2639 72.4878 98.0669 72.3564 97.9684C72.225 97.837 72.0279 97.8698 71.9294 98.0012C71.5682 98.3953 71.2397 98.7894 70.9113 99.1835C70.8128 99.3149 70.8128 99.5119 70.9441 99.6105C71.0427 99.6433 71.1083 99.6433 71.174 99.6433ZM108.154 97.4429C108.22 97.4429 108.319 97.41 108.384 97.3444C108.516 97.213 108.516 97.0159 108.384 96.9174C108.023 96.5561 107.629 96.1949 107.235 95.8665C107.104 95.7679 106.906 95.7679 106.808 95.8993C106.709 96.0307 106.709 96.2277 106.841 96.3263C107.235 96.6547 107.596 97.0159 107.957 97.3444C107.99 97.41 108.056 97.4429 108.154 97.4429ZM73.2431 97.3772C73.3088 97.3772 73.4073 97.3444 73.473 97.2787C73.8343 96.9174 74.2284 96.589 74.5896 96.2606C74.721 96.162 74.721 95.965 74.6225 95.8336C74.5239 95.7023 74.3269 95.7022 74.1955 95.8008C73.8014 96.1292 73.4073 96.4905 73.0461 96.8517C72.9147 96.9831 72.9147 97.1801 73.0461 97.2787C73.0789 97.3444 73.1774 97.3772 73.2431 97.3772ZM105.79 95.4067C105.888 95.4067 105.987 95.3738 106.02 95.2753C106.118 95.1439 106.085 94.9469 105.954 94.8484C105.527 94.5199 105.1 94.2243 104.673 93.9288C104.542 93.8302 104.345 93.8631 104.246 94.0273C104.148 94.1587 104.181 94.3557 104.345 94.4542C104.772 94.7498 105.199 95.0454 105.593 95.341C105.658 95.4067 105.724 95.4067 105.79 95.4067ZM75.6077 95.3738C75.6734 95.3738 75.7391 95.341 75.8048 95.3081C76.1989 95.0125 76.6259 94.717 77.0528 94.4214C77.1842 94.3229 77.2499 94.1258 77.1513 93.9944C77.0528 93.8631 76.8558 93.7974 76.7244 93.8959C76.2974 94.1915 75.8705 94.4871 75.4435 94.7826C75.3122 94.8812 75.2793 95.0782 75.3779 95.2096C75.4107 95.341 75.5092 95.3738 75.6077 95.3738ZM103.228 93.6989C103.327 93.6989 103.425 93.6332 103.491 93.5347C103.589 93.4033 103.524 93.2062 103.392 93.1077C102.933 92.845 102.473 92.5822 102.013 92.3523C101.849 92.2866 101.685 92.3523 101.586 92.4837C101.52 92.6479 101.586 92.8121 101.717 92.9107C102.177 93.1405 102.604 93.3704 103.064 93.6332C103.13 93.6988 103.195 93.6989 103.228 93.6989ZM78.1695 93.666C78.2351 93.666 78.268 93.666 78.3337 93.6332C78.7606 93.3704 79.2204 93.1406 79.6802 92.9107C79.8444 92.845 79.9101 92.6479 79.8116 92.4837C79.7459 92.3195 79.5488 92.2538 79.3846 92.3523C78.9248 92.5822 78.465 92.845 78.0052 93.0749C77.8739 93.1734 77.8082 93.3376 77.9067 93.5018C77.9724 93.6332 78.0709 93.666 78.1695 93.666ZM100.469 92.3195C100.601 92.3195 100.699 92.2538 100.765 92.1224C100.831 91.9582 100.765 91.794 100.601 91.7283C100.108 91.5313 99.6483 91.3342 99.1557 91.17C98.9915 91.1043 98.8272 91.2028 98.7616 91.367C98.6959 91.5313 98.7944 91.6955 98.9586 91.7612C99.4184 91.9254 99.911 92.1224 100.371 92.3195C100.404 92.3195 100.437 92.3195 100.469 92.3195ZM80.9282 92.2866C80.9611 92.2866 80.9939 92.2867 81.0596 92.2538C81.5194 92.0568 82.012 91.8597 82.4718 91.6955C82.636 91.6298 82.7017 91.4656 82.6688 91.3014C82.6031 91.1372 82.439 91.0715 82.2747 91.1043C81.7821 91.2685 81.2895 91.4656 80.8297 91.6626C80.6655 91.7283 80.5998 91.9254 80.6655 92.0568C80.6983 92.221 80.8297 92.2866 80.9282 92.2866ZM97.5792 91.3014C97.7106 91.3014 97.842 91.2029 97.8748 91.0715C97.9077 90.9073 97.842 90.743 97.6778 90.6774C97.1852 90.546 96.6597 90.4146 96.1671 90.2833C96.0028 90.2504 95.8386 90.3489 95.8058 90.5131C95.7729 90.6774 95.8715 90.8416 96.0357 90.8744C96.5283 90.9729 97.0209 91.1043 97.5136 91.2357C97.5136 91.3014 97.5464 91.3014 97.5792 91.3014ZM83.8512 91.2685C83.884 91.2685 83.9168 91.2685 83.9497 91.2685C84.4423 91.1372 84.935 91.0058 85.4276 90.9073C85.5918 90.8744 85.6904 90.7102 85.6575 90.546C85.6247 90.3818 85.4604 90.2833 85.2962 90.3161C84.8036 90.4146 84.2781 90.546 83.7855 90.6774C83.6213 90.7102 83.5227 90.9073 83.5884 91.0715C83.5884 91.2029 83.7198 91.2685 83.8512 91.2685ZM94.5578 90.6445C94.722 90.6445 94.8534 90.546 94.8534 90.3818C94.8862 90.2176 94.7548 90.0534 94.5906 90.0205C94.0651 89.9548 93.5725 89.8892 93.047 89.8235C92.8828 89.8235 92.7186 89.922 92.7186 90.0862C92.7186 90.2504 92.8171 90.4146 92.9813 90.4146C93.474 90.4475 93.9994 90.5132 94.4921 90.6117C94.5249 90.6445 94.5578 90.6445 94.5578 90.6445ZM86.8727 90.6117L86.9055 90.6117C87.3981 90.546 87.9236 90.4803 88.4162 90.4146C88.5804 90.4146 88.7118 90.2504 88.7118 90.0862C88.7118 89.922 88.5476 89.7906 88.3834 89.7906C87.8579 89.8235 87.3325 89.8892 86.8398 89.9877C86.6756 90.0205 86.5442 90.1847 86.5771 90.3489C86.5771 90.5131 86.7085 90.6117 86.8727 90.6117ZM91.5034 90.3489C91.6676 90.3489 91.799 90.2176 91.799 90.0533C91.799 89.8891 91.6676 89.7249 91.5034 89.7249C90.9779 89.6921 90.4525 89.6921 89.927 89.7249C89.7628 89.7249 89.6314 89.8563 89.6314 90.0533C89.6314 90.2176 89.7628 90.3489 89.9598 90.3489C90.4525 90.3489 90.9779 90.3489 91.5034 90.3489C91.4706 90.3489 91.4706 90.3489 91.5034 90.3489Z" fill="#0F0F0F"/>
<path d="M90.6803 117.017C91.5342 117.017 92.2239 116.327 92.2239 115.473L92.2239 1.54331C92.2239 0.689407 91.5342 -0.000259609 90.6803 -0.000259534C89.8264 -0.00025946 89.1367 0.689407 89.1367 1.54331L89.1367 115.473C89.1367 116.327 89.8264 117.017 90.6803 117.017Z" fill="#0F0F0F"/>
<path d="M90.6809 118.986C90.8123 118.986 90.9108 118.953 91.0094 118.855L149.501 60.3628C149.666 60.1986 149.666 59.903 149.501 59.706L91.0093 1.21382C90.8451 1.04962 90.5496 1.04962 90.3525 1.21382L31.8604 59.706C31.7618 59.8045 31.729 59.9031 31.729 60.0344C31.729 60.1658 31.7618 60.2643 31.8604 60.3628L90.3525 118.855C90.4182 118.953 90.5496 118.986 90.6809 118.986ZM148.516 60.0344L90.6809 117.87L32.8456 60.0344L90.6809 2.19909L148.516 60.0344Z" fill="#0F0F0F"/>
</svg>
