<svg width="234" height="44" viewBox="0 0 234 44" fill="none" xmlns="http://www.w3.org/2000/svg">
<path d="M77.0966 30.6C76.5174 30.238 76.0469 29.5864 76.0469 28.7177C76.0469 27.4869 76.988 26.5457 78.2188 26.5457C78.617 26.5457 79.0152 26.6543 79.3048 26.8353C81.1509 27.9937 82.9971 28.5729 84.5536 28.5729C86.1464 28.5729 86.8703 27.9937 86.8703 27.1249V27.0525C86.8703 25.8579 84.988 25.4597 82.8523 24.8082C80.1373 24.0118 77.0604 22.7448 77.0604 18.9801V18.9077C77.0604 14.962 80.2459 12.7539 84.1554 12.7539C86.1826 12.7539 88.2821 13.2969 90.1645 14.2381C90.9608 14.6362 91.4676 15.3602 91.4676 16.3014C91.4676 17.5322 90.4903 18.4733 89.2595 18.4733C88.8613 18.4733 88.6079 18.4009 88.2459 18.2199C86.6894 17.4598 85.2052 16.9892 84.0468 16.9892C82.7075 16.9892 82.0197 17.5684 82.0197 18.3285V18.4009C82.0197 19.4869 83.8658 19.9937 85.9654 20.7177C88.6803 21.6227 91.8296 22.9258 91.8296 26.4733V26.5457C91.8296 30.8534 88.6079 32.8081 84.4088 32.8081C82.0197 32.8081 79.4496 32.1204 77.0966 30.6Z" fill="#262626"/>
<path d="M94.3242 8.55875C94.3242 7.03839 95.555 5.80762 97.0754 5.80762C98.5957 5.80762 99.8265 7.03839 99.8265 8.55875V20.5768L106.704 14.061C107.501 13.3008 108.152 12.8302 109.13 12.8302C110.614 12.8302 111.555 14.0248 111.555 15.2918C111.555 16.2329 111.048 16.9569 110.288 17.6809L105.944 21.4094L111.121 28.3958C111.591 29.0474 111.808 29.5542 111.808 30.1696C111.808 31.6537 110.614 32.6673 109.238 32.6673C108.152 32.6673 107.501 32.3053 106.849 31.4003L102.035 24.7759L99.8265 26.7668V29.9162C99.8265 31.4365 98.5957 32.6673 97.0754 32.6673C95.555 32.6673 94.3242 31.4365 94.3242 29.9162V8.55875Z" fill="#262626"/>
<path d="M114.988 37.8352C114.191 37.5456 113.25 36.894 113.25 35.5546C113.25 34.2153 114.3 33.3103 115.422 33.3103C115.856 33.3103 116.11 33.3827 116.327 33.4551C116.798 33.5999 117.087 33.6723 117.485 33.6723C118.463 33.6723 118.933 33.4913 119.44 32.5139L119.621 32.0795L112.997 16.7357C112.852 16.3737 112.707 15.8307 112.707 15.4687C112.707 13.9122 113.902 12.8262 115.422 12.8262C116.798 12.8262 117.594 13.5863 118.065 14.8895L122.264 26.1836L126.318 14.9257C126.752 13.7674 127.549 12.8262 128.96 12.8262C130.372 12.8262 131.567 13.9121 131.567 15.3601C131.567 15.7945 131.422 16.4099 131.313 16.6633L124.544 32.9121C122.915 36.8578 121.286 38.342 117.992 38.342C116.761 38.342 115.893 38.161 114.988 37.8352Z" fill="#262626"/>
<path d="M136.956 30.3459L132.214 16.6672C132.106 16.3414 131.961 15.7985 131.961 15.3279C131.961 14.0609 132.974 12.8302 134.603 12.8302C135.979 12.8302 136.884 13.6989 137.282 14.9659L140.25 24.812L143.291 15.0021C143.689 13.6989 144.703 12.7939 146.115 12.7939H146.441C147.852 12.7939 148.866 13.6989 149.264 15.0021L152.341 24.8482L155.382 14.9297C155.744 13.7713 156.576 12.8302 158.024 12.8302C159.545 12.8302 160.594 13.9885 160.594 15.3641C160.594 15.7261 160.486 16.2329 160.413 16.4863L155.526 30.3459C154.947 32.0473 153.825 32.8075 152.486 32.8075H152.305C150.965 32.8075 149.843 32.0473 149.336 30.4546L146.26 20.6808L143.146 30.4546C142.64 32.0473 141.517 32.8075 140.178 32.8075H139.997C138.658 32.8075 137.536 32.0473 136.956 30.3459Z" fill="#262626"/>
<path d="M161.309 26.8714V26.799C161.309 22.5637 164.53 20.609 169.128 20.609C171.082 20.609 172.494 20.9348 173.87 21.4053V21.0795C173.87 18.799 172.458 17.5321 169.707 17.5321C168.186 17.5321 166.956 17.7492 165.906 18.075C165.58 18.1836 165.363 18.2198 165.11 18.2198C163.843 18.2198 162.829 17.2425 162.829 15.9755C162.829 14.9981 163.444 14.1655 164.313 13.8397C166.051 13.1882 167.933 12.8262 170.503 12.8262C173.508 12.8262 175.68 13.6225 177.055 14.9981C178.503 16.4461 179.155 18.5818 179.155 21.1881V30.0207C179.155 31.5049 177.96 32.6632 176.476 32.6632C174.883 32.6632 173.833 31.5411 173.833 30.3827V30.3465C172.494 31.8306 170.648 32.808 167.969 32.808C164.313 32.808 161.309 30.7085 161.309 26.8714ZM173.942 25.6044V24.6271C173.001 24.1927 171.77 23.9031 170.431 23.9031C168.078 23.9031 166.63 24.8443 166.63 26.5818V26.6542C166.63 28.1384 167.861 29.0071 169.634 29.0071C172.205 29.0071 173.942 27.5954 173.942 25.6044Z" fill="#262626"/>
<path d="M182.697 8.55875C182.697 7.03839 183.928 5.80762 185.448 5.80762C186.969 5.80762 188.2 7.03839 188.2 8.55875V29.9116C188.2 31.432 186.969 32.6628 185.448 32.6628C183.928 32.6628 182.697 31.432 182.697 29.9116V8.55875Z" fill="#262626"/>
<path d="M192.184 8.55875C192.184 7.03839 193.414 5.80762 194.935 5.80762C196.455 5.80762 197.686 7.03839 197.686 8.55875V29.9116C197.686 31.432 196.455 32.6628 194.935 32.6628C193.414 32.6628 192.184 31.432 192.184 29.9116V8.55875Z" fill="#262626"/>
<path d="M210.604 32.8807C204.776 32.8807 200.469 28.7902 200.469 22.8536V22.7812C200.469 17.2427 204.414 12.6816 210.061 12.6816C216.541 12.6816 219.401 18.0029 219.401 22.021C219.401 23.6137 218.279 24.6635 216.831 24.6635H205.935C206.478 27.1612 208.215 28.4644 210.677 28.4644C212.197 28.4644 213.464 27.9938 214.586 27.1612C214.985 26.8717 215.347 26.7268 215.926 26.7268C217.157 26.7268 218.061 27.668 218.061 28.8988C218.061 29.6228 217.736 30.1658 217.338 30.5278C215.636 31.9757 213.428 32.8807 210.604 32.8807ZM214.152 21.2246C213.826 18.7631 212.378 17.0979 210.061 17.0979C207.781 17.0979 206.297 18.7269 205.862 21.2246H214.152Z" fill="#262626"/>
<path d="M223.052 26.9431V17.7486H222.871C221.567 17.7486 220.518 16.6988 220.518 15.3956C220.518 14.0924 221.567 13.0427 222.871 13.0427H223.052V10.6173C223.052 9.09699 224.282 7.86621 225.803 7.86621C227.323 7.86621 228.554 9.09699 228.554 10.6173V13.0427H230.979C232.282 13.0427 233.332 14.0924 233.332 15.3956C233.332 16.6988 232.282 17.7486 230.979 17.7486H228.554V26.0381C228.554 27.3051 229.097 27.9205 230.328 27.9205C230.509 27.9205 230.87 27.8843 230.979 27.8843C232.21 27.8843 233.26 28.8979 233.26 30.1648C233.26 31.1422 232.608 31.9386 231.848 32.2282C230.834 32.6263 229.893 32.7711 228.699 32.7711C225.332 32.7711 223.052 31.4318 223.052 26.9431Z" fill="#262626"/>
<path d="M47.5472 25.9555C47.5472 27.0788 46.6377 27.9916 45.5111 27.9916C44.3844 27.9916 43.4749 27.0821 43.4749 25.9555C43.4749 24.8288 44.3844 23.9193 45.5111 23.9193C46.6377 23.9193 47.5472 24.8322 47.5472 25.9555ZM19.7438 9.67659H51.3955C53.4622 9.67659 54.7211 7.34521 53.5368 5.65183C51.4701 2.69604 48.0427 0.761719 44.1604 0.761719H18.909C17.4837 0.761719 16.3299 1.91552 16.3299 3.34081V6.26267C16.3299 8.14949 17.857 9.67659 19.7438 9.67659ZM13.1161 7.49453V2.3533C13.1161 1.47437 12.4035 0.761719 11.5246 0.761719C6.90935 0.761719 2.93889 3.49692 1.13012 7.43344C0.648234 8.48205 1.43216 9.67999 2.58597 9.67999H10.9341C12.1388 9.67659 13.1161 8.69925 13.1161 7.49453ZM10.2656 12.8903H0.875603C0.43444 12.8903 0.078125 13.2466 0.078125 13.6878V31.1442C0.078125 37.9042 5.5587 43.3848 12.3187 43.3848C12.7598 43.3848 13.1161 43.0285 13.1161 42.5873V15.7409C13.1161 14.1663 11.8402 12.8903 10.2656 12.8903ZM45.0462 22.0461H53.5742C54.6974 22.0461 55.6103 21.1366 55.6103 20.01V17.8686C55.6103 15.1198 53.3807 12.8903 50.6319 12.8903H20.3105C18.1149 12.8903 16.3333 14.6719 16.3333 16.8675V43.3475C16.3333 43.3712 16.3502 43.3882 16.374 43.3882H44.1638C50.4792 43.3882 55.6001 38.2741 55.6103 31.9621C55.6137 30.849 54.6906 29.9463 53.5776 29.9463H45.2532C43.1695 29.9463 41.2962 28.426 41.113 26.3491C40.9094 24.0076 42.7487 22.0461 45.0462 22.0461Z" fill="#262626"/>
</svg>
