<svg width="188" height="178" viewBox="0 0 188 178" fill="none" xmlns="http://www.w3.org/2000/svg">
<path d="M93.53 177.428C93.6994 177.428 93.8688 177.326 93.9365 177.191L141.461 91.3889C141.529 91.2534 141.529 91.0502 141.461 90.9147C141.359 90.7792 141.224 90.6776 141.055 90.6776L46.0054 90.6776C45.8361 90.6776 45.6667 90.7792 45.5989 90.9147C45.4973 91.0502 45.4973 91.2534 45.5989 91.3889L93.1235 177.191C93.1913 177.326 93.3606 177.428 93.53 177.428ZM140.242 91.626L93.53 175.971L46.8184 91.626L140.242 91.626Z" fill="#0F0F0F"/>
<path d="M0.444066 174.346L186.579 174.346C186.749 174.346 186.918 174.244 186.986 174.109C187.087 173.973 187.087 173.77 186.986 173.635L93.935 1.35372C93.8673 1.18435 93.6979 1.11661 93.5285 1.11661C93.3592 1.11661 93.1898 1.21822 93.1221 1.35372L0.10533 173.567C0.0375833 173.635 0.00369321 173.736 0.00369323 173.872C-0.0301803 174.109 0.173078 174.346 0.444066 174.346ZM185.8 173.397L1.257 173.397L93.5285 2.60702L185.8 173.397Z" fill="#0F0F0F"/>
<path d="M46.003 146.739L141.052 146.739C141.222 146.739 141.391 146.637 141.459 146.501C141.56 146.366 141.56 146.163 141.459 146.027L93.9341 60.2255C93.8664 60.09 93.697 59.9884 93.5276 59.9884C93.3582 59.9884 93.1889 60.09 93.1211 60.2255L45.6304 145.959C45.5627 146.027 45.5288 146.129 45.5288 146.264C45.5288 146.535 45.7321 146.739 46.003 146.739ZM140.239 145.79L46.816 145.79L93.5276 61.4788L140.239 145.79Z" fill="#0F0F0F"/>
<path d="M93.4927 174.177C93.7637 174.177 94.0347 174.177 94.3057 174.177C94.4751 174.177 94.6106 174.041 94.6106 173.838C94.6106 173.669 94.4412 173.533 94.2718 173.533C94.0008 173.533 93.7298 173.533 93.4927 173.533C93.2217 173.533 92.9846 173.533 92.7136 173.533C92.5443 173.533 92.4088 173.669 92.4088 173.838C92.4088 174.008 92.5443 174.143 92.7136 174.177C92.9507 174.177 93.2217 174.177 93.4927 174.177ZM95.8639 174.143C95.8639 174.143 95.8977 174.143 95.8639 174.143C96.4059 174.109 96.9478 174.075 97.4559 174.041C97.6253 174.041 97.7608 173.872 97.7608 173.703C97.7608 173.533 97.5914 173.398 97.4221 173.398C96.9139 173.432 96.372 173.466 95.83 173.499C95.6606 173.499 95.5251 173.669 95.5251 173.838C95.559 174.008 95.6945 174.143 95.8639 174.143ZM91.1216 174.109C91.2909 174.109 91.4264 173.974 91.4264 173.804C91.4264 173.635 91.2909 173.466 91.1216 173.466C90.5796 173.432 90.0715 173.398 89.5295 173.364C89.3602 173.364 89.1908 173.499 89.1908 173.669C89.1908 173.838 89.3263 174.008 89.4956 174.008C90.0376 174.075 90.5796 174.109 91.1216 174.109C91.1216 174.109 91.0877 174.109 91.1216 174.109ZM99.048 173.906C99.048 173.906 99.0819 173.906 99.048 173.906C99.6238 173.838 100.132 173.804 100.674 173.737C100.843 173.703 100.979 173.567 100.945 173.398C100.911 173.228 100.776 173.093 100.606 173.127C100.098 173.195 99.5561 173.262 99.048 173.296C98.8786 173.33 98.7431 173.466 98.777 173.635C98.7431 173.77 98.8786 173.906 99.048 173.906ZM87.9375 173.906C88.1068 173.906 88.2423 173.77 88.2423 173.635C88.2762 173.466 88.1407 173.296 87.9713 173.296C87.4632 173.228 86.9212 173.195 86.4131 173.127C86.2438 173.093 86.0744 173.228 86.0405 173.398C86.0067 173.567 86.1422 173.737 86.3116 173.77C86.8535 173.77 87.3955 173.838 87.9375 173.906ZM102.198 173.499L102.232 173.499C102.74 173.432 103.282 173.33 103.79 173.228C103.96 173.195 104.061 173.025 104.027 172.856C103.994 172.686 103.824 172.585 103.655 172.619C103.147 172.72 102.605 172.822 102.097 172.89C101.927 172.924 101.792 173.093 101.826 173.262C101.893 173.398 102.029 173.499 102.198 173.499ZM84.7872 173.499C84.9566 173.499 85.0921 173.398 85.0921 173.228C85.1259 173.059 84.9905 172.89 84.8211 172.856C84.313 172.788 83.771 172.686 83.2629 172.585C83.0936 172.551 82.9242 172.653 82.8903 172.822C82.8564 172.991 82.9581 173.161 83.1274 173.195C83.6355 173.296 84.1775 173.398 84.6856 173.466C84.7534 173.499 84.7872 173.499 84.7872 173.499ZM105.315 172.924C105.348 172.924 105.348 172.924 105.382 172.924C105.89 172.822 106.432 172.686 106.941 172.551C107.11 172.517 107.212 172.348 107.178 172.178C107.144 172.009 106.974 171.907 106.805 171.941C106.297 172.077 105.789 172.178 105.281 172.314C105.111 172.348 105.01 172.517 105.044 172.686C105.044 172.822 105.179 172.924 105.315 172.924ZM81.6708 172.89C81.8063 172.89 81.9418 172.788 81.9757 172.653C82.0096 172.483 81.908 172.314 81.7386 172.28C81.2305 172.178 80.7224 172.043 80.2143 171.907C80.0449 171.873 79.8755 171.975 79.8417 172.144C79.8078 172.314 79.9094 172.483 80.0788 172.517C80.5869 172.653 81.1289 172.754 81.637 172.89C81.637 172.89 81.637 172.89 81.6708 172.89ZM108.397 172.144C108.431 172.144 108.465 172.144 108.499 172.144C109.007 172.009 109.515 171.84 110.023 171.704C110.192 171.636 110.294 171.467 110.226 171.298C110.159 171.128 109.989 171.027 109.82 171.094C109.312 171.264 108.804 171.399 108.295 171.535C108.126 171.569 108.024 171.772 108.058 171.941C108.126 172.043 108.262 172.144 108.397 172.144ZM78.5884 172.144C78.7239 172.144 78.8594 172.043 78.8932 171.907C78.9271 171.738 78.8255 171.569 78.69 171.501C78.1819 171.365 77.6738 171.196 77.1657 171.061C76.9963 170.993 76.8269 171.094 76.7592 171.264C76.6914 171.433 76.7931 171.602 76.9624 171.67C77.4705 171.84 77.9786 171.975 78.4867 172.111C78.5206 172.111 78.5545 172.144 78.5884 172.144ZM111.446 171.196C111.48 171.196 111.513 171.196 111.547 171.162C112.055 170.993 112.564 170.823 113.072 170.62C113.241 170.552 113.309 170.383 113.241 170.214C113.173 170.044 113.004 169.977 112.835 170.044C112.326 170.214 111.852 170.417 111.344 170.586C111.175 170.654 111.073 170.823 111.141 170.993C111.175 171.128 111.31 171.196 111.446 171.196ZM75.5397 171.196C75.6752 171.196 75.8107 171.128 75.8446 170.993C75.9124 170.823 75.8108 170.654 75.6414 170.586C75.1333 170.417 74.659 170.248 74.1509 170.044C73.9816 169.977 73.8122 170.078 73.7444 170.214C73.6767 170.383 73.7783 170.552 73.9138 170.62C74.4219 170.823 74.93 170.993 75.4042 171.162C75.472 171.162 75.5059 171.196 75.5397 171.196ZM114.427 170.078C114.46 170.078 114.494 170.078 114.562 170.044C115.036 169.841 115.544 169.638 116.052 169.401C116.222 169.333 116.29 169.13 116.222 168.994C116.154 168.825 115.951 168.757 115.815 168.825C115.341 169.028 114.833 169.231 114.359 169.435C114.189 169.502 114.122 169.672 114.189 169.841C114.189 170.01 114.291 170.078 114.427 170.078ZM72.5928 170.078C72.7283 170.078 72.8298 170.01 72.8976 169.875C72.9653 169.706 72.8976 169.536 72.7282 169.468C72.254 169.265 71.7459 169.062 71.2717 168.859C71.1023 168.791 70.9329 168.859 70.8652 169.028C70.7974 169.197 70.8652 169.367 71.0345 169.435C71.5088 169.638 72.0169 169.875 72.4911 170.044C72.4911 170.044 72.525 170.078 72.5928 170.078ZM117.34 168.791C117.374 168.791 117.441 168.791 117.475 168.757C117.949 168.52 118.424 168.283 118.898 168.046C119.067 167.978 119.101 167.775 119.033 167.605C118.966 167.436 118.762 167.402 118.593 167.47C118.119 167.707 117.645 167.944 117.17 168.181C117.001 168.249 116.933 168.452 117.035 168.622C117.103 168.723 117.204 168.791 117.34 168.791ZM69.6796 168.757C69.7812 168.757 69.9167 168.689 69.9506 168.588C70.0184 168.418 69.9506 168.249 69.8151 168.147C69.3409 167.91 68.8667 167.673 68.3924 167.436C68.2231 167.368 68.0537 167.402 67.9521 167.572C67.8843 167.741 67.9182 167.91 68.0876 168.012C68.5618 168.249 69.036 168.486 69.5102 168.723C69.578 168.757 69.6457 168.757 69.6796 168.757ZM120.151 167.334C120.219 167.334 120.253 167.334 120.321 167.301C120.795 167.03 121.235 166.792 121.709 166.521C121.845 166.42 121.913 166.25 121.811 166.081C121.709 165.946 121.54 165.878 121.371 165.979C120.93 166.25 120.456 166.521 119.982 166.759C119.812 166.86 119.779 167.03 119.846 167.199C119.948 167.267 120.05 167.334 120.151 167.334ZM66.8681 167.334C66.9697 167.334 67.1052 167.267 67.1391 167.165C67.2407 166.996 67.173 166.826 67.0036 166.725C66.5633 166.488 66.089 166.217 65.6487 165.946C65.5132 165.844 65.3099 165.912 65.2083 166.047C65.1067 166.183 65.1745 166.386 65.31 166.488C65.7842 166.759 66.2245 167.03 66.6988 167.267C66.7665 167.301 66.8004 167.334 66.8681 167.334ZM64.1244 165.708C64.226 165.708 64.3276 165.641 64.3953 165.573C64.497 165.437 64.4292 165.234 64.2937 165.133C63.8534 164.862 63.413 164.557 62.9727 164.286C62.8372 164.184 62.6339 164.218 62.5323 164.387C62.4307 164.523 62.4646 164.726 62.6339 164.828C63.0743 165.133 63.5147 165.404 63.955 165.708C64.0228 165.675 64.0905 165.708 64.1244 165.708ZM122.895 165.708C122.963 165.708 122.997 165.708 123.064 165.675C123.505 165.404 123.979 165.099 124.419 164.794C124.555 164.692 124.589 164.489 124.521 164.354C124.419 164.218 124.216 164.184 124.081 164.252C123.64 164.557 123.2 164.828 122.759 165.099C122.624 165.2 122.556 165.404 122.658 165.539C122.692 165.641 122.793 165.708 122.895 165.708ZM61.5161 163.947C61.6177 163.947 61.7193 163.913 61.7871 163.812C61.8887 163.676 61.8548 163.473 61.7193 163.371C61.279 163.066 60.8725 162.761 60.4322 162.423C60.2967 162.321 60.0934 162.355 59.9918 162.491C59.8902 162.626 59.9241 162.829 60.0596 162.931C60.466 163.236 60.9064 163.574 61.3467 163.879C61.3806 163.913 61.4483 163.947 61.5161 163.947ZM125.537 163.913C125.605 163.913 125.673 163.879 125.706 163.845C126.147 163.541 126.553 163.236 126.994 162.897C127.129 162.795 127.163 162.592 127.061 162.457C126.96 162.321 126.757 162.287 126.621 162.389C126.215 162.694 125.774 163.032 125.334 163.337C125.198 163.439 125.165 163.642 125.266 163.778C125.368 163.879 125.435 163.913 125.537 163.913ZM58.9756 162.016C59.0772 162.016 59.145 161.982 59.2127 161.915C59.3143 161.779 59.3143 161.576 59.1788 161.474C58.7723 161.136 58.3658 160.797 57.9594 160.458C57.8239 160.356 57.6207 160.356 57.519 160.492C57.4174 160.627 57.4174 160.831 57.5529 160.932C57.9594 161.271 58.3659 161.61 58.7723 161.949C58.8401 161.982 58.9078 162.016 58.9756 162.016ZM128.078 162.016C128.145 162.016 128.213 161.982 128.281 161.949C128.687 161.61 129.094 161.271 129.5 160.932C129.636 160.831 129.636 160.627 129.534 160.492C129.433 160.356 129.229 160.356 129.094 160.458C128.687 160.797 128.281 161.136 127.874 161.474C127.739 161.576 127.705 161.779 127.841 161.915C127.908 161.949 127.976 162.016 128.078 162.016ZM56.5706 159.95C56.6722 159.95 56.7399 159.916 56.8077 159.848C56.9093 159.713 56.9093 159.51 56.7738 159.408C56.4012 159.069 55.9947 158.697 55.6221 158.324C55.4866 158.189 55.2834 158.222 55.1818 158.324C55.0463 158.46 55.0801 158.663 55.1818 158.764C55.5544 159.137 55.9608 159.51 56.3673 159.848C56.4012 159.916 56.4689 159.95 56.5706 159.95ZM130.483 159.95C130.55 159.95 130.618 159.916 130.686 159.882C131.092 159.543 131.465 159.171 131.871 158.798C132.007 158.663 132.007 158.46 131.871 158.358C131.736 158.222 131.533 158.222 131.431 158.358C131.058 158.731 130.652 159.069 130.279 159.442C130.144 159.543 130.144 159.747 130.246 159.882C130.313 159.916 130.415 159.95 130.483 159.95ZM54.2671 157.748C54.3349 157.748 54.4365 157.714 54.5043 157.647C54.6398 157.511 54.6398 157.308 54.5043 157.206C54.1317 156.834 53.759 156.461 53.4203 156.055C53.2848 155.919 53.1155 155.919 52.98 156.055C52.8445 156.19 52.8445 156.359 52.98 156.495C53.3526 156.867 53.7252 157.274 54.0978 157.647C54.0978 157.714 54.1655 157.748 54.2671 157.748ZM132.786 157.748C132.854 157.748 132.955 157.714 133.023 157.647C133.396 157.274 133.768 156.867 134.141 156.495C134.276 156.359 134.243 156.156 134.141 156.055C134.005 155.919 133.802 155.953 133.701 156.055C133.328 156.427 132.989 156.834 132.617 157.206C132.481 157.342 132.481 157.545 132.617 157.647C132.617 157.714 132.718 157.748 132.786 157.748ZM52.0993 155.445C52.167 155.445 52.2348 155.411 52.3025 155.377C52.438 155.275 52.438 155.072 52.3364 154.937C51.9976 154.53 51.6589 154.124 51.3202 153.751C51.2185 153.616 51.0153 153.582 50.8798 153.717C50.7443 153.819 50.7104 154.022 50.8459 154.158C51.1847 154.564 51.5234 154.971 51.896 155.377C51.9299 155.411 51.9976 155.445 52.0993 155.445ZM134.954 155.411C135.056 155.411 135.123 155.377 135.191 155.309C135.53 154.903 135.902 154.496 136.241 154.09C136.343 153.954 136.343 153.751 136.207 153.649C136.072 153.548 135.869 153.548 135.767 153.683C135.428 154.09 135.089 154.496 134.751 154.869C134.649 155.004 134.649 155.208 134.785 155.309C134.818 155.377 134.886 155.411 134.954 155.411ZM50.0669 152.972C50.1346 152.972 50.2023 152.938 50.2701 152.904C50.4056 152.803 50.4394 152.599 50.3378 152.464C49.9991 152.057 49.6942 151.617 49.3894 151.211C49.2878 151.075 49.0845 151.041 48.949 151.143C48.8135 151.244 48.7797 151.448 48.8813 151.583C49.1861 152.024 49.5248 152.43 49.8636 152.87C49.8636 152.938 49.9652 152.972 50.0669 152.972ZM136.986 152.972C137.088 152.972 137.19 152.938 137.223 152.837C137.562 152.43 137.867 151.99 138.206 151.549C138.307 151.414 138.274 151.211 138.138 151.109C138.003 151.007 137.799 151.041 137.698 151.177C137.393 151.617 137.054 152.024 136.749 152.43C136.648 152.566 136.682 152.769 136.817 152.87C136.851 152.938 136.919 152.972 136.986 152.972ZM48.1699 150.432C48.2377 150.432 48.3054 150.398 48.3393 150.364C48.4748 150.262 48.5087 150.059 48.407 149.923C48.1022 149.483 47.7973 149.043 47.5263 148.602C47.4247 148.467 47.2215 148.399 47.086 148.501C46.9505 148.602 46.8827 148.806 46.9843 148.941C47.2892 149.381 47.5602 149.822 47.8651 150.262C47.9667 150.364 48.0683 150.432 48.1699 150.432ZM138.883 150.432C138.985 150.432 139.087 150.398 139.154 150.296C139.459 149.856 139.764 149.415 140.035 148.975C140.137 148.839 140.103 148.636 139.933 148.535C139.798 148.433 139.595 148.467 139.493 148.636C139.222 149.077 138.917 149.517 138.612 149.957C138.511 150.093 138.545 150.296 138.68 150.398C138.748 150.398 138.816 150.432 138.883 150.432ZM46.4424 147.756C46.5101 147.756 46.544 147.755 46.6117 147.722C46.7472 147.62 46.815 147.451 46.7134 147.281C46.4424 146.841 46.1714 146.367 45.9004 145.926C45.7988 145.791 45.6294 145.723 45.46 145.825C45.3245 145.926 45.2568 146.096 45.3584 146.265C45.6294 146.739 45.9004 147.18 46.1714 147.654C46.2391 147.722 46.3407 147.756 46.4424 147.756ZM140.611 147.756C140.712 147.756 140.814 147.688 140.882 147.62C141.153 147.18 141.424 146.705 141.695 146.231C141.796 146.096 141.729 145.892 141.593 145.791C141.424 145.689 141.254 145.757 141.153 145.892C140.882 146.333 140.611 146.807 140.34 147.247C140.238 147.383 140.306 147.586 140.441 147.688C140.475 147.755 140.543 147.756 140.611 147.756ZM142.169 145.012C142.271 145.012 142.406 144.944 142.44 144.842C142.677 144.368 142.948 143.894 143.185 143.42C143.253 143.25 143.185 143.081 143.05 142.979C142.88 142.912 142.711 142.979 142.609 143.115C142.372 143.589 142.135 144.063 141.898 144.504C141.83 144.673 141.864 144.842 142.034 144.944C142.067 144.978 142.135 145.012 142.169 145.012ZM44.8503 145.012C44.8842 145.012 44.9519 145.012 44.9858 144.978C45.1552 144.91 45.189 144.707 45.1213 144.538C44.8842 144.063 44.6132 143.589 44.4099 143.115C44.3422 142.945 44.139 142.878 43.9696 142.979C43.8002 143.047 43.7325 143.25 43.8341 143.42C44.0712 143.894 44.3083 144.368 44.5793 144.842C44.6471 144.944 44.7487 145.012 44.8503 145.012ZM143.592 142.166C143.727 142.166 143.829 142.099 143.897 141.997C144.134 141.523 144.337 141.015 144.54 140.54C144.608 140.371 144.54 140.202 144.371 140.134C144.201 140.066 144.032 140.134 143.964 140.303C143.761 140.778 143.558 141.252 143.321 141.726C143.253 141.895 143.321 142.065 143.49 142.132C143.49 142.166 143.558 142.166 143.592 142.166ZM43.4276 142.132C43.4615 142.132 43.5292 142.132 43.5631 142.099C43.7325 142.031 43.8002 141.828 43.7325 141.692C43.5292 141.218 43.2921 140.744 43.0889 140.236C43.0211 140.066 42.8179 139.998 42.6824 140.066C42.513 140.134 42.4453 140.337 42.513 140.473C42.7163 140.947 42.9534 141.455 43.1566 141.929C43.1905 142.065 43.326 142.132 43.4276 142.132ZM144.845 139.253C144.981 139.253 145.082 139.185 145.15 139.05C145.353 138.542 145.522 138.068 145.726 137.56C145.793 137.39 145.692 137.221 145.522 137.153C145.353 137.085 145.184 137.187 145.116 137.356C144.947 137.864 144.743 138.339 144.574 138.847C144.506 139.016 144.574 139.185 144.743 139.253C144.743 139.253 144.811 139.253 144.845 139.253ZM42.1743 139.219C42.2082 139.219 42.2421 139.219 42.2759 139.186C42.4453 139.118 42.5131 138.948 42.4453 138.779C42.2421 138.305 42.0727 137.797 41.8694 137.289C41.8017 137.119 41.6323 137.051 41.463 137.085C41.2936 137.153 41.2259 137.322 41.2597 137.492C41.4291 138 41.6323 138.508 41.8356 138.982C41.9372 139.152 42.0727 139.219 42.1743 139.219ZM145.929 136.272C146.064 136.272 146.2 136.171 146.234 136.069C146.403 135.561 146.573 135.053 146.708 134.545C146.742 134.375 146.674 134.206 146.505 134.138C146.335 134.104 146.166 134.172 146.098 134.342C145.963 134.85 145.793 135.358 145.624 135.866C145.556 136.035 145.658 136.205 145.827 136.272C145.861 136.272 145.895 136.272 145.929 136.272ZM41.0904 136.205C41.1242 136.205 41.1581 136.205 41.192 136.205C41.3613 136.137 41.4629 135.968 41.3952 135.798C41.2258 135.29 41.0904 134.782 40.921 134.274C40.8871 134.104 40.6839 134.003 40.5145 134.071C40.3451 134.104 40.2435 134.308 40.3113 134.477C40.4467 134.985 40.6161 135.493 40.7855 136.001C40.8532 136.137 40.9549 136.205 41.0904 136.205ZM146.81 133.224C146.945 133.224 147.081 133.122 147.115 132.987C147.25 132.479 147.386 131.97 147.487 131.428C147.521 131.259 147.419 131.09 147.25 131.056C147.081 131.022 146.911 131.124 146.877 131.293C146.742 131.801 146.64 132.309 146.505 132.817C146.471 132.987 146.573 133.156 146.742 133.19C146.776 133.224 146.81 133.224 146.81 133.224ZM40.2096 133.19C40.2435 133.19 40.2774 133.19 40.2774 133.19C40.4468 133.156 40.5484 132.987 40.5145 132.817C40.379 132.309 40.2435 131.801 40.1419 131.293C40.108 131.124 39.9387 131.022 39.7693 131.056C39.5999 131.09 39.4983 131.259 39.5321 131.428C39.6676 131.937 39.7693 132.479 39.9048 132.987C39.9387 133.088 40.0741 133.19 40.2096 133.19ZM147.555 130.141C147.69 130.141 147.826 130.04 147.86 129.87C147.961 129.362 148.063 128.82 148.165 128.312C148.199 128.143 148.063 127.973 147.894 127.939C147.724 127.906 147.555 128.041 147.521 128.21C147.419 128.719 147.318 129.261 147.216 129.769C147.182 129.938 147.284 130.107 147.453 130.141C147.521 130.141 147.521 130.141 147.555 130.141ZM39.4644 130.074C39.4983 130.074 39.4983 130.074 39.5321 130.074C39.7015 130.04 39.8032 129.87 39.7693 129.701C39.6677 129.193 39.566 128.651 39.4644 128.143C39.4305 127.973 39.2612 127.838 39.0918 127.872C38.9224 127.906 38.7869 128.075 38.8208 128.244C38.9224 128.752 39.0241 129.294 39.1257 129.803C39.1934 129.972 39.3289 130.074 39.4644 130.074ZM148.097 126.991C148.266 126.991 148.402 126.889 148.402 126.72C148.469 126.212 148.537 125.67 148.605 125.128C148.639 124.959 148.503 124.789 148.334 124.789C148.165 124.755 147.995 124.891 147.995 125.06C147.928 125.568 147.86 126.11 147.792 126.618C147.758 126.788 147.894 126.957 148.063 126.991C148.063 126.991 148.063 126.991 148.097 126.991ZM38.9224 126.957L38.9563 126.957C39.1257 126.923 39.2612 126.788 39.2273 126.585C39.1596 126.076 39.0918 125.534 39.024 125.026C38.9902 124.857 38.8547 124.721 38.6853 124.755C38.5159 124.789 38.3805 124.925 38.4143 125.094C38.4821 125.636 38.5498 126.144 38.6176 126.686C38.6515 126.822 38.787 126.957 38.9224 126.957ZM148.47 123.841C148.639 123.841 148.774 123.705 148.774 123.536C148.808 122.994 148.842 122.486 148.876 121.944C148.876 121.774 148.74 121.605 148.571 121.605C148.402 121.605 148.232 121.741 148.232 121.91C148.198 122.418 148.165 122.96 148.131 123.502C148.131 123.671 148.266 123.807 148.47 123.841C148.436 123.841 148.436 123.841 148.47 123.841ZM38.5837 123.807C38.787 123.807 38.9225 123.638 38.8886 123.468C38.8547 122.96 38.8208 122.418 38.7869 121.876C38.7869 121.707 38.6176 121.571 38.4482 121.571C38.2788 121.571 38.1433 121.741 38.1433 121.91C38.1772 122.452 38.2111 122.994 38.245 123.502C38.2789 123.671 38.4143 123.807 38.5837 123.807ZM148.639 120.657C148.808 120.657 148.944 120.521 148.944 120.352C148.944 119.81 148.978 119.302 148.978 118.76C148.978 118.59 148.842 118.455 148.673 118.455C148.503 118.455 148.368 118.59 148.368 118.76C148.368 119.302 148.368 119.81 148.334 120.352C148.334 120.521 148.47 120.657 148.639 120.657ZM38.3805 120.623C38.3805 120.623 38.4144 120.623 38.3805 120.623C38.5498 120.623 38.7192 120.487 38.6853 120.284C38.6853 119.776 38.6514 119.234 38.6514 118.692L38.6514 118.59C38.6514 118.421 38.5159 118.286 38.3466 118.286C38.1772 118.286 38.0417 118.421 38.0417 118.59L38.0417 118.692C38.0417 119.234 38.0417 119.776 38.0756 120.284C38.0756 120.487 38.2111 120.623 38.3805 120.623ZM148.639 117.473C148.808 117.473 148.978 117.337 148.944 117.134C148.944 116.592 148.91 116.05 148.876 115.542C148.876 115.372 148.707 115.237 148.537 115.237C148.368 115.237 148.232 115.406 148.232 115.576C148.266 116.084 148.3 116.626 148.3 117.168C148.334 117.337 148.47 117.473 148.639 117.473ZM38.3805 117.337C38.5498 117.337 38.6853 117.202 38.6853 117.032C38.6853 116.49 38.7192 115.982 38.7531 115.44C38.7531 115.271 38.6176 115.101 38.4482 115.101C38.2788 115.101 38.1095 115.237 38.1095 115.406C38.0756 115.948 38.0417 116.456 38.0417 116.998C38.0756 117.202 38.2111 117.337 38.3805 117.337ZM148.47 114.322C148.673 114.322 148.808 114.153 148.774 113.984C148.74 113.442 148.673 112.933 148.605 112.392C148.571 112.222 148.436 112.087 148.266 112.121C148.097 112.154 147.961 112.29 147.995 112.459C148.063 112.967 148.097 113.509 148.165 114.017C148.165 114.187 148.3 114.322 148.47 114.322ZM38.5837 114.187C38.7531 114.187 38.8886 114.051 38.8886 113.882C38.9225 113.374 38.9902 112.832 39.0579 112.324C39.0918 112.154 38.9563 111.985 38.7869 111.985C38.6176 111.951 38.4482 112.087 38.4482 112.256C38.3805 112.798 38.3466 113.306 38.2788 113.848C38.245 114.017 38.3805 114.153 38.5837 114.187C38.5837 114.187 38.5498 114.187 38.5837 114.187ZM148.097 111.172L148.131 111.172C148.3 111.138 148.436 111.003 148.402 110.799C148.334 110.291 148.232 109.749 148.165 109.207C148.131 109.038 147.961 108.903 147.792 108.936C147.623 108.97 147.487 109.14 147.521 109.309C147.623 109.817 147.69 110.359 147.758 110.867C147.826 111.037 147.961 111.172 148.097 111.172ZM38.9563 111.003C39.1257 111.003 39.2612 110.901 39.2612 110.732C39.3289 110.224 39.4305 109.682 39.4983 109.174C39.5322 109.004 39.3967 108.835 39.2273 108.801C39.0579 108.767 38.8885 108.903 38.8547 109.072C38.7531 109.58 38.6853 110.122 38.6176 110.664C38.5837 110.833 38.7192 111.003 38.8886 111.037C38.9225 111.003 38.9224 111.003 38.9563 111.003ZM147.555 108.022C147.589 108.022 147.589 108.022 147.623 108.022C147.792 107.988 147.894 107.819 147.86 107.649C147.758 107.141 147.657 106.599 147.521 106.091C147.487 105.922 147.318 105.82 147.148 105.854C146.979 105.888 146.877 106.057 146.911 106.227C147.047 106.735 147.148 107.243 147.25 107.785C147.284 107.92 147.419 108.022 147.555 108.022ZM39.4983 107.886C39.6338 107.886 39.7693 107.785 39.8032 107.649C39.9048 107.141 40.0064 106.633 40.1419 106.091C40.1758 105.922 40.0742 105.752 39.9048 105.718C39.7354 105.685 39.566 105.786 39.5321 105.956C39.3967 106.464 39.295 107.006 39.1934 107.514C39.1595 107.683 39.2612 107.852 39.4305 107.886C39.4644 107.886 39.4644 107.886 39.4983 107.886ZM146.844 104.939C146.877 104.939 146.911 104.939 146.911 104.939C147.081 104.905 147.182 104.736 147.148 104.567C147.013 104.059 146.877 103.551 146.708 103.042C146.674 102.873 146.471 102.771 146.302 102.839C146.132 102.873 146.031 103.076 146.098 103.246C146.234 103.754 146.403 104.262 146.539 104.77C146.573 104.838 146.708 104.939 146.844 104.939ZM40.2435 104.804C40.379 104.804 40.5145 104.702 40.5484 104.567C40.6838 104.059 40.8194 103.551 40.9887 103.042C41.0226 102.873 40.9549 102.704 40.7855 102.636C40.6161 102.602 40.4467 102.67 40.379 102.839C40.2435 103.347 40.0741 103.855 39.9387 104.363C39.9048 104.533 40.0064 104.702 40.1758 104.736C40.1758 104.804 40.2096 104.804 40.2435 104.804ZM145.963 101.891C145.997 101.891 146.031 101.891 146.064 101.891C146.234 101.823 146.335 101.654 146.268 101.484C146.098 100.976 145.929 100.468 145.76 99.9599C145.692 99.7905 145.522 99.7228 145.353 99.7567C145.184 99.8244 145.116 99.9938 145.15 100.163C145.319 100.671 145.489 101.145 145.658 101.654C145.692 101.789 145.827 101.891 145.963 101.891ZM41.1242 101.755C41.2597 101.755 41.3952 101.687 41.4291 101.552C41.5985 101.044 41.7678 100.536 41.9372 100.062C42.0049 99.8922 41.9033 99.7228 41.7339 99.6551C41.5646 99.5873 41.3952 99.6889 41.3275 99.8583C41.1581 100.366 40.9548 100.875 40.8194 101.383C40.7516 101.552 40.8532 101.721 41.0226 101.789C41.0565 101.755 41.0904 101.755 41.1242 101.755ZM144.879 98.876C144.913 98.876 144.947 98.876 144.981 98.8421C145.15 98.7744 145.218 98.605 145.15 98.4356C144.947 97.9275 144.743 97.4533 144.54 96.9452C144.472 96.7758 144.269 96.708 144.134 96.7758C143.964 96.8435 143.897 97.0468 143.964 97.1823C144.168 97.6565 144.371 98.1646 144.574 98.6388C144.608 98.8082 144.743 98.876 144.879 98.876ZM42.2082 98.7743C42.3437 98.7743 42.4453 98.7066 42.513 98.5711C42.7163 98.0969 42.9195 97.5888 43.1228 97.1145C43.1905 96.9452 43.1228 96.7758 42.9534 96.7081C42.784 96.6403 42.6146 96.7081 42.5469 96.8774C42.3437 97.3517 42.1404 97.8598 41.9372 98.334C41.8695 98.5034 41.9372 98.6727 42.1066 98.7405C42.1404 98.7405 42.1743 98.7743 42.2082 98.7743ZM143.626 95.9629C143.659 95.9629 143.727 95.9628 143.761 95.929C143.93 95.8612 143.998 95.658 143.93 95.5225C143.693 95.0483 143.49 94.5401 143.253 94.0659C143.185 93.8965 142.982 93.8288 142.813 93.9304C142.643 93.9982 142.575 94.2014 142.677 94.3708C142.914 94.845 143.151 95.3193 143.355 95.7935C143.388 95.8951 143.49 95.9629 143.626 95.9629ZM43.4615 95.8612C43.597 95.8612 43.6986 95.7935 43.7663 95.6919C44.0035 95.2176 44.2067 94.7434 44.4438 94.2692C44.5116 94.0998 44.4438 93.9304 44.3083 93.8288C44.139 93.7611 43.9696 93.8288 43.868 93.9643C43.6309 94.4386 43.3937 94.9128 43.1905 95.387C43.1228 95.5564 43.1905 95.7258 43.3599 95.7935C43.3599 95.8274 43.4276 95.8612 43.4615 95.8612ZM142.203 93.1175C142.237 93.1175 142.304 93.1175 142.338 93.0836C142.508 93.0159 142.542 92.8126 142.474 92.6432C142.237 92.169 141.966 91.6948 141.695 91.2544C141.593 91.0851 141.424 91.0512 141.254 91.1528C141.119 91.2544 141.051 91.4238 141.153 91.5932C141.424 92.0674 141.661 92.5077 141.932 92.982C141.966 93.0497 142.101 93.1175 142.203 93.1175ZM44.8842 93.0158C44.9858 93.0158 45.1213 92.9481 45.1552 92.8465C45.3923 92.3722 45.6633 91.9319 45.9343 91.4577C46.0359 91.3222 45.9682 91.1189 45.8327 91.0173C45.6972 90.9157 45.4939 90.9834 45.3923 91.1189C45.1213 91.5932 44.8842 92.0335 44.6132 92.5077C44.5454 92.6771 44.5793 92.8465 44.7487 92.9481C44.7826 93.0159 44.8164 93.0158 44.8842 93.0158ZM140.611 90.3398C140.679 90.3398 140.712 90.3398 140.78 90.306C140.916 90.2043 140.983 90.035 140.882 89.8656C140.611 89.4253 140.306 88.951 140.035 88.5107C139.933 88.3752 139.73 88.3074 139.595 88.409C139.459 88.5107 139.391 88.7139 139.493 88.8494C139.764 89.2898 140.069 89.7301 140.34 90.2044C140.408 90.2721 140.509 90.3398 140.611 90.3398ZM46.4762 90.2721C46.5778 90.2721 46.6795 90.2043 46.7472 90.1366C47.0182 89.6962 47.2892 89.2559 47.5941 88.8155C47.6957 88.68 47.6618 88.4768 47.4924 88.3752C47.3569 88.2736 47.1537 88.3074 47.0521 88.4768C46.7472 88.9171 46.4762 89.3575 46.2053 89.8317C46.1036 89.9672 46.1714 90.1705 46.3069 90.2721C46.3407 90.2382 46.4085 90.2721 46.4762 90.2721ZM138.883 87.6638C138.951 87.6638 139.019 87.6299 139.053 87.5961C139.188 87.4944 139.222 87.2912 139.12 87.1557C138.816 86.7154 138.511 86.275 138.206 85.8685C138.104 85.733 137.901 85.6992 137.765 85.8008C137.63 85.9024 137.596 86.1056 137.698 86.2411C138.003 86.6815 138.307 87.088 138.612 87.5283C138.68 87.63 138.782 87.6638 138.883 87.6638ZM48.2038 87.5961C48.3054 87.5961 48.407 87.5622 48.4748 87.4606C48.7796 87.0202 49.0845 86.5799 49.3894 86.1734C49.491 86.0379 49.4571 85.8346 49.3216 85.733C49.1861 85.6314 48.9829 85.6653 48.8813 85.8008C48.5764 86.2412 48.2715 86.6476 47.9667 87.088C47.865 87.2235 47.8989 87.4267 48.0344 87.5283C48.0683 87.5961 48.1361 87.5961 48.2038 87.5961ZM136.986 85.1233C137.054 85.1233 137.122 85.0894 137.19 85.0555C137.325 84.9539 137.359 84.7507 137.257 84.6152C136.919 84.2087 136.58 83.7684 136.241 83.3619C136.139 83.2264 135.936 83.1925 135.801 83.328C135.665 83.4296 135.631 83.6329 135.767 83.7684C136.106 84.1749 136.444 84.5813 136.749 84.9878C136.817 85.0556 136.919 85.1233 136.986 85.1233ZM50.0668 85.0556C50.1685 85.0556 50.2701 85.0217 50.3039 84.9201C50.6427 84.5136 50.9476 84.1071 51.2863 83.7006C51.3879 83.5651 51.3879 83.3619 51.2524 83.2603C51.1169 83.1587 50.9137 83.1587 50.8121 83.2942C50.4733 83.7006 50.1346 84.1071 49.7958 84.5475C49.6942 84.683 49.7281 84.8862 49.8636 84.9878C49.9313 85.0217 49.9991 85.0556 50.0668 85.0556ZM134.988 82.6505C135.056 82.6505 135.123 82.6167 135.191 82.5828C135.327 82.4812 135.327 82.2779 135.225 82.1424C134.886 81.736 134.514 81.3633 134.141 80.9569C134.005 80.8214 133.836 80.8214 133.701 80.9569C133.565 81.0924 133.565 81.2617 133.701 81.3972C134.073 81.7698 134.412 82.1763 134.751 82.5828C134.785 82.6167 134.886 82.6505 134.988 82.6505ZM52.0993 82.6167C52.2009 82.6167 52.2686 82.5828 52.3364 82.515C52.6751 82.1086 53.0477 81.736 53.3864 81.3295C53.5219 81.194 53.4881 80.9908 53.3864 80.8891C53.2509 80.7536 53.0477 80.7875 52.9461 80.8891C52.5735 81.2617 52.2347 81.6682 51.8621 82.0747C51.7605 82.2102 51.7605 82.4134 51.896 82.515C51.9637 82.5828 52.0315 82.6167 52.0993 82.6167ZM132.82 80.3471C132.888 80.3471 132.989 80.3133 133.057 80.2455C133.193 80.11 133.193 79.9068 133.057 79.8052C132.684 79.4325 132.312 79.06 131.905 78.6873C131.77 78.5519 131.567 78.5857 131.465 78.6873C131.329 78.8228 131.363 79.0261 131.465 79.1277C131.838 79.5003 132.21 79.8729 132.583 80.2455C132.651 80.3133 132.718 80.3471 132.82 80.3471ZM54.2671 80.2794C54.3349 80.2794 54.4365 80.2455 54.5043 80.1778C54.8769 79.8052 55.2495 79.4326 55.6221 79.06C55.7576 78.9245 55.7576 78.7212 55.6221 78.6196C55.4866 78.4841 55.2834 78.4841 55.1817 78.6196C54.8091 78.9922 54.4026 79.3648 54.03 79.7374C53.8945 79.8729 53.8945 80.0761 54.03 80.1778C54.1317 80.2455 54.1994 80.2794 54.2671 80.2794ZM130.517 78.1453C130.618 78.1453 130.686 78.1115 130.754 78.0437C130.855 77.9082 130.855 77.705 130.72 77.6034C130.313 77.2646 129.941 76.892 129.534 76.5533C129.399 76.4517 129.195 76.4517 129.094 76.5872C128.992 76.7227 128.992 76.9259 129.128 77.0275C129.534 77.3663 129.941 77.705 130.313 78.0776C130.347 78.1115 130.449 78.1453 130.517 78.1453ZM56.5706 78.0776C56.6383 78.0776 56.706 78.0438 56.7738 78.0099C57.1803 77.6711 57.5529 77.2985 57.9594 76.9598C58.0949 76.8582 58.0948 76.6549 57.9932 76.5194C57.8916 76.3839 57.6884 76.384 57.5529 76.4856C57.1464 76.8243 56.7399 77.1969 56.3673 77.5357C56.2318 77.6373 56.2318 77.8405 56.3335 77.976C56.4012 78.0437 56.5028 78.0776 56.5706 78.0776ZM128.111 76.0791C128.213 76.0791 128.281 76.0452 128.349 75.9775C128.45 75.842 128.45 75.6387 128.315 75.5371C127.908 75.1984 127.468 74.8596 127.061 74.5547C126.926 74.4531 126.723 74.487 126.621 74.6225C126.519 74.758 126.553 74.9612 126.689 75.0629C127.095 75.3677 127.536 75.7065 127.942 76.0452C127.976 76.0452 128.044 76.0791 128.111 76.0791ZM59.0094 76.0113C59.0772 76.0113 59.145 75.9774 59.2127 75.9436C59.6192 75.6048 60.0257 75.3 60.466 74.9613C60.6015 74.8596 60.6354 74.6564 60.5337 74.5209C60.4321 74.3854 60.2289 74.3515 60.0934 74.4532C59.6869 74.758 59.2465 75.0967 58.8401 75.4355C58.7046 75.5371 58.6707 75.7403 58.8062 75.8758C58.8062 75.9775 58.9078 76.0113 59.0094 76.0113ZM125.571 74.1483C125.673 74.1483 125.774 74.1144 125.842 74.0128C125.944 73.8773 125.91 73.674 125.774 73.5724C125.334 73.2675 124.894 72.9627 124.453 72.6578C124.318 72.5562 124.114 72.5901 124.013 72.7595C123.911 72.895 123.945 73.0982 124.114 73.1998C124.555 73.5047 124.995 73.8096 125.402 74.1144C125.435 74.1483 125.503 74.1483 125.571 74.1483ZM61.5161 74.1144C61.5838 74.1144 61.6516 74.0805 61.6855 74.0467C62.1258 73.7418 62.5662 73.4369 62.9727 73.1321C63.1082 73.0305 63.142 72.8272 63.0743 72.6917C62.9726 72.5562 62.7694 72.5224 62.6339 72.5901C62.1936 72.895 61.7532 73.1998 61.3128 73.5047C61.1774 73.6063 61.1435 73.8096 61.2451 73.9451C61.3467 74.0467 61.4145 74.1144 61.5161 74.1144ZM122.929 72.3868C123.03 72.3868 123.132 72.3191 123.2 72.2514C123.301 72.1159 123.234 71.9126 123.098 71.811C122.658 71.54 122.184 71.2352 121.743 70.9642C121.608 70.8625 121.405 70.9303 121.303 71.0658C121.201 71.2013 121.269 71.4045 121.405 71.5061C121.845 71.7771 122.319 72.0481 122.759 72.3191C122.827 72.353 122.895 72.3868 122.929 72.3868ZM64.1582 72.3191C64.226 72.3191 64.2599 72.3191 64.3276 72.2852C64.768 72.0143 65.2422 71.7433 65.6825 71.4723C65.818 71.3706 65.8858 71.2013 65.7841 71.0319C65.6825 70.8964 65.5132 70.8287 65.3438 70.9303C64.8696 71.2013 64.4292 71.4723 63.9889 71.7771C63.8534 71.8788 63.7856 72.082 63.8872 72.2175C63.955 72.2852 64.0566 72.3191 64.1582 72.3191ZM120.219 70.7609C120.321 70.7609 120.456 70.6932 120.49 70.5916C120.592 70.4222 120.524 70.2528 120.354 70.1512C119.88 69.8802 119.406 69.6431 118.966 69.406C118.796 69.3382 118.627 69.3721 118.525 69.5415C118.458 69.7109 118.491 69.8802 118.661 69.9818C119.135 70.2189 119.609 70.49 120.05 70.7271C120.117 70.7609 120.151 70.7609 120.219 70.7609ZM66.902 70.7271C66.9697 70.7271 67.0036 70.727 67.0714 70.6932C67.5456 70.4222 67.9859 70.1851 68.4602 69.948C68.6295 69.8802 68.6634 69.677 68.5957 69.5076C68.5279 69.3382 68.3247 69.3044 68.1553 69.3721C67.6811 69.6092 67.2068 69.8802 66.7326 70.1173C66.5632 70.219 66.5294 70.3883 66.5971 70.5577C66.6987 70.6593 66.8004 70.7271 66.902 70.7271ZM117.407 69.3044C117.509 69.3044 117.645 69.2366 117.678 69.135C117.746 68.9656 117.678 68.7963 117.543 68.6947C117.069 68.4575 116.594 68.2543 116.086 68.0172C115.917 67.9494 115.748 68.0172 115.68 68.1865C115.612 68.3559 115.68 68.5253 115.849 68.593C116.323 68.7963 116.798 69.0334 117.272 69.2705C117.306 69.3044 117.34 69.3044 117.407 69.3044ZM69.7474 69.2705C69.7812 69.2705 69.849 69.2705 69.8829 69.2366C70.3571 68.9995 70.8313 68.7963 71.3055 68.5592C71.4749 68.4914 71.5427 68.2881 71.4749 68.1526C71.4072 67.9833 71.2039 67.9155 71.0684 67.9833C70.5942 68.1865 70.0861 68.4236 69.6119 68.6607C69.4425 68.7285 69.3747 68.9318 69.4764 69.1011C69.5102 69.2027 69.6119 69.2705 69.7474 69.2705ZM114.494 68.0172C114.63 68.0172 114.731 67.9494 114.799 67.8139C114.867 67.6445 114.799 67.4752 114.63 67.4074C114.156 67.2042 113.647 67.001 113.139 66.8316C112.97 66.7639 112.801 66.8655 112.733 67.001C112.665 67.1703 112.767 67.3397 112.902 67.4074C113.377 67.5768 113.885 67.78 114.359 67.9833C114.427 68.0172 114.46 68.0172 114.494 68.0172ZM72.6605 67.9494C72.6944 67.9494 72.7282 67.9494 72.796 67.9155C73.2702 67.7123 73.7783 67.5091 74.2864 67.3397C74.4558 67.272 74.5235 67.1026 74.4558 66.9332C74.3881 66.7638 74.2187 66.6961 74.0493 66.7638C73.5412 66.9671 73.0331 67.1365 72.5588 67.3397C72.3895 67.4075 72.3217 67.5768 72.3895 67.7462C72.4234 67.8817 72.525 67.9494 72.6605 67.9494ZM111.513 66.8993C111.649 66.8993 111.784 66.8316 111.818 66.6961C111.886 66.5267 111.784 66.3573 111.615 66.2896C111.107 66.1202 110.599 65.9509 110.091 65.7815C109.921 65.7137 109.752 65.8154 109.684 65.9848C109.617 66.1541 109.718 66.3235 109.888 66.3912C110.396 66.5606 110.904 66.73 111.378 66.8993C111.446 66.8993 111.48 66.8993 111.513 66.8993ZM75.6414 66.8316C75.6752 66.8316 75.7091 66.8316 75.743 66.7977C76.2511 66.6283 76.7592 66.459 77.2334 66.2896C77.4028 66.2219 77.5044 66.0525 77.4366 65.8831C77.3689 65.7138 77.1995 65.6122 77.0302 65.6799C76.5221 65.8493 76.014 66.0186 75.5059 66.188C75.3365 66.2558 75.2349 66.4251 75.3026 66.5945C75.3704 66.7638 75.5059 66.8316 75.6414 66.8316ZM108.499 65.9509C108.634 65.9509 108.77 65.8493 108.804 65.7138C108.837 65.5444 108.77 65.375 108.6 65.3073C108.092 65.1718 107.584 65.0363 107.042 64.9008C106.873 64.8669 106.703 64.9686 106.67 65.1379C106.636 65.3073 106.737 65.4767 106.907 65.5105C107.415 65.646 107.923 65.7815 108.431 65.917C108.431 65.9509 108.465 65.9509 108.499 65.9509ZM78.69 65.917C78.7239 65.917 78.7577 65.917 78.7916 65.917C79.2997 65.7815 79.8078 65.646 80.3159 65.5105C80.4853 65.4767 80.5869 65.3073 80.553 65.1379C80.5192 64.9686 80.3498 64.8669 80.1804 64.9008C79.6723 65.0363 79.1303 65.1718 78.6222 65.3073C78.4529 65.3412 78.3513 65.5444 78.3851 65.7138C78.419 65.8154 78.5545 65.917 78.69 65.917ZM105.416 65.1718C105.552 65.1718 105.687 65.0702 105.721 64.9347C105.755 64.7653 105.653 64.5959 105.484 64.5621C104.976 64.4604 104.434 64.3249 103.926 64.2572C103.756 64.2233 103.587 64.325 103.553 64.4943C103.519 64.6637 103.621 64.8331 103.79 64.8669C104.298 64.9685 104.84 65.0702 105.348 65.1718C105.382 65.1718 105.382 65.1718 105.416 65.1718ZM81.7725 65.1379C81.8064 65.1379 81.8063 65.1379 81.8402 65.1379C82.3483 65.0363 82.8564 64.9347 83.3984 64.8331C83.5678 64.7992 83.6694 64.6298 83.6355 64.4605C83.6016 64.2911 83.4323 64.1894 83.2629 64.2233C82.7548 64.3249 82.2128 64.4266 81.7047 64.5282C81.5353 64.5621 81.4337 64.7314 81.4676 64.9008C81.5015 65.0363 81.6031 65.1379 81.7725 65.1379ZM102.3 64.5621C102.469 64.5621 102.605 64.4605 102.605 64.2911C102.639 64.1217 102.503 63.9523 102.334 63.9185C101.826 63.8507 101.284 63.7491 100.742 63.6814C100.572 63.6475 100.403 63.783 100.369 63.9524C100.335 64.1217 100.471 64.2911 100.64 64.325C101.148 64.3927 101.69 64.4604 102.198 64.5621C102.266 64.5621 102.266 64.5621 102.3 64.5621ZM84.8888 64.5621L84.9227 64.5621C85.4308 64.4943 85.9728 64.3927 86.4809 64.325C86.6503 64.2911 86.7857 64.1556 86.7519 63.9862C86.718 63.8169 86.5825 63.6813 86.4131 63.7152C85.8712 63.783 85.3631 63.8507 84.8211 63.9524C84.6517 63.9862 84.5162 64.1556 84.5501 64.325C84.584 64.4266 84.7195 64.5621 84.8888 64.5621ZM99.1496 64.1556C99.3189 64.1556 99.4545 64.0201 99.4545 63.8846C99.4883 63.7152 99.3529 63.5458 99.1835 63.5458C98.6415 63.4781 98.1334 63.4442 97.5914 63.4103C97.422 63.4103 97.2527 63.5458 97.2527 63.7152C97.2527 63.8846 97.3882 64.054 97.5575 64.054C98.0656 64.054 98.5737 64.1217 99.1496 64.1556C99.1157 64.1556 99.1157 64.1556 99.1496 64.1556ZM88.0391 64.1556C88.0391 64.1556 88.073 64.1556 88.0391 64.1556C88.5811 64.0878 89.123 64.054 89.6311 64.0201C89.8005 64.0201 89.936 63.8507 89.936 63.6814C89.936 63.512 89.7666 63.3765 89.5973 63.3765C89.0553 63.4104 88.5472 63.4442 88.0052 63.512C87.8359 63.5459 87.7003 63.6814 87.7342 63.8507C87.7342 64.0201 87.8697 64.1556 88.0391 64.1556ZM95.9655 63.9524C96.1349 63.9524 96.2703 63.8169 96.2703 63.6475C96.2703 63.4781 96.1349 63.3088 95.9655 63.3088C95.4235 63.2749 94.9154 63.2749 94.3734 63.2749C94.2041 63.2749 94.0686 63.4103 94.0347 63.5797C94.0347 63.7491 94.1702 63.8846 94.3396 63.9185C94.9154 63.8846 95.4235 63.9185 95.9655 63.9524ZM91.2232 63.9185C91.7652 63.8846 92.3071 63.8846 92.8152 63.8846C92.9846 63.8846 93.1201 63.7491 93.1201 63.5458C93.1201 63.3765 92.9846 63.241 92.7814 63.241C92.2394 63.241 91.6974 63.2749 91.1893 63.2749C91.0199 63.2749 90.8845 63.4443 90.8845 63.6136C90.8845 63.783 91.0538 63.9185 91.2232 63.9185Z" fill="#0F0F0F"/>
<path d="M94.3096 144.876C94.8516 144.876 95.3935 144.842 95.9355 144.774C96.1049 144.774 96.2404 144.605 96.2065 144.435C96.2065 144.266 96.0371 144.131 95.8678 144.164C95.3597 144.198 94.8177 144.232 94.3096 144.266C94.1402 144.266 94.0047 144.402 94.0047 144.605C94.0047 144.74 94.1402 144.876 94.3096 144.876ZM92.7175 144.876C92.8869 144.876 93.0224 144.74 93.0224 144.571C93.0224 144.402 92.8869 144.232 92.7175 144.232C92.2094 144.232 91.6674 144.198 91.1593 144.131C90.99 144.131 90.8206 144.232 90.8206 144.402C90.8206 144.571 90.9222 144.74 91.0916 144.74C91.6336 144.808 92.1755 144.842 92.7175 144.876ZM97.4598 144.571L97.4937 144.571C98.0357 144.503 98.5438 144.402 99.0858 144.266C99.2551 144.232 99.3567 144.063 99.3229 143.894C99.289 143.724 99.1196 143.623 98.9503 143.656C98.4422 143.758 97.9341 143.86 97.3921 143.927C97.2227 143.961 97.0872 144.131 97.1211 144.3C97.1888 144.469 97.3243 144.571 97.4598 144.571ZM89.5334 144.571C89.7028 144.571 89.8383 144.469 89.8383 144.3C89.8721 144.131 89.7367 143.961 89.5673 143.927C89.0592 143.86 88.5172 143.758 88.0091 143.623C87.8398 143.589 87.6704 143.69 87.6365 143.86C87.6026 144.029 87.7043 144.198 87.8736 144.232C88.3817 144.334 88.9237 144.435 89.4657 144.537C89.4995 144.571 89.5334 144.571 89.5334 144.571ZM100.576 143.894C100.61 143.894 100.644 143.894 100.678 143.894C101.186 143.758 101.694 143.589 102.202 143.419C102.371 143.352 102.439 143.182 102.405 143.013C102.338 142.843 102.168 142.776 101.999 142.81C101.491 142.979 101.017 143.148 100.508 143.284C100.339 143.318 100.237 143.521 100.305 143.69C100.305 143.826 100.441 143.894 100.576 143.894ZM86.417 143.894C86.5525 143.894 86.688 143.792 86.7219 143.656C86.7558 143.487 86.688 143.318 86.5187 143.25C86.0106 143.114 85.5025 142.945 85.0282 142.776C84.8589 142.708 84.6895 142.81 84.6218 142.979C84.554 143.148 84.6556 143.318 84.825 143.385C85.3331 143.555 85.8412 143.724 86.3493 143.86C86.3832 143.894 86.417 143.894 86.417 143.894ZM103.591 142.843C103.625 142.843 103.659 142.843 103.726 142.81C104.235 142.606 104.709 142.369 105.183 142.132C105.352 142.064 105.42 141.861 105.319 141.692C105.251 141.522 105.047 141.455 104.878 141.556C104.404 141.793 103.93 141.997 103.455 142.2C103.286 142.268 103.218 142.471 103.286 142.606C103.354 142.776 103.455 142.843 103.591 142.843ZM83.4362 142.843C83.5717 142.843 83.6733 142.776 83.741 142.64C83.8088 142.471 83.741 142.301 83.5717 142.234C83.0974 142.03 82.6232 141.793 82.149 141.59C81.9796 141.522 81.8102 141.59 81.7086 141.726C81.6409 141.895 81.7086 142.064 81.8441 142.166C82.3183 142.403 82.8265 142.64 83.3007 142.843C83.3346 142.843 83.4023 142.843 83.4362 142.843ZM106.436 141.421C106.504 141.421 106.538 141.421 106.606 141.387C107.08 141.116 107.52 140.845 107.961 140.54C108.096 140.438 108.164 140.235 108.062 140.1C107.961 139.964 107.757 139.896 107.622 139.998C107.182 140.303 106.741 140.574 106.301 140.811C106.165 140.913 106.098 141.082 106.199 141.251C106.233 141.387 106.335 141.421 106.436 141.421ZM80.5908 141.421C80.6924 141.421 80.794 141.353 80.8618 141.251C80.9634 141.116 80.8957 140.913 80.7602 140.811C80.3198 140.54 79.8456 140.269 79.4391 139.998C79.3036 139.896 79.1003 139.93 78.9987 140.1C78.8971 140.235 78.931 140.438 79.1004 140.54C79.5407 140.845 80.015 141.116 80.4553 141.387C80.4892 141.421 80.5231 141.421 80.5908 141.421ZM109.078 139.659C109.146 139.659 109.214 139.625 109.282 139.592C109.722 139.253 110.129 138.914 110.535 138.575C110.671 138.474 110.671 138.27 110.569 138.135C110.467 138 110.264 138 110.129 138.101C109.722 138.44 109.316 138.779 108.909 139.083C108.774 139.185 108.74 139.388 108.841 139.524C108.909 139.625 109.011 139.659 109.078 139.659ZM77.9487 139.659C78.0503 139.659 78.1519 139.625 78.1858 139.524C78.2874 139.388 78.2535 139.185 78.118 139.083C77.7115 138.779 77.3051 138.44 76.8986 138.101C76.7631 138 76.5598 138 76.4582 138.135C76.3566 138.271 76.3566 138.474 76.4921 138.575C76.8986 138.914 77.3051 139.253 77.7454 139.592C77.8132 139.625 77.8809 139.659 77.9487 139.659ZM111.517 137.593C111.585 137.593 111.687 137.559 111.754 137.491C112.127 137.119 112.5 136.746 112.872 136.34C112.974 136.204 112.974 136.001 112.838 135.899C112.703 135.798 112.5 135.798 112.398 135.933C112.059 136.306 111.687 136.712 111.314 137.051C111.179 137.187 111.179 137.39 111.314 137.491C111.348 137.559 111.416 137.593 111.517 137.593ZM75.5098 137.593C75.5775 137.593 75.6791 137.559 75.7469 137.491C75.8824 137.356 75.8824 137.153 75.7469 137.051C75.3743 136.678 75.0017 136.306 74.6629 135.933C74.5613 135.798 74.3581 135.798 74.2226 135.899C74.0871 136.001 74.0871 136.204 74.1887 136.34C74.5613 136.746 74.9339 137.119 75.3065 137.491C75.3743 137.559 75.442 137.593 75.5098 137.593ZM113.651 135.256C113.753 135.256 113.821 135.222 113.888 135.154C114.227 134.748 114.566 134.307 114.871 133.867C114.972 133.731 114.939 133.528 114.803 133.427C114.668 133.325 114.464 133.359 114.363 133.494C114.058 133.935 113.753 134.341 113.414 134.748C113.313 134.883 113.313 135.086 113.448 135.188C113.516 135.222 113.584 135.256 113.651 135.256ZM73.3757 135.256C73.4435 135.256 73.5112 135.222 73.579 135.188C73.7145 135.086 73.7484 134.883 73.6129 134.748C73.2741 134.341 72.9693 133.935 72.6644 133.494C72.5628 133.359 72.3595 133.325 72.224 133.427C72.0885 133.528 72.0547 133.731 72.1563 133.867C72.4612 134.307 72.7999 134.748 73.1386 135.154C73.2064 135.188 73.2741 135.256 73.3757 135.256ZM115.481 132.647C115.582 132.647 115.684 132.58 115.752 132.512C116.023 132.072 116.294 131.597 116.565 131.123C116.632 130.954 116.598 130.784 116.429 130.683C116.26 130.615 116.09 130.649 115.989 130.818C115.752 131.293 115.481 131.733 115.21 132.173C115.108 132.309 115.176 132.512 115.311 132.614C115.379 132.647 115.447 132.647 115.481 132.647ZM71.5465 132.647C71.6143 132.647 71.6482 132.647 71.7159 132.614C71.8514 132.512 71.9192 132.309 71.8176 132.173C71.5466 131.733 71.2756 131.259 71.0384 130.818C70.9707 130.649 70.7675 130.615 70.5981 130.683C70.4287 130.751 70.3949 130.954 70.4626 131.123C70.6997 131.597 70.9707 132.072 71.2756 132.512C71.3433 132.58 71.4449 132.647 71.5465 132.647ZM117.005 129.87C117.14 129.87 117.242 129.802 117.31 129.701C117.547 129.226 117.75 128.718 117.953 128.21C118.021 128.041 117.919 127.871 117.784 127.804C117.615 127.736 117.445 127.837 117.377 127.973C117.174 128.447 116.971 128.955 116.768 129.429C116.7 129.599 116.768 129.768 116.937 129.836C116.903 129.836 116.971 129.87 117.005 129.87ZM70.0222 129.836C70.0561 129.836 70.1239 129.836 70.1577 129.802C70.3271 129.734 70.3949 129.531 70.3271 129.396C70.1239 128.921 69.8868 128.447 69.7174 127.939C69.6497 127.77 69.4803 127.702 69.3109 127.77C69.1415 127.837 69.0738 128.007 69.1415 128.176C69.3448 128.684 69.548 129.192 69.7851 129.667C69.7851 129.768 69.9206 129.836 70.0222 129.836ZM118.157 126.889C118.292 126.889 118.428 126.787 118.461 126.652C118.631 126.144 118.766 125.636 118.902 125.094C118.936 124.924 118.834 124.755 118.665 124.721C118.495 124.687 118.326 124.789 118.292 124.958C118.157 125.466 118.021 125.974 117.852 126.483C117.784 126.652 117.886 126.821 118.055 126.889C118.089 126.889 118.123 126.889 118.157 126.889ZM68.8706 126.855C68.9044 126.855 68.9383 126.855 68.9722 126.855C69.1415 126.787 69.2431 126.618 69.1754 126.449C69.006 125.941 68.8706 125.432 68.7351 124.924C68.7012 124.755 68.5318 124.653 68.3625 124.687C68.1931 124.721 68.0915 124.89 68.1253 125.06C68.2608 125.568 68.3963 126.11 68.5657 126.618C68.6334 126.787 68.7351 126.855 68.8706 126.855ZM118.936 123.806C119.071 123.806 119.207 123.705 119.241 123.536C119.342 122.994 119.41 122.485 119.478 121.943C119.511 121.774 119.376 121.605 119.207 121.605C119.037 121.571 118.868 121.706 118.868 121.876C118.8 122.384 118.732 122.926 118.631 123.434C118.597 123.603 118.699 123.773 118.868 123.806C118.902 123.806 118.902 123.806 118.936 123.806ZM68.0915 123.773C68.1253 123.773 68.1253 123.773 68.1592 123.773C68.3286 123.739 68.4302 123.569 68.4302 123.4C68.3286 122.892 68.2608 122.35 68.1931 121.842C68.1592 121.672 68.0237 121.537 67.8544 121.571C67.685 121.605 67.5495 121.74 67.5834 121.91C67.6511 122.452 67.7188 122.994 67.8205 123.502C67.8205 123.671 67.956 123.773 68.0915 123.773ZM119.342 120.656C119.512 120.656 119.647 120.521 119.647 120.351C119.681 119.809 119.681 119.267 119.681 118.725C119.681 118.556 119.545 118.421 119.376 118.421C119.207 118.421 119.071 118.556 119.071 118.725C119.071 119.234 119.037 119.776 119.037 120.284C119.003 120.487 119.139 120.622 119.342 120.656C119.308 120.656 119.308 120.656 119.342 120.656ZM67.7189 120.622C67.9221 120.622 68.0576 120.453 68.0237 120.284C67.9899 119.776 67.9898 119.234 67.9898 118.725L67.9898 118.658C67.9898 118.488 67.8544 118.353 67.685 118.353C67.5156 118.353 67.3801 118.488 67.3801 118.658L67.3801 118.725C67.3801 119.267 67.3801 119.809 67.414 120.351C67.414 120.487 67.5495 120.622 67.7189 120.622ZM119.342 117.472C119.545 117.472 119.681 117.303 119.647 117.133C119.613 116.591 119.579 116.049 119.512 115.541C119.478 115.372 119.342 115.236 119.173 115.27C119.003 115.304 118.868 115.44 118.902 115.609C118.97 116.117 119.003 116.659 119.037 117.167C119.037 117.337 119.173 117.472 119.342 117.472ZM67.7189 117.371C67.8882 117.371 68.0237 117.235 68.0237 117.066C68.0576 116.558 68.0914 116.016 68.1592 115.507C68.1931 115.338 68.0576 115.169 67.8882 115.169C67.7189 115.135 67.5495 115.27 67.5495 115.44C67.4817 115.982 67.4479 116.524 67.414 117.032C67.3801 117.201 67.5156 117.371 67.7189 117.371ZM118.936 114.322C118.97 114.322 118.97 114.322 119.003 114.322C119.173 114.288 119.274 114.119 119.274 113.949C119.173 113.407 119.071 112.899 118.936 112.391C118.902 112.222 118.732 112.12 118.563 112.154C118.394 112.188 118.292 112.357 118.326 112.527C118.461 113.035 118.563 113.543 118.665 114.051C118.665 114.186 118.8 114.322 118.936 114.322ZM68.1253 114.22C68.2608 114.22 68.3963 114.119 68.4302 113.949C68.5318 113.441 68.6334 112.933 68.7689 112.425C68.8028 112.256 68.7012 112.086 68.5318 112.052C68.3625 112.019 68.1931 112.12 68.1592 112.289C68.0237 112.798 67.9221 113.34 67.8205 113.848C67.7866 114.017 67.8882 114.186 68.0576 114.22C68.0915 114.22 68.0915 114.22 68.1253 114.22ZM118.19 111.206C118.224 111.206 118.258 111.206 118.292 111.206C118.461 111.138 118.563 110.968 118.495 110.799C118.326 110.291 118.157 109.783 117.953 109.275C117.886 109.105 117.716 109.038 117.547 109.105C117.377 109.173 117.31 109.342 117.377 109.512C117.581 109.986 117.75 110.494 117.886 111.002C117.919 111.138 118.055 111.206 118.19 111.206ZM68.9044 111.138C69.0399 111.138 69.1754 111.036 69.2093 110.901C69.3787 110.393 69.548 109.918 69.7513 109.41C69.819 109.241 69.7174 109.072 69.5819 109.004C69.4125 108.936 69.2431 109.038 69.1754 109.173C68.9722 109.681 68.8028 110.189 68.6334 110.697C68.5657 110.867 68.6673 111.036 68.8367 111.104C68.8367 111.138 68.8706 111.138 68.9044 111.138ZM117.039 108.259C117.073 108.259 117.14 108.259 117.174 108.225C117.344 108.157 117.411 107.954 117.344 107.818C117.106 107.344 116.869 106.836 116.632 106.362C116.565 106.192 116.361 106.158 116.192 106.226C116.023 106.294 115.989 106.497 116.056 106.666C116.294 107.141 116.531 107.615 116.768 108.089C116.802 108.191 116.903 108.259 117.039 108.259ZM70.0561 108.157C70.1916 108.157 70.2932 108.089 70.361 107.988C70.5642 107.513 70.8014 107.039 71.0723 106.599C71.1401 106.429 71.1062 106.26 70.9368 106.158C70.7675 106.091 70.5981 106.125 70.4965 106.294C70.2255 106.768 69.9884 107.242 69.7851 107.717C69.7174 107.886 69.7851 108.055 69.9545 108.123C69.9545 108.157 70.0223 108.157 70.0561 108.157ZM115.514 105.447C115.582 105.447 115.616 105.447 115.684 105.413C115.819 105.312 115.887 105.108 115.785 104.973C115.514 104.532 115.21 104.058 114.905 103.618C114.803 103.482 114.6 103.448 114.464 103.55C114.329 103.652 114.295 103.855 114.397 103.99C114.701 104.431 115.006 104.871 115.277 105.312C115.311 105.379 115.413 105.447 115.514 105.447ZM71.5465 105.379C71.6482 105.379 71.7498 105.312 71.8176 105.244C72.0885 104.803 72.3934 104.363 72.6983 103.923C72.7999 103.787 72.766 103.584 72.6305 103.482C72.495 103.381 72.2918 103.415 72.1902 103.55C71.8853 103.99 71.5804 104.431 71.3094 104.905C71.2078 105.041 71.2756 105.244 71.4111 105.345C71.445 105.345 71.5127 105.379 71.5465 105.379ZM113.685 102.839C113.753 102.839 113.821 102.805 113.888 102.771C114.024 102.669 114.058 102.466 113.922 102.331C113.584 101.924 113.245 101.518 112.872 101.111C112.771 100.976 112.567 100.976 112.432 101.077C112.296 101.179 112.296 101.382 112.398 101.518C112.737 101.89 113.109 102.297 113.414 102.703C113.482 102.805 113.584 102.839 113.685 102.839ZM73.4096 102.771C73.5112 102.771 73.579 102.737 73.6467 102.669C73.9855 102.263 74.3242 101.856 74.6629 101.484C74.7646 101.348 74.7646 101.145 74.6291 101.043C74.4936 100.908 74.2903 100.942 74.1887 101.077C73.8161 101.484 73.4774 101.89 73.1386 102.297C73.037 102.432 73.037 102.636 73.1725 102.737C73.2741 102.771 73.3418 102.771 73.4096 102.771ZM111.551 100.501C111.619 100.501 111.721 100.468 111.788 100.4C111.924 100.264 111.924 100.061 111.788 99.9595C111.416 99.5869 111.009 99.2143 110.603 98.8756C110.467 98.7739 110.264 98.7739 110.162 98.9094C110.061 99.0449 110.061 99.2482 110.196 99.3498C110.603 99.6885 110.975 100.061 111.348 100.4C111.382 100.468 111.45 100.501 111.551 100.501ZM75.5436 100.434C75.6114 100.434 75.713 100.4 75.7807 100.332C76.1533 99.9595 76.5598 99.6208 76.9324 99.282C77.0679 99.1804 77.0679 98.9772 76.9663 98.8417C76.8647 98.7062 76.6615 98.7062 76.526 98.8078C76.1195 99.1465 75.713 99.5192 75.3404 99.8918C75.2049 100.027 75.2049 100.231 75.3404 100.332C75.3743 100.4 75.4759 100.434 75.5436 100.434ZM109.112 98.4013C109.214 98.4013 109.316 98.3675 109.349 98.2658C109.451 98.1303 109.417 97.9271 109.282 97.8255C108.841 97.4868 108.401 97.1819 107.961 96.877C107.825 96.7754 107.622 96.8093 107.52 96.9787C107.419 97.1142 107.453 97.3174 107.622 97.419C108.062 97.7239 108.503 98.0287 108.909 98.3336C108.977 98.4013 109.045 98.4013 109.112 98.4013ZM77.9825 98.3675C78.0503 98.3675 78.118 98.3336 78.1858 98.2997C78.5923 97.9948 79.0326 97.69 79.473 97.3851C79.6085 97.2835 79.6762 97.0803 79.5746 96.9448C79.473 96.8093 79.2697 96.7415 79.1342 96.8432C78.6939 97.148 78.2535 97.4529 77.8132 97.7577C77.6777 97.8594 77.6438 98.0626 77.7454 98.1981C77.7793 98.3336 77.8809 98.3675 77.9825 98.3675ZM106.47 96.6399C106.572 96.6399 106.673 96.5722 106.741 96.4706C106.843 96.3351 106.775 96.1318 106.64 96.0302C106.165 95.7592 105.691 95.4882 105.217 95.2511C105.047 95.1833 104.878 95.2511 104.777 95.3866C104.709 95.5559 104.776 95.7253 104.912 95.827C105.386 96.0641 105.827 96.3012 106.301 96.5722C106.369 96.6399 106.436 96.6399 106.47 96.6399ZM80.6247 96.606C80.6924 96.606 80.7263 96.606 80.794 96.5722C81.2344 96.3012 81.7086 96.0641 82.1828 95.827C82.3522 95.7592 82.42 95.5559 82.3183 95.3866C82.2506 95.2172 82.0473 95.1495 81.878 95.2511C81.4037 95.4882 80.9295 95.7592 80.4553 95.9963C80.3198 96.0979 80.252 96.2673 80.3537 96.4367C80.4214 96.5721 80.5231 96.606 80.6247 96.606ZM103.625 95.2172C103.76 95.2172 103.862 95.1495 103.93 95.014C103.997 94.8446 103.93 94.6753 103.76 94.6075C103.252 94.4043 102.778 94.201 102.27 94.0316C102.101 93.9639 101.931 94.0655 101.863 94.2349C101.796 94.4042 101.897 94.5736 102.067 94.6414C102.541 94.8107 103.049 95.014 103.523 95.2172C103.557 95.2172 103.591 95.2172 103.625 95.2172ZM83.4701 95.1833C83.5039 95.1833 83.5378 95.1834 83.6056 95.1495C84.0798 94.9462 84.5879 94.743 85.0621 94.5736C85.2315 94.5059 85.2992 94.3365 85.2653 94.1671C85.1976 93.9978 85.0282 93.93 84.8589 93.9639C84.3508 94.1333 83.8427 94.3365 83.3684 94.5397C83.1991 94.6075 83.1313 94.8108 83.1991 94.9462C83.2329 95.1156 83.3684 95.1833 83.4701 95.1833ZM100.644 94.1671C100.779 94.1671 100.915 94.0655 100.949 93.93C100.983 93.7607 100.915 93.5913 100.746 93.5235C100.237 93.388 99.6955 93.2526 99.1874 93.1171C99.018 93.0832 98.8486 93.1848 98.8148 93.3542C98.7809 93.5235 98.8825 93.6929 99.0519 93.7268C99.56 93.8284 100.068 93.9639 100.576 94.0994C100.576 94.1672 100.61 94.1671 100.644 94.1671ZM86.4848 94.1333C86.5187 94.1333 86.5525 94.1333 86.5864 94.1333C87.0945 93.9978 87.6026 93.8623 88.1107 93.7607C88.2801 93.7268 88.3817 93.5574 88.3479 93.388C88.314 93.2187 88.1446 93.1171 87.9752 93.1509C87.4671 93.2526 86.9251 93.388 86.417 93.5235C86.2477 93.5574 86.1461 93.7607 86.2138 93.93C86.2138 94.0655 86.3493 94.1333 86.4848 94.1333ZM97.5276 93.4897C97.6969 93.4897 97.8325 93.388 97.8325 93.2187C97.8663 93.0493 97.7308 92.8799 97.5614 92.8461C97.0195 92.7783 96.5114 92.7106 95.9694 92.6428C95.8 92.6428 95.6307 92.7445 95.6307 92.9138C95.6307 93.0832 95.7323 93.2526 95.9016 93.2526C96.4097 93.2864 96.9517 93.3542 97.4598 93.4558C97.4937 93.4897 97.5276 93.4897 97.5276 93.4897ZM89.6012 93.4558L89.635 93.4558C90.1431 93.3881 90.6851 93.3203 91.1932 93.2526C91.3626 93.2526 91.4981 93.0832 91.4981 92.9138C91.4981 92.7445 91.3287 92.609 91.1593 92.609C90.6174 92.6428 90.0754 92.7106 89.5673 92.8122C89.3979 92.8461 89.2624 93.0154 89.2963 93.1848C89.2963 93.3542 89.4318 93.4558 89.6012 93.4558ZM94.3773 93.1848C94.5467 93.1848 94.6822 93.0493 94.6822 92.8799C94.6822 92.7106 94.5467 92.5412 94.3773 92.5412C93.8353 92.5073 93.2934 92.5073 92.7514 92.5412C92.5821 92.5412 92.4465 92.6767 92.4465 92.8799C92.4465 93.0493 92.582 93.1848 92.7853 93.1848C93.2934 93.1848 93.8353 93.1848 94.3773 93.1848C94.3435 93.1848 94.3435 93.1848 94.3773 93.1848Z" fill="#0F0F0F"/>
<path d="M93.5281 120.691C94.4088 120.691 95.1202 119.98 95.1202 119.099L95.1201 1.59163C95.1201 0.710914 94.4088 -0.000412203 93.5281 -0.000412126C92.6474 -0.000412049 91.936 0.710915 91.936 1.59163L91.936 119.099C91.936 119.98 92.6474 120.691 93.5281 120.691Z" fill="#0F0F0F"/>
<path d="M93.5266 122.722C93.6621 122.722 93.7638 122.688 93.8654 122.586L154.194 62.2575C154.364 62.0882 154.364 61.7833 154.194 61.5801L93.8654 1.25124C93.696 1.08187 93.3911 1.08187 93.1879 1.25124L32.8591 61.5801C32.7575 61.6817 32.7236 61.7833 32.7236 61.9188C32.7236 62.0543 32.7575 62.1559 32.8591 62.2575L93.1879 122.586C93.2557 122.688 93.3912 122.722 93.5266 122.722ZM153.178 61.9188L93.5266 121.57L33.8753 61.9188L93.5266 2.26744L153.178 61.9188Z" fill="#0F0F0F"/>
</svg>
