<svg width="383" height="214" viewBox="0 0 383 214" fill="none" xmlns="http://www.w3.org/2000/svg">
<path d="M22.0693 16.3073L20.4101 15.6963C20.5385 15.4055 20.6625 15.0721 20.7821 14.6963C20.9184 14.322 21.0396 13.9295 21.1457 13.5187C21.2517 13.1079 21.3411 12.6956 21.4138 12.2816C21.4865 11.8677 21.5402 11.4772 21.5748 11.1102C21.6959 9.82562 21.5424 8.77602 21.1143 7.9614C20.7013 7.16503 20.0527 6.72516 19.1685 6.64177C18.7681 6.60401 18.3932 6.65281 18.0438 6.78818C17.7096 6.94179 17.3833 7.18874 17.0651 7.52902C16.762 7.88756 16.4478 8.36287 16.1227 8.95497C15.7975 9.54707 15.4424 10.2794 15.0571 11.152C14.6655 12.0913 14.2631 12.878 13.8499 13.5123C13.4533 14.1482 13.0351 14.6558 12.5954 15.0351C12.1708 15.4326 11.6996 15.6996 11.1818 15.8359C10.6791 15.9905 10.1107 16.0379 9.47679 15.9781C8.47581 15.8837 7.65015 15.5365 6.99981 14.9366C6.3479 14.3533 5.87729 13.5431 5.58799 12.5059C5.31536 11.4703 5.24749 10.2268 5.38437 8.7754C5.42843 8.30828 5.50144 7.80181 5.60341 7.25599C5.70538 6.71017 5.82482 6.15758 5.96173 5.59823C6.11532 5.04045 6.27489 4.50848 6.44045 4.00232C6.62111 3.51441 6.80382 3.09403 6.98859 2.74116L8.64541 3.37711C8.45908 3.74666 8.28471 4.16783 8.1223 4.64062C7.95989 5.11342 7.81259 5.60447 7.6804 6.11377C7.54821 6.62308 7.43349 7.12562 7.33624 7.62139C7.23742 8.13384 7.16756 8.60695 7.12665 9.0407C7.03539 10.0083 7.06753 10.8277 7.22304 11.4988C7.37699 12.1865 7.64676 12.7169 8.03237 13.0899C8.43309 13.4812 8.9254 13.7043 9.5093 13.7594C9.92638 13.7987 10.3112 13.734 10.6637 13.5653C11.0163 13.3966 11.3457 13.1163 11.6519 12.7244C11.9749 12.334 12.3013 11.8178 12.6311 11.1756C12.9594 10.5502 13.3253 9.79361 13.7288 8.90594C14.1292 8.05163 14.5261 7.32324 14.9196 6.72075C15.313 6.11826 15.7288 5.63571 16.167 5.27307C16.6035 4.92713 17.0732 4.67687 17.5759 4.5223C18.077 4.38441 18.6362 4.34458 19.2534 4.40279C19.9374 4.4673 20.5497 4.66811 21.0902 5.00521C21.6473 5.34389 22.1093 5.79982 22.476 6.37301C22.8427 6.9462 23.0968 7.64342 23.2381 8.46466C23.3946 9.30415 23.424 10.2411 23.3265 11.2754C23.2699 11.876 23.1699 12.4893 23.0267 13.1154C22.9002 13.7431 22.7518 14.335 22.5815 14.8912C22.4264 15.4657 22.2556 15.9377 22.0693 16.3073Z" fill="black"/>
<path d="M4.95088 19.4855L22.5447 19.6805L22.421 30.84L20.4856 30.8186L20.5851 21.8457L15.0556 21.7844L14.9628 30.1541L13.0527 30.1329L13.1455 21.7633L6.86196 21.6936L6.75774 31.0937L4.82242 31.0723L4.95088 19.4855Z" fill="black"/>
<path d="M6.22002 44.2675C5.42023 44.5668 4.77144 44.8624 4.27365 45.1543C3.76049 45.4643 3.39198 45.7963 3.16813 46.1504C2.92757 46.5059 2.82398 46.8924 2.85736 47.31C2.87738 47.5605 2.93984 47.8161 3.04472 48.0767C3.13423 48.3553 3.25848 48.648 3.41748 48.9547L1.66256 49.3975C1.46215 48.9933 1.30416 48.594 1.1886 48.1998C1.07437 47.8223 1.00257 47.4498 0.973202 47.0823C0.917128 46.3808 1.05214 45.7564 1.37823 45.2092C1.68762 44.6634 2.21048 44.1593 2.94681 43.697C3.66777 43.2527 4.58417 42.8349 5.69599 42.4434L6.22002 44.2675ZM7.09412 41.9534C7.13951 42.5213 7.25039 43.0672 7.42674 43.5911C7.60309 44.1149 7.86798 44.5896 8.2214 45.0153C8.59152 45.4396 9.06555 45.7967 9.64347 46.0868C10.2214 46.3768 10.9353 46.5803 11.7852 46.6973C12.6364 46.8309 13.6466 46.8511 14.8159 46.7576C15.9851 46.6641 16.9794 46.4838 17.7985 46.2166C18.619 45.9661 19.2915 45.6518 19.8161 45.2737C20.3573 44.8942 20.7686 44.4663 21.0499 43.9899C21.3312 43.5135 21.5173 43.0028 21.6082 42.4576C21.6991 41.9124 21.7219 41.3558 21.6765 40.7879C21.6311 40.2199 21.5202 39.6741 21.3439 39.1502C21.1689 38.6431 20.9046 38.1767 20.5512 37.7511C20.1978 37.3254 19.7231 36.9599 19.1271 36.6545C18.5492 36.3645 17.8353 36.161 16.9854 36.044C16.1356 35.927 15.126 35.9153 13.9567 36.0087C12.7875 36.1022 11.7926 36.2742 10.9721 36.5247C10.1683 36.7738 9.49578 37.0881 8.95456 37.4676C8.43137 37.8625 8.02912 38.2981 7.74779 38.7744C7.46647 39.2508 7.27134 39.7539 7.16239 40.2837C7.07148 40.8289 7.04873 41.3855 7.09412 41.9534ZM5.36528 42.0916C5.29586 41.223 5.32231 40.3972 5.44463 39.6141C5.5683 38.8478 5.81355 38.1305 6.18041 37.4624C6.54728 36.7943 7.05511 36.2074 7.70392 35.7016C8.35406 35.2126 9.17858 34.8021 10.1775 34.4701C11.1764 34.1381 12.3774 33.916 13.7805 33.8038C15.1836 33.6917 16.404 33.7118 17.4416 33.8642C18.4806 34.0334 19.3682 34.307 20.1045 34.6852C20.8421 35.0802 21.436 35.5706 21.8863 36.1566C22.3546 36.758 22.703 37.4362 22.9315 38.1912C23.1766 38.9449 23.3346 39.7644 23.4053 40.6497C23.4761 41.535 23.4503 42.3692 23.328 43.1522C23.2224 43.9339 22.9855 44.6505 22.6173 45.3019C22.2671 45.9687 21.767 46.5466 21.1168 47.0357C20.468 47.5414 19.6442 47.9603 18.6453 48.2923C17.6464 48.6243 16.4453 48.8463 15.0422 48.9585C13.6224 49.072 12.3847 49.0448 11.329 48.8771C10.2733 48.7093 9.37672 48.4279 8.63911 48.033C7.91955 47.6534 7.3256 47.163 6.85727 46.5616C6.40698 45.9756 6.05926 45.3058 5.8141 44.5521C5.58565 43.7971 5.43604 42.9769 5.36528 42.0916Z" fill="black"/>
<path d="M12.1163 52.5099L24.2166 50.3514L24.5918 52.4548L12.4667 54.6177C11.8729 54.7236 11.3762 54.8973 10.9767 55.1388C10.5772 55.3803 10.2637 55.6745 10.0363 56.0215C9.82529 56.3655 9.67263 56.7502 9.57829 57.1755C9.48395 57.6009 9.44204 58.0339 9.45256 58.4746C9.48253 58.9288 9.53724 59.3786 9.61669 59.824C9.69909 60.2859 9.81154 60.7255 9.95403 61.1426C10.0995 61.5762 10.2803 61.9695 10.4964 62.3225C10.7291 62.6725 11.0121 62.9709 11.3455 63.2178C11.6789 63.4647 12.0666 63.6339 12.5084 63.7253C12.9667 63.8137 13.4928 63.805 14.0867 63.6991L26.2117 61.5361L26.5869 63.6395L14.4867 65.798C13.6288 65.951 12.8659 65.9679 12.1978 65.8488C11.5492 65.7432 10.9736 65.5225 10.4712 65.1866C9.98518 64.8477 9.56844 64.42 9.22093 63.9032C8.87637 63.403 8.59575 62.8317 8.37906 62.1895C8.14587 61.5503 7.96307 60.8595 7.83064 60.1171C7.70411 59.4078 7.63825 58.7046 7.63307 58.0076C7.61434 57.3301 7.67868 56.6888 7.82607 56.0838C7.97641 55.4953 8.221 54.958 8.55985 54.472C8.91519 53.9831 9.37745 53.5687 9.94663 53.2289C10.5352 52.9026 11.2585 52.663 12.1163 52.5099Z" fill="black"/>
<path d="M13.7652 77.5277C13.9189 78.0763 14.1327 78.5906 14.4066 79.0708C14.6804 79.5509 15.0316 79.9658 15.4603 80.3156C15.889 80.6653 16.4148 80.9268 17.0377 81.1003C17.6606 81.2737 18.4003 81.3361 19.2568 81.2875C20.1179 81.255 21.1131 81.0804 22.2426 80.7638C23.372 80.4472 24.313 80.079 25.0655 79.6593C25.8386 79.2511 26.4462 78.811 26.8882 78.3391C27.3302 77.8671 27.6434 77.3704 27.8279 76.8488C28.0123 76.3272 28.0967 75.7902 28.0811 75.2377C28.0654 74.6851 27.9807 74.1346 27.8269 73.586C27.6731 73.0374 27.4593 72.523 27.1855 72.0429C26.9162 71.5789 26.5673 71.172 26.1386 70.8223C25.7099 70.4726 25.176 70.2133 24.537 70.0444C23.9141 69.8709 23.1721 69.8005 22.3111 69.833C21.4545 69.8816 20.4535 70.0665 19.3079 70.3876C18.1946 70.6997 17.2675 71.0553 16.5266 71.4544C15.7903 71.8697 15.193 72.3155 14.7349 72.792C14.2929 73.264 13.9716 73.763 13.771 74.2891C13.5866 74.8107 13.4999 75.3397 13.511 75.876C13.5267 76.4285 13.6114 76.9791 13.7652 77.5277ZM12.071 78.0026C11.8403 77.1797 11.712 76.3803 11.6859 75.6045C11.6599 74.8287 11.7545 74.0799 11.9699 73.3582C12.2014 72.632 12.5869 71.9584 13.1263 71.3373C13.6819 70.7117 14.4179 70.1399 15.3343 69.622C16.2507 69.1041 17.3865 68.6551 18.7419 68.2752C20.0972 67.8953 21.2987 67.6803 22.3462 67.6303C23.3983 67.5965 24.3162 67.7046 25.0999 67.9549C25.8996 68.2005 26.5849 68.5654 27.1556 69.0493C27.7309 69.5493 28.2009 70.1398 28.5658 70.8207C28.9514 71.5131 29.2617 72.2789 29.4969 73.1179C29.7321 73.9569 29.865 74.7724 29.8955 75.5644C29.9422 76.3518 29.8476 77.1006 29.6115 77.8106C29.3962 78.5323 29.0188 79.2037 28.4793 79.8248C27.9399 80.4459 27.212 81.0154 26.2956 81.5333C25.3792 82.0512 24.2433 82.5001 22.888 82.8801C21.5165 83.2645 20.2967 83.4759 19.2284 83.5143C18.1647 83.5688 17.2307 83.4652 16.4264 83.2034C15.6428 82.9532 14.9633 82.578 14.3881 82.078C13.8335 81.5895 13.3634 80.9991 12.9779 80.3066C12.613 79.6257 12.3107 78.8577 12.071 78.0026Z" fill="black"/>
<path d="M15.8541 88.9057L32.4041 82.9325L33.1379 84.9658L16.5879 90.939L15.8541 88.9057Z" fill="black"/>
<path d="M18.4846 96.086L37.1816 94.4693L38.1613 96.7019L24.3225 109.39L23.363 107.203L26.923 103.994L24.1657 97.7104L19.3936 98.1576L18.4846 96.086ZM26.0047 97.3975L28.4085 102.876L35.7229 96.3995L26.0047 97.3975Z" fill="black"/>
<path d="M34.347 122.437L38.1065 120.153L36.084 116.823L37.5664 115.923L39.5889 119.253L43.3485 116.969L44.3141 118.559L40.5545 120.843L42.5901 124.194L41.1077 125.094L39.0721 121.743L35.3126 124.027L34.347 122.437Z" fill="black"/>
<path d="M52.9591 151.596L51.5192 149.851L59.9617 138.125L46.8153 144.152L45.4553 142.504L56.51 128.296L58.0241 130.012L48.0649 141.915L61.6572 135.52L62.9212 137.051L54.0522 149.129L67.6079 141.624L69.0057 143.436L52.9591 151.596Z" fill="black"/>
<path d="M63.5729 160.229C63.9795 160.628 64.421 160.968 64.8976 161.248C65.3742 161.528 65.8854 161.712 66.4313 161.802C66.9772 161.892 67.5635 161.857 68.19 161.697C68.8166 161.537 69.4891 161.223 70.2075 160.754C70.938 160.297 71.714 159.65 72.5358 158.813C73.3575 157.976 73.99 157.188 74.4335 156.449C74.9006 155.71 75.2083 155.026 75.3565 154.396C75.5047 153.767 75.5289 153.18 75.429 152.636C75.3292 152.092 75.1349 151.584 74.8461 151.113C74.5574 150.642 74.2097 150.206 73.8031 149.807C73.3965 149.408 72.955 149.069 72.4784 148.789C72.0138 148.52 71.5085 148.341 70.9626 148.252C70.4167 148.162 69.8246 148.203 69.1863 148.375C68.5598 148.535 67.8813 148.843 67.1508 149.3C66.4324 149.769 65.6564 150.428 64.823 151.277C64.013 152.102 63.3862 152.872 62.9425 153.587C62.5108 154.314 62.215 154.998 62.0551 155.639C61.9069 156.269 61.8768 156.862 61.9649 157.418C62.0647 157.962 62.2531 158.464 62.5299 158.923C62.8186 159.395 63.1663 159.83 63.5729 160.229ZM62.3403 161.485C61.7304 160.886 61.221 160.257 60.812 159.597C60.403 158.937 60.1122 158.241 59.9395 157.508C59.7785 156.763 59.7772 155.986 59.9357 155.179C60.1058 154.36 60.4592 153.498 60.9959 152.592C61.5326 151.687 62.294 150.732 63.28 149.727C64.2661 148.723 65.2008 147.938 66.0843 147.373C66.9797 146.819 67.8295 146.456 68.6337 146.283C69.4496 146.097 70.2255 146.072 70.9614 146.208C71.7093 146.355 72.411 146.633 73.0665 147.041C73.7457 147.45 74.3962 147.959 75.0181 148.57C75.6399 149.18 76.1613 149.821 76.5823 150.492C77.015 151.152 77.3058 151.848 77.4548 152.582C77.6275 153.315 77.6346 154.085 77.4762 154.892C77.3178 155.699 76.9703 156.556 76.4336 157.461C75.8969 158.367 75.1355 159.322 74.1495 160.326C73.1517 161.343 72.1992 162.134 71.292 162.699C70.3968 163.276 69.5353 163.651 68.7074 163.825C67.9033 163.998 67.1272 164.012 66.3794 163.864C65.6552 163.717 64.9535 163.439 64.2743 163.031C63.6188 162.622 62.9741 162.107 62.3403 161.485Z" fill="black"/>
<path d="M77.4891 172.4C77.933 172.758 78.4059 173.052 78.9078 173.284C79.4096 173.515 79.9366 173.649 80.4887 173.684C81.0408 173.72 81.6207 173.627 82.2285 173.406C82.8362 173.185 83.4744 172.806 84.1432 172.269C84.825 171.742 85.5335 171.022 86.2687 170.108C87.0039 169.194 87.5557 168.347 87.9241 167.568C88.3161 166.787 88.5549 166.076 88.6403 165.435C88.7257 164.794 88.692 164.207 88.539 163.676C88.386 163.144 88.1426 162.658 87.8087 162.217C87.4749 161.777 87.086 161.378 86.6421 161.021C86.1982 160.664 85.7252 160.37 85.2234 160.138C84.7346 159.917 84.2141 159.789 83.6621 159.753C83.11 159.718 82.5248 159.817 81.9066 160.051C81.2988 160.272 80.654 160.645 79.9722 161.172C79.3035 161.71 78.5962 162.442 77.8506 163.369C77.1259 164.27 76.578 165.098 76.207 165.853C75.8491 166.619 75.6222 167.329 75.5262 167.983C75.4408 168.624 75.4693 169.217 75.6118 169.761C75.7648 170.293 76.0017 170.774 76.3224 171.204C76.6563 171.645 77.0451 172.043 77.4891 172.4ZM76.3863 173.771C75.7204 173.236 75.1514 172.66 74.6794 172.044C74.2073 171.427 73.8492 170.763 73.6051 170.051C73.3715 169.325 73.2937 168.553 73.3718 167.734C73.4603 166.902 73.727 166.009 74.1718 165.055C74.6166 164.101 75.2801 163.075 76.1623 161.979C77.0446 160.882 77.8974 160.009 78.7209 159.359C79.5574 158.72 80.3672 158.275 81.1504 158.023C81.944 157.758 82.7137 157.657 83.4594 157.719C84.2181 157.792 84.9438 157.999 85.6364 158.341C86.3526 158.681 87.0501 159.123 87.7291 159.67C88.4081 160.216 88.9901 160.802 89.4753 161.429C89.9709 162.043 90.3289 162.707 90.5495 163.422C90.7936 164.134 90.8766 164.9 90.7986 165.719C90.7205 166.538 90.4591 167.424 90.0143 168.379C89.5695 169.333 88.906 170.358 88.0238 171.455C87.1311 172.565 86.2612 173.446 85.4142 174.098C84.5802 174.76 83.7599 175.219 82.9531 175.473C82.17 175.725 81.399 175.814 80.6403 175.742C79.9051 175.666 79.1794 175.459 78.4633 175.12C77.7707 174.777 77.0784 174.328 76.3863 173.771Z" fill="black"/>
<path d="M90.6539 184.014C90.1215 183.665 89.5866 183.304 89.0494 182.931C88.5122 182.559 87.9795 182.179 87.4515 181.793C86.9375 181.416 86.4188 181.045 85.8956 180.682L95.6022 165.886C96.2043 166.221 96.7737 166.545 97.3105 166.857C97.8613 167.178 98.3864 167.492 98.886 167.8C99.3996 168.117 99.9156 168.446 100.434 168.786C102.017 169.824 103.132 170.936 103.777 172.121C104.432 173.292 104.623 174.59 104.35 176.014C104.086 177.424 103.366 179.026 102.189 180.82C101.049 182.557 99.8711 183.818 98.6546 184.603C97.438 185.388 96.1647 185.726 94.8347 185.614C93.5186 185.513 92.125 184.979 90.6539 184.014ZM91.619 182.543C92.6699 183.232 93.6672 183.606 94.6111 183.664C95.5782 183.717 96.5265 183.418 97.4558 182.765C98.3944 182.098 99.3417 181.036 100.298 179.579C101.281 178.079 101.899 176.771 102.151 175.654C102.403 174.537 102.3 173.547 101.843 172.686C101.409 171.82 100.625 171.015 99.4899 170.271C99.2377 170.105 98.9388 169.919 98.5934 169.713C98.2479 169.506 97.8955 169.295 97.536 169.079C97.1765 168.863 96.8381 168.661 96.5207 168.473L88.6616 180.452C88.8626 180.604 89.0916 180.775 89.3486 180.963C89.6196 181.161 89.8836 181.354 90.1407 181.543C90.4209 181.727 90.6825 181.908 90.9255 182.088C91.1917 182.263 91.4229 182.414 91.619 182.543Z" fill="black"/>
<path d="M118.727 180.17L117.521 181.463C117.303 181.232 117.043 180.988 116.743 180.733C116.451 180.462 116.136 180.198 115.798 179.941C115.461 179.684 115.115 179.442 114.762 179.215C114.408 178.988 114.069 178.787 113.744 178.613C112.607 178.004 111.58 177.739 110.663 177.818C109.768 177.89 109.112 178.318 108.692 179.101C108.503 179.455 108.402 179.82 108.392 180.194C108.404 180.562 108.505 180.958 108.696 181.384C108.909 181.802 109.225 182.276 109.645 182.805C110.065 183.334 110.603 183.945 111.258 184.638C111.972 185.363 112.542 186.038 112.967 186.665C113.399 187.277 113.705 187.859 113.885 188.412C114.087 188.957 114.15 189.495 114.076 190.025C114.023 190.548 113.847 191.091 113.546 191.652C113.072 192.538 112.432 193.165 111.627 193.532C110.836 193.907 109.907 194.027 108.839 193.892C107.779 193.743 106.606 193.324 105.321 192.635C104.907 192.414 104.468 192.15 104.005 191.845C103.541 191.539 103.078 191.215 102.615 190.872C102.16 190.515 101.732 190.162 101.329 189.813C100.949 189.457 100.633 189.126 100.379 188.819L101.607 187.538C101.875 187.853 102.196 188.177 102.569 188.51C102.942 188.842 103.338 189.168 103.756 189.488C104.174 189.807 104.593 190.107 105.013 190.389C105.447 190.678 105.856 190.926 106.24 191.132C107.097 191.591 107.865 191.878 108.544 191.995C109.237 192.119 109.831 192.076 110.324 191.865C110.84 191.647 111.236 191.28 111.513 190.763C111.711 190.393 111.801 190.014 111.782 189.623C111.762 189.233 111.632 188.821 111.389 188.386C111.154 187.937 110.805 187.437 110.34 186.884C109.891 186.339 109.335 185.708 108.673 184.993C108.04 184.293 107.523 183.645 107.12 183.049C106.716 182.452 106.433 181.882 106.268 181.338C106.118 180.801 106.069 180.271 106.121 179.748C106.188 179.233 106.368 178.702 106.661 178.155C106.985 177.549 107.408 177.063 107.928 176.695C108.456 176.313 109.055 176.063 109.726 175.947C110.396 175.831 111.137 175.867 111.949 176.055C112.784 176.236 113.659 176.571 114.575 177.062C115.107 177.347 115.633 177.676 116.155 178.051C116.685 178.411 117.173 178.777 117.62 179.149C118.089 179.515 118.458 179.855 118.727 180.17Z" fill="black"/>
<path d="M131.745 187.36L126.786 185.212L120.561 199.581L118.578 198.722L124.803 184.353L119.844 182.205L120.613 180.429L132.514 185.584L131.745 187.36Z" fill="black"/>
<path d="M136.579 203.885C137.12 204.063 137.666 204.173 138.217 204.213C138.769 204.253 139.309 204.193 139.838 204.032C140.367 203.871 140.878 203.58 141.369 203.16C141.86 202.739 142.324 202.16 142.761 201.422C143.214 200.689 143.624 199.765 143.991 198.651C144.357 197.537 144.576 196.55 144.647 195.692C144.739 194.822 144.713 194.072 144.567 193.442C144.422 192.812 144.184 192.275 143.854 191.832C143.523 191.388 143.124 191.018 142.657 190.723C142.19 190.428 141.685 190.192 141.144 190.014C140.603 189.835 140.057 189.726 139.505 189.686C138.97 189.651 138.438 189.714 137.909 189.875C137.379 190.036 136.866 190.335 136.37 190.771C135.879 191.191 135.407 191.768 134.954 192.501C134.517 193.239 134.112 194.174 133.74 195.304C133.379 196.402 133.157 197.37 133.076 198.207C133.01 199.05 133.047 199.795 133.187 200.441C133.333 201.071 133.568 201.616 133.893 202.075C134.223 202.519 134.614 202.886 135.066 203.176C135.533 203.471 136.037 203.707 136.579 203.885ZM136.029 205.557C135.217 205.289 134.482 204.95 133.823 204.54C133.164 204.129 132.595 203.633 132.116 203.052C131.642 202.455 131.298 201.759 131.083 200.965C130.873 200.155 130.809 199.226 130.89 198.176C130.97 197.126 131.231 195.933 131.671 194.596C132.111 193.259 132.602 192.142 133.145 191.244C133.703 190.352 134.304 189.65 134.949 189.139C135.599 188.612 136.283 188.246 137.003 188.042C137.739 187.843 138.491 187.782 139.26 187.859C140.05 187.925 140.859 188.094 141.686 188.366C142.514 188.639 143.265 188.983 143.94 189.399C144.62 189.799 145.188 190.295 145.646 190.887C146.125 191.468 146.473 192.155 146.687 192.949C146.902 193.743 146.97 194.665 146.889 195.715C146.808 196.764 146.548 197.958 146.107 199.295C145.662 200.648 145.158 201.778 144.594 202.686C144.047 203.6 143.44 204.318 142.774 204.84C142.13 205.351 141.439 205.706 140.704 205.905C139.989 206.093 139.237 206.154 138.447 206.088C137.678 206.011 136.872 205.834 136.029 205.557Z" fill="black"/>
<path d="M148.563 200.144C149.06 197.971 149.748 196.281 150.627 195.072C151.522 193.868 152.61 193.094 153.892 192.751C155.177 192.393 156.653 192.404 158.319 192.786C158.793 192.894 159.23 193.011 159.631 193.138C160.052 193.251 160.436 193.374 160.784 193.505C161.149 193.64 161.502 193.789 161.842 193.953C162.183 194.117 162.528 194.3 162.877 194.5L162.074 196.095C161.626 195.872 161.191 195.67 160.769 195.487C160.347 195.304 159.911 195.144 159.461 195.007C159.027 194.873 158.565 194.75 158.075 194.638C157.144 194.425 156.289 194.366 155.511 194.463C154.752 194.547 154.071 194.821 153.466 195.284C152.865 195.731 152.334 196.4 151.872 197.291C151.414 198.166 151.029 199.282 150.719 200.637C150.435 201.879 150.308 202.959 150.338 203.877C150.372 204.778 150.566 205.545 150.92 206.176C151.274 206.807 151.766 207.324 152.396 207.726C153.026 208.128 153.79 208.432 154.689 208.638C155.456 208.814 156.278 208.942 157.153 209.022C158.029 209.102 158.834 209.115 159.569 209.059L159.568 210.864C159.166 210.892 158.75 210.909 158.319 210.913C157.892 210.901 157.442 210.876 156.97 210.836C156.498 210.797 156.013 210.738 155.515 210.658C155.018 210.578 154.499 210.477 153.96 210.353C152.784 210.084 151.773 209.698 150.925 209.194C150.082 208.674 149.416 208.015 148.929 207.216C148.461 206.404 148.188 205.421 148.108 204.268C148.048 203.103 148.2 201.728 148.563 200.144Z" fill="black"/>
<path d="M176.219 213.932C175.771 213.87 175.326 213.725 174.884 213.495C174.458 213.268 174.014 212.928 173.552 212.475C173.106 212.025 172.602 211.449 172.039 210.746L166.729 203.954L165.595 212.221L163.428 211.924L165.819 194.493L167.985 194.79L167.104 201.215L173.008 208.671C173.469 209.259 173.867 209.745 174.203 210.129C174.559 210.499 174.873 210.796 175.147 211.019C175.44 211.229 175.705 211.392 175.942 211.509C176.182 211.61 176.435 211.678 176.701 211.715C176.734 211.719 176.784 211.726 176.85 211.735C176.917 211.744 176.975 211.752 177.024 211.759L176.724 213.95C176.622 213.953 176.53 213.949 176.447 213.938C176.361 213.943 176.285 213.941 176.219 213.932ZM169.387 205.105L168.191 203.647C168.702 203.379 169.262 203.058 169.871 202.685C170.48 202.312 171.095 201.897 171.716 201.441C172.353 200.987 172.989 200.482 173.623 199.927C174.26 199.354 174.861 198.735 175.426 198.068C176.008 197.403 176.538 196.681 177.017 195.901L178.573 196.952C178.012 197.957 177.362 198.875 176.622 199.703C175.9 200.535 175.128 201.291 174.307 201.974C173.488 202.64 172.654 203.236 171.804 203.762C170.972 204.274 170.167 204.721 169.387 205.105Z" fill="black"/>
<path d="M193.436 212.017L193.444 207.618L189.548 207.611L189.552 205.876L193.448 205.884L193.456 201.485L195.316 201.489L195.308 205.888L199.229 205.895L199.225 207.63L195.304 207.622L195.296 212.021L193.436 212.017Z" fill="black"/>
<path d="M213.931 213.251L211.713 195.797L222.734 194.396L222.981 196.341L214.129 197.466L214.95 203.924L222.63 202.948L222.867 204.818L215.187 205.794L216.1 212.976L213.931 213.251Z" fill="black"/>
<path d="M227.332 205.969L224.73 193.956L226.818 193.504L229.425 205.541C229.553 206.131 229.745 206.621 230.001 207.011C230.257 207.401 230.562 207.704 230.918 207.918C231.269 208.117 231.659 208.255 232.088 208.334C232.516 208.412 232.95 208.438 233.39 208.411C233.843 208.365 234.291 208.294 234.733 208.198C235.192 208.099 235.627 207.97 236.038 207.812C236.466 207.651 236.853 207.456 237.197 207.227C237.539 206.982 237.826 206.688 238.061 206.345C238.295 206.003 238.45 205.61 238.525 205.165C238.597 204.703 238.569 204.178 238.441 203.588L235.834 191.551L237.922 191.099L240.524 203.112C240.708 203.963 240.753 204.725 240.659 205.397C240.577 206.049 240.378 206.632 240.061 207.147C239.74 207.645 239.328 208.077 238.824 208.443C238.337 208.806 237.776 209.108 237.142 209.348C236.512 209.604 235.828 209.812 235.091 209.972C234.387 210.124 233.687 210.216 232.991 210.247C232.314 210.291 231.671 210.25 231.061 210.125C230.467 209.996 229.922 209.771 229.423 209.451C228.922 209.114 228.491 208.667 228.13 208.111C227.782 207.534 227.516 206.82 227.332 205.969Z" fill="black"/>
<path d="M252.364 188.571L247.205 190.179L251.865 205.129L249.801 205.773L245.141 190.823L239.982 192.431L239.406 190.583L251.788 186.723L252.364 188.571Z" fill="black"/>
<path d="M258.706 197.176L254.021 185.812L255.996 184.998L260.691 196.385C260.921 196.943 261.196 197.391 261.517 197.73C261.838 198.069 262.192 198.312 262.58 198.461C262.961 198.594 263.369 198.661 263.805 198.663C264.24 198.664 264.672 198.613 265.101 198.509C265.538 198.383 265.966 198.234 266.384 198.061C266.818 197.883 267.224 197.679 267.601 197.451C267.994 197.217 268.34 196.956 268.638 196.67C268.931 196.368 269.162 196.028 269.332 195.65C269.503 195.271 269.586 194.857 269.581 194.406C269.57 193.939 269.449 193.427 269.219 192.869L264.525 181.482L266.5 180.668L271.185 192.031C271.517 192.837 271.696 193.579 271.722 194.257C271.757 194.913 271.663 195.523 271.442 196.085C271.215 196.632 270.885 197.13 270.454 197.58C270.039 198.023 269.541 198.419 268.959 198.767C268.384 199.131 267.748 199.457 267.051 199.744C266.385 200.019 265.712 200.233 265.032 200.386C264.374 200.549 263.734 200.622 263.111 200.607C262.504 200.586 261.927 200.461 261.38 200.233C260.827 199.99 260.323 199.627 259.87 199.143C259.426 198.637 259.038 197.982 258.706 197.176Z" fill="black"/>
<path d="M289.614 188.636C289.244 188.832 288.827 188.957 288.363 189.013C287.922 189.075 287.42 189.056 286.855 188.956C286.291 188.856 285.665 188.675 284.977 188.413C284.304 188.143 283.546 187.785 282.704 187.339C281.862 186.893 280.939 186.348 279.936 185.703C279.78 185.804 279.592 185.913 279.369 186.03C279.147 186.147 278.962 186.245 278.814 186.324C278.399 186.543 277.962 186.773 277.502 187.016C277.043 187.259 276.587 187.49 276.135 187.71L279.339 193.778L277.405 194.799L269.166 179.195C269.794 178.807 270.379 178.46 270.919 178.156C271.452 177.837 271.959 177.541 272.44 177.268C272.921 176.994 273.414 176.725 273.918 176.459C275.059 175.856 276.072 175.425 276.958 175.166C277.837 174.892 278.622 174.799 279.313 174.889C280.005 174.978 280.626 175.257 281.176 175.725C281.718 176.177 282.212 176.826 282.658 177.671C283.143 178.589 283.413 179.442 283.468 180.227C283.53 180.991 283.396 181.706 283.066 182.373C282.728 183.025 282.232 183.647 281.578 184.238C282.566 184.854 283.455 185.351 284.243 185.731C285.031 186.111 285.719 186.392 286.308 186.573C286.888 186.74 287.385 186.838 287.798 186.866C288.218 186.872 288.561 186.804 288.828 186.664C288.858 186.648 288.91 186.621 288.984 186.581C289.05 186.528 289.101 186.481 289.138 186.443L290.157 188.264C290.09 188.318 290.017 188.376 289.936 188.438C289.855 188.5 289.747 188.566 289.614 188.636ZM278.302 184.547C279.043 184.156 279.649 183.76 280.12 183.36C280.591 182.96 280.93 182.544 281.138 182.112C281.352 181.657 281.432 181.18 281.376 180.679C281.312 180.163 281.116 179.594 280.787 178.971C280.364 178.171 279.895 177.604 279.378 177.271C278.875 176.93 278.258 176.82 277.526 176.941C276.794 177.062 275.88 177.412 274.784 177.991C274.487 178.148 274.22 178.289 273.983 178.414C273.761 178.531 273.55 178.652 273.351 178.776C273.151 178.901 272.929 179.037 272.685 179.185C272.448 179.31 272.182 179.47 271.886 179.663L275.266 186.065C275.556 185.931 275.83 185.805 276.09 185.687C276.342 185.554 276.59 185.432 276.835 185.322C277.087 185.189 277.331 185.06 277.569 184.934C277.806 184.809 278.05 184.68 278.302 184.547Z" fill="black"/>
<path d="M293.001 186.119L283.437 171.351L292.805 165.284L293.857 166.909L286.325 171.786L289.331 176.428L296.356 171.878L297.395 173.482L290.369 178.031L293.785 183.306L301.675 178.196L302.727 179.82L293.001 186.119Z" fill="black"/>
<path d="M313.623 171.383L302.082 158.036C302.823 157.329 303.455 156.728 303.978 156.231C304.501 155.734 304.946 155.327 305.314 155.009C305.683 154.668 305.988 154.393 306.229 154.185C307.306 153.253 308.265 152.568 309.105 152.13C309.946 151.669 310.711 151.439 311.4 151.442C312.102 151.433 312.776 151.636 313.423 152.052C314.059 152.454 314.722 153.055 315.413 153.853C316.136 154.69 316.655 155.482 316.969 156.23C317.295 156.966 317.427 157.694 317.363 158.414C317.287 159.122 317.004 159.832 316.513 160.545C316.034 161.246 315.345 161.986 314.445 162.765C314.192 162.984 313.963 163.181 313.761 163.356C313.57 163.521 313.387 163.68 313.209 163.833C313.044 163.976 312.873 164.124 312.696 164.277C312.507 164.418 312.305 164.581 312.09 164.768C311.863 164.941 311.605 165.142 311.315 165.371L315.278 169.953L313.623 171.383ZM304.838 157.879L310.165 164.04C310.431 163.81 310.677 163.608 310.904 163.434C311.143 163.25 311.357 163.075 311.548 162.911C311.75 162.735 311.959 162.566 312.172 162.404C312.375 162.228 312.603 162.031 312.857 161.812C313.592 161.176 314.151 160.593 314.534 160.062C314.906 159.519 315.122 159 315.182 158.506C315.231 157.998 315.131 157.486 314.884 156.969C314.638 156.429 314.257 155.86 313.742 155.265C313.271 154.72 312.819 154.313 312.387 154.044C311.957 153.751 311.505 153.599 311.03 153.589C310.545 153.565 310.018 153.711 309.448 154.026C308.881 154.318 308.229 154.781 307.494 155.417C307.329 155.56 307.164 155.702 307 155.844C306.835 155.987 306.656 156.152 306.465 156.34C306.262 156.516 306.026 156.73 305.759 156.984C305.491 157.238 305.184 157.536 304.838 157.879Z" fill="black"/>
<path d="M336.048 150.191C335.758 150.493 335.401 150.743 334.979 150.941C334.58 151.139 334.097 151.279 333.53 151.362C332.962 151.445 332.311 151.47 331.576 151.437C330.852 151.393 330.02 151.291 329.081 151.132C328.141 150.974 327.094 150.746 325.938 150.45C325.822 150.594 325.678 150.757 325.503 150.939C325.329 151.12 325.184 151.271 325.068 151.392C324.743 151.73 324.401 152.087 324.041 152.462C323.681 152.836 323.321 153.199 322.961 153.55L327.911 158.303L326.397 159.88L313.668 147.66C314.143 147.093 314.588 146.58 315.006 146.121C315.411 145.651 315.799 145.21 316.17 144.8C316.541 144.389 316.924 143.979 317.318 143.568C318.212 142.637 319.038 141.909 319.798 141.384C320.546 140.847 321.262 140.513 321.946 140.38C322.631 140.248 323.308 140.317 323.977 140.588C324.634 140.847 325.307 141.307 325.996 141.969C326.746 142.688 327.27 143.413 327.569 144.141C327.868 144.846 327.966 145.567 327.862 146.304C327.747 147.029 327.472 147.776 327.037 148.543C328.168 148.816 329.168 149.009 330.035 149.122C330.903 149.235 331.644 149.285 332.26 149.272C332.864 149.248 333.367 149.185 333.768 149.082C334.168 148.955 334.473 148.783 334.682 148.565C334.705 148.541 334.745 148.499 334.803 148.438C334.849 148.366 334.884 148.306 334.906 148.258L336.446 149.667C336.4 149.739 336.348 149.817 336.291 149.901C336.233 149.985 336.152 150.082 336.048 150.191ZM324.024 149.867C324.604 149.262 325.055 148.696 325.376 148.168C325.697 147.64 325.888 147.138 325.95 146.663C326.011 146.164 325.936 145.686 325.725 145.228C325.502 144.758 325.137 144.28 324.629 143.792C323.976 143.166 323.352 142.775 322.756 142.622C322.172 142.456 321.552 142.545 320.895 142.891C320.239 143.236 319.481 143.856 318.622 144.75C318.39 144.992 318.181 145.209 317.995 145.403C317.821 145.584 317.659 145.765 317.509 145.946C317.358 146.127 317.191 146.326 317.005 146.543C316.82 146.736 316.617 146.972 316.398 147.249L321.619 152.262C321.852 152.044 322.073 151.838 322.282 151.644C322.48 151.439 322.677 151.245 322.875 151.063C323.072 150.858 323.264 150.658 323.449 150.465C323.635 150.272 323.827 150.072 324.024 149.867Z" fill="black"/>
<path d="M338.336 146.832L324.81 135.579L326.193 133.917L339.719 145.171L338.336 146.832Z" fill="black"/>
<path d="M346.691 136.104L328.914 130.74L330.169 128.793L345.678 133.818L336.037 120.691L337.495 118.892L348.151 134.089L346.691 136.104Z" fill="black"/>
<path d="M352.647 127.519L340.505 113.209L341.758 111.118L360.115 115.057L358.888 117.105L354.21 116.06L350.683 121.946L353.81 125.578L352.647 127.519ZM349.363 120.628L352.438 115.496L342.923 113.281L349.363 120.628Z" fill="black"/>
<path d="M352.495 94.862L350.12 99.7164L364.186 106.598L363.236 108.54L349.17 101.658L346.795 106.513L345.056 105.662L350.756 94.0115L352.495 94.862Z" fill="black"/>
<path d="M368.127 97.811L351.736 91.4149L355.793 81.0182L357.596 81.7218L354.334 90.0813L359.486 92.0915L362.528 84.294L364.308 84.9884L361.265 92.7859L367.119 95.0702L370.536 86.3127L372.34 87.0162L368.127 97.811Z" fill="black"/>
<path d="M362.21 59.2077L363.765 60.05C363.596 60.3194 363.425 60.6316 363.253 60.9864C363.065 61.3373 362.888 61.7084 362.725 62.0998C362.561 62.4911 362.413 62.8864 362.282 63.2857C362.151 63.6849 362.042 64.0637 361.955 64.422C361.651 65.676 361.653 66.7368 361.96 67.6043C362.254 68.4516 362.833 68.9798 363.696 69.189C364.087 69.2837 364.465 69.2891 364.831 69.2052C365.183 69.101 365.542 68.9033 365.905 68.6122C366.257 68.3007 366.636 67.8753 367.042 67.3359C367.449 66.7965 367.905 66.1225 368.411 65.3142C368.934 64.4406 369.444 63.7196 369.944 63.151C370.428 62.5785 370.914 62.1361 371.404 61.8237C371.881 61.491 372.386 61.2943 372.918 61.2336C373.437 61.1526 374.007 61.1871 374.625 61.337C375.603 61.5738 376.37 62.0357 376.928 62.7226C377.489 63.3932 377.839 64.2625 377.977 65.3304C378.098 66.3943 377.987 67.6347 377.644 69.0516C377.534 69.5076 377.389 69.9984 377.21 70.524C377.031 71.0496 376.833 71.5793 376.618 72.1133C376.386 72.6433 376.152 73.147 375.915 73.6242C375.667 74.0812 375.426 74.4711 375.192 74.7939L373.644 73.9272C373.881 73.5881 374.114 73.1963 374.342 72.7516C374.571 72.3069 374.787 71.8421 374.991 71.3569C375.194 70.8718 375.38 70.3909 375.547 69.9141C375.718 69.4211 375.855 68.9629 375.958 68.5395C376.187 67.5949 376.272 66.7794 376.214 66.093C376.161 65.3902 375.97 64.8267 375.641 64.4023C375.301 63.9577 374.846 63.6663 374.276 63.5282C373.868 63.4295 373.478 63.4384 373.105 63.5549C372.732 63.6714 372.366 63.9017 372.007 64.2457C371.631 64.5857 371.234 65.0499 370.816 65.6382C370.401 66.2102 369.931 66.9065 369.404 67.7273C368.886 68.5154 368.389 69.1795 367.913 69.7194C367.437 70.2593 366.957 70.6773 366.471 70.9735C365.989 71.2533 365.489 71.4337 364.969 71.5147C364.453 71.5794 363.894 71.5388 363.292 71.3927C362.624 71.2309 362.047 70.9445 361.56 70.5335C361.057 70.1185 360.665 69.6011 360.385 68.9813C360.104 68.3615 359.952 67.6351 359.93 66.802C359.895 65.9488 360 65.0173 360.245 64.0076C360.387 63.4213 360.574 62.8286 360.805 62.2295C361.02 61.6264 361.252 61.0618 361.5 60.5358C361.736 59.9894 361.973 59.5468 362.21 59.2077Z" fill="black"/>
<path d="M379.394 59.9669L362.748 51.2994L363.119 48.8897L381.605 45.6079L381.242 47.968L376.516 48.7659L375.471 55.548L379.738 57.7311L379.394 59.9669ZM373.751 54.8253L374.662 48.9128L365.015 50.4532L373.751 54.8253Z" fill="black"/>
<path d="M381.759 42.2939L364.207 41.0653L364.359 38.8839L380.006 39.9791L380.597 31.5291L382.503 31.6625L381.759 42.2939Z" fill="black"/>
<path d="M382.504 27.3585L364.91 27.5536L364.786 16.3941L366.722 16.3726L366.821 25.3455L372.35 25.2842L372.258 16.9146L374.168 16.8934L374.261 25.263L380.544 25.1933L380.44 15.7932L382.375 15.7718L382.504 27.3585Z" fill="black"/>
<path d="M363.994 2.47684L365.738 2.7668C365.666 3.07654 365.607 3.42719 365.559 3.81877C365.496 4.21192 365.45 4.62018 365.423 5.04354C365.395 5.46691 365.384 5.88871 365.39 6.30893C365.396 6.72915 365.417 7.12278 365.451 7.4898C365.572 8.77439 365.919 9.7768 366.492 10.497C367.047 11.2021 367.766 11.513 368.65 11.4296C369.051 11.3918 369.41 11.2738 369.728 11.0755C370.028 10.8621 370.302 10.5585 370.551 10.1647C370.782 9.75585 371.001 9.23019 371.21 8.58775C371.419 7.9453 371.631 7.15948 371.846 6.23027C372.055 5.23434 372.303 4.38619 372.591 3.68583C372.862 2.98704 373.178 2.41023 373.539 1.9554C373.881 1.48545 374.294 1.13512 374.778 0.904409C375.242 0.658585 375.792 0.505779 376.426 0.445992C377.427 0.35159 378.303 0.538277 379.054 1.00605C379.803 1.45714 380.417 2.16509 380.895 3.12988C381.357 4.09625 381.656 5.30514 381.793 6.75656C381.837 7.22369 381.86 7.73488 381.862 8.29014C381.863 8.8454 381.849 9.41057 381.82 9.98566C381.773 10.5623 381.716 11.1147 381.648 11.6429C381.561 12.156 381.46 12.6031 381.345 12.9843L379.598 12.6693C379.712 12.2715 379.805 11.8251 379.876 11.3303C379.947 10.8355 380 10.3256 380.035 9.80052C380.069 9.27548 380.088 8.76035 380.091 8.25514C380.092 7.73325 380.072 7.25542 380.032 6.82167C379.94 5.85405 379.756 5.05515 379.477 4.42497C379.197 3.7781 378.833 3.30751 378.385 3.01318C377.918 2.70374 377.393 2.57656 376.809 2.63163C376.392 2.67096 376.026 2.80646 375.711 3.03812C375.396 3.26979 375.125 3.60674 374.897 4.04899C374.653 4.49281 374.429 5.06097 374.225 5.75347C374.019 6.42928 373.801 7.24091 373.571 8.18837C373.337 9.10246 373.084 9.89222 372.81 10.5576C372.536 11.2231 372.218 11.7749 371.855 12.213C371.491 12.6345 371.076 12.9681 370.611 13.2139C370.145 13.4431 369.603 13.5868 368.986 13.645C368.302 13.7095 367.663 13.6267 367.069 13.3966C366.458 13.168 365.919 12.8065 365.452 12.312C364.984 11.8174 364.604 11.18 364.312 10.3997C364.001 9.60424 363.797 8.68935 363.7 7.655C363.643 7.05442 363.626 6.43321 363.65 5.79139C363.657 5.15114 363.692 4.5419 363.755 3.96367C363.8 3.37032 363.88 2.87471 363.994 2.47684Z" fill="black"/>
</svg>
