<svg width="62" height="63" viewBox="0 0 62 63" fill="none" xmlns="http://www.w3.org/2000/svg">
<path fill-rule="evenodd" clip-rule="evenodd" d="M36.168 16.0003V10.8337H25.8346V16.0003H36.168ZM10.3346 21.167V49.5837H51.668V21.167H10.3346ZM51.668 16.0003C54.5355 16.0003 56.8346 18.2995 56.8346 21.167V49.5837C56.8346 52.4512 54.5355 54.7503 51.668 54.7503H10.3346C7.46714 54.7503 5.16797 52.4512 5.16797 49.5837L5.1938 21.167C5.1938 18.2995 7.46714 16.0003 10.3346 16.0003H20.668V10.8337C20.668 7.96616 22.9671 5.66699 25.8346 5.66699H36.168C39.0355 5.66699 41.3346 7.96616 41.3346 10.8337V16.0003H51.668Z" fill="black"/>
</svg>
