<svg width="1090" height="638" viewBox="0 0 1090 638" fill="none" xmlns="http://www.w3.org/2000/svg">
<mask id="mask0_2_313" style="mask-type:alpha" maskUnits="userSpaceOnUse" x="0" y="0" width="1090" height="638">
<rect x="0.0976562" y="0.481445" width="1089.13" height="636.575" fill="#C4C4C4"/>
</mask>
<g mask="url(#mask0_2_313)">
<path d="M1033.14 457.29C1033.14 686.242 873.541 871.712 676.819 871.712C480.098 871.712 320.5 686.242 320.5 457.29C320.5 228.338 480.098 42.8682 676.819 42.8682C873.541 42.8682 1033.14 228.338 1033.14 457.29Z" stroke="#BF9C06"/>
<path d="M895.31 460.735C895.31 689.687 735.712 875.157 538.991 875.157C342.269 875.157 182.672 689.687 182.672 460.735C182.672 231.783 342.269 46.3135 538.991 46.3135C735.712 46.3135 895.31 231.783 895.31 460.735Z" stroke="#BF9C06"/>
<path d="M755.759 457.873C755.759 686.825 596.162 872.295 399.44 872.295C202.719 872.295 43.1211 686.825 43.1211 457.873C43.1211 228.921 202.719 43.4512 399.44 43.4512C596.162 43.4512 755.759 228.921 755.759 457.873Z" stroke="#BF9C06"/>
</g>
</svg>
