<svg width="43" height="43" viewBox="0 0 43 43" fill="none" xmlns="http://www.w3.org/2000/svg">
<path fill-rule="evenodd" clip-rule="evenodd" d="M9.66001 0.753906C7.13324 0.753906 4.70996 1.75766 2.92326 3.54436C1.13657 5.33105 0.132813 7.75433 0.132812 10.2811C0.132813 12.8079 1.13657 15.2312 2.92326 17.0178C4.70996 18.8045 7.13324 19.8083 9.66001 19.8083C12.1868 19.8083 14.6101 18.8045 16.3968 17.0178C18.1835 15.2312 19.1872 12.8079 19.1872 10.2811C19.1872 7.75433 18.1835 5.33105 16.3968 3.54436C14.6101 1.75766 12.1868 0.753906 9.66001 0.753906ZM3.94369 10.2811C3.94369 8.76504 4.54594 7.31107 5.61796 6.23906C6.68998 5.16704 8.14395 4.56479 9.66001 4.56479C11.1761 4.56479 12.63 5.16704 13.7021 6.23906C14.7741 7.31107 15.3763 8.76504 15.3763 10.2811C15.3763 11.7972 14.7741 13.2511 13.7021 14.3232C12.63 15.3952 11.1761 15.9974 9.66001 15.9974C8.14395 15.9974 6.68998 15.3952 5.61796 14.3232C4.54594 13.2511 3.94369 11.7972 3.94369 10.2811ZM32.5253 0.753906C29.9985 0.753906 27.5752 1.75766 25.7885 3.54436C24.0018 5.33105 22.9981 7.75433 22.9981 10.2811C22.9981 12.8079 24.0018 15.2312 25.7885 17.0178C27.5752 18.8045 29.9985 19.8083 32.5253 19.8083C35.0521 19.8083 37.4753 18.8045 39.262 17.0178C41.0487 15.2312 42.0525 12.8079 42.0525 10.2811C42.0525 7.75433 41.0487 5.33105 39.262 3.54436C37.4753 1.75766 35.0521 0.753906 32.5253 0.753906ZM26.809 10.2811C26.809 8.76504 27.4112 7.31107 28.4832 6.23906C29.5553 5.16704 31.0092 4.56479 32.5253 4.56479C34.0413 4.56479 35.4953 5.16704 36.5673 6.23906C37.6394 7.31107 38.2416 8.76504 38.2416 10.2811C38.2416 11.7972 37.6394 13.2511 36.5673 14.3232C35.4953 15.3952 34.0413 15.9974 32.5253 15.9974C31.0092 15.9974 29.5553 15.3952 28.4832 14.3232C27.4112 13.2511 26.809 11.7972 26.809 10.2811ZM0.132812 33.1464C0.132813 30.6196 1.13657 28.1963 2.92326 26.4096C4.70996 24.6229 7.13324 23.6192 9.66001 23.6192C12.1868 23.6192 14.6101 24.6229 16.3968 26.4096C18.1835 28.1963 19.1872 30.6196 19.1872 33.1464C19.1872 35.6731 18.1835 38.0964 16.3968 39.8831C14.6101 41.6698 12.1868 42.6736 9.66001 42.6736C7.13324 42.6736 4.70996 41.6698 2.92326 39.8831C1.13657 38.0964 0.132812 35.6731 0.132812 33.1464ZM9.66001 27.4301C8.14395 27.4301 6.68998 28.0323 5.61796 29.1043C4.54594 30.1763 3.94369 31.6303 3.94369 33.1464C3.94369 34.6624 4.54594 36.1164 5.61796 37.1884C6.68998 38.2604 8.14395 38.8627 9.66001 38.8627C11.1761 38.8627 12.63 38.2604 13.7021 37.1884C14.7741 36.1164 15.3763 34.6624 15.3763 33.1464C15.3763 31.6303 14.7741 30.1763 13.7021 29.1043C12.63 28.0323 11.1761 27.4301 9.66001 27.4301ZM32.5253 23.6192C29.9985 23.6192 27.5752 24.6229 25.7885 26.4096C24.0018 28.1963 22.9981 30.6196 22.9981 33.1464C22.9981 35.6731 24.0018 38.0964 25.7885 39.8831C27.5752 41.6698 29.9985 42.6736 32.5253 42.6736C35.0521 42.6736 37.4753 41.6698 39.262 39.8831C41.0487 38.0964 42.0525 35.6731 42.0525 33.1464C42.0525 30.6196 41.0487 28.1963 39.262 26.4096C37.4753 24.6229 35.0521 23.6192 32.5253 23.6192ZM26.809 33.1464C26.809 31.6303 27.4112 30.1763 28.4832 29.1043C29.5553 28.0323 31.0092 27.4301 32.5253 27.4301C34.0413 27.4301 35.4953 28.0323 36.5673 29.1043C37.6394 30.1763 38.2416 31.6303 38.2416 33.1464C38.2416 34.6624 37.6394 36.1164 36.5673 37.1884C35.4953 38.2604 34.0413 38.8627 32.5253 38.8627C31.0092 38.8627 29.5553 38.2604 28.4832 37.1884C27.4112 36.1164 26.809 34.6624 26.809 33.1464Z" fill="black"/>
</svg>
