<svg width="58" height="42" viewBox="0 0 58 42" fill="none" xmlns="http://www.w3.org/2000/svg">
<path d="M38.7643 27.2902C38.7643 28.2453 38.3849 29.1612 37.7096 29.8365C37.0342 30.5118 36.1183 30.8912 35.1633 30.8912C34.2082 30.8912 33.2923 30.5118 32.617 29.8365C31.9416 29.1612 31.5623 28.2453 31.5623 27.2902C31.5623 26.3352 31.9416 25.4192 32.617 24.7439C33.2923 24.0686 34.2082 23.6892 35.1633 23.6892C36.1183 23.6892 37.0342 24.0686 37.7096 24.7439C38.3849 25.4192 38.7643 26.3352 38.7643 27.2902ZM42.3653 21.2885C42.8382 21.2885 43.3064 21.1954 43.7433 21.0144C44.1802 20.8335 44.5772 20.5682 44.9116 20.2338C45.246 19.8994 45.5112 19.5025 45.6922 19.0656C45.8731 18.6287 45.9663 18.1604 45.9663 17.6875C45.9663 17.2146 45.8731 16.7464 45.6922 16.3095C45.5112 15.8726 45.246 15.4756 44.9116 15.1412C44.5772 14.8068 44.1802 14.5416 43.7433 14.3606C43.3064 14.1797 42.8382 14.0865 42.3653 14.0865C41.4102 14.0865 40.4943 14.4659 39.819 15.1412C39.1437 15.8165 38.7643 16.7325 38.7643 17.6875C38.7643 18.6426 39.1437 19.5585 39.819 20.2338C40.4943 20.9091 41.4102 21.2885 42.3653 21.2885ZM8.75587 20.6884C8.75587 20.2108 8.94556 19.7529 9.28322 19.4152C9.62088 19.0776 10.0788 18.8879 10.5564 18.8879H14.7576V14.6867C14.7576 14.2092 14.9472 13.7512 15.2849 13.4135C15.6226 13.0759 16.0805 12.8862 16.5581 12.8862C17.0356 12.8862 17.4935 13.0759 17.8312 13.4135C18.1689 13.7512 18.3586 14.2092 18.3586 14.6867V18.8879H22.5597C23.0373 18.8879 23.4952 19.0776 23.8329 19.4152C24.1705 19.7529 24.3602 20.2108 24.3602 20.6884C24.3602 21.1659 24.1705 21.6238 23.8329 21.9615C23.4952 22.2992 23.0373 22.4889 22.5597 22.4889H18.3586V26.6924C18.3586 27.17 18.1689 27.6279 17.8312 27.9656C17.4935 28.3033 17.0356 28.4929 16.5581 28.4929C16.0805 28.4929 15.6226 28.3033 15.2849 27.9656C14.9472 27.6279 14.7576 27.17 14.7576 26.6924V22.4889H10.5564C10.0788 22.4889 9.62088 22.2992 9.28322 21.9615C8.94556 21.6238 8.75587 21.1659 8.75587 20.6884ZM0.353516 21.2885C0.353516 15.8766 2.5034 10.6863 6.33021 6.85951C10.157 3.03269 15.3473 0.882813 20.7592 0.882812H37.5639C42.9759 0.882813 48.1661 3.03269 51.993 6.85951C55.8198 10.6863 57.9697 15.8766 57.9697 21.2885C57.9697 26.7005 55.8198 31.8907 51.993 35.7175C48.1661 39.5444 42.9759 41.6942 37.5639 41.6942H20.7592C15.3473 41.6942 10.157 39.5444 6.33021 35.7175C2.5034 31.8907 0.353516 26.7005 0.353516 21.2885ZM20.7592 4.48382C16.3023 4.48382 12.028 6.25431 8.87651 9.40581C5.72502 12.5573 3.95452 16.8316 3.95452 21.2885C3.95452 25.7454 5.72502 30.0198 8.87651 33.1712C12.028 36.3227 16.3023 38.0932 20.7592 38.0932H37.5639C42.0208 38.0932 46.2952 36.3227 49.4467 33.1712C52.5982 30.0198 54.3686 25.7454 54.3686 21.2885C54.3686 16.8316 52.5982 12.5573 49.4467 9.40581C46.2952 6.25431 42.0208 4.48382 37.5639 4.48382H20.7592Z" fill="black"/>
</svg>
